<svg width="162" height="34" viewBox="0 0 162 34" fill="none" xmlns="http://www.w3.org/2000/svg">
<path d="M1.76424 0.355072C1.40806 -0.0670078 0.777153 -0.120427 0.355072 0.235756C-0.0670078 0.59194 -0.120427 1.22285 0.235756 1.64493L1.76424 0.355072ZM161 0.981321C160.989 0.429136 160.533 -0.00998342 159.981 0.000520408L150.983 0.17169C150.43 0.182194 149.991 0.638343 150.002 1.19053C150.012 1.74271 150.468 2.18183 151.021 2.17133L159.019 2.01918L159.171 10.0177C159.182 10.5699 159.638 11.009 160.19 10.9985C160.742 10.988 161.181 10.5319 161.171 9.97969L161 0.981321ZM0.235756 1.64493C13.9117 17.8511 41.4403 30.916 71.7621 33.4365C102.125 35.9604 135.467 27.9269 160.72 1.69387L159.28 0.306809C134.533 26.0129 101.834 33.9293 71.9278 31.4433C41.9795 28.9539 15.0081 16.0491 1.76424 0.355072L0.235756 1.64493Z" fill="#F46B5D"/>
</svg>
