<svg width="32" height="32" viewBox="0 0 32 32" fill="none" xmlns="http://www.w3.org/2000/svg">
<rect x="1" y="1" width="30" height="30" rx="15" fill="#FFD663"/>
<path fill-rule="evenodd" clip-rule="evenodd" d="M1.07406 14.5C1.02508 14.9934 1 15.4938 1 16C1 24.2843 7.71573 31 16 31C24.2843 31 31 24.2843 31 16C31 15.4937 30.9749 14.9934 30.9259 14.5C30.1733 22.08 23.778 28 16 28C8.22198 28 1.82665 22.08 1.07406 14.5Z" fill="#FFD04C"/>
<circle cx="5.5" cy="16.5" r="2.5" fill="#FF759B" fill-opacity="0.2"/>
<circle cx="26.5" cy="16.5" r="2.5" fill="#FF759B" fill-opacity="0.2"/>
<path fill-rule="evenodd" clip-rule="evenodd" d="M11.684 19.0511C12.208 18.8765 12.7743 19.1596 12.949 19.6836C13.3514 20.8908 14.4358 21.9998 16.0003 21.9998C17.5647 21.9998 18.6492 20.8908 19.0516 19.6836C19.2262 19.1596 19.7926 18.8765 20.3165 19.0511C20.8404 19.2257 21.1236 19.7921 20.949 20.316C20.3514 22.1088 18.6464 23.9998 16.0003 23.9998C13.3542 23.9998 11.6492 22.1088 11.0516 20.316C10.8769 19.7921 11.1601 19.2257 11.684 19.0511Z" fill="#52565F"/>
<circle cx="11" cy="13" r="2" fill="#52565F"/>
<circle cx="21" cy="13" r="2" fill="#52565F"/>
</svg>
