<svg width="32" height="32" viewBox="0 0 32 32" fill="none" xmlns="http://www.w3.org/2000/svg">
<rect x="1" y="1" width="30" height="30" rx="15" fill="#FFD663"/>
<path fill-rule="evenodd" clip-rule="evenodd" d="M1.07406 14.5C1.02508 14.9934 1 15.4938 1 16C1 24.2843 7.71573 31 16 31C24.2843 31 31 24.2843 31 16C31 15.4937 30.9749 14.9934 30.9259 14.5C30.1733 22.08 23.778 28 16 28C8.22198 28 1.82665 22.08 1.07406 14.5Z" fill="#FFD04C"/>
<circle cx="5.5" cy="18.5" r="2.5" fill="#FF759B" fill-opacity="0.2"/>
<circle cx="26.5" cy="18.5" r="2.5" fill="#FF759B" fill-opacity="0.2"/>
<path fill-rule="evenodd" clip-rule="evenodd" d="M24.4292 20.0969C24.9281 20.3338 25.1405 20.9303 24.9036 21.4292C24.0074 23.3167 22.6177 24.3052 21.225 24.7314C19.8716 25.1455 18.5511 25.0207 17.7076 24.7625C17.1795 24.6009 16.8824 24.0418 17.044 23.5137C17.2056 22.9856 17.7648 22.6885 18.2929 22.8501C18.8079 23.0077 19.7176 23.1011 20.6397 22.8189C21.5224 22.5488 22.4535 21.9263 23.0969 20.5713C23.3338 20.0724 23.9303 19.86 24.4292 20.0969Z" fill="#52565F"/>
<path fill-rule="evenodd" clip-rule="evenodd" d="M20.0083 7.39132C19.6107 7.00797 19.5992 6.37491 19.9826 5.97735C20.8068 5.12257 22.0938 5.00531 23.0887 5.2159C24.0992 5.42979 25.2406 6.07152 25.6628 7.26504C25.8469 7.78572 25.5741 8.3571 25.0534 8.54126C24.5328 8.72542 23.9614 8.45262 23.7772 7.93194C23.6721 7.63482 23.2956 7.30402 22.6745 7.17255C22.0378 7.03777 21.5797 7.20232 21.4223 7.36559C21.0389 7.76316 20.4059 7.77468 20.0083 7.39132Z" fill="#52565F"/>
<path d="M8.35484 19C16 19 14 11 16 11C18 11 17 19 24.1048 19C29.0645 19 29.879 14.7381 30 12L31 11.3809V9H24.4677C20 9 19 10 16 10C13 10 11.9355 9 7.96774 9H1V11.5L2 12C2 15 3.06452 19 8.35484 19Z" fill="#52565F"/>
<path d="M9 10.0001L4 16.0001C4 16.0001 4.54592 16.6857 5 17.0001C5.35899 17.2486 6 17.5001 6 17.5001L11 10.5C11 10.5 10.6667 10.1483 10 10.0001C9.61879 9.91529 9 10.0001 9 10.0001Z" fill="#5F646F"/>
<path d="M25 10L20 16C20 16 20.5459 16.6856 21 17C21.359 17.2485 22 17.5 22 17.5L27 10H25Z" fill="#5F646F"/>
</svg>
