<svg width="41" height="40" viewBox="0 0 41 40" fill="none" xmlns="http://www.w3.org/2000/svg">
<path d="M20.3262 36C29.1513 36 36.3028 28.8351 36.3028 20C36.3028 11.1649 29.1513 4 20.3262 4C11.5011 4 4.34961 11.1649 4.34961 20C4.34961 28.8351 11.5011 36 20.3262 36Z" stroke="#F46B5D" stroke-width="2" stroke-linecap="round"/>
<path d="M15.334 18.5833C16.3915 18.5833 17.2481 17.7248 17.2481 16.6667C17.2481 15.6085 16.3915 14.75 15.334 14.75C14.2765 14.75 13.4199 15.6085 13.4199 16.6667C13.4199 17.7248 14.2765 18.5833 15.334 18.5833Z" fill="#F46B5D" stroke="#F46B5D" stroke-width="0.5" stroke-linecap="round"/>
<path d="M25.3184 18.5833C26.3758 18.5833 27.2324 17.7248 27.2324 16.6667C27.2324 15.6085 26.3758 14.75 25.3184 14.75C24.2609 14.75 23.4043 15.6085 23.4043 16.6667C23.4043 17.7248 24.2609 18.5833 25.3184 18.5833Z" fill="#F46B5D" stroke="#F46B5D" stroke-width="0.5" stroke-linecap="round"/>
<path fill-rule="evenodd" clip-rule="evenodd" d="M14.3256 25C14.0478 25 13.9089 25 13.8338 25.0992C13.7588 25.1983 13.7942 25.3236 13.865 25.574C14.5835 28.1158 17.2038 30 20.3263 30C23.4487 30 26.069 28.1158 26.7875 25.574C26.8583 25.3236 26.8937 25.1983 26.8187 25.0992C26.7437 25 26.6047 25 26.3269 25H14.3256Z" fill="#F46B5D"/>
</svg>
