<svg width="39" height="39" viewBox="0 0 39 39" fill="none" xmlns="http://www.w3.org/2000/svg">
<path d="M33.2779 18.7395C33.2833 20.8328 32.7947 22.8979 31.8517 24.7664C30.7336 27.0055 29.0147 28.8888 26.8876 30.2054C24.7605 31.522 22.3092 32.2198 19.8082 32.2208C17.7167 32.2263 15.6534 31.7372 13.7865 30.7934L4.75391 33.8068L7.76477 24.7664C6.82178 22.8979 6.33312 20.8328 6.33857 18.7395C6.33954 16.2363 7.03679 13.7828 8.35223 11.6539C9.66768 9.52495 11.5494 7.8046 13.7865 6.68554C15.6534 5.74174 17.7167 5.25264 19.8082 5.2581H20.6006C23.9035 5.44048 27.0233 6.83583 29.3624 9.17699C31.7015 11.5181 33.0956 14.6406 33.2779 17.9464V18.7395Z" stroke="#AFB1B6" stroke-width="2" stroke-linecap="round" stroke-linejoin="round"/>
</svg>
