<svg width="27" height="28" viewBox="0 0 27 28" fill="none" xmlns="http://www.w3.org/2000/svg">
<mask id="path-1-inside-1_783_2858" fill="white">
<path fill-rule="evenodd" clip-rule="evenodd" d="M17.8609 15.1145C17.9517 14.7581 18 14.3847 18 14C18 11.5147 15.9853 9.5 13.5 9.5C13.1153 9.5 12.7419 9.54827 12.3855 9.63908L13.2549 10.5085C13.3359 10.5028 13.4176 10.5 13.5 10.5C15.433 10.5 17 12.067 17 14C17 14.0824 16.9972 14.1641 16.9915 14.2451L17.8609 15.1145ZM10.5774 12.0736C10.2124 12.6261 10 13.2883 10 14C10 15.933 11.567 17.5 13.5 17.5C14.2117 17.5 14.8739 17.2876 15.4264 16.9226L16.1449 17.6411C15.4024 18.1813 14.4884 18.5 13.5 18.5C11.0147 18.5 9 16.4853 9 14C9 13.0116 9.31869 12.0976 9.85891 11.3551L10.5774 12.0736Z"/>
</mask>
<path fill-rule="evenodd" clip-rule="evenodd" d="M17.8609 15.1145C17.9517 14.7581 18 14.3847 18 14C18 11.5147 15.9853 9.5 13.5 9.5C13.1153 9.5 12.7419 9.54827 12.3855 9.63908L13.2549 10.5085C13.3359 10.5028 13.4176 10.5 13.5 10.5C15.433 10.5 17 12.067 17 14C17 14.0824 16.9972 14.1641 16.9915 14.2451L17.8609 15.1145ZM10.5774 12.0736C10.2124 12.6261 10 13.2883 10 14C10 15.933 11.567 17.5 13.5 17.5C14.2117 17.5 14.8739 17.2876 15.4264 16.9226L16.1449 17.6411C15.4024 18.1813 14.4884 18.5 13.5 18.5C11.0147 18.5 9 16.4853 9 14C9 13.0116 9.31869 12.0976 9.85891 11.3551L10.5774 12.0736Z" fill="#444444"/>
<path d="M17.8609 15.1145L17.5074 15.4681L18.1285 16.0892L18.3454 15.2379L17.8609 15.1145ZM12.3855 9.63908L12.2621 9.15456L11.4108 9.37146L12.032 9.99263L12.3855 9.63908ZM13.2549 10.5085L12.9013 10.862L13.0623 11.023L13.2894 11.0073L13.2549 10.5085ZM16.9915 14.2451L16.4927 14.2106L16.477 14.4377L16.638 14.5987L16.9915 14.2451ZM10.5774 12.0736L10.9946 12.3492L11.2195 12.0086L10.9309 11.72L10.5774 12.0736ZM15.4264 16.9226L15.78 16.5691L15.4914 16.2805L15.1508 16.5054L15.4264 16.9226ZM16.1449 17.6411L16.4391 18.0454L16.9121 17.7012L16.4984 17.2875L16.1449 17.6411ZM9.85891 11.3551L10.2125 11.0016L9.79881 10.5879L9.45462 11.0609L9.85891 11.3551ZM18.3454 15.2379C18.4464 14.8415 18.5 14.4267 18.5 14H17.5C17.5 14.3427 17.457 14.6746 17.3764 14.991L18.3454 15.2379ZM18.5 14C18.5 11.2386 16.2614 9 13.5 9V10C15.7091 10 17.5 11.7909 17.5 14H18.5ZM13.5 9C13.0733 9 12.6585 9.05355 12.2621 9.15456L12.509 10.1236C12.8254 10.043 13.1573 10 13.5 10V9ZM12.032 9.99263L12.9013 10.862L13.6084 10.1549L12.7391 9.28553L12.032 9.99263ZM13.5 10C13.4061 10 13.3128 10.0032 13.2204 10.0096L13.2894 11.0073C13.3589 11.0024 13.4291 11 13.5 11V10ZM17.5 14C17.5 11.7909 15.7091 10 13.5 10V11C15.1569 11 16.5 12.3431 16.5 14H17.5ZM17.4904 14.2796C17.4968 14.1872 17.5 14.0939 17.5 14H16.5C16.5 14.0709 16.4976 14.1411 16.4927 14.2106L17.4904 14.2796ZM16.638 14.5987L17.5074 15.4681L18.2145 14.7609L17.3451 13.8916L16.638 14.5987ZM10.1602 11.798C9.7429 12.4298 9.5 13.1873 9.5 14H10.5C10.5 13.3892 10.682 12.8225 10.9946 12.3492L10.1602 11.798ZM9.5 14C9.5 16.2091 11.2909 18 13.5 18V17C11.8431 17 10.5 15.6569 10.5 14H9.5ZM13.5 18C14.3127 18 15.0702 17.7571 15.702 17.3398L15.1508 16.5054C14.6775 16.818 14.1108 17 13.5 17V18ZM16.4984 17.2875L15.78 16.5691L15.0728 17.2762L15.7913 17.9946L16.4984 17.2875ZM13.5 19C14.5976 19 15.614 18.6457 16.4391 18.0454L15.8507 17.2368C15.1909 17.7169 14.3792 18 13.5 18V19ZM8.5 14C8.5 16.7614 10.7386 19 13.5 19V18C11.2909 18 9.5 16.2091 9.5 14H8.5ZM9.45462 11.0609C8.85428 11.886 8.5 12.9024 8.5 14H9.5C9.5 13.1208 9.78309 12.3091 10.2632 11.6493L9.45462 11.0609ZM10.9309 11.72L10.2125 11.0016L9.50536 11.7087L10.2238 12.4272L10.9309 11.72Z" fill="#444444" mask="url(#path-1-inside-1_783_2858)"/>
<path fill-rule="evenodd" clip-rule="evenodd" d="M18.2944 19.7907L17.5631 19.0594C16.3092 19.7719 14.9324 20.25 13.5 20.25C11.5581 20.25 9.71835 19.3712 8.14825 18.221C6.58258 17.074 5.32973 15.6898 4.5721 14.7558C4.14793 14.233 4.10278 14.1411 4.10278 14C4.10278 13.8589 4.14793 13.767 4.5721 13.2442C5.32973 12.3102 6.58258 10.926 8.14825 9.77903C8.17413 9.76008 8.20007 9.7412 8.2261 9.72239L7.51047 9.00676C5.87173 10.2164 4.57478 11.6535 3.7955 12.6142L3.73599 12.6873C3.40726 13.0906 3.10278 13.4642 3.10278 14C3.10278 14.5358 3.40726 14.9094 3.73599 15.3127L3.79549 15.3858C4.58219 16.3556 5.89643 17.811 7.55729 19.0277C9.21371 20.2411 11.2599 21.25 13.5 21.25C15.247 21.25 16.8761 20.6364 18.2944 19.7907ZM10.1983 7.45197C11.2285 7.0214 12.3382 6.75 13.5 6.75C15.7401 6.75 17.7864 7.75889 19.4428 8.97234C21.1037 10.189 22.4179 11.6444 23.2046 12.6142L23.2641 12.6873C23.5928 13.0906 23.8973 13.4642 23.8973 14C23.8973 14.5358 23.5928 14.9094 23.2641 15.3127L23.2046 15.3858C22.6343 16.0889 21.7867 17.0471 20.7309 17.9845L20.0225 17.2761C21.0442 16.3749 21.8703 15.4434 22.428 14.7558C22.8521 14.233 22.8973 14.1411 22.8973 14C22.8973 13.8589 22.8521 13.767 22.428 13.2442C21.6703 12.3102 20.4175 10.926 18.8518 9.77903C17.2817 8.62882 15.442 7.75 13.5 7.75C12.6311 7.75 11.7827 7.92594 10.9697 8.2234L10.1983 7.45197Z" fill="#444444"/>
<path d="M18.2944 19.7907L18.4224 20.0054L18.6982 19.8409L18.4712 19.6139L18.2944 19.7907ZM17.5631 19.0594L17.7399 18.8826L17.6052 18.748L17.4396 18.842L17.5631 19.0594ZM8.14825 18.221L8.00051 18.4226L8.14825 18.221ZM4.5721 14.7558L4.37795 14.9133L4.5721 14.7558ZM4.5721 13.2442L4.37795 13.0867L4.5721 13.2442ZM8.14825 9.77903L8.00051 9.57736V9.57736L8.14825 9.77903ZM8.2261 9.72239L8.37253 9.92501L8.61038 9.75312L8.40287 9.54561L8.2261 9.72239ZM7.51047 9.00676L7.68725 8.82999L7.53511 8.67785L7.362 8.80562L7.51047 9.00676ZM3.7955 12.6142L3.9894 12.772L3.98965 12.7717L3.7955 12.6142ZM3.73599 12.6873L3.92977 12.8452L3.9299 12.8451L3.73599 12.6873ZM3.73599 15.3127L3.9299 15.1549L3.92977 15.1548L3.73599 15.3127ZM3.79549 15.3858L3.98965 15.2283L3.9894 15.228L3.79549 15.3858ZM7.55729 19.0277L7.70503 18.826H7.70503L7.55729 19.0277ZM10.1983 7.45197L10.1019 7.2213L9.75788 7.36509L10.0215 7.62874L10.1983 7.45197ZM19.4428 8.97234L19.5905 8.77066L19.4428 8.97234ZM23.2046 12.6142L23.0104 12.7717L23.0107 12.772L23.2046 12.6142ZM23.2641 12.6873L23.0702 12.8451L23.0703 12.8452L23.2641 12.6873ZM23.2641 15.3127L23.0703 15.1548L23.0702 15.1549L23.2641 15.3127ZM23.2046 15.3858L23.0107 15.228L23.0104 15.2283L23.2046 15.3858ZM20.7309 17.9845L20.5541 18.1613L20.7207 18.3279L20.8969 18.1715L20.7309 17.9845ZM20.0225 17.2761L19.8571 17.0887L19.6575 17.2647L19.8457 17.4529L20.0225 17.2761ZM22.428 14.7558L22.6221 14.9133V14.9133L22.428 14.7558ZM22.428 13.2442L22.6221 13.0867V13.0867L22.428 13.2442ZM18.8518 9.77903L18.9996 9.57736L18.8518 9.77903ZM10.9697 8.2234L10.793 8.40018L10.9058 8.51301L11.0557 8.45818L10.9697 8.2234ZM18.4712 19.6139L17.7399 18.8826L17.3863 19.2362L18.1176 19.9674L18.4712 19.6139ZM13.5 20.5C14.9882 20.5 16.4077 20.0035 17.6866 19.2768L17.4396 18.842C16.2107 19.5403 14.8766 20 13.5 20V20.5ZM8.00051 18.4226C9.59221 19.5887 11.4836 20.5 13.5 20.5V20C11.6326 20 9.8445 19.1537 8.29599 18.0193L8.00051 18.4226ZM4.37795 14.9133C5.14284 15.8562 6.41104 17.2582 8.00051 18.4226L8.29599 18.0193C6.75413 16.8898 5.51662 15.5233 4.76625 14.5983L4.37795 14.9133ZM3.85278 14C3.85278 14.0507 3.857 14.1085 3.87678 14.1752C3.89575 14.2391 3.92574 14.3003 3.96466 14.3645C4.03934 14.4875 4.16788 14.6544 4.37795 14.9133L4.76625 14.5983C4.55215 14.3344 4.44604 14.1939 4.3921 14.1051C4.36671 14.0632 4.3589 14.0423 4.35615 14.033C4.35421 14.0265 4.35278 14.0198 4.35278 14H3.85278ZM4.37795 13.0867C4.16788 13.3456 4.03934 13.5125 3.96466 13.6355C3.92574 13.6997 3.89575 13.7609 3.87678 13.8248C3.857 13.8915 3.85278 13.9493 3.85278 14H4.35278C4.35278 13.9802 4.35421 13.9735 4.35615 13.967C4.3589 13.9577 4.36671 13.9368 4.3921 13.8949C4.44604 13.8061 4.55215 13.6656 4.76625 13.4017L4.37795 13.0867ZM8.00051 9.57736C6.41104 10.7418 5.14284 12.1438 4.37795 13.0867L4.76625 13.4017C5.51662 12.4767 6.75413 11.1102 8.29599 9.98071L8.00051 9.57736ZM8.07966 9.51976C8.0532 9.53889 8.02681 9.55809 8.00051 9.57736L8.29599 9.98071C8.32144 9.96207 8.34695 9.9435 8.37253 9.92501L8.07966 9.51976ZM8.40287 9.54561L7.68725 8.82999L7.33369 9.18354L8.04932 9.89917L8.40287 9.54561ZM3.98965 12.7717C4.7617 11.8199 6.04353 10.4003 7.65894 9.2079L7.362 8.80562C5.69992 10.0325 4.38787 11.4871 3.60134 12.4567L3.98965 12.7717ZM3.9299 12.8451L3.9894 12.772L3.60159 12.4564L3.54208 12.5295L3.9299 12.8451ZM3.35278 14C3.35278 13.5664 3.59197 13.2597 3.92977 12.8452L3.54221 12.5293C3.22254 12.9215 2.85278 13.3619 2.85278 14H3.35278ZM3.92977 15.1548C3.59197 14.7403 3.35278 14.4336 3.35278 14H2.85278C2.85278 14.6381 3.22254 15.0785 3.54221 15.4707L3.92977 15.1548ZM3.9894 15.228L3.9299 15.1549L3.54208 15.4705L3.60159 15.5436L3.9894 15.228ZM7.70503 18.826C6.06796 17.6267 4.76907 16.1891 3.98965 15.2283L3.60134 15.5433C4.3953 16.5221 5.72489 17.9952 7.40955 19.2293L7.70503 18.826ZM13.5 21C11.3345 21 9.33988 20.0236 7.70503 18.826L7.40955 19.2293C9.08753 20.4586 11.1854 21.5 13.5 21.5V21ZM18.1663 19.5759C16.7729 20.4068 15.1882 21 13.5 21V21.5C15.3059 21.5 16.9793 20.8659 18.4224 20.0054L18.1663 19.5759ZM10.2947 7.68263C11.3007 7.26218 12.3775 7 13.5 7V6.5C12.2989 6.5 11.1563 6.78061 10.1019 7.2213L10.2947 7.68263ZM13.5 7C15.6656 7 17.6602 7.97637 19.295 9.17401L19.5905 8.77066C17.9125 7.54142 15.8147 6.5 13.5 6.5V7ZM19.295 9.17401C20.9321 10.3733 22.231 11.8109 23.0104 12.7717L23.3987 12.4567C22.6048 11.4779 21.2752 10.0048 19.5905 8.77066L19.295 9.17401ZM23.0107 12.772L23.0702 12.8451L23.458 12.5295L23.3985 12.4564L23.0107 12.772ZM23.0703 12.8452C23.4081 13.2597 23.6473 13.5664 23.6473 14H24.1473C24.1473 13.3619 23.7775 12.9215 23.4579 12.5293L23.0703 12.8452ZM23.6473 14C23.6473 14.4336 23.4081 14.7403 23.0703 15.1548L23.4579 15.4707C23.7775 15.0785 24.1473 14.6381 24.1473 14H23.6473ZM23.0702 15.1549L23.0107 15.228L23.3985 15.5436L23.458 15.4705L23.0702 15.1549ZM23.0104 15.2283C22.446 15.9241 21.6078 16.8716 20.5649 17.7976L20.8969 18.1715C21.9657 17.2225 22.8226 16.2536 23.3987 15.5433L23.0104 15.2283ZM19.8457 17.4529L20.5541 18.1613L20.9077 17.8078L20.1993 17.0994L19.8457 17.4529ZM20.1879 17.4636C21.2228 16.5507 22.0584 15.6082 22.6221 14.9133L22.2338 14.5983C21.6821 15.2785 20.8655 16.1991 19.8571 17.0887L20.1879 17.4636ZM22.6221 14.9133C22.8322 14.6544 22.9607 14.4875 23.0354 14.3645C23.0743 14.3003 23.1043 14.2391 23.1233 14.1752C23.1431 14.1085 23.1473 14.0507 23.1473 14H22.6473C22.6473 14.0198 22.6459 14.0265 22.6439 14.033C22.6412 14.0423 22.6334 14.0632 22.608 14.1051C22.554 14.1939 22.4479 14.3344 22.2338 14.5983L22.6221 14.9133ZM23.1473 14C23.1473 13.9493 23.1431 13.8915 23.1233 13.8248C23.1043 13.7609 23.0743 13.6997 23.0354 13.6355C22.9607 13.5125 22.8322 13.3456 22.6221 13.0867L22.2338 13.4017C22.4479 13.6656 22.554 13.8061 22.608 13.8949C22.6334 13.9368 22.6412 13.9577 22.6439 13.967C22.6459 13.9735 22.6473 13.9802 22.6473 14H23.1473ZM22.6221 13.0867C21.8572 12.1438 20.589 10.7418 18.9996 9.57736L18.7041 9.98071C20.246 11.1102 21.4835 12.4767 22.2338 13.4017L22.6221 13.0867ZM18.9996 9.57736C17.4079 8.41133 15.5165 7.5 13.5 7.5V8C15.3675 8 17.1556 8.84632 18.7041 9.98071L18.9996 9.57736ZM13.5 7.5C12.5971 7.5 11.7195 7.68284 10.8838 7.98862L11.0557 8.45818C11.8459 8.16903 12.6652 8 13.5 8V7.5ZM10.0215 7.62874L10.793 8.40018L11.1465 8.04662L10.3751 7.27519L10.0215 7.62874Z" fill="#444444"/>
<path d="M5.625 2.75L23.625 20.75" stroke="#444444" stroke-width="1.5"/>
</svg>
