<svg width="23" height="16" viewBox="0 0 23 16" fill="none" xmlns="http://www.w3.org/2000/svg">
<path fill-rule="evenodd" clip-rule="evenodd" d="M16.2944 13.7907L15.5631 13.0594C14.3092 13.7719 12.9324 14.25 11.5 14.25C9.55807 14.25 7.71835 13.3712 6.14825 12.221C4.58258 11.074 3.32973 9.68979 2.5721 8.75584C2.14793 8.23296 2.10278 8.14114 2.10278 8C2.10278 7.85886 2.14793 7.76704 2.5721 7.24416C3.32973 6.31021 4.58258 4.92599 6.14825 3.77903C6.17413 3.76008 6.20007 3.7412 6.2261 3.72239L5.51047 3.00676C3.87173 4.21639 2.57478 5.65352 1.7955 6.61417L1.73599 6.68729C1.40726 7.0906 1.10278 7.46415 1.10278 8C1.10278 8.53585 1.40726 8.9094 1.73599 9.31271L1.79549 9.38583C2.58219 10.3556 3.89643 11.811 5.55729 13.0277C7.21371 14.2411 9.25995 15.25 11.5 15.25C13.247 15.25 14.8761 14.6364 16.2944 13.7907ZM8.19831 1.45197C9.22851 1.0214 10.3382 0.75 11.5 0.75C13.7401 0.75 15.7864 1.75889 17.4428 2.97234C19.1037 4.18903 20.4179 5.6444 21.2046 6.61417L21.2641 6.68729C21.5928 7.0906 21.8973 7.46415 21.8973 8C21.8973 8.53585 21.5928 8.9094 21.2641 9.31271L21.2046 9.38583C20.6343 10.0889 19.7867 11.0471 18.7309 11.9845L18.0225 11.2761C19.0442 10.3749 19.8703 9.44336 20.428 8.75584C20.8521 8.23296 20.8973 8.14114 20.8973 8C20.8973 7.85886 20.8521 7.76704 20.428 7.24416C19.6703 6.31021 18.4175 4.92599 16.8518 3.77903C15.2817 2.62882 13.442 1.75 11.5 1.75C10.6311 1.75 9.78271 1.92594 8.96975 2.2234L8.19831 1.45197Z" fill="#444444"/>
<path d="M16.2944 13.7907L16.4224 14.0054L16.6982 13.8409L16.4712 13.6139L16.2944 13.7907ZM15.5631 13.0594L15.7399 12.8826L15.6052 12.748L15.4396 12.842L15.5631 13.0594ZM6.14825 12.221L6.00051 12.4226L6.14825 12.221ZM2.5721 8.75584L2.37795 8.91334L2.5721 8.75584ZM2.5721 7.24416L2.37795 7.08666L2.5721 7.24416ZM6.14825 3.77903L6.00051 3.57736V3.57736L6.14825 3.77903ZM6.2261 3.72239L6.37253 3.92501L6.61038 3.75312L6.40287 3.54561L6.2261 3.72239ZM5.51047 3.00676L5.68725 2.82999L5.53511 2.67785L5.362 2.80562L5.51047 3.00676ZM1.7955 6.61417L1.9894 6.77197L1.98965 6.77167L1.7955 6.61417ZM1.73599 6.68729L1.92977 6.84524L1.9299 6.84509L1.73599 6.68729ZM1.73599 9.31271L1.9299 9.15491L1.92977 9.15476L1.73599 9.31271ZM1.79549 9.38583L1.98965 9.22833L1.9894 9.22803L1.79549 9.38583ZM5.55729 13.0277L5.70503 12.826H5.70503L5.55729 13.0277ZM8.19831 1.45197L8.10191 1.2213L7.75788 1.36509L8.02154 1.62874L8.19831 1.45197ZM17.4428 2.97234L17.5905 2.77066L17.4428 2.97234ZM21.2046 6.61417L21.0104 6.77167L21.0107 6.77197L21.2046 6.61417ZM21.2641 6.68729L21.0702 6.84509L21.0703 6.84524L21.2641 6.68729ZM21.2641 9.31271L21.0703 9.15476L21.0702 9.15491L21.2641 9.31271ZM21.2046 9.38583L21.0107 9.22803L21.0104 9.22833L21.2046 9.38583ZM18.7309 11.9845L18.5541 12.1613L18.7207 12.3279L18.8969 12.1715L18.7309 11.9845ZM18.0225 11.2761L17.8571 11.0887L17.6575 11.2647L17.8457 11.4529L18.0225 11.2761ZM20.428 8.75584L20.6221 8.91334V8.91334L20.428 8.75584ZM20.428 7.24416L20.6221 7.08666V7.08666L20.428 7.24416ZM16.8518 3.77903L16.9996 3.57736L16.8518 3.77903ZM8.96975 2.2234L8.79297 2.40018L8.9058 2.51301L9.05565 2.45818L8.96975 2.2234ZM16.4712 13.6139L15.7399 12.8826L15.3863 13.2362L16.1176 13.9674L16.4712 13.6139ZM11.5 14.5C12.9882 14.5 14.4077 14.0035 15.6866 13.2768L15.4396 12.842C14.2107 13.5403 12.8766 14 11.5 14V14.5ZM6.00051 12.4226C7.59221 13.5887 9.48356 14.5 11.5 14.5V14C9.63259 14 7.8445 13.1537 6.29599 12.0193L6.00051 12.4226ZM2.37795 8.91334C3.14284 9.85624 4.41104 11.2582 6.00051 12.4226L6.29599 12.0193C4.75413 10.8898 3.51662 9.52334 2.76625 8.59834L2.37795 8.91334ZM1.85278 8C1.85278 8.05074 1.857 8.10847 1.87678 8.17518C1.89575 8.23914 1.92574 8.30035 1.96466 8.36448C2.03934 8.48751 2.16788 8.65438 2.37795 8.91334L2.76625 8.59834C2.55215 8.33442 2.44604 8.19393 2.3921 8.10505C2.36671 8.06323 2.3589 8.04233 2.35615 8.03304C2.35421 8.0265 2.35278 8.01983 2.35278 8H1.85278ZM2.37795 7.08666C2.16788 7.34562 2.03934 7.51249 1.96466 7.63552C1.92574 7.69965 1.89575 7.76086 1.87678 7.82482C1.857 7.89153 1.85278 7.94926 1.85278 8H2.35278C2.35278 7.98017 2.35421 7.9735 2.35615 7.96696C2.3589 7.95767 2.36671 7.93677 2.3921 7.89495C2.44604 7.80607 2.55215 7.66558 2.76625 7.40166L2.37795 7.08666ZM6.00051 3.57736C4.41104 4.74175 3.14284 6.14376 2.37795 7.08666L2.76625 7.40166C3.51662 6.47666 4.75413 5.11023 6.29599 3.98071L6.00051 3.57736ZM6.07966 3.51976C6.0532 3.53889 6.02681 3.55809 6.00051 3.57736L6.29599 3.98071C6.32144 3.96207 6.34695 3.9435 6.37253 3.92501L6.07966 3.51976ZM6.40287 3.54561L5.68725 2.82999L5.33369 3.18354L6.04932 3.89917L6.40287 3.54561ZM1.98965 6.77167C2.7617 5.81994 4.04353 4.4003 5.65894 3.2079L5.362 2.80562C3.69992 4.03248 2.38787 5.48711 1.60134 6.45667L1.98965 6.77167ZM1.9299 6.84509L1.9894 6.77197L1.60159 6.45637L1.54208 6.52949L1.9299 6.84509ZM1.35278 8C1.35278 7.56642 1.59197 7.25968 1.92977 6.84524L1.54221 6.52934C1.22254 6.92153 0.852783 7.36188 0.852783 8H1.35278ZM1.92977 9.15476C1.59197 8.74032 1.35278 8.43358 1.35278 8H0.852783C0.852783 8.63811 1.22254 9.07847 1.54221 9.47066L1.92977 9.15476ZM1.9894 9.22803L1.9299 9.15491L1.54208 9.47051L1.60159 9.54363L1.9894 9.22803ZM5.70503 12.826C4.06796 11.6267 2.76907 10.1891 1.98965 9.22833L1.60134 9.54333C2.3953 10.5221 3.72489 11.9952 5.40955 13.2293L5.70503 12.826ZM11.5 15C9.33449 15 7.33988 14.0236 5.70503 12.826L5.40955 13.2293C7.08753 14.4586 9.1854 15.5 11.5 15.5V15ZM16.1663 13.5759C14.7729 14.4068 13.1882 15 11.5 15V15.5C13.3059 15.5 14.9793 14.8659 16.4224 14.0054L16.1663 13.5759ZM8.29472 1.68263C9.3007 1.26218 10.3775 1 11.5 1V0.5C10.2989 0.5 9.15633 0.78061 8.10191 1.2213L8.29472 1.68263ZM11.5 1C13.6656 1 15.6602 1.97637 17.295 3.17401L17.5905 2.77066C15.9125 1.54142 13.8147 0.5 11.5 0.5V1ZM17.295 3.17401C18.9321 4.37327 20.231 5.81085 21.0104 6.77167L21.3987 6.45668C20.6048 5.47794 19.2752 4.00479 17.5905 2.77066L17.295 3.17401ZM21.0107 6.77197L21.0702 6.84509L21.458 6.5295L21.3985 6.45637L21.0107 6.77197ZM21.0703 6.84524C21.4081 7.25968 21.6473 7.56642 21.6473 8H22.1473C22.1473 7.36189 21.7775 6.92153 21.4579 6.52934L21.0703 6.84524ZM21.6473 8C21.6473 8.43358 21.4081 8.74032 21.0703 9.15476L21.4579 9.47066C21.7775 9.07847 22.1473 8.63811 22.1473 8H21.6473ZM21.0702 9.15491L21.0107 9.22803L21.3985 9.54363L21.458 9.4705L21.0702 9.15491ZM21.0104 9.22833C20.446 9.92413 19.6078 10.8716 18.5649 11.7976L18.8969 12.1715C19.9657 11.2225 20.8226 10.2536 21.3987 9.54333L21.0104 9.22833ZM17.8457 11.4529L18.5541 12.1613L18.9077 11.8078L18.1993 11.0994L17.8457 11.4529ZM18.1879 11.4636C19.2228 10.5507 20.0584 9.60821 20.6221 8.91334L20.2338 8.59834C19.6821 9.27851 18.8655 10.1991 17.8571 11.0887L18.1879 11.4636ZM20.6221 8.91334C20.8322 8.65438 20.9607 8.48751 21.0354 8.36448C21.0743 8.30035 21.1043 8.23914 21.1233 8.17518C21.1431 8.10847 21.1473 8.05074 21.1473 8H20.6473C20.6473 8.01983 20.6459 8.0265 20.6439 8.03304C20.6412 8.04233 20.6334 8.06323 20.608 8.10506C20.554 8.19393 20.4479 8.33442 20.2338 8.59834L20.6221 8.91334ZM21.1473 8C21.1473 7.94926 21.1431 7.89153 21.1233 7.82482C21.1043 7.76086 21.0743 7.69965 21.0354 7.63552C20.9607 7.51249 20.8322 7.34562 20.6221 7.08666L20.2338 7.40166C20.4479 7.66558 20.554 7.80607 20.608 7.89494C20.6334 7.93677 20.6412 7.95767 20.6439 7.96696C20.6459 7.9735 20.6473 7.98017 20.6473 8H21.1473ZM20.6221 7.08666C19.8572 6.14376 18.589 4.74175 16.9996 3.57736L16.7041 3.98071C18.246 5.11023 19.4835 6.47666 20.2338 7.40166L20.6221 7.08666ZM16.9996 3.57736C15.4079 2.41133 13.5165 1.5 11.5 1.5V2C13.3675 2 15.1556 2.84632 16.7041 3.98071L16.9996 3.57736ZM11.5 1.5C10.5971 1.5 9.71954 1.68284 8.88384 1.98862L9.05565 2.45818C9.84589 2.16903 10.6652 2 11.5 2V1.5ZM8.02154 1.62874L8.79297 2.40018L9.14652 2.04662L8.37509 1.27519L8.02154 1.62874Z" fill="#444444"/>
</svg>
