<svg width="311" height="24" viewBox="0 0 311 24" fill="none" xmlns="http://www.w3.org/2000/svg">
<rect x="90" width="24" height="24" rx="6" fill="#1877F2"/>
<path d="M106.671 15.4688L107.203 12H103.875V9.75C103.875 8.80078 104.339 7.875 105.83 7.875H107.344V4.92188C107.344 4.92188 105.97 4.6875 104.658 4.6875C101.916 4.6875 100.125 6.34922 100.125 9.35625V12H97.0781V15.4688H100.125V23.8547C100.737 23.9508 101.362 24 102 24C102.638 24 103.263 23.9508 103.875 23.8547V15.4688H106.671Z" fill="white"/>
<path d="M131.585 19V5.90909H139.435V7.31534H133.17V11.7386H138.847V13.1449H133.17V19H131.585ZM144.834 19.2301C144.212 19.2301 143.648 19.1129 143.14 18.8786C142.633 18.6399 142.231 18.2969 141.932 17.8494C141.634 17.3977 141.485 16.8523 141.485 16.2131C141.485 15.6506 141.596 15.1946 141.817 14.8452C142.039 14.4915 142.335 14.2145 142.706 14.0142C143.077 13.8139 143.486 13.6648 143.933 13.5668C144.385 13.4645 144.839 13.3835 145.295 13.3239C145.891 13.2472 146.375 13.1896 146.746 13.1513C147.121 13.1087 147.393 13.0384 147.564 12.9403C147.738 12.8423 147.826 12.6719 147.826 12.429V12.3778C147.826 11.7472 147.653 11.2571 147.308 10.9077C146.967 10.5582 146.449 10.3835 145.755 10.3835C145.035 10.3835 144.47 10.5412 144.061 10.8565C143.652 11.1719 143.364 11.5085 143.198 11.8665L141.766 11.3551C142.022 10.7585 142.363 10.294 142.789 9.96165C143.219 9.625 143.688 9.39062 144.195 9.25852C144.706 9.12216 145.209 9.05398 145.704 9.05398C146.019 9.05398 146.381 9.09233 146.79 9.16903C147.204 9.24148 147.602 9.39276 147.986 9.62287C148.373 9.85298 148.695 10.2003 148.951 10.6648C149.206 11.1293 149.334 11.7514 149.334 12.5312V19H147.826V17.6705H147.749C147.647 17.8835 147.476 18.1115 147.238 18.3544C146.999 18.5973 146.682 18.804 146.285 18.9744C145.889 19.1449 145.405 19.2301 144.834 19.2301ZM145.064 17.875C145.661 17.875 146.164 17.7578 146.573 17.5234C146.986 17.2891 147.297 16.9865 147.506 16.6158C147.719 16.245 147.826 15.8551 147.826 15.446V14.0653C147.762 14.142 147.621 14.2124 147.404 14.2763C147.191 14.3359 146.944 14.3892 146.662 14.4361C146.385 14.4787 146.115 14.517 145.851 14.5511C145.591 14.581 145.38 14.6065 145.218 14.6278C144.826 14.679 144.459 14.7621 144.118 14.8771C143.782 14.9879 143.509 15.1562 143.3 15.3821C143.096 15.6037 142.993 15.9062 142.993 16.2898C142.993 16.8139 143.187 17.2102 143.575 17.4787C143.967 17.7429 144.464 17.875 145.064 17.875ZM156.076 19.2045C155.156 19.2045 154.363 18.9872 153.699 18.5526C153.034 18.1179 152.522 17.5192 152.164 16.7564C151.806 15.9936 151.627 15.1222 151.627 14.142C151.627 13.1449 151.811 12.2649 152.177 11.5021C152.548 10.7351 153.064 10.1364 153.724 9.70597C154.389 9.27131 155.164 9.05398 156.051 9.05398C156.741 9.05398 157.363 9.18182 157.917 9.4375C158.471 9.69318 158.925 10.0511 159.279 10.5114C159.632 10.9716 159.852 11.5085 159.937 12.1222H158.429C158.314 11.6747 158.058 11.2784 157.662 10.9332C157.27 10.5838 156.741 10.4091 156.076 10.4091C155.488 10.4091 154.973 10.5625 154.529 10.8693C154.091 11.1719 153.748 11.6001 153.5 12.1541C153.257 12.7038 153.136 13.3494 153.136 14.0909C153.136 14.8494 153.255 15.5099 153.494 16.0724C153.737 16.6349 154.078 17.0717 154.517 17.3828C154.96 17.6939 155.48 17.8494 156.076 17.8494C156.468 17.8494 156.824 17.7812 157.144 17.6449C157.463 17.5085 157.734 17.3125 157.956 17.0568C158.177 16.8011 158.335 16.4943 158.429 16.1364H159.937C159.852 16.7159 159.641 17.2379 159.304 17.7024C158.972 18.1626 158.531 18.5291 157.981 18.8018C157.436 19.0703 156.801 19.2045 156.076 19.2045ZM166.259 19.2045C165.313 19.2045 164.497 18.9957 163.811 18.5781C163.129 18.1562 162.603 17.5682 162.232 16.8139C161.865 16.0554 161.682 15.1733 161.682 14.1676C161.682 13.1619 161.865 12.2756 162.232 11.5085C162.603 10.7372 163.118 10.1364 163.779 9.70597C164.444 9.27131 165.219 9.05398 166.105 9.05398C166.617 9.05398 167.122 9.1392 167.62 9.30966C168.119 9.48011 168.573 9.7571 168.982 10.1406C169.391 10.5199 169.717 11.0227 169.96 11.6491C170.203 12.2756 170.324 13.0469 170.324 13.9631V14.6023H162.756V13.2983H168.79C168.79 12.7443 168.679 12.25 168.458 11.8153C168.24 11.3807 167.929 11.0376 167.525 10.7862C167.124 10.5348 166.651 10.4091 166.105 10.4091C165.505 10.4091 164.985 10.5582 164.546 10.8565C164.111 11.1506 163.777 11.5341 163.542 12.0071C163.308 12.4801 163.191 12.9872 163.191 13.5284V14.3977C163.191 15.1392 163.319 15.7678 163.574 16.2834C163.834 16.7947 164.194 17.1847 164.654 17.4531C165.115 17.7173 165.65 17.8494 166.259 17.8494C166.655 17.8494 167.013 17.794 167.333 17.6832C167.657 17.5682 167.936 17.3977 168.17 17.1719C168.404 16.9418 168.586 16.6562 168.713 16.3153L170.171 16.7244C170.017 17.2188 169.76 17.6534 169.397 18.0284C169.035 18.3991 168.588 18.6889 168.055 18.8977C167.522 19.1023 166.924 19.2045 166.259 19.2045ZM172.824 19V5.90909H174.332V10.7415H174.46C174.571 10.571 174.724 10.3537 174.92 10.0895C175.12 9.82102 175.406 9.58239 175.777 9.37358C176.152 9.16051 176.659 9.05398 177.298 9.05398C178.125 9.05398 178.853 9.26065 179.484 9.67401C180.115 10.0874 180.607 10.6733 180.961 11.4318C181.314 12.1903 181.491 13.0852 181.491 14.1165C181.491 15.1562 181.314 16.0575 180.961 16.8203C180.607 17.5788 180.117 18.1669 179.49 18.5845C178.864 18.9979 178.142 19.2045 177.324 19.2045C176.693 19.2045 176.188 19.1001 175.809 18.8913C175.429 18.6783 175.137 18.4375 174.933 18.169C174.728 17.8963 174.571 17.6705 174.46 17.4915H174.281V19H172.824ZM174.306 14.0909C174.306 14.8324 174.415 15.4865 174.632 16.0533C174.85 16.6158 175.167 17.0568 175.585 17.3764C176.002 17.6918 176.514 17.8494 177.119 17.8494C177.75 17.8494 178.276 17.6832 178.698 17.3509C179.124 17.0142 179.444 16.5625 179.657 15.9957C179.874 15.4247 179.983 14.7898 179.983 14.0909C179.983 13.4006 179.876 12.7784 179.663 12.2244C179.454 11.6662 179.137 11.2251 178.711 10.9013C178.289 10.5732 177.758 10.4091 177.119 10.4091C176.505 10.4091 175.99 10.5646 175.572 10.8757C175.154 11.1825 174.839 11.6129 174.626 12.1669C174.413 12.7166 174.306 13.358 174.306 14.0909ZM187.787 19.2045C186.901 19.2045 186.123 18.9936 185.454 18.5717C184.789 18.1499 184.27 17.5597 183.895 16.8011C183.524 16.0426 183.338 15.1562 183.338 14.142C183.338 13.1193 183.524 12.2266 183.895 11.4638C184.27 10.701 184.789 10.1087 185.454 9.68679C186.123 9.26491 186.901 9.05398 187.787 9.05398C188.674 9.05398 189.449 9.26491 190.114 9.68679C190.783 10.1087 191.303 10.701 191.674 11.4638C192.049 12.2266 192.236 13.1193 192.236 14.142C192.236 15.1562 192.049 16.0426 191.674 16.8011C191.303 17.5597 190.783 18.1499 190.114 18.5717C189.449 18.9936 188.674 19.2045 187.787 19.2045ZM187.787 17.8494C188.461 17.8494 189.015 17.6768 189.449 17.3317C189.884 16.9865 190.206 16.5327 190.414 15.9702C190.623 15.4077 190.728 14.7983 190.728 14.142C190.728 13.4858 190.623 12.8743 190.414 12.3075C190.206 11.7408 189.884 11.2827 189.449 10.9332C189.015 10.5838 188.461 10.4091 187.787 10.4091C187.114 10.4091 186.56 10.5838 186.125 10.9332C185.691 11.2827 185.369 11.7408 185.16 12.3075C184.951 12.8743 184.847 13.4858 184.847 14.142C184.847 14.7983 184.951 15.4077 185.16 15.9702C185.369 16.5327 185.691 16.9865 186.125 17.3317C186.56 17.6768 187.114 17.8494 187.787 17.8494ZM198.528 19.2045C197.641 19.2045 196.863 18.9936 196.194 18.5717C195.53 18.1499 195.01 17.5597 194.635 16.8011C194.264 16.0426 194.079 15.1562 194.079 14.142C194.079 13.1193 194.264 12.2266 194.635 11.4638C195.01 10.701 195.53 10.1087 196.194 9.68679C196.863 9.26491 197.641 9.05398 198.528 9.05398C199.414 9.05398 200.189 9.26491 200.854 9.68679C201.523 10.1087 202.043 10.701 202.414 11.4638C202.789 12.2266 202.976 13.1193 202.976 14.142C202.976 15.1562 202.789 16.0426 202.414 16.8011C202.043 17.5597 201.523 18.1499 200.854 18.5717C200.189 18.9936 199.414 19.2045 198.528 19.2045ZM198.528 17.8494C199.201 17.8494 199.755 17.6768 200.189 17.3317C200.624 16.9865 200.946 16.5327 201.155 15.9702C201.363 15.4077 201.468 14.7983 201.468 14.142C201.468 13.4858 201.363 12.8743 201.155 12.3075C200.946 11.7408 200.624 11.2827 200.189 10.9332C199.755 10.5838 199.201 10.4091 198.528 10.4091C197.854 10.4091 197.3 10.5838 196.866 10.9332C196.431 11.2827 196.109 11.7408 195.9 12.3075C195.692 12.8743 195.587 13.4858 195.587 14.142C195.587 14.7983 195.692 15.4077 195.9 15.9702C196.109 16.5327 196.431 16.9865 196.866 17.3317C197.3 17.6768 197.854 17.8494 198.528 17.8494ZM206.685 15.4205L206.66 13.554H206.967L211.262 9.18182H213.129L208.552 13.8097H208.424L206.685 15.4205ZM205.279 19V5.90909H206.788V19H205.279ZM211.518 19L207.683 14.142L208.756 13.0938L213.435 19H211.518Z" fill="#444444"/>
</svg>
