<svg width="242" height="230" viewBox="0 0 242 230" fill="none" xmlns="http://www.w3.org/2000/svg">
<path d="M9.70948 34.4281C20.5243 20.4009 41.8055 20.5671 46.3687 20.6028C51.5105 20.6443 69.6689 21.511 83.028 34.4281C105.142 55.8103 93.7247 90.5251 105.939 94.3302C115.968 97.4526 131.081 76.3614 138.017 66.6854C161.134 34.4281 154.853 18.0087 171.087 7.0089C194.452 -8.82291 237.386 4.89562 241.489 21.1667C243.065 27.4234 237.989 30.4272 234.246 43.647C229.364 60.8976 232.587 74.9901 234.246 85.1172C238.372 110.269 247.328 164.9 224.736 185.48C204.812 203.627 163.058 192.841 156.346 191.102C138.601 186.519 138.908 181.521 128.849 181.883C98.2466 182.999 90.3598 229.485 62.3902 229.996C46.7761 230.281 33.9424 216.069 28.0391 209.528C19.1429 199.674 15.6836 189.778 9.70948 172.664C6.15572 162.489 2.1474 151.003 0.547618 135.8C-1.67201 114.709 3.46383 112.263 5.12855 80.5048C6.71062 50.4262 2.57244 43.6886 9.70948 34.4281Z" fill="white"/>
<path d="M120.637 131.098C118.36 127.809 114.484 126.061 111.645 123.25C107.963 119.603 106.229 114.378 102.828 110.466C100.793 108.133 98.2347 106.341 95.7448 104.505C89.1175 99.6251 82.821 94.2863 76.9177 88.5387C75.3139 86.9792 73.6727 85.2625 73.186 83.0742C72.5495 80.2004 73.3919 77.7417 73.6602 76.9431C75.8381 70.5101 73.6415 59.6942 72.8428 53.016C72.7491 52.2299 72.6555 51.3433 72.5619 50.3371C65.6289 44.9669 57.192 42.4641 47.9376 43.1433C37.1418 43.9356 26.839 48.4821 17.7843 54.3491C17.8717 66.6616 17.3725 74.5598 17.5534 91.576C17.5659 92.8085 17.6907 96.0596 17.0604 100.292C16.349 105.071 15.4255 108.51 15.1447 109.529C13.9528 113.856 13.2102 121.15 15.3131 134.135C15.4255 136.77 15.4879 140.713 15.1509 145.517C14.7827 150.699 14.5581 151.554 14.8701 153.893C15.5004 158.61 17.3225 159.088 20.2368 165.929C22.7079 171.727 21.853 172.457 24.7673 179.531C26.5021 183.738 27.3133 184.587 28.9046 188.209C31.3383 193.736 34.29 205.282 34.29 205.282C34.9078 205.69 36.2307 206.445 38.0529 206.564C38.2651 206.577 40.7737 206.715 42.9391 205.212C45.5101 203.433 46.1029 200.389 46.6084 197.585C47.5445 192.372 46.6895 187.687 45.5787 184.222C47.9688 189.435 50.3526 194.648 52.7426 199.861C54.6959 203.307 56.6491 206.759 58.6023 210.205C60.4432 213.463 62.4089 216.846 65.5603 218.839C68.7117 220.833 73.4106 220.877 75.6883 217.915C77.186 215.972 77.2796 213.236 76.6306 210.866C75.9005 208.206 74.9769 206.684 73.5541 204.187C72.2874 201.974 70.6711 198.717 69.317 194.346L70.2405 193.805C73.0612 194.057 75.9255 193.598 78.5901 192.617C80.119 192.051 81.5917 191.309 82.8647 190.284C86.2657 187.536 87.8757 182.725 86.8148 178.462C86.5216 177.273 85.2984 174.444 85.2984 174.444L88.0941 178.625C91.1644 177.475 94.297 176.292 96.8743 174.255C99.4515 172.218 101.442 169.143 101.367 165.841C101.336 164.451 100.949 163.093 100.562 161.754C99.0646 156.578 97.5669 151.41 96.0755 146.234C95.8758 145.536 95.6699 144.807 95.8196 144.102C95.9819 143.354 96.5123 142.744 97.0365 142.197C98.5779 140.587 100.618 139.009 102.809 139.424C106.235 140.072 107.895 145.215 111.377 144.939L112.263 154.447C113.935 157.232 118.485 156.616 120.531 154.095C122.578 151.579 122.828 148.077 122.984 144.826C123.202 140.116 123.327 134.984 120.637 131.098Z" fill="#FFA98C"/>
<path d="M46.8455 186.857C47.3697 189.234 47.638 191.674 47.5756 194.113C47.5195 196.547 47.0889 198.999 46.0842 201.244C45.8034 201.785 45.5538 202.351 45.1981 202.848C44.8736 203.37 44.5179 203.867 44.1247 204.338C43.3509 205.281 42.3774 206.105 41.2167 206.564C40.6426 206.791 40.0311 206.935 39.4195 206.986C38.8017 207.036 38.1839 206.992 37.5724 206.879C36.3617 206.646 35.2135 206.13 34.1964 205.432L34.1402 205.395L34.1215 205.325C33.5349 202.949 32.9233 200.584 32.2494 198.239C31.5692 195.893 30.8453 193.56 29.9467 191.296C29.4974 190.164 28.9982 189.083 28.3741 188.026C27.7813 186.951 27.2197 185.863 26.6705 184.769L25.8593 183.121L25.4661 182.291L25.1042 181.442L24.3866 179.738C24.1619 179.166 23.9435 178.594 23.7313 178.009C23.3257 176.852 22.9575 175.676 22.633 174.494C22.3085 173.312 22.0152 172.129 21.6783 170.966C21.3413 169.809 20.9669 168.633 20.5113 167.545C20.0183 166.438 19.4941 165.338 18.9762 164.238L17.4161 160.924C16.9044 159.792 16.4863 158.641 16.0994 157.478C15.7125 156.314 15.363 155.138 15.0385 153.956C14.7203 152.768 14.4208 151.585 14.246 150.347C14.2335 150.183 14.2023 150.038 14.2086 149.856C14.2086 149.768 14.2086 149.674 14.2148 149.598L14.2398 149.372L14.3334 148.46L14.5019 146.643C14.6017 145.429 14.6953 144.215 14.764 142.996C14.9075 140.562 14.9886 138.122 15.0011 135.688C15.0323 130.809 14.7203 125.942 14.452 121.062C14.3271 118.622 14.2398 116.163 14.4457 113.717C14.6329 111.271 15.0573 108.85 15.6189 106.473C16.168 104.096 16.7734 101.732 17.0604 99.3105C17.3787 96.8958 17.4723 94.4559 17.4348 92.016L17.8467 62.7124L17.6158 92.016C17.672 94.4559 17.5908 96.9146 17.2851 99.3419C17.0105 101.782 16.4239 104.165 15.8872 106.542C15.3443 108.919 14.9387 111.321 14.764 113.749C14.5768 116.176 14.6766 118.609 14.8201 121.049C15.1197 125.923 15.4629 130.802 15.4629 135.695C15.4629 138.141 15.4005 140.587 15.2694 143.033C15.207 144.253 15.1197 145.473 15.0261 146.693L14.8701 148.523L14.7827 149.435L14.764 149.661C14.7577 149.73 14.764 149.793 14.764 149.856C14.7577 149.982 14.7889 150.139 14.8014 150.277C14.9761 151.453 15.2819 152.642 15.6002 153.805C15.9247 154.975 16.2804 156.138 16.6673 157.289C17.0604 158.433 17.4785 159.578 17.9777 160.666L19.5565 163.961C20.0807 165.061 20.6112 166.155 21.1229 167.275C21.6096 168.438 21.984 169.589 22.3397 170.771C22.6892 171.953 22.9887 173.136 23.3195 174.305C23.6502 175.475 24.0121 176.626 24.424 177.77C24.6237 178.342 24.8359 178.914 25.048 179.48L25.7282 181.166L26.0714 182.008L26.4521 182.838L27.2384 184.492C27.7688 185.586 28.318 186.681 28.8921 187.75C29.4974 188.812 30.0153 189.963 30.4522 191.101C31.332 193.403 32.031 195.755 32.6862 198.119C33.3352 200.483 33.9218 202.86 34.4772 205.25L34.4023 205.143C35.3695 205.829 36.4741 206.338 37.6348 206.577C38.2151 206.696 38.808 206.74 39.3946 206.703C39.9811 206.659 40.5677 206.533 41.1169 206.319C42.2277 205.898 43.1762 205.118 43.95 204.206C44.3369 203.747 44.6988 203.257 45.0233 202.754C45.379 202.269 45.6349 201.716 45.9157 201.181C46.9329 198.987 47.3947 196.553 47.482 194.126C47.5756 191.68 47.3385 189.24 46.8455 186.857Z" fill="#C5553F"/>
<path d="M25.0669 144.379C28.4429 150.208 31.7503 156.082 34.9453 162.018C41.0359 174.054 46.7333 186.278 52.0626 198.666C46.5087 186.379 40.5991 174.261 34.3026 162.358C31.3259 156.314 28.237 150.328 25.0669 144.379Z" fill="#C5553F"/>
<path d="M52.7053 199.968L56.7678 206.954L58.8021 210.45C59.4761 211.614 60.1688 212.771 60.9176 213.878C61.6727 214.984 62.4964 216.035 63.4449 216.965C64.3935 217.883 65.4543 218.707 66.64 219.235C66.9333 219.38 67.2453 219.474 67.5448 219.594C67.8568 219.682 68.1689 219.782 68.4871 219.839C69.1174 219.984 69.7726 220.034 70.4154 220.034C71.7009 220.021 72.9926 219.694 74.0472 219.003C74.5902 218.676 75.0332 218.223 75.4264 217.732C75.807 217.229 76.0941 216.651 76.2938 216.047C76.6932 214.827 76.7306 213.488 76.5309 212.199C76.3312 210.903 75.8757 209.652 75.3203 208.438C74.7649 207.225 74.1159 206.049 73.4919 204.848C73.1736 204.25 72.9053 203.628 72.6057 203.018C72.3249 202.401 72.0067 201.804 71.7633 201.169L70.9895 199.289C70.7274 198.666 70.5215 198.018 70.2906 197.383C69.8101 196.119 69.4294 194.818 69.0175 193.535C68.8116 192.893 68.6431 192.239 68.4497 191.585C68.2625 190.938 68.0753 190.29 67.9068 189.63C66.5089 184.411 65.3857 179.128 63.9504 173.928C62.5526 168.721 60.7429 163.609 58.1906 158.855C60.799 163.577 62.6649 168.683 64.1251 173.878C65.6166 179.065 66.8022 184.341 68.2562 189.529C68.431 190.183 68.6244 190.825 68.8179 191.472C69.0113 192.114 69.1923 192.768 69.4044 193.403C69.8288 194.679 70.2282 195.968 70.7149 197.22C70.9583 197.849 71.1642 198.484 71.4326 199.1L72.2188 200.955C72.4622 201.578 72.7867 202.169 73.0738 202.779C73.3733 203.376 73.6479 203.992 73.9661 204.577C74.5964 205.759 75.2704 206.935 75.8507 208.174C76.4311 209.407 76.924 210.708 77.1487 212.079C77.3733 213.444 77.3546 214.884 76.9303 216.242C76.7181 216.915 76.3999 217.569 75.9818 218.147C75.5449 218.707 75.0332 219.229 74.4279 219.613C73.211 220.373 71.7883 220.688 70.4091 220.669C69.7165 220.656 69.0238 220.581 68.3498 220.418C68.0129 220.348 67.6821 220.229 67.3576 220.135C67.0394 220.002 66.7086 219.896 66.4028 219.732C65.1485 219.135 64.0752 218.254 63.1142 217.286C62.1594 216.305 61.3482 215.211 60.6056 214.079C59.8692 212.941 59.2015 211.765 58.5525 210.583L56.5993 207.042L52.7053 199.968Z" fill="#C5553F"/>
<path d="M225.731 111.057C225.3 108.819 224.551 106.712 224.551 106.712C222.985 102.279 221.874 102.467 221.369 99.757C220.932 97.3926 221.718 96.9461 221.325 92.1356C221.232 90.9659 221.188 90.3371 220.969 89.4567C220.071 85.8535 218.068 83.5583 217.737 83.1307C215.091 79.7413 215.952 62.1339 225.007 14.8331C222.636 14.0282 220.214 13.3553 217.787 12.7831C209.275 10.7897 200.289 9.92192 191.459 10.4627C182.18 13.2233 174.417 21.4359 168.688 28.8246C168.245 29.3969 167.808 29.9754 167.371 30.5602C167.409 38.5653 167.172 44.4826 166.766 47.8531C165.711 56.5688 161.437 65.4919 160.794 66.5798C159.602 68.5921 158.204 70.3968 158.204 70.3968C157.462 71.3715 156.6 72.4154 155.558 73.5284C153.399 75.8488 151.933 76.8801 149.711 78.8357C146.098 82.0051 144.956 83.6715 140.862 88.0985C138.291 90.8779 134.497 94.8144 129.486 99.43C127.683 101.159 125.873 102.882 124.07 104.612C122.466 107.58 119.776 112.107 115.726 117.069C110.222 123.81 108.419 123.747 105.105 128.784C104.163 130.218 99.2955 137.827 98.8961 148.762C98.6777 154.755 99.8883 159.276 100.575 161.754C102.615 169.13 106.035 174.488 108.438 177.676C109.249 177.858 110.516 178.022 111.951 177.688C112.569 177.512 116.75 176.236 117.935 172.57C118.684 170.268 117.867 168.212 117.055 166.149C115.47 162.15 112.8 159.421 110.653 157.723C110.952 157.616 111.52 157.39 112.144 156.962C115.995 154.321 115.127 148.429 116.562 140.65C117.211 137.154 119.015 129.507 120.612 129.576C122.491 129.658 126.397 140.612 124.251 150.542C123.845 152.403 123.027 155.164 124.294 157.981C125.474 160.603 127.926 162.081 129.886 162.936C131.639 164.313 133.174 165.363 134.254 166.067C137.143 167.508 139.614 168.57 141.418 169.3C146.903 171.519 148.85 171.664 149.992 171.677C152.251 171.708 154.086 171.23 155.259 170.834C156.894 171.457 159.346 172.406 162.448 173.67C162.966 173.878 163.022 173.909 163.159 173.959C164.875 174.626 168.145 175.632 175.359 176.563C179.758 177.129 183.933 177.651 189.662 177.607C198.011 177.537 202.442 177.638 203.316 175.619C203.365 175.506 203.403 175.381 203.44 175.248C205.868 178.481 209.194 180.355 212.526 180.185C213.213 180.147 215.996 180.009 217.924 177.952C218.785 177.034 219.153 176.079 219.965 170.337C220.67 165.325 221.026 162.76 220.976 160.006C220.92 156.811 220.408 155.95 220.358 153.447C220.264 148.806 220.988 146.385 222.53 138.77C224.146 130.784 223.079 134.682 225.369 122.395C225.887 119.584 226.629 115.698 225.731 111.057ZM198.872 154.145C198.723 153.617 198.666 153.308 198.723 153.283C198.816 153.239 198.904 153.189 198.979 153.126C198.947 153.415 198.91 153.755 198.872 154.145ZM199.297 138.506C198.866 142.417 198.579 145.033 198.417 148.523C198.292 151.196 198.236 154.56 198.404 158.452C197.163 158.094 195.621 157.761 193.843 157.622C191.353 157.427 189.231 157.673 187.652 157.987C187.197 157.119 186.386 155.824 185.019 154.604C183.79 153.497 182.566 152.856 181.712 152.491C182.242 151.799 182.966 150.711 183.502 149.246C184.345 146.957 184.245 145.083 184.083 142.084C183.902 138.701 183.247 136.412 183.034 135.707C182.729 134.689 182.41 133.859 182.155 133.255C180.894 132.11 180.545 131.079 180.432 130.394C180.089 128.205 181.899 127.294 182.704 123.571C183.116 121.659 182.885 120.584 183.459 120.383C184.189 120.125 184.794 121.766 186.872 123.175C188.333 124.168 189.811 124.508 192.769 125.187C195.39 125.791 195.952 125.634 197.319 126.3C198.847 127.048 199.89 128.092 200.526 128.866C200.152 131.469 199.715 134.733 199.297 138.506Z" fill="#FFA98C"/>
<path d="M70.1968 193.912C73.1984 194.114 76.2125 193.523 78.9582 192.372C80.3311 191.793 81.6415 191.058 82.7523 190.089C83.3077 189.611 83.8007 189.064 84.2562 188.486C84.6868 187.895 85.0925 187.278 85.4045 186.612C86.7711 184.027 87.1954 180.889 86.3405 178.053C85.9287 176.626 85.2734 175.261 84.7055 173.853C84.1314 172.45 83.576 171.042 83.0581 169.614C80.9863 163.917 79.3888 158.056 78.2967 152.101C79.5074 158.031 81.2172 163.854 83.4013 169.489C83.9442 170.897 84.5246 172.293 85.1236 173.677C85.7165 175.06 86.4029 176.418 86.8647 177.896C87.8257 180.858 87.4513 184.184 86.0535 186.958C85.6978 187.649 85.236 188.284 84.7555 188.888C84.25 189.479 83.7071 190.033 83.1018 190.517C81.8974 191.485 80.512 192.183 79.0955 192.711C76.2561 193.774 73.1859 194.239 70.1968 193.912Z" fill="#C5553F"/>
<path d="M88.0505 178.745C89.6356 178.116 91.2269 177.487 92.7558 176.732C94.2784 175.978 95.7449 175.091 97.0241 173.984C98.2972 172.878 99.3705 171.532 100.094 170.023C100.824 168.52 101.137 166.828 100.912 165.193C100.824 164.37 100.631 163.546 100.413 162.728L99.72 160.251L98.3346 155.289L96.9493 150.328L96.2566 147.844L95.9071 146.605C95.7948 146.19 95.67 145.775 95.6013 145.329C95.5327 144.888 95.5327 144.417 95.6762 143.97C95.8135 143.53 96.0694 143.147 96.3502 142.807C96.918 142.14 97.5421 141.549 98.2098 140.996C98.8837 140.455 99.6201 139.977 100.438 139.669C101.249 139.367 102.16 139.267 103.009 139.493C103.857 139.713 104.6 140.204 105.249 140.77C105.898 141.335 106.478 141.971 107.065 142.593C107.651 143.216 108.25 143.832 108.949 144.316C109.642 144.8 110.485 145.121 111.346 145.046C110.491 145.134 109.636 144.832 108.924 144.354C108.207 143.876 107.595 143.266 106.996 142.656C106.397 142.046 105.811 141.417 105.162 140.87C104.513 140.329 103.782 139.858 102.965 139.669C102.154 139.468 101.293 139.575 100.519 139.877C99.7387 140.178 99.0335 140.656 98.3845 141.197C97.7418 141.744 97.1302 142.348 96.5998 142.996C96.3377 143.323 96.1193 143.675 96.007 144.058C95.8884 144.436 95.8946 144.851 95.9633 145.253C96.0319 145.662 96.1567 146.064 96.2815 146.479L96.6497 147.712L97.3861 150.177L98.8588 155.113L100.332 160.05L101.068 162.521C101.305 163.351 101.523 164.206 101.636 165.093C101.823 166.879 101.411 168.702 100.587 170.249C99.7699 171.809 98.6029 173.154 97.2613 174.242C95.9134 175.33 94.397 176.173 92.8369 176.877C91.2643 177.6 89.6543 178.173 88.0505 178.745Z" fill="#C5553F"/>
<path d="M110.366 146.121C111.614 146.706 112.719 147.731 113.405 149.014L113.598 149.523L113.742 150.045L113.811 150.303L113.854 150.567L113.942 151.101L113.979 151.636L113.998 151.906L113.992 152.177L113.973 152.711L113.904 153.239C113.723 154.648 113.074 155.981 112.119 156.981C112.981 155.899 113.486 154.56 113.542 153.202L113.561 152.692L113.53 152.189L113.517 151.938L113.48 151.686L113.399 151.189L113.274 150.705L113.212 150.466L113.124 150.234L112.949 149.768L112.731 149.322C112.332 148.058 111.495 146.926 110.366 146.121Z" fill="#C5553F"/>
<path d="M99.932 142.335C99.3641 144.253 99.0958 146.24 99.0833 148.221C99.0646 150.202 99.2955 152.176 99.6762 154.113C100.263 158.025 101.473 161.842 102.796 165.589L106.884 176.833L102.453 165.715C101.012 161.999 99.6762 158.201 98.9523 154.226C98.6839 152.227 98.5716 150.202 98.7151 148.196C98.8587 146.203 99.2518 144.215 99.932 142.335Z" fill="#C5553F"/>
<path d="M107.189 177.456C109.18 177.864 111.277 177.877 113.18 177.236C115.077 176.619 116.712 175.255 117.548 173.488C118.016 172.639 118.254 171.67 118.235 170.702C118.222 169.727 117.948 168.753 117.567 167.828C117.186 166.898 116.681 166.011 116.169 165.131L114.609 162.483L111.489 157.188C110.441 155.44 109.286 153.717 107.739 152.372C109.33 153.667 110.541 155.371 111.645 157.088L114.921 162.288L116.556 164.892C117.099 165.766 117.636 166.652 118.066 167.608C118.491 168.564 118.821 169.595 118.871 170.677C118.921 171.759 118.684 172.859 118.191 173.821C117.149 175.72 115.289 177.053 113.28 177.582C111.271 178.135 109.155 177.984 107.189 177.456Z" fill="#C5553F"/>
<path d="M112.213 154.566C112.644 155.277 113.336 155.805 114.104 156.082C114.878 156.358 115.714 156.409 116.525 156.296C118.141 156.063 119.683 155.208 120.625 153.868C121.592 152.541 122.104 150.932 122.378 149.316C122.653 147.687 122.715 146.033 122.778 144.373C122.84 142.719 122.871 141.059 122.772 139.411C122.722 138.588 122.628 137.77 122.503 136.959C122.353 136.154 122.185 135.349 121.929 134.582C121.424 133.035 120.644 131.589 119.564 130.388C118.491 129.18 117.193 128.174 115.864 127.212C114.547 126.231 113.186 125.263 111.938 124.131C110.703 122.98 109.629 121.666 108.712 120.27C106.852 117.49 105.448 114.466 103.47 111.843C101.529 109.196 98.8586 107.209 96.2065 105.253C93.5481 103.291 90.9334 101.254 88.3811 99.1472C85.8288 97.0406 83.3327 94.8649 80.9052 92.6199C79.6883 91.5006 78.4902 90.3624 77.3045 89.2054C76.1251 88.0546 74.9082 86.8912 74.0221 85.4638C73.5853 84.7532 73.2421 83.9735 73.0673 83.1497C72.8988 82.3259 72.8926 81.477 72.98 80.6469C73.1547 78.9868 73.6102 77.377 73.7413 75.7232C74.0408 72.4218 73.5478 69.0513 72.3123 65.97C73.579 69.0387 74.1032 72.4155 73.8287 75.7295C73.7101 77.3959 73.267 79.012 73.1173 80.6532C73.0361 81.477 73.0549 82.3071 73.2233 83.1057C73.3981 83.9043 73.7413 84.6652 74.1781 85.3569C75.058 86.7466 76.2749 87.8911 77.4605 89.0293C78.6524 90.1738 79.8631 91.2994 81.0924 92.4061C83.5386 94.6259 86.0535 96.7765 88.6182 98.8517C91.183 100.927 93.804 102.939 96.4811 104.876C97.8165 105.844 99.1581 106.819 100.431 107.894C101.704 108.963 102.896 110.164 103.907 111.497C105.954 114.157 107.389 117.188 109.243 119.892C110.154 121.257 111.202 122.515 112.4 123.603C113.611 124.684 114.959 125.627 116.3 126.608C117.623 127.608 118.946 128.658 120.051 129.954C121.168 131.237 121.967 132.79 122.46 134.4C122.715 135.205 122.871 136.035 123.009 136.865C123.127 137.695 123.202 138.531 123.24 139.367C123.308 141.04 123.252 142.706 123.158 144.367C123.065 146.027 122.977 147.693 122.665 149.341C122.36 150.976 121.804 152.611 120.787 153.956C119.789 155.321 118.191 156.157 116.55 156.365C115.726 156.465 114.878 156.396 114.104 156.101C113.311 155.837 112.631 155.283 112.213 154.566Z" fill="#C5553F"/>
<path d="M149.655 77.3706C145.798 82.7408 141.599 87.8721 137.056 92.689C134.728 95.0408 132.307 97.2983 129.829 99.4867C127.346 101.662 124.793 103.756 122.853 106.423C120.862 109.045 119.258 111.95 117.436 114.717C116.525 116.1 115.564 117.452 114.472 118.698C113.386 119.943 112.163 121.075 110.796 121.999C112.151 121.049 113.342 119.899 114.403 118.641C115.464 117.383 116.4 116.019 117.286 114.623C119.046 111.831 120.6 108.894 122.559 106.209C123.04 105.53 123.57 104.888 124.107 104.253C124.656 103.624 125.23 103.027 125.823 102.442C127.009 101.279 128.251 100.191 129.467 99.0779C131.895 96.8519 134.26 94.5566 136.538 92.1733C141.23 87.5514 145.611 82.5899 149.655 77.3706Z" fill="#C5553F"/>
<path d="M120.625 128.885C121.942 130.016 122.946 131.513 123.545 133.161C124.176 134.802 124.463 136.55 124.625 138.292C124.781 140.04 124.781 141.794 124.75 143.543L124.656 148.768L124.425 153.994C124.394 154.862 124.338 155.748 124.319 156.591C124.319 157.006 124.357 157.415 124.488 157.773C124.619 158.132 124.856 158.452 125.149 158.748C125.436 159.043 125.773 159.307 126.104 159.59L127.102 160.427C127.77 160.98 128.438 161.527 129.112 162.074C130.46 163.162 131.833 164.212 133.249 165.206C136.076 167.18 139.096 168.935 142.391 169.991C144.032 170.532 145.73 170.853 147.44 171.104C148.295 171.243 149.15 171.406 149.973 171.67C150.797 171.934 151.59 172.324 152.263 172.871C151.577 172.337 150.785 171.966 149.955 171.714C149.125 171.463 148.276 171.318 147.421 171.192C145.711 170.972 143.989 170.677 142.329 170.161C138.997 169.149 135.92 167.438 133.037 165.501C131.595 164.527 130.198 163.495 128.825 162.426C128.138 161.892 127.458 161.351 126.784 160.81L125.773 159.993C125.436 159.723 125.093 159.452 124.762 159.131C124.438 158.817 124.132 158.433 123.957 157.974C123.783 157.515 123.733 157.044 123.726 156.591C123.726 155.692 123.764 154.843 123.783 153.962L123.92 148.737L124.194 143.517C124.282 141.782 124.344 140.046 124.251 138.317C124.151 136.594 123.926 134.858 123.358 133.217C122.84 131.576 121.898 130.06 120.625 128.885Z" fill="#C5553F"/>
<path d="M135.664 130.255C136.663 132.079 137.443 134.022 138.048 136.015C138.647 138.015 139.053 140.065 139.415 142.115C140.12 146.221 140.55 150.378 141.493 154.403C141.905 156.427 142.479 158.415 143.259 160.307C144.008 162.213 144.994 164.061 146.485 165.42C147.983 166.784 149.836 167.753 151.621 168.778C153.424 169.778 155.284 170.67 157.168 171.507C164.732 174.796 172.907 176.695 181.163 177.034C172.9 176.82 164.676 175.041 157.025 171.846C155.115 171.035 153.231 170.161 151.402 169.186C149.593 168.18 147.721 167.25 146.117 165.835C145.318 165.13 144.644 164.282 144.083 163.382C143.802 162.93 143.546 162.47 143.309 161.999C143.065 161.534 142.878 161.037 142.66 160.559C141.83 158.628 141.212 156.603 140.769 154.56C139.926 150.447 139.627 146.284 139.04 142.172C138.741 140.115 138.391 138.065 137.855 136.059C137.33 134.066 136.613 132.11 135.664 130.255Z" fill="#C5553F"/>
<path d="M150.916 117.704C152.675 119.603 153.986 121.917 154.797 124.395C155.608 126.872 156.045 129.463 156.251 132.06C156.463 134.657 156.488 137.267 156.476 139.864C156.457 142.461 156.469 145.046 156.694 147.617C156.881 150.183 157.256 152.742 157.992 155.201L158.304 156.107L158.46 156.559C158.516 156.71 158.585 156.855 158.641 157L159.015 157.88C159.147 158.169 159.303 158.446 159.446 158.735C159.714 159.314 160.089 159.829 160.42 160.376C160.594 160.647 160.8 160.886 160.994 161.137C161.193 161.389 161.368 161.653 161.599 161.873L162.254 162.565C162.466 162.804 162.728 162.986 162.966 163.2C163.209 163.401 163.44 163.621 163.696 163.81C163.952 163.999 164.214 164.181 164.476 164.357C165.537 165.068 166.679 165.69 167.746 166.445C168.282 166.822 168.8 167.231 169.275 167.69C169.755 168.149 170.173 168.658 170.56 169.186C171.34 170.237 172.008 171.35 172.825 172.331C173.649 173.305 174.623 174.142 175.727 174.783C176.825 175.431 178.017 175.909 179.247 176.267C181.712 176.978 184.289 177.223 186.854 177.386L202.292 178.273L186.847 177.569C184.276 177.43 181.68 177.217 179.172 176.531C177.924 176.185 176.694 175.714 175.565 175.06C174.429 174.412 173.406 173.557 172.545 172.563C171.69 171.563 171.009 170.45 170.229 169.432C169.842 168.922 169.431 168.432 168.969 168.004C168.513 167.57 168.008 167.18 167.484 166.822C166.429 166.099 165.293 165.489 164.195 164.785C163.92 164.609 163.646 164.426 163.384 164.231C163.115 164.043 162.872 163.816 162.616 163.609C162.373 163.389 162.098 163.2 161.874 162.961L161.187 162.25C160.944 162.024 160.757 161.754 160.551 161.496C160.351 161.232 160.132 160.986 159.945 160.71C159.596 160.15 159.203 159.616 158.916 159.024C158.766 158.735 158.597 158.446 158.46 158.15L158.067 157.245C158.005 157.094 157.93 156.943 157.873 156.792L157.711 156.327L157.38 155.396C156.594 152.887 156.182 150.277 155.964 147.674C155.795 145.064 155.845 142.448 155.927 139.858C155.995 137.267 156.033 134.67 155.883 132.085C155.739 129.501 155.371 126.929 154.622 124.451C153.873 121.974 152.625 119.647 150.916 117.704Z" fill="#C5553F"/>
<path d="M183.883 107.699C184.251 108.944 184.501 110.227 184.632 111.529C184.751 112.831 184.744 114.151 184.657 115.459C184.289 118.062 183.571 120.578 182.741 123.036C182.329 124.269 181.874 125.483 181.418 126.696C181.181 127.3 180.975 127.916 180.694 128.501C180.42 129.086 180.039 129.652 179.478 129.985C180.02 129.62 180.364 129.048 180.613 128.463C180.863 127.872 181.038 127.243 181.244 126.633C181.643 125.401 182.036 124.168 182.392 122.93C183.103 120.446 183.69 117.924 183.933 115.377C184.133 114.113 184.27 112.837 184.27 111.548C184.258 110.265 184.133 108.976 183.883 107.699Z" fill="#C5553F"/>
<path d="M176.295 126.658C179.39 128.388 181.886 131.28 183.128 134.72C183.665 136.462 183.927 138.248 184.102 140.034C184.276 141.826 184.27 143.631 184.064 145.417C183.864 147.202 183.415 148.969 182.641 150.586C181.88 152.208 180.688 153.617 179.228 154.623C180.651 153.566 181.78 152.126 182.473 150.504C183.178 148.881 183.565 147.133 183.702 145.379C183.839 143.618 183.79 141.845 183.559 140.09C183.334 138.342 183.01 136.594 182.435 134.946C181.481 131.607 179.265 128.602 176.295 126.658Z" fill="#C5553F"/>
<path d="M181.712 152.485C182.854 152.755 183.865 153.459 184.719 154.271C185.587 155.082 186.33 156.012 187.097 156.874C189.893 160.578 193.269 163.86 197.075 166.558C193.131 164.061 189.562 160.942 186.529 157.333C185.837 156.377 185.212 155.396 184.457 154.522C183.709 153.654 182.816 152.874 181.712 152.485Z" fill="#C5553F"/>
<path d="M187.665 158.069C188.632 157.717 189.631 157.427 190.66 157.232C192.744 157.195 194.81 157.503 196.763 158.106C194.754 157.742 192.701 157.691 190.71 157.968C189.705 157.911 188.688 157.955 187.665 158.069Z" fill="#C5553F"/>
<path d="M183.459 120.37C184.975 121.565 186.517 122.753 188.214 123.571C189.019 124.049 189.868 124.458 190.773 124.696C191.671 124.954 192.626 125.011 193.587 125.105C194.542 125.2 195.534 125.319 196.433 125.721C197.325 126.105 198.155 126.753 198.529 127.658C198.099 126.778 197.25 126.206 196.364 125.891C195.472 125.564 194.517 125.508 193.562 125.47C192.607 125.439 191.628 125.439 190.648 125.231C189.674 125.042 188.745 124.665 187.865 124.212C186.192 123.131 184.819 121.747 183.459 120.37Z" fill="#C5553F"/>
<path d="M222.948 103.26C222.511 102.436 222.111 101.587 221.855 100.707C221.593 99.8199 221.45 98.8955 221.375 97.9649C221.219 96.0972 221.319 94.1982 221.144 92.2928C221.063 91.337 220.882 90.3874 220.651 89.463C220.42 88.5324 220.102 87.6206 219.696 86.7528C219.297 85.885 218.816 85.0675 218.392 84.2312C217.961 83.3948 217.587 82.5396 217.263 81.6592C216.62 79.8985 216.164 78.0686 215.933 76.201C215.702 74.3396 215.69 72.4468 215.727 70.5603C215.777 68.6738 215.809 66.781 215.965 64.9008C216.114 63.0206 216.408 61.1593 216.751 59.2979C217.437 55.5815 218.136 51.8588 218.723 48.1173C219.022 46.2496 219.297 44.3757 219.522 42.4955C219.746 40.6153 219.952 38.7351 220.233 36.8674C220.782 33.1259 221.425 29.3969 222.167 25.6931C222.898 22.0081 223.759 18.3483 224.589 14.6822C224.545 14.6696 224.501 14.6508 224.458 14.6382C223.609 18.3043 222.729 21.9704 221.986 25.6616C221.231 29.3717 220.576 33.1007 220.008 36.8423C219.721 38.7162 219.503 40.5964 219.272 42.4703C219.041 44.3443 218.754 46.2119 218.454 48.0795C217.855 51.8148 217.144 55.5249 216.439 59.2476C216.096 61.109 215.79 62.9829 215.628 64.8757C215.459 66.7685 215.422 68.6612 215.366 70.554C215.322 72.4468 215.322 74.3522 215.553 76.2513C215.777 78.1441 216.233 80.0117 216.882 81.8039C217.206 82.7031 217.587 83.5772 218.018 84.4261C218.448 85.275 218.923 86.0925 219.303 86.9414C219.696 87.7904 219.996 88.6707 220.22 89.5762C220.445 90.4818 220.62 91.3999 220.689 92.3368C220.851 94.2045 220.745 96.0972 220.894 98.0089C220.969 98.9647 221.113 99.9205 221.381 100.851C221.65 101.782 222.055 102.662 222.498 103.505C223.391 105.19 224.433 106.762 225.026 108.523C225.618 110.284 225.912 112.145 225.937 114.013C225.974 115.88 225.799 117.761 225.525 119.622C225.256 121.483 224.888 123.338 224.551 125.2C223.859 128.922 223.241 132.658 222.685 136.405C221.581 143.901 220.751 151.435 220.202 158.993C219.946 162.772 219.777 166.564 219.646 170.337C219.553 172.205 219.366 174.091 218.742 175.821C218.43 176.682 217.993 177.5 217.394 178.166C216.795 178.827 216.033 179.348 215.191 179.638C214.342 179.933 213.425 180.002 212.514 179.94C211.603 179.877 210.704 179.663 209.837 179.361C208.969 179.059 208.127 178.663 207.347 178.166C206.567 177.676 205.818 177.116 205.144 176.481C203.783 175.217 202.641 173.714 201.73 172.079C200.826 170.444 200.177 168.671 199.696 166.854C198.754 163.206 198.542 159.408 198.473 155.635C198.417 151.856 198.492 148.07 198.735 144.297C199.203 136.751 200.295 129.237 201.961 121.861C200.239 129.224 199.084 136.732 198.554 144.285C198.279 148.064 198.173 151.85 198.198 155.635C198.23 159.414 198.411 163.238 199.34 166.942C199.808 168.784 200.457 170.595 201.368 172.274C202.286 173.947 203.434 175.5 204.826 176.808C205.512 177.475 206.28 178.053 207.085 178.569C207.89 179.091 208.757 179.512 209.662 179.833C210.56 180.153 211.503 180.392 212.47 180.462C213.431 180.537 214.423 180.468 215.359 180.153C216.295 179.845 217.144 179.273 217.812 178.544C218.486 177.814 218.954 176.934 219.297 176.022C219.971 174.192 220.177 172.255 220.283 170.362C220.445 166.577 220.645 162.81 220.932 159.037C221.45 151.497 222.249 143.977 223.322 136.493C223.859 132.752 224.464 129.023 225.138 125.3C225.806 121.59 226.579 117.83 226.492 113.994C226.461 112.082 226.155 110.158 225.531 108.341C224.895 106.504 223.821 104.907 222.948 103.26Z" fill="#C5553F"/>
<path d="M203.216 105.662C203.646 105.888 199.933 110.925 199.94 118.289C199.94 123.068 201.506 126.822 200.239 127.495C199.509 127.879 198.754 126.759 196.046 125.69C193.225 124.577 192.695 125.263 190.186 124.351C189.169 123.98 184.982 122.452 184.158 119.289C183.765 117.78 184.514 117.346 184.888 114.598C185.5 110.089 184.095 106.769 184.451 106.662C185.075 106.473 187.977 116.918 190.186 116.654C191.603 116.484 191.79 112.045 193 111.994C193.993 111.957 194.935 114.906 195.615 117.666C201.362 107.624 202.941 105.511 203.216 105.662Z" fill="#FF9984"/>
<path d="M166.186 162.854C166.336 161.936 168.32 162.156 171.914 160.553C175.627 158.899 175.815 157.635 177.187 157.792C180.12 158.125 179.802 163.948 184.37 169.495C188.582 174.607 193.344 175.104 193.007 176.286C192.514 177.99 182.061 178.619 176.875 173.18C175.234 171.457 175.259 170.318 172.757 167.998C169.225 164.722 165.992 164.036 166.186 162.854Z" fill="#FF9984"/>
<path d="M150.017 165.646C150.123 165.351 151.758 165.942 154.192 165.237C155.696 164.803 156.888 164.049 157.78 163.326C168.576 170.218 174.317 174.469 173.812 175.443C172.851 177.28 149.624 166.765 150.017 165.646Z" fill="#FF9984"/>
<path d="M129.524 159.603C129.786 158.987 130.947 159.408 133.736 158.433C135.883 157.685 136.164 157.1 137.112 157.157C139.134 157.283 140.276 160.119 141.543 162.257C142.947 164.627 145.437 167.715 150.192 170.545C144.501 169.752 140.301 167.979 137.536 166.508C133.312 164.256 128.987 160.873 129.524 159.603Z" fill="#FF9984"/>
<path d="M113.467 144.731C113.973 145.404 114.697 146.498 115.208 147.97C116.494 151.667 115.289 154.359 116.282 154.855C117.236 155.34 119.595 153.459 120.837 151.076C121.729 149.366 121.561 148.328 121.773 142.298C121.929 137.902 122.104 136.06 121.642 135.946C121.068 135.808 120.513 138.537 118.16 141.216C116.562 143.033 114.772 144.102 113.467 144.731Z" fill="#FF9984"/>
<path d="M52.1935 194.138C52.8487 193.296 54.571 194.635 58.3152 194.352C62.359 194.044 63.164 192.265 65.0673 192.862C67.5821 193.654 67.813 197.276 70.1344 202.854C71.8068 206.879 73.7476 209.954 75.2016 211.997C73.654 211.752 71.5635 211.696 69.5042 212.632C66.6398 213.94 66.3715 216.016 64.8614 216.034C62.5087 216.066 61.7599 211.048 57.479 203.703C54.2153 198.138 51.3011 195.283 52.1935 194.138Z" fill="#FF9984"/>
<path d="M188.9 158.396C189.337 159.503 191.253 164.005 195.89 165.734C197.175 166.212 198.386 166.376 199.39 166.395C198.935 164.062 198.479 161.729 198.024 159.389C197.387 158.893 195.939 157.912 193.836 157.622C191.459 157.295 189.624 158.05 188.9 158.396Z" fill="#FF9984"/>
<path d="M41.0108 184.36C41.8158 187.045 42.8205 191.07 43.3322 196.056C43.8751 201.389 43.4757 204.162 44.0498 204.256C44.936 204.401 47.8065 198.012 47.1326 190.957C46.8268 187.793 45.9219 185.586 44.4055 181.914C42.1777 176.519 38.6956 170.199 37.8469 170.545C37.3477 170.74 37.5724 173.343 41.0108 184.36Z" fill="#FF9984"/>
<path d="M111.077 151.585C109.729 147.039 109.673 145.662 110.029 145.505C110.684 145.215 113.586 148.699 113.567 152.642C113.561 154.792 112.687 157.019 112.126 156.975C111.782 156.949 111.346 156.025 111.077 151.585Z" fill="#FF9984"/>
<g opacity="0.46">
<path d="M205.986 161.118C206.061 163.954 206.142 166.797 206.217 169.633C206.554 170.255 208.083 172.896 211.372 173.997C215.328 175.317 218.642 173.337 219.11 173.047C219.085 171.84 219.091 169.966 219.309 167.677C219.553 165.124 219.865 164.156 219.253 163.212C218.611 162.213 217.369 162.005 214.498 161.603C211.103 161.118 208.189 161.056 205.986 161.118Z" fill="#FFBEB3"/>
</g>
<g opacity="0.46">
<path d="M32.1059 193.22C32.9982 192.107 35.2572 191.837 36.5365 192.755C39.7628 195.076 36.8735 205.2 35.3134 205.2C34.9015 205.2 34.3961 203.709 33.4163 200.735C31.9873 196.415 31.2884 194.239 32.1059 193.22Z" fill="#FFBEB3"/>
</g>
<g opacity="0.46">
<path d="M104.182 166.155C105.261 165.734 106.341 165.313 107.421 164.898C108.481 165.74 109.967 167.13 111.258 169.186C112.357 170.935 112.956 172.576 113.286 173.783C113.168 174.255 112.806 175.38 111.764 176.336C110.422 177.569 108.856 177.676 108.419 177.688C107.458 176.663 105.885 174.714 104.943 171.821C104.182 169.501 104.119 167.463 104.182 166.155Z" fill="#FFBEB3"/>
</g>
<path d="M217.781 12.7894C216.133 12.4058 214.467 12.0662 212.789 11.7644C212.414 21.0397 211.534 28.7052 210.629 34.6539C209.7 40.7851 208.37 47.6142 209.063 57.3611C209.931 69.573 213.587 80.8732 215.172 80.6657C216.445 80.4959 215.647 73.0442 216.87 60.1343C217.768 50.6955 219.054 45.6208 221.75 32.6668C222.761 27.8248 223.965 21.876 225.294 14.94C222.836 14.0848 220.314 13.3805 217.781 12.7894Z" fill="#FF9984"/>
<g opacity="0.46">
<path d="M20.4489 52.6763C20.424 74 20.243 83.7784 23.6377 84.6399C27.2696 85.558 33.0045 75.7733 35.588 69.3592C38.6832 61.6812 37.9343 57.2102 36.7424 45.2749C31.0388 46.9979 25.566 49.6013 20.4489 52.6763Z" fill="#FFBEB3"/>
</g>
<g opacity="0.46">
<path d="M64.98 215.047C64.3498 215.556 64.0315 216.223 64.019 216.89C63.9878 218.474 67.083 219.512 69.1923 219.688C71.5574 219.883 75.0207 219.153 76.3062 216.607C76.8117 215.607 77.1612 213.984 76.4872 213.33C76.2688 213.123 75.9318 212.997 71.3639 213.312C71.314 213.318 71.289 213.318 71.2765 213.318C70.5277 213.374 66.6525 213.695 64.98 215.047Z" fill="#FFBEB3"/>
</g>
<path d="M78.0037 188.039C81.049 187.064 83.1458 185.323 84.4188 184.266C85.2675 183.562 85.9352 182.908 86.397 182.424C86.3096 183.914 85.8915 186.744 83.8072 189.026C82.5966 190.347 81.2612 191.013 79.3891 191.944C77.5232 192.868 75.9881 193.208 74.8212 193.478C72.3874 194.044 71.1768 194.327 70.2345 193.812C68.4123 192.824 67.676 189.794 68.5746 188.869C69.0863 188.341 69.9038 188.724 71.6199 188.869C74.6215 189.121 76.9803 188.366 78.0037 188.039Z" fill="#FF9984"/>
<g opacity="0.46">
<path d="M163.022 62.7819C162.385 62.5115 160.47 68.0767 153.699 77.2199C149.175 83.3259 144.969 87.6774 141.68 91.0542C131.845 101.166 126.279 104.492 126.772 105.272C127.49 106.404 140.912 102.203 150.785 91.2995C161.88 79.0435 164.052 63.2221 163.022 62.7819Z" fill="#FFBEB3"/>
</g>
<g opacity="0.49">
<g opacity="0.46">
<path d="M52.5055 190.051C54.8144 191.523 57.5789 192.107 60.2997 191.762C61.6601 191.592 63.0454 191.126 64.1999 190.366C65.8286 189.297 65.8598 188.265 66.228 186.549C66.5275 185.165 65.0111 184.385 63.9815 185.234C64.3122 184.964 62.8395 185.53 62.6835 185.599C62.2904 185.788 61.9409 186.045 61.5665 186.272C60.7615 186.756 59.9066 187.033 58.9955 187.259C57.1234 187.718 55.0828 187.75 53.1732 187.523C51.7692 187.366 51.4759 189.397 52.5055 190.051Z" fill="#FFBEB3"/>
</g>
</g>
<g opacity="0.49">
<g opacity="0.46">
<path d="M74.0097 187.127C77.5479 187.398 82.5152 184.398 82.8522 180.65C83.0082 178.915 80.9551 178.122 79.6447 178.795C78.2905 179.487 77.367 180.946 76.2375 181.946C75.1891 182.876 73.966 183.612 72.9738 184.606C72.0252 185.568 72.7866 187.033 74.0097 187.127Z" fill="#FFBEB3"/>
</g>
</g>
<g opacity="0.49">
<g opacity="0.46">
<path d="M17.1227 147.341C14.5954 151.875 17.3911 155.579 19.051 159.823C20.2679 162.936 25.2102 161.741 24.1494 158.408C23.4629 156.251 22.8451 154.107 22.5955 151.85C22.3334 149.542 22.6579 146.957 21.9216 144.75C21.1415 142.404 17.9028 142.354 17.1415 144.75C16.3801 147.133 16.8669 150.064 17.1976 152.504C17.5346 155.006 18.09 157.484 19.051 159.823C20.661 159.138 22.271 158.452 23.881 157.773C22.3521 154.83 19.3193 151.516 19.5315 148.001C19.6189 146.687 17.7343 146.247 17.1227 147.341Z" fill="#FFBEB3"/>
</g>
</g>
<g opacity="0.49">
<g opacity="0.46">
<path d="M128.419 157.597C129.892 156.446 131.621 155.579 133.187 154.554C135.777 152.856 133.368 148.649 130.753 150.359C128.844 151.611 126.965 152.868 125.355 154.51C124.532 155.346 124.525 156.767 125.355 157.603C126.266 158.522 127.489 158.327 128.419 157.597Z" fill="#FFBEB3"/>
</g>
</g>
<g opacity="0.49">
<g opacity="0.46">
<path d="M127.82 156.729C131.209 159.433 135.608 156.302 136.688 152.705C137.049 151.497 136.351 150.152 135.221 149.686C133.979 149.183 132.812 149.668 132.051 150.73C131.408 151.636 131.109 152.346 130.404 152.931C130.678 152.705 129.717 153.365 129.886 153.277C129.336 153.56 128.725 153.742 128.163 154.019C127.252 154.484 126.984 156.063 127.82 156.729Z" fill="#FFBEB3"/>
</g>
</g>
<g opacity="0.49">
<g opacity="0.46">
<path d="M147.228 160.722C146.604 161.244 146.354 162.162 146.566 162.942C146.797 163.797 147.496 164.351 148.307 164.615C149.805 165.099 151.677 164.357 152.7 163.244C153.487 162.395 153.774 160.999 153.118 159.974C152.507 159.018 151.234 158.32 150.092 158.735C149.418 158.981 148.906 159.264 148.351 159.716C148.214 159.83 147.783 160.182 148.457 159.647C148.214 159.842 147.939 160.012 147.733 160.238C147.596 160.414 147.459 160.59 147.327 160.773C147.178 160.974 147.246 160.886 147.533 160.509C147.471 160.565 147.409 160.647 147.352 160.716C147.234 160.873 147.109 161.031 146.99 161.188C147.284 160.829 147.371 160.716 147.246 160.848C147.958 160.131 149.849 160.402 150.292 161.534C149.755 160.188 148.357 159.785 147.228 160.722Z" fill="#FFBEB3"/>
</g>
</g>
<g opacity="0.49">
<g opacity="0.46">
<path d="M146.129 160.571C146.473 162.515 148.482 163.59 150.304 163.684C152.813 163.816 155.452 161.666 155.228 158.999C155.009 156.453 152.388 155.446 150.466 157.012C150.304 157.144 149.343 158.264 149.724 157.805C150.005 157.465 149.53 158.012 149.48 158.081C149.075 158.647 149.861 157.937 149.437 158.182C149.299 158.264 149.106 158.364 148.987 158.465C149.356 158.32 149.443 158.276 149.243 158.339C149.162 158.364 149.081 158.383 149 158.402C149.406 158.358 149.468 158.339 149.181 158.358C149.125 158.358 149.069 158.352 149.019 158.352C149.381 158.408 149.43 158.414 149.168 158.358C148.962 158.333 148.763 158.301 148.557 158.276C147.958 158.238 148.769 158.364 148.407 158.282C146.947 157.949 145.88 159.157 146.129 160.571Z" fill="#FFBEB3"/>
</g>
</g>
<g opacity="0.49">
<g opacity="0.46">
<path d="M162.853 158.025C164.775 159.603 167.115 160.238 169.387 158.936C171.477 157.742 173.331 154.924 172.495 152.459C172.008 151.026 170.204 149.944 168.788 150.938C168.026 151.472 167.502 152.044 167.034 152.843C166.903 153.069 166.772 153.296 166.629 153.516C166.56 153.623 166.136 154.22 166.26 154.075C166.448 153.855 165.98 154.365 165.923 154.409C166.298 154.101 165.624 154.535 165.593 154.553C165.399 154.66 165.293 154.704 165.555 154.648C165.318 154.698 165.044 154.667 164.813 154.623C163.927 154.453 163.015 154.736 162.535 155.553C162.117 156.289 162.167 157.465 162.853 158.025Z" fill="#FFBEB3"/>
</g>
</g>
<g opacity="0.49">
<g opacity="0.46">
<path d="M161.393 157.119C164.132 161.446 171.377 159.326 171.484 154.201C171.515 152.592 169.78 151.114 168.195 151.674C166.841 152.151 166.098 152.661 165.05 153.365C164.912 153.459 164.65 153.591 164.962 153.459C164.725 153.56 164.469 153.598 164.226 153.667C163.739 153.805 163.296 153.874 162.647 154.006C161.343 154.277 160.7 156.025 161.393 157.119Z" fill="#FFBEB3"/>
</g>
</g>
<g opacity="0.49">
<g opacity="0.46">
<path d="M135.465 125.91C135.334 122.093 134.098 118.528 133.137 114.893C132.838 113.768 131.408 114.145 131.277 115.145C131.022 117.113 131.327 118.742 132.032 120.628C132.725 122.477 133.68 124.206 134.348 126.061C134.56 126.64 135.49 126.596 135.465 125.91Z" fill="#FFBEB3"/>
</g>
</g>
<g opacity="0.49">
<g opacity="0.46">
<path d="M159.471 137.305C162.51 132.84 162.323 127.841 160.12 123.036C159.059 120.729 157.618 118.628 156.064 116.629C154.666 114.83 152.906 112.686 150.672 111.969C149.861 111.711 149.231 112.522 149.381 113.271C149.761 115.182 151.265 116.836 152.413 118.345C153.749 120.094 155.072 121.823 156.139 123.76C158.31 127.728 158.841 132.054 157.212 136.336C156.669 137.739 158.722 138.405 159.471 137.305Z" fill="#FFBEB3"/>
</g>
</g>
<g opacity="0.49">
<g opacity="0.46">
<path d="M210.554 126.747C211.484 125.206 211.765 123.489 211.871 121.703C211.965 120.005 212.065 117.999 210.798 116.71C210.205 116.107 209.15 116.088 208.558 116.71C207.397 117.93 207.534 119.572 207.603 121.15C207.671 122.747 207.646 124.319 207.509 125.91C207.353 127.614 209.762 128.055 210.554 126.747Z" fill="#FFBEB3"/>
</g>
</g>
<g opacity="0.49">
<g opacity="0.46">
<path d="M222.467 123.659C223.272 121.716 223.422 119.087 222.929 117.037C222.492 115.214 220.87 112.554 218.629 113.101C216.258 113.686 217.681 116.182 218.211 117.584C218.954 119.553 218.654 121.691 219.309 123.659C219.859 125.306 221.856 125.124 222.467 123.659Z" fill="#FFBEB3"/>
</g>
</g>
<path d="M206.417 160.578C208.458 160.747 210.529 160.496 212.589 160.647C214.754 160.81 217.163 162.062 219.31 161.414C220.277 161.125 220.608 160.1 220.19 159.232C218.966 156.673 215.054 156.302 212.583 156.333C210.267 156.364 207.372 157.088 205.668 158.767C204.982 159.452 205.55 160.502 206.417 160.578Z" fill="#FF9984"/>
<path d="M45.7536 161.402C47.8878 163.546 50.0657 165.678 52.2747 167.74C52.437 167.897 52.7365 167.696 52.5992 167.489C50.9144 164.91 48.1187 163.288 45.7973 161.351C45.7723 161.326 45.7224 161.37 45.7536 161.402Z" fill="#FF9984"/>
<path d="M89.492 116.88C90.3469 118.471 92.8306 119.534 94.2284 120.603C95.9133 121.892 97.542 124.218 99.8697 123.81C100.456 123.703 100.887 123.143 101.062 122.609C101.892 120.018 98.6403 118.201 96.7682 117.289C95.127 116.49 92.4062 114.899 90.5217 115.075C89.623 115.157 89.0364 116.031 89.492 116.88Z" fill="#FF9984"/>
<path d="M89.2674 177.676C91.9944 175.808 95.6824 174.092 97.4297 171.174C97.6669 170.784 97.1988 170.337 96.8182 170.558C95.2831 171.432 93.9539 172.595 92.5311 173.645C91.1707 174.645 89.8228 175.62 88.5622 176.752C88.0692 177.185 88.7182 178.053 89.2674 177.676Z" fill="#FF9984"/>
<path d="M88.0006 176.292C90.6465 176.94 93.4235 175.695 95.5826 174.192C97.6232 172.777 100.537 170.35 101.062 167.79C101.186 167.187 100.569 166.627 100.001 166.967C98.0351 168.13 96.7309 170.538 95.046 172.085C92.9243 174.035 90.684 175.167 88.0006 176.122C87.9257 176.148 87.9133 176.267 88.0006 176.292Z" fill="#FF9984"/>
<path d="M87.2205 176.06C89.336 177.808 91.9257 176.424 93.7853 174.959C95.0646 173.953 96.2503 172.796 97.3423 171.589C98.1473 170.702 99.4203 169.35 99.4266 168.074C99.4328 167.382 98.8088 167.042 98.2035 167.137C96.3064 167.426 94.7027 170.545 93.5419 171.872C92.1878 173.419 89.985 176.028 87.6636 175.28C87.2517 175.142 86.8586 175.758 87.2205 176.06Z" fill="#FF9984"/>
<path d="M54.3027 150.988C56.8675 153.9 58.6835 157.924 60.1187 161.502C60.9113 163.471 61.6102 165.495 62.1843 167.545C62.6211 169.099 62.9893 170.815 63.6882 172.268C64.0938 173.111 65.2046 172.752 65.4792 172.029C66.0845 170.444 65.604 168.287 65.1796 166.715C64.5244 164.294 63.6196 161.955 62.5899 159.679C61.0485 156.27 58.6897 151.252 54.6647 150.353C54.2965 150.265 54.0531 150.699 54.3027 150.988Z" fill="#FF9984"/>
<path d="M96.2192 143.517C97.2551 141.97 97.3487 140.059 98.2535 138.48C98.6217 137.839 98.603 137.839 99.3206 138.034C100.344 138.311 101.324 139.065 102.197 139.637C104.519 141.166 106.778 142.788 109.249 144.083C110.46 144.718 111.726 145.303 113.024 145.718C114.503 146.196 115.358 146.152 116.812 145.706C117.767 145.416 117.879 144.178 117.081 143.643C116.357 143.159 116.038 142.763 115.171 142.499C114.391 142.26 113.605 142.058 112.843 141.776C111.165 141.166 109.586 140.323 108.032 139.436C105.561 138.028 102.89 135.902 100.038 135.399C95.9259 134.67 95.6513 140.486 95.4204 143.285C95.3767 143.756 96.0007 143.838 96.2192 143.517Z" fill="#FF9984"/>
<path d="M75.3264 135.129C76.5682 136.84 78.147 137.959 79.6946 139.235C81.2984 140.556 81.367 143.128 83.1954 144.203C83.9193 144.631 84.8928 144.373 85.3171 143.643C86.6276 141.392 84.9053 138.041 83.0831 136.544C81.3608 135.129 79.0955 134.4 77.1922 133.255C76.0814 132.595 74.4902 133.978 75.3264 135.129Z" fill="#FF9984"/>
<g opacity="0.49">
<g opacity="0.46">
<path d="M42.7957 134.18C44.1186 136.883 44.7364 139.908 44.8612 142.914C44.9174 144.266 44.8113 145.631 44.6553 146.976C44.4806 148.435 43.9813 149.944 44.05 151.416C44.0999 152.441 45.2169 152.837 45.9595 152.214C48.5492 150.045 48.8051 145.442 48.4868 142.342C48.1249 138.801 46.621 135.67 44.4431 132.909C43.6631 131.903 42.3027 133.167 42.7957 134.18Z" fill="#FFBEB3"/>
</g>
</g>
</svg>
