<svg width="132" height="24" viewBox="0 0 132 24" fill="none" xmlns="http://www.w3.org/2000/svg">
<g clip-path="url(#clip0_666_4679)">
<path fill-rule="evenodd" clip-rule="evenodd" d="M24.02 12.2727C24.02 11.4218 23.9436 10.6036 23.8018 9.81812H12.5V14.4599H18.9582C18.68 15.9599 17.8345 17.2308 16.5636 18.0818V21.0927H20.4418C22.7109 19.0036 24.02 15.9272 24.02 12.2727Z" fill="#4285F4"/>
<path fill-rule="evenodd" clip-rule="evenodd" d="M12.5 24C15.74 24 18.4564 22.9255 20.4418 21.0928L16.5636 18.0818C15.4891 18.8018 14.1145 19.2273 12.5 19.2273C9.37455 19.2273 6.72909 17.1164 5.78546 14.28H1.77637V17.3891C3.75091 21.3109 7.80909 24 12.5 24Z" fill="#34A853"/>
<path fill-rule="evenodd" clip-rule="evenodd" d="M5.78545 14.2799C5.54545 13.5599 5.40909 12.7908 5.40909 11.9999C5.40909 11.209 5.54545 10.4399 5.78545 9.71993V6.61084H1.77636C0.963636 8.23084 0.5 10.0636 0.5 11.9999C0.5 13.9363 0.963636 15.769 1.77636 17.389L5.78545 14.2799Z" fill="#FBBC05"/>
<path fill-rule="evenodd" clip-rule="evenodd" d="M12.5 4.77273C14.2618 4.77273 15.8436 5.37818 17.0873 6.56727L20.5291 3.12545C18.4509 1.18909 15.7345 0 12.5 0C7.80909 0 3.75091 2.68909 1.77637 6.61091L5.78546 9.72C6.72909 6.88364 9.37455 4.77273 12.5 4.77273Z" fill="#EA4335"/>
</g>
<path d="M51.0341 9C50.8935 8.5696 50.7081 8.18395 50.478 7.84304C50.2521 7.49787 49.9815 7.20383 49.6662 6.96094C49.3551 6.71804 49.0014 6.53267 48.6051 6.40483C48.2088 6.27699 47.7741 6.21307 47.3011 6.21307C46.5256 6.21307 45.8203 6.41335 45.1854 6.81392C44.5504 7.21449 44.0455 7.80469 43.6705 8.58452C43.2955 9.36435 43.108 10.321 43.108 11.4545C43.108 12.5881 43.2976 13.5447 43.6768 14.3246C44.0561 15.1044 44.5696 15.6946 45.2173 16.0952C45.8651 16.4957 46.5938 16.696 47.4034 16.696C48.1534 16.696 48.8139 16.5362 49.3849 16.2166C49.9602 15.8928 50.4077 15.4368 50.7273 14.8487C51.0511 14.2564 51.2131 13.5597 51.2131 12.7585L51.6989 12.8608H47.7614V11.4545H52.7472V12.8608C52.7472 13.9389 52.517 14.8764 52.0568 15.6733C51.6009 16.4702 50.9702 17.0881 50.1648 17.527C49.3636 17.9616 48.4432 18.179 47.4034 18.179C46.2443 18.179 45.2259 17.9062 44.348 17.3608C43.4744 16.8153 42.7926 16.0398 42.3026 15.0341C41.8168 14.0284 41.5739 12.8352 41.5739 11.4545C41.5739 10.419 41.7124 9.48793 41.9893 8.66122C42.2706 7.83026 42.6669 7.12287 43.1783 6.53906C43.6896 5.95526 44.2947 5.50781 44.9936 5.19673C45.6925 4.88565 46.4616 4.73011 47.3011 4.73011C47.9915 4.73011 48.6349 4.83452 49.2315 5.04332C49.8324 5.24787 50.3672 5.53977 50.8359 5.91903C51.3089 6.29403 51.7031 6.74361 52.0185 7.26776C52.3338 7.78764 52.5511 8.36506 52.6705 9H51.0341ZM59.2463 18.2045C58.3599 18.2045 57.5822 17.9936 56.9132 17.5717C56.2484 17.1499 55.7285 16.5597 55.3535 15.8011C54.9828 15.0426 54.7974 14.1562 54.7974 13.142C54.7974 12.1193 54.9828 11.2266 55.3535 10.4638C55.7285 9.70099 56.2484 9.10866 56.9132 8.68679C57.5822 8.26491 58.3599 8.05398 59.2463 8.05398C60.1326 8.05398 60.9082 8.26491 61.573 8.68679C62.242 9.10866 62.7619 9.70099 63.1326 10.4638C63.5076 11.2266 63.6951 12.1193 63.6951 13.142C63.6951 14.1562 63.5076 15.0426 63.1326 15.8011C62.7619 16.5597 62.242 17.1499 61.573 17.5717C60.9082 17.9936 60.1326 18.2045 59.2463 18.2045ZM59.2463 16.8494C59.9196 16.8494 60.4735 16.6768 60.9082 16.3317C61.3429 15.9865 61.6646 15.5327 61.8734 14.9702C62.0822 14.4077 62.1866 13.7983 62.1866 13.142C62.1866 12.4858 62.0822 11.8743 61.8734 11.3075C61.6646 10.7408 61.3429 10.2827 60.9082 9.93324C60.4735 9.58381 59.9196 9.40909 59.2463 9.40909C58.573 9.40909 58.019 9.58381 57.5843 9.93324C57.1497 10.2827 56.8279 10.7408 56.6191 11.3075C56.4103 11.8743 56.3059 12.4858 56.3059 13.142C56.3059 13.7983 56.4103 14.4077 56.6191 14.9702C56.8279 15.5327 57.1497 15.9865 57.5843 16.3317C58.019 16.6768 58.573 16.8494 59.2463 16.8494ZM69.9865 18.2045C69.1001 18.2045 68.3224 17.9936 67.6534 17.5717C66.9886 17.1499 66.4688 16.5597 66.0938 15.8011C65.723 15.0426 65.5376 14.1562 65.5376 13.142C65.5376 12.1193 65.723 11.2266 66.0938 10.4638C66.4688 9.70099 66.9886 9.10866 67.6534 8.68679C68.3224 8.26491 69.1001 8.05398 69.9865 8.05398C70.8729 8.05398 71.6484 8.26491 72.3132 8.68679C72.9822 9.10866 73.5021 9.70099 73.8729 10.4638C74.2479 11.2266 74.4354 12.1193 74.4354 13.142C74.4354 14.1562 74.2479 15.0426 73.8729 15.8011C73.5021 16.5597 72.9822 17.1499 72.3132 17.5717C71.6484 17.9936 70.8729 18.2045 69.9865 18.2045ZM69.9865 16.8494C70.6598 16.8494 71.2138 16.6768 71.6484 16.3317C72.0831 15.9865 72.4048 15.5327 72.6136 14.9702C72.8224 14.4077 72.9268 13.7983 72.9268 13.142C72.9268 12.4858 72.8224 11.8743 72.6136 11.3075C72.4048 10.7408 72.0831 10.2827 71.6484 9.93324C71.2138 9.58381 70.6598 9.40909 69.9865 9.40909C69.3132 9.40909 68.7592 9.58381 68.3246 9.93324C67.8899 10.2827 67.5682 10.7408 67.3594 11.3075C67.1506 11.8743 67.0462 12.4858 67.0462 13.142C67.0462 13.7983 67.1506 14.4077 67.3594 14.9702C67.5682 15.5327 67.8899 15.9865 68.3246 16.3317C68.7592 16.6768 69.3132 16.8494 69.9865 16.8494ZM80.7012 21.8864C79.9725 21.8864 79.3461 21.7926 78.8219 21.6051C78.2978 21.4219 77.861 21.179 77.5115 20.8764C77.1664 20.5781 76.8915 20.2585 76.687 19.9176L77.8887 19.0739C78.025 19.2528 78.1976 19.4574 78.4064 19.6875C78.6152 19.9219 78.9007 20.1243 79.263 20.2947C79.6294 20.4695 80.1088 20.5568 80.7012 20.5568C81.4938 20.5568 82.1479 20.3651 82.6635 19.9815C83.1792 19.598 83.437 18.9972 83.437 18.179V16.1847H83.3091C83.1983 16.3636 83.0407 16.5852 82.8361 16.8494C82.6358 17.1094 82.3461 17.3416 81.9668 17.5462C81.5918 17.7464 81.0847 17.8466 80.4455 17.8466C79.6529 17.8466 78.9412 17.6591 78.3105 17.2841C77.6841 16.9091 77.1877 16.3636 76.8212 15.6477C76.459 14.9318 76.2779 14.0625 76.2779 13.0398C76.2779 12.0341 76.4547 11.1584 76.8084 10.4126C77.1621 9.66264 77.6543 9.0831 78.285 8.67401C78.9157 8.26065 79.6444 8.05398 80.4711 8.05398C81.1103 8.05398 81.6174 8.16051 81.9924 8.37358C82.3716 8.58239 82.6614 8.82102 82.8617 9.08949C83.0662 9.35369 83.2239 9.57102 83.3347 9.74148H83.4881V8.18182H84.9455V18.2812C84.9455 19.125 84.7537 19.8111 84.3702 20.3395C83.9909 20.8722 83.4796 21.2621 82.8361 21.5092C82.1969 21.7607 81.4853 21.8864 80.7012 21.8864ZM80.65 16.4915C81.2551 16.4915 81.7665 16.353 82.1841 16.076C82.6017 15.799 82.9192 15.4006 83.1365 14.8807C83.3539 14.3608 83.4625 13.7386 83.4625 13.0142C83.4625 12.3068 83.356 11.6825 83.1429 11.1413C82.9299 10.6001 82.6145 10.1761 82.1969 9.86932C81.7793 9.5625 81.2637 9.40909 80.65 9.40909C80.0108 9.40909 79.4782 9.57102 79.052 9.89489C78.6301 10.2187 78.3127 10.6534 78.0996 11.1989C77.8908 11.7443 77.7864 12.3494 77.7864 13.0142C77.7864 13.696 77.8929 14.299 78.106 14.8232C78.3233 15.343 78.6429 15.7521 79.0648 16.0504C79.4909 16.3445 80.0194 16.4915 80.65 16.4915ZM89.2154 4.90909V18H87.7069V4.90909H89.2154ZM96.0948 18.2045C95.1488 18.2045 94.3327 17.9957 93.6467 17.5781C92.9648 17.1562 92.4386 16.5682 92.0678 15.8139C91.7013 15.0554 91.5181 14.1733 91.5181 13.1676C91.5181 12.1619 91.7013 11.2756 92.0678 10.5085C92.4386 9.73722 92.9542 9.13636 93.6147 8.70597C94.2795 8.27131 95.055 8.05398 95.9414 8.05398C96.4528 8.05398 96.9577 8.1392 97.4563 8.30966C97.9549 8.48011 98.4087 8.7571 98.8178 9.14062C99.2269 9.51989 99.5529 10.0227 99.7958 10.6491C100.039 11.2756 100.16 12.0469 100.16 12.9631V13.6023H92.592V12.2983H98.6261C98.6261 11.7443 98.5153 11.25 98.2937 10.8153C98.0763 10.3807 97.7653 10.0376 97.3604 9.78622C96.9599 9.5348 96.4869 9.40909 95.9414 9.40909C95.3406 9.40909 94.8207 9.55824 94.3817 9.85653C93.9471 10.1506 93.6126 10.5341 93.3782 11.0071C93.1438 11.4801 93.0266 11.9872 93.0266 12.5284V13.3977C93.0266 14.1392 93.1545 14.7678 93.4102 15.2834C93.6701 15.7947 94.0302 16.1847 94.4904 16.4531C94.9506 16.7173 95.4854 16.8494 96.0948 16.8494C96.4911 16.8494 96.8491 16.794 97.1687 16.6832C97.4925 16.5682 97.7717 16.3977 98.006 16.1719C98.2404 15.9418 98.4215 15.6562 98.5494 15.3153L100.007 15.7244C99.8533 16.2188 99.5955 16.6534 99.2333 17.0284C98.8711 17.3991 98.4237 17.6889 97.891 17.8977C97.3583 18.1023 96.7596 18.2045 96.0948 18.2045Z" fill="#444444"/>
<defs>
<clipPath id="clip0_666_4679">
<rect x="0.5" width="24" height="24" rx="6" fill="white"/>
</clipPath>
</defs>
</svg>
