<svg width="21" height="21" viewBox="0 0 21 21" fill="none" xmlns="http://www.w3.org/2000/svg">
<path fill-rule="evenodd" clip-rule="evenodd" d="M11.476 0.000478045L11.4674 0H10.9313C9.43375 0 7.93529 0.34031 6.57205 1.02193C4.93396 1.84097 3.64137 3.06832 2.62614 4.62502C1.60269 6.19429 1.12624 7.96613 1.12497 9.79894C1.05973 11.1976 1.38159 12.5884 1.95907 13.8479L0.0972776 19.4333C-0.111521 19.7915 0.0447736 20.197 0.292697 20.4449C0.37697 20.5292 0.473579 20.6047 0.592215 20.6574C0.7122 20.7108 0.839087 20.7337 0.97423 20.7337H1.3545L6.96334 18.8423C8.21897 19.3567 9.60469 19.6786 10.9972 19.6786C12.8399 19.6786 14.6098 19.1325 16.1703 18.1825C17.7389 17.2278 18.9652 15.8642 19.7816 14.2315C20.4641 12.8664 20.8035 11.3016 20.8035 9.80631V9.2699L20.803 9.26105C20.6668 6.87796 19.6462 4.56375 17.943 2.86055C16.239 1.15659 13.9243 0.136493 11.476 0.000478045ZM2.29271 13.8288C1.69922 12.5759 1.3695 11.1911 1.43545 9.80631C1.43545 8.02584 1.89705 6.31132 2.8862 4.79462C3.87535 3.27793 5.12827 2.09095 6.71091 1.29963C8.02977 0.640198 9.48052 0.310482 10.9313 0.310482H11.4588C13.2393 0.409396 14.9456 0.990521 16.3829 1.9704C14.9456 0.990547 13.2393 0.409446 11.4589 0.310532H10.9313C9.48058 0.310532 8.02983 0.640248 6.71096 1.29968C5.12832 2.091 3.8754 3.27798 2.88625 4.79467C1.89711 6.31137 1.4355 8.02589 1.4355 9.80636C1.36956 11.1912 1.69928 12.576 2.29276 13.8289L0.380411 19.566C0.248524 19.7638 0.314467 20.0276 0.512297 20.2254C0.512277 20.2254 0.512261 20.2254 0.512241 20.2253C0.314411 20.0275 0.248468 19.7637 0.380354 19.5659L2.29271 13.8288ZM7.23845 17.2579C7.04062 17.126 6.90874 17.126 6.71091 17.192L2.02902 18.7746L2.02899 18.7746L6.71096 17.192C6.90879 17.1261 7.04068 17.1261 7.23851 17.2579C8.35954 17.8514 9.67841 18.1152 10.9313 18.1152C12.448 18.1152 13.9647 17.7195 15.2836 16.8623C16.6024 16.071 17.6575 14.884 18.317 13.5651C18.9105 12.4441 19.1742 11.1912 19.1742 9.8723V9.34476C19.0588 7.61372 18.388 5.93318 17.2944 4.5682C18.388 5.93317 19.0588 7.6137 19.1742 9.34471V9.87225C19.1742 11.1911 18.9104 12.444 18.3169 13.5651C17.6575 14.8839 16.6024 16.0709 15.2835 16.8622C13.9647 17.7195 12.448 18.1152 10.9313 18.1152C9.67835 18.1152 8.35949 17.8514 7.23845 17.2579ZM16.8647 4.07164C16.8434 4.04877 16.8219 4.026 16.8003 4.00335C16.8003 4.00334 16.8002 4.00332 16.8002 4.0033C16.8219 4.02597 16.8434 4.04875 16.8647 4.07164ZM6.61272 16.8974L2.52089 18.2806L3.92205 14.0771V14.0225C3.92206 13.9583 3.92207 13.8629 3.91227 13.765C3.90271 13.6693 3.88168 13.5448 3.82524 13.4301C3.31558 12.346 2.99885 11.0732 2.99885 9.87225C2.99885 8.35299 3.44127 6.95683 4.20753 5.67974C4.96938 4.40998 6.04548 3.39874 7.37128 2.76724C8.45827 2.25582 9.66594 1.93983 10.8653 1.93983H11.4538C13.41 2.00422 15.1803 2.82368 16.5781 4.22028C17.9103 5.61712 18.7346 7.45627 18.8637 9.35515V9.87225C18.8637 11.1496 18.6083 12.3509 18.0424 13.4198L18.0392 13.4262C17.4047 14.6953 16.3891 15.8366 15.1237 16.5958L15.1143 16.6019C13.8509 17.4231 12.3942 17.8047 10.9313 17.8047C9.72342 17.8047 8.46177 17.5509 7.39659 16.9903C7.27536 16.9115 7.14887 16.8561 7.00557 16.8418C6.85969 16.8272 6.7287 16.8587 6.61272 16.8974Z" fill="white"/>
</svg>
