<svg width="24" height="51" viewBox="0 0 24 51" fill="none" xmlns="http://www.w3.org/2000/svg">
<path d="M6.66525 12.8862V44.7644C6.66525 45.3319 6.21 45.7859 5.65243 45.7859H2.0973C1.53462 45.7859 1.08447 45.3267 1.08447 44.7644V12.8862C1.08447 12.3187 1.53974 11.8647 2.0973 11.8647H5.65243C6.21 11.8647 6.66525 12.3239 6.66525 12.8862Z" fill="#F46B5D"/>
<path d="M18.4813 16.9104L23.3664 49.0414C23.4278 49.4283 23.1618 49.7895 22.7782 49.8514L18.6501 50.4911C18.2665 50.553 17.9084 50.2847 17.847 49.8978L12.9619 17.7668C12.9006 17.3799 13.1666 17.0188 13.5502 16.9569L17.6782 16.3171C18.0619 16.2552 18.4251 16.5183 18.4813 16.9104Z" fill="#F1562A"/>
<path d="M1.55501 7.42873C0.716099 6.80447 0.2148 5.9687 0.0511112 4.90592C-0.112578 3.84314 0.117619 2.88871 0.731453 2.04261C1.24298 1.34097 1.89773 0.876653 2.70595 0.644493C3.9643 0.283355 5.36078 0.608379 6.31733 1.51638C6.93628 2.10452 7.31482 2.85259 7.45293 3.7606C7.59104 4.6686 7.45292 5.49922 7.03347 6.24729C6.39406 7.39777 5.16128 8.13552 3.85176 8.16648C3.01797 8.19228 2.25068 7.94464 1.55501 7.42873Z" fill="#F46B5D"/>
<path d="M11.3354 12.1182C10.5988 11.3753 10.2305 10.4673 10.2305 9.39423C10.2305 8.32113 10.5988 7.41313 11.3354 6.67022C11.9441 6.05628 12.6653 5.69514 13.494 5.59196C14.7933 5.42687 16.1233 5.96342 16.9315 7.00556C17.4533 7.6814 17.7193 8.48106 17.7193 9.39939C17.7193 10.3177 17.4584 11.1174 16.9315 11.7932C16.1284 12.8302 14.7933 13.3719 13.4991 13.2068C12.6654 13.0933 11.9441 12.7373 11.3354 12.1182Z" fill="#F1562A"/>
</svg>
