<svg width="258" height="294" viewBox="0 0 258 294" fill="none" xmlns="http://www.w3.org/2000/svg">
<path d="M196.561 278.843C142.771 308.311 82.2051 286.154 62.2238 278.843C36.1347 269.297 5.1525 257.961 0.501135 234.998C-2.95285 217.95 12.2217 214.793 22.2843 172.888C28.0352 148.952 25.9225 138.132 36.8083 121.738C42.3922 113.327 46.8018 110.367 51.3323 99.8182C58.2518 83.7027 53.2205 78.385 58.5914 66.9385C65.9657 51.2169 78.0489 55.7121 94.8986 37.7082C112.203 19.2235 107.684 5.68583 120.314 1.17906C134.614 -3.92436 153.455 8.76758 163.88 15.7942C176.643 24.3907 180.413 31.2667 192.928 34.0588C201.679 36.0109 204.378 33.6649 214.712 34.0588C218.517 34.2036 245.838 35.2463 254.651 48.6739C261.916 59.7381 251.882 72.0071 232.868 129.048C230.819 135.2 226.547 148.223 221.976 165.583C219.772 173.954 218.672 178.136 218.344 180.199C213.894 208.311 235.096 222.804 232.868 242.309C230.836 260.063 210.624 271.139 196.561 278.843Z" fill="white"/>
<path d="M84.3281 130.17C85.1976 130.409 85.6779 126.298 87.3256 123.289C87.66 122.683 88.5902 115.165 89.5813 112.874C93.284 104.345 111.196 84.7274 115.628 89.2183C115.829 89.4205 116.71 90.2292 117.549 91.6384C118.267 92.8454 119.118 94.4873 120.249 96.6807C120.249 96.6807 121.787 99.6583 122.675 103.267C122.784 103.708 122.851 104.149 122.851 104.149C122.961 104.885 122.9 105.375 123.362 108.181C123.794 110.809 124.395 113.732 124.395 113.738C124.395 113.738 125.247 116.415 125.484 118.59C125.885 122.272 124.651 125.703 124.395 126.414C123.398 129.196 122.523 129.41 122.365 131.309C122.188 133.386 123.161 134.011 123.672 136.29C123.903 137.332 124.012 138.582 122.194 147.288C121.301 151.571 120.851 153.709 120.06 156.699C118.771 161.57 118.473 161.563 117.89 164.596C117.118 168.615 117.416 169.779 116.443 171.673C115.123 174.234 113.05 175.079 112.241 175.404C110.405 176.151 108.417 176.115 104.423 174.185C99.1026 171.617 99.741 170.288 93.5697 166.575C90.1893 164.535 87.7451 163.579 86.5777 160.019C86.1035 158.574 85.8907 156.864 85.7873 156C85.1611 150.915 86.14 148.091 85.1307 147.172" fill="#B66241"/>
<path d="M109.402 65.11C101.225 75.599 97.1328 80.8435 89.9036 84.7586C84.4194 87.73 77.0261 90.144 75.9743 95.989C75.7615 97.1714 75.8831 98.1027 75.9743 98.795C77.0383 106.68 85.903 107.967 86.2374 113.542C86.4684 117.371 82.3766 118.241 82.7839 122.242C83.1852 126.182 87.271 126.555 89.6908 130.942C93.3327 137.541 90.8886 148.943 84.3282 152.129C80.7532 153.863 76.8741 152.484 75.9682 152.129C71.5663 150.401 69.3106 146.486 64.8235 135.286C58.8955 120.496 55.9467 112.985 56.4635 107.213C56.6459 105.216 56.9134 104.334 62.0328 90.3707C67.3285 75.9299 69.9855 68.7125 70.3928 67.9099C72.612 63.5415 80.054 48.9046 95.4668 42.643C104.04 39.1569 117.361 37.3434 120.541 42.643C123.332 47.2994 116.443 56.0852 109.402 65.11Z" fill="#561E15"/>
<path d="M15.4173 238.865C15.1558 241.353 13.9885 241.867 12.9001 243.699C13.9885 244.459 15.1072 245.176 16.2806 245.819C23.0659 249.538 31.4989 250.837 31.4989 250.837C42.8503 252.546 48.9121 258.716 73.372 265.78C79.1845 267.459 84.3708 268.709 88.7119 269.646C97.23 273.108 108.989 276.631 123.222 277.372C126.481 277.544 140.428 278.12 157.732 273.506C168.001 270.774 164.499 270.192 185.822 262.692C197.009 258.759 203.563 256.651 212.592 251.315C216.119 249.232 220.557 246.444 223.761 242.915C223.7 242.633 223.652 242.321 223.609 241.966C223.117 237.689 225.032 236.255 223.609 233.541C222.576 231.568 221.189 231.611 218.04 227.929C217.979 227.856 216.562 226.195 215.766 224.933C212.349 219.529 215.73 214.303 214.039 207.527C213.158 203.992 211.796 203.673 208.859 198.827C207.041 195.825 205.977 193.343 205.308 191.125C202.025 180.324 203.272 179.043 200.225 172.721C196.553 165.105 190.163 160.773 184.679 157.054C181.669 155.014 179.712 154.132 177.772 153.574C172.653 152.098 168.354 153.047 165.679 153.574C153.294 156.001 142.143 158.188 138.045 153.574C134.628 149.727 135.893 140.916 134.47 140.904C134.464 140.904 134.452 140.904 134.452 140.904C133.929 140.916 127.01 141.039 117.756 140.904C96.3727 140.586 92.5788 139.299 89.8975 138.098C85.8482 136.285 83.0757 134.116 81.5375 135.292C79.4824 136.867 84.5653 144.452 81.5375 149.329C79.9141 151.945 75.6642 152.521 67.2312 153.574C58.3544 154.683 51.5751 154.401 46.5044 157.054C43.6711 158.537 41.3242 160.534 41.3242 160.534C40.1143 161.564 40.169 161.698 37.8708 164.014C34.0647 167.844 33.025 168.377 32.5021 170.129C31.9671 171.924 32.7088 173.407 32.6906 174.454C32.5264 182.67 30.1856 189.392 27.5104 197.081C25.6621 202.386 24.8474 203.508 24.057 207.527C22.9443 213.176 23.9232 214.205 22.3303 217.973C20.9866 221.147 18.4208 224.841 17.1501 226.673C15.5146 229.032 15.0342 229.43 14.6877 230.735C13.8061 234.025 15.776 235.44 15.4173 238.865Z" fill="#ECD6C7"/>
<path d="M81.4219 111.03C80.4856 110.038 79.1966 111.269 76.5396 110.528C73.1531 109.578 71.2926 106.472 70.7332 105.54C69.7179 103.843 70.2468 103.537 68.9396 98.1883C67.906 93.9302 67.4804 93.6177 67.6385 92.086C67.8756 89.7517 69.2801 87.1417 71.6331 85.8612C75.0379 84.0109 79.3486 85.2669 81.0085 87.5093C81.7624 88.5264 82.3278 90.2357 82.4129 90.4869C83.1547 92.7232 82.8021 93.6116 83.3797 93.8934" fill="#D3805B"/>
<path d="M209.692 39.8431C218.934 40.2536 227.336 41.3135 234.766 42.6492C239.083 43.752 245.959 45.8351 245.911 48.2613C245.85 51.098 236.408 53.2117 231.981 53.8734C211.328 56.9736 197.295 59.0751 179.049 53.8734C145.481 44.3095 120.383 16.9534 123.332 11.7701C124.122 10.3794 127.575 10.845 134.476 11.7701C141.711 12.7443 152.953 15.1521 167.904 23.0005C174.604 26.5173 183.469 31.866 192.978 39.8431C198.164 39.6164 203.752 39.5796 209.692 39.8431Z" fill="#ECEBEA"/>
<path d="M78.6109 180.541C83.3753 172.772 80.9875 162.582 73.2776 157.781C65.5677 152.98 55.4553 155.386 50.6909 163.155C45.9265 170.924 48.3143 181.114 56.0242 185.915C63.7341 190.716 73.8464 188.31 78.6109 180.541Z" fill="#D3805B"/>
<path d="M77.8348 93.6794C79.0873 93.9612 79.5676 89.8501 81.7686 86.9093C82.2125 86.315 83.1731 78.8035 84.4742 76.5489C89.3321 68.1552 113.877 49.3153 120.413 54.0574C120.705 54.2719 122 55.1296 123.265 56.5878C124.347 57.8377 125.642 59.5348 127.363 61.7956C127.363 61.7956 129.703 64.8651 131.144 68.5412C131.321 68.9884 131.442 69.4357 131.442 69.4357C131.631 70.1831 131.576 70.6672 132.373 73.5161C133.12 76.1813 134.118 79.1528 134.118 79.1528C134.118 79.1528 135.461 81.8853 135.905 84.0909C136.653 87.816 135.066 91.2041 134.738 91.9026C133.455 94.6474 132.221 94.8251 132.081 96.7244C131.935 98.8014 133.351 99.4814 134.191 101.803C134.574 102.863 134.786 104.126 132.622 112.789C131.558 117.053 131.023 119.179 130.044 122.144C128.445 126.978 128.025 126.96 127.344 129.981C126.438 133.987 126.925 135.17 125.63 137.026C123.879 139.538 120.96 140.28 119.83 140.574C117.252 141.229 114.418 141.095 108.63 138.956C100.921 136.107 101.766 134.808 92.8038 130.759C87.8851 128.541 84.3648 127.456 82.5225 123.817C81.7747 122.34 81.3916 120.613 81.1971 119.737C80.054 114.59 81.3126 111.796 79.8291 110.822" fill="#D3805B"/>
<path d="M104.891 80.3046C104.295 80.5987 103.754 79.5326 101.778 78.7362C100.635 78.2705 99.6925 78.1909 97.8138 78.0254C95.8378 77.8478 95.1872 78.0438 94.8407 78.1664C94.5731 78.2644 93.7766 78.5646 93.0592 79.2937C92.3478 80.0167 92.0986 80.7702 92.0074 80.7335C91.9101 80.6906 92.0195 79.7716 92.5181 78.9322C93.5942 77.1248 95.9047 76.6776 96.5309 76.555C97.4551 76.3773 98.1907 76.4141 99.3216 76.4692C100.763 76.5428 100.866 76.7266 102.465 76.8185C104.101 76.9165 104.417 76.745 104.824 77.0819C105.736 77.8355 105.633 79.937 104.891 80.3046Z" fill="#561E15"/>
<path d="M60.4337 180.214C62.738 181.311 66.6049 182.781 71.5784 183.02C78.0475 183.326 83.0271 181.384 85.5077 180.214C87.4168 176.82 89.3077 173.076 91.077 168.984C95.5458 158.672 98.0325 149.035 99.437 140.911C92.6213 142.375 84.1397 143.613 74.363 143.717C63.3521 143.839 53.8855 142.497 46.5044 140.911C46.6503 146.897 47.6535 156.087 52.0737 166.178C54.6577 172.059 57.7281 176.722 60.4337 180.214Z" fill="#ECEBEA"/>
<path d="M99.437 140.911C99.437 142.461 87.5871 143.717 72.9707 143.717C58.3544 143.717 46.5044 142.461 46.5044 140.911C46.5044 139.361 58.3544 138.105 72.9707 138.105C87.5871 138.098 99.437 139.361 99.437 140.911Z" fill="#DCDCDC"/>
<path d="M88.6389 172.561L87.9458 171.018C89.9583 170.098 107.602 161.766 106.958 152.196C106.915 151.553 106.599 148.281 104.629 147.282C102.574 146.235 98.4399 147.748 94.5183 152.674L93.205 151.614C97.2847 146.486 102.179 144.139 105.383 145.775C108.089 147.154 108.551 150.958 108.63 152.086C109.341 162.569 92.1045 170.981 88.6389 172.561Z" fill="#ECEBEA"/>
<path d="M151.19 152.135L81.5436 121.256C94.5427 83.8271 107.548 46.3924 120.547 8.96387C131.096 12.0089 143.469 16.4447 156.766 23.0003C171.51 30.2728 183.566 38.2744 192.984 45.4611C201.089 44.487 211.571 44.0091 223.628 45.4611C233.483 46.6497 241.928 48.8309 248.701 51.0733C236.627 86.6331 224.558 122.193 212.483 157.753L153.981 152.141" fill="#965E4F"/>
<path d="M196.334 45.5139L161.778 146.457L162.657 146.762L197.214 45.8195L196.334 45.5139Z" fill="#754B42"/>
<path d="M56.8405 221.803C59.5157 220.393 59.0718 217.495 62.2274 209.243C63.2914 206.467 63.5528 206.234 64.4891 203.545C66.0456 199.078 65.9605 197.841 66.7509 195.568C68.6783 190.023 76.0959 183.351 75.798 183.026C75.6703 182.885 74.5029 184.435 72.4114 184.907C70.4901 185.342 68.7999 184.625 65.5045 183.167C63.0725 182.095 61.8626 181.556 61.0904 180.741C59.2421 178.78 59.8805 177.255 57.6978 175.043C56.3845 173.713 55.5941 173.683 55.436 172.764C55.1502 171.079 57.716 170.264 57.6978 168.205C57.6856 166.68 56.3054 165.516 55.436 164.787C54.0193 163.604 53.3323 163.843 49.9579 162.281C47.9515 161.356 46.4984 160.547 46.5044 160.541C46.5044 160.535 47.1307 160.847 49.9579 162.281C49.3803 160.541 48.8088 158.801 48.2312 157.061C47.6536 157.061 47.082 157.061 46.5044 157.061C49.9457 158.188 53.2411 157.251 54.5544 155.088C54.8097 154.665 55.3569 153.587 55.1441 151.841C54.8158 151.351 54.2686 150.664 53.4174 150.101C51.1131 148.569 48.8513 149.843 46.5105 148.361C45.8356 147.938 45.2641 147.356 44.7838 146.621C44.7777 146.241 44.7716 145.628 44.7838 144.881C44.8568 140.586 45.4283 136.683 45.4283 136.683C45.4283 136.677 45.787 135.347 46.5105 132.695C47.0638 129.968 46.0059 127.781 44.7838 127.475C43.7016 127.205 42.1572 128.338 41.3303 129.215C40.6372 129.95 40.698 130.336 39.6036 132.695C39.3969 133.136 38.9348 134.165 37.8769 136.175C36.442 138.907 36.2596 138.876 36.1502 139.655C36.0407 140.433 36.0225 141.928 36.1502 143.135C36.1562 143.19 36.1623 143.22 36.1684 143.306C36.211 143.698 36.2961 144.66 36.2961 145.879C36.4177 146.829 36.5697 147.417 36.2961 148.177C35.8279 149.488 34.7578 149.457 34.0161 150.481C32.7028 152.27 34.7092 154.114 34.0161 157.386C33.5783 159.438 32.563 159.75 32.0279 160.896C32.0279 160.896 31.8334 161.35 31.73 161.987C31.6145 162.722 33.706 166.429 33.9492 168.205C34.393 171.44 29.5351 172.323 29.2372 176.207C29.1338 177.579 30.7572 180.067 34.01 184.993C35.8948 187.848 36.8372 189.275 37.3418 189.864C38.9531 191.745 42.8747 195.807 43.0935 198.104C43.13 198.459 43.1422 198.796 43.1422 198.796C43.1604 199.746 43.0327 200.5 43.0388 201.664C43.0449 202.583 43.13 203.232 43.1422 203.398C43.4158 206.694 38.7889 211.075 39.5975 214.499C39.8468 215.553 40.9169 216.362 43.051 217.979C44.6865 219.223 47.8542 221.214 52.2683 221.803C54.676 222.121 55.8859 222.305 56.8405 221.803Z" fill="#D3805B"/>
<path d="M189.566 43.4884L155.997 139.145L156.874 139.457L190.443 43.801L189.566 43.4884Z" fill="#754B42"/>
<path d="M181.122 204.359C182.016 204.341 185.165 204.163 187.561 201.976C188.813 200.836 189.269 199.611 190.133 197.209C191.209 194.219 192.315 191.144 191.422 187.67C191.063 186.291 190.491 185.237 188.85 182.903C187.585 181.108 186.539 179.766 185.64 178.694C183.22 175.79 181.73 174.087 181.122 173.364C177.821 169.442 176.793 165.184 174.835 157.066C174.276 154.744 173.698 151.963 172.957 148.366C171.181 139.77 170.032 138.692 169.199 137.92C167.229 136.094 166.712 137.369 157.921 134.44C153.415 132.939 151.221 131.824 148.527 132.7C147.645 132.988 147.536 133.215 144.77 134.44C142.131 135.61 141.122 135.892 139.93 136.407C135.388 138.374 131.594 142.24 132.208 143.563C132.664 144.543 135.558 144.727 136.027 144.752C136.039 144.752 136.051 144.752 136.069 144.752C136.933 144.794 138.647 144.721 141.511 143.14C143.383 142.105 143.687 141.566 144.964 141.4C145.402 141.345 145.317 141.412 146.691 141.4C146.855 141.4 147.956 141.4 150.144 141.4C153.592 141.4 156.267 143.287 157.921 143.14C158.073 143.128 158.286 143.097 158.298 143.14C158.346 143.306 148.454 142.252 144.764 143.14C144.508 143.201 144.332 143.244 144.058 143.348C142.678 143.869 140.866 145.321 133.485 151.901C132.719 152.588 132.075 153.164 131.606 153.58C130.354 154.738 129.101 155.902 127.849 157.06C127.685 157.55 127.581 158.188 127.849 158.8C128.554 160.393 131.412 160.896 133.485 160.54C135.51 160.191 136.288 159.113 139.121 157.06C140.726 155.896 142.593 154.708 144.757 153.58C144.04 155.069 143.365 156.245 142.879 157.06C141.851 158.776 141.28 159.382 141 160.54C140.641 162.017 140.824 163.273 141 164.02C141 164.02 140.1 167.292 141.207 168.591C142.24 169.792 144.691 168.193 148.928 168.591C150.345 168.726 151.5 169.014 152.272 169.246C153.203 169.902 153.792 170.545 154.151 170.986C156.322 173.676 155.58 176.078 157.909 179.686C158.48 180.575 158.869 180.973 158.997 181.083C160.14 182.107 161.271 182.695 163.326 183.479C166.822 184.808 166.676 184.545 167.308 184.906C168.032 185.323 169.223 186.248 171.066 193.606C171.899 196.927 172.604 200.536 174.908 202.429C175.401 202.833 175.96 203.158 175.96 203.158C178.167 204.396 180.435 204.371 181.122 204.359Z" fill="#D3805B"/>
<path d="M70.3989 93.183C70.4049 92.4722 70.2104 91.7677 69.7969 91.2408C69.5902 90.9773 69.3288 90.769 69.0369 90.6526C68.891 90.6036 68.739 90.5607 68.5809 90.5546C68.4229 90.5484 68.2648 90.5668 68.1128 90.6097C67.8027 90.6893 67.5169 90.8548 67.3102 91.0876C67.0974 91.3204 66.988 91.6267 66.9637 91.9515C66.9333 92.607 67.2981 93.2687 67.8817 93.6792C67.2251 93.4096 66.6961 92.7296 66.6718 91.9515C66.6597 91.5655 66.7873 91.1611 67.0427 90.8548C67.2981 90.5484 67.6507 90.3463 68.0216 90.2421C68.2101 90.1931 68.4046 90.1747 68.5992 90.1808C68.7937 90.187 68.9944 90.2421 69.1707 90.3156C69.5233 90.481 69.8273 90.7445 70.028 91.0631C70.4475 91.7003 70.563 92.4906 70.3989 93.183Z" fill="#FBDBCF"/>
<path d="M71.1894 95.4867C71.1955 94.776 71.0009 94.0714 70.5875 93.5445C70.3808 93.281 70.1193 93.0727 69.8275 92.9563C69.6815 92.9073 69.5295 92.8644 69.3715 92.8583C69.2134 92.8521 69.0553 92.8705 68.9033 92.9134C68.5932 92.9931 68.3075 93.1585 68.1007 93.3913C67.8879 93.6241 67.7785 93.9305 67.7542 94.2552C67.7238 94.9107 68.0886 95.5724 68.6723 95.9829C68.0156 95.7133 67.4867 95.0333 67.4623 94.2552C67.4502 93.8692 67.5779 93.4648 67.8332 93.1585C68.0886 92.8521 68.4412 92.65 68.8121 92.5458C69.0006 92.4968 69.1951 92.4784 69.3897 92.4845C69.5843 92.4907 69.7849 92.5458 69.9612 92.6193C70.3139 92.7847 70.6179 93.0482 70.8185 93.3668C71.2441 94.004 71.3536 94.7943 71.1894 95.4867Z" fill="#FBDBCF"/>
<path d="M76.035 105.534C75.7857 106.233 76.2721 107.109 76.9956 107.207C77.7253 107.305 78.4366 106.509 78.2117 105.804C77.9867 105.099 76.8741 104.903 76.4667 105.522" fill="#FBDBCF"/>
<path d="M46.9726 153.728C47.3192 154.114 47.7265 154.286 48.5352 154.598C49.9944 155.174 50.7301 155.462 51.4779 155.241C52.396 154.972 52.2379 154.255 53.8856 152.582C54.7611 151.7 55.0955 151.602 55.0894 151.253C55.0651 150.346 52.7061 149.574 50.5902 149.733C50.1281 149.77 47.3739 149.978 46.6261 151.516C46.2491 152.288 46.468 153.158 46.9726 153.728Z" fill="#FFB792"/>
<path d="M50.262 164.039C49.6236 164.885 50.189 166.257 50.262 166.429C50.9308 167.991 52.6392 168.481 53.8248 168.818C55.0895 169.18 56.3298 169.535 57.3877 168.818C58.1052 168.328 58.7375 167.354 58.5733 166.429C58.3423 165.081 56.5426 164.517 55.0105 164.039C53.8005 163.659 51.174 162.838 50.262 164.039Z" fill="#FFB792"/>
<path d="M33.4993 170.766C34.01 170.055 34.618 169.412 35.3172 168.873C35.6638 168.603 36.0346 168.364 36.4238 168.15L36.7217 167.997C36.825 167.948 36.9345 167.905 37.0378 167.868C37.2506 167.794 37.4634 167.739 37.6762 167.684C38.5274 167.47 39.3786 167.298 40.2298 167.114C41.081 166.937 41.9383 166.747 42.8321 166.655C43.282 166.636 43.7502 166.643 44.2123 166.759C44.4433 166.814 44.6683 166.894 44.8811 166.992C45.0878 167.09 45.2945 167.194 45.4951 167.329C45.9025 167.598 46.2247 168.033 46.3585 168.511C46.5044 168.983 46.4923 169.479 46.395 169.939C46.1883 170.858 45.6532 171.654 44.9905 172.261C44.6743 172.573 44.3156 172.849 43.9447 173.1C43.5739 173.345 43.1847 173.56 42.7835 173.75C41.987 174.13 41.1722 174.424 40.3818 174.785C39.5914 175.147 38.8314 175.557 38.114 176.041C36.6609 176.985 35.4084 178.241 34.4113 179.68C35.3598 178.21 36.5818 176.911 38.0228 175.912C38.7342 175.404 39.4942 174.957 40.2785 174.571C41.0628 174.179 41.8715 173.854 42.6375 173.462C43.0206 173.266 43.3854 173.045 43.738 172.8C44.0785 172.549 44.4129 172.279 44.7047 171.973C45.0148 171.679 45.2702 171.348 45.483 170.986C45.6897 170.625 45.8478 170.239 45.9207 169.841C45.9937 169.443 45.9876 169.032 45.8599 168.671C45.7444 168.303 45.5012 168.003 45.179 167.794C45.0209 167.69 44.8324 167.604 44.6379 167.519C44.4555 167.439 44.267 167.378 44.0724 167.341C43.6894 167.255 43.2759 167.261 42.8625 167.292C42.0235 167.323 41.1601 167.457 40.3028 167.58C39.4455 167.709 38.5822 167.831 37.731 167.99C37.5182 168.033 37.3114 168.076 37.1047 168.131C37.0014 168.162 36.9041 168.193 36.8068 168.229L36.515 168.358C36.1258 168.536 35.7489 168.75 35.3902 168.995C34.691 169.492 34.0525 170.086 33.4993 170.766Z" fill="#BE6D4C"/>
<path d="M37.8708 165.761C39.8347 166.282 41.7864 166.882 43.7077 167.587C44.6379 168.015 45.556 168.463 46.4558 168.947C46.9058 169.186 47.3496 169.431 47.7995 169.651C48.2494 169.872 48.7115 170.074 49.1858 170.246C51.0706 170.944 53.1317 171.177 55.1442 170.944C53.1438 171.287 51.0462 171.165 49.0824 170.552C48.5899 170.399 48.1096 170.221 47.6354 170.019C47.1611 169.817 46.699 169.59 46.243 169.382C45.3249 168.953 44.3947 168.555 43.4584 168.181C41.6405 167.286 39.7739 166.484 37.8708 165.761Z" fill="#BE6D4C"/>
<path d="M46.2309 167.924C45.8904 167.152 43.7746 166.809 42.139 167.268C41.1358 167.55 39.6827 168.304 39.6158 169.443C39.5672 170.227 40.1874 171.067 41.1115 171.293C43.2091 171.814 46.7598 169.125 46.2309 167.924Z" fill="#FFB792"/>
<path d="M44.4371 200.095C44.6925 200.634 45.0026 201.155 45.3856 201.596C45.7687 202.043 46.2368 202.411 46.7597 202.632C47.2826 202.852 47.8541 202.926 48.4195 202.883C48.985 202.84 49.5383 202.687 50.0794 202.491C51.1799 202.154 52.2317 201.602 53.2349 200.984C54.2442 200.365 55.2048 199.666 56.1533 198.949C57.1018 198.226 58.026 197.473 58.9501 196.719C59.4122 196.346 59.8804 195.972 60.3546 195.61C60.8349 195.255 61.3153 194.887 61.8625 194.648C61.3274 194.912 60.8653 195.304 60.4033 195.678C59.9473 196.058 59.4973 196.456 59.0474 196.848C58.1537 197.638 57.2599 198.435 56.3418 199.207C55.4237 199.973 54.4813 200.72 53.4842 201.394C52.4871 202.068 51.4352 202.687 50.2679 203.103C49.672 203.269 49.0519 203.379 48.4256 203.367C47.7994 203.361 47.1671 203.22 46.6138 202.926C46.0605 202.632 45.5984 202.197 45.2519 201.7C44.9114 201.204 44.6439 200.659 44.4371 200.095Z" fill="#BE6D4C"/>
<path d="M54.8037 173.444C55.4664 175.362 56.1596 177.267 57.0108 179.087C57.7221 180.955 58.5733 182.799 59.8197 184.362C60.1359 184.748 60.4703 185.122 60.8412 185.446C61.0175 185.618 61.2242 185.765 61.4188 185.918C61.5221 185.991 61.6255 186.059 61.7288 186.126C61.7836 186.163 61.8322 186.194 61.8869 186.23L62.0511 186.322C62.9084 186.825 63.9116 187.07 64.9209 187.064L64.5439 187.07L64.3554 187.076L64.1669 187.064C64.0393 187.051 63.9177 187.045 63.79 187.033L63.413 186.966C62.9205 186.862 62.4281 186.702 61.9781 186.463L61.8079 186.377C61.7532 186.347 61.6984 186.31 61.6437 186.279C61.5343 186.212 61.4248 186.151 61.3154 186.083C61.1087 185.936 60.8898 185.795 60.7013 185.63C60.3 185.311 59.9413 184.944 59.5948 184.57C58.2328 183.032 57.26 181.194 56.4392 179.332C55.7461 177.389 55.2597 175.417 54.8037 173.444Z" fill="#BE6D4C"/>
<path d="M37.8708 139.654C38.7585 139.526 39.6097 139.274 40.4001 138.919C42.0661 138.509 43.6347 137.553 44.7838 136.174C43.811 137.675 42.3214 138.876 40.5947 139.526C39.6766 139.697 38.7585 139.74 37.8708 139.654Z" fill="#BE6D4C"/>
<path d="M36.8737 158.654C37.6823 157.857 38.6186 157.146 39.7009 156.662C40.2663 156.497 40.85 156.405 41.4215 156.35C41.9991 156.301 42.5706 156.307 43.1422 156.326C44.2791 156.375 45.4039 156.497 46.5348 156.583C45.4039 156.601 44.267 156.589 43.1422 156.644C42.5828 156.681 42.0234 156.73 41.4762 156.828C40.9351 156.932 40.4001 157.067 39.8954 157.269C38.8375 157.52 37.8161 158.023 36.8737 158.654Z" fill="#BE6D4C"/>
<path d="M49.9031 162.023L47.3739 161.08C46.9543 160.921 46.5287 160.768 46.1092 160.602L44.8506 160.094C44.4494 159.885 44.0481 159.671 43.659 159.475C43.4644 159.377 43.2698 159.297 43.0692 159.23C42.8686 159.162 42.6558 159.107 42.443 159.058C41.61 158.862 40.7041 158.911 39.8042 158.905C38.0045 158.923 36.2049 158.838 34.4113 158.795C36.2049 158.733 38.0045 158.709 39.7921 158.586C40.242 158.562 40.6858 158.525 41.1418 158.513C41.5918 158.494 42.066 158.507 42.5281 158.586C42.7591 158.623 42.9841 158.672 43.209 158.733C43.4401 158.795 43.665 158.88 43.8778 158.966C44.3034 159.144 44.7047 159.334 45.1182 159.518L46.2977 160.167C46.6929 160.382 47.0942 160.578 47.4955 160.786L49.9031 162.023Z" fill="#BE6D4C"/>
<path d="M48.4379 149.341C46.9361 149.433 45.4161 149.255 43.9326 149.194C43.1908 149.077 42.4795 149.01 41.7499 149.059C41.0203 149.096 40.2907 149.224 39.5611 149.396C38.1079 149.727 36.667 150.205 35.1774 150.407C36.6487 150.094 38.035 149.525 39.4759 149.084C40.1995 148.863 40.9351 148.673 41.7012 148.581C42.4612 148.477 43.2516 148.495 43.9995 148.557C45.4952 148.838 46.9361 149.218 48.4379 149.341Z" fill="#BE6D4C"/>
<path d="M77.1537 103.458C76.2661 103.133 75.3966 102.667 74.7582 101.926C74.4421 101.558 74.1928 101.13 74.0165 100.67C73.8401 100.217 73.7307 99.7388 73.6456 99.2609C73.4753 98.3112 73.3841 97.3555 73.1227 96.4732C72.8613 95.6032 72.3384 94.8006 71.9736 93.8754C71.8033 93.4098 71.6757 92.9013 71.6878 92.3683C71.6939 91.8291 71.8459 91.3328 72.0708 90.8672C72.5268 89.9421 73.3477 89.2252 74.3022 88.8944C74.5393 88.8147 74.7886 88.7535 75.0379 88.7228C75.2872 88.6922 75.5425 88.6799 75.7918 88.7044C76.2965 88.7412 76.7829 88.9005 77.2267 89.1272C77.6706 89.36 78.0597 89.6786 78.3941 90.0401C78.7346 90.3954 79.0142 90.8243 79.1966 91.2899C79.379 91.7556 79.452 92.258 79.4581 92.742C79.4763 93.2321 79.3973 93.7407 79.2027 94.194C79.0082 94.6535 78.6981 95.0334 78.5157 95.45C78.4184 95.6583 78.3637 95.8789 78.3637 96.1056C78.3515 96.3323 78.3941 96.5651 78.4549 96.7857C78.5825 97.2329 78.8805 97.6067 79.1906 97.962C79.5006 98.3235 79.8046 98.7034 80.0296 99.1261C80.4674 99.9839 80.6437 100.964 80.5768 101.914C80.6194 100.958 80.4126 99.9961 79.9627 99.1629C79.7317 98.7524 79.4277 98.3848 79.1054 98.0355C78.7893 97.6863 78.461 97.3064 78.309 96.8286C78.236 96.5957 78.1874 96.3507 78.1874 96.0995C78.1813 95.9708 78.2056 95.8483 78.2238 95.7257C78.2542 95.6032 78.2846 95.4807 78.3394 95.3704C78.4366 95.1376 78.5582 94.9293 78.6798 94.7271C78.8014 94.5249 78.9048 94.3166 78.996 94.1021C79.1662 93.6733 79.227 93.2137 79.1966 92.7542C79.1784 92.2886 79.0933 91.8291 78.917 91.4125C78.7406 90.9959 78.4792 90.616 78.1509 90.2913C77.8286 89.9666 77.4638 89.6847 77.0565 89.4887C76.2539 89.0843 75.2993 89.0292 74.4664 89.3477C73.6334 89.6602 72.9403 90.3097 72.5755 91.1123C72.3931 91.5105 72.2836 91.9516 72.2897 92.3744C72.2958 92.8033 72.4113 93.2321 72.5755 93.6549C72.8613 94.5249 73.3477 95.3704 73.5909 96.3507C73.8158 97.3126 73.8523 98.2806 73.9678 99.218C74.0286 99.6836 74.1077 100.149 74.2536 100.597C74.3995 101.038 74.6062 101.46 74.892 101.834C75.4574 102.569 76.2904 103.084 77.1537 103.458Z" fill="#BE6D4C"/>
<path d="M57.8193 278.126C58.0017 276.692 58.2389 275.265 58.5185 273.85C58.7982 272.434 59.1265 271.025 59.4792 269.622C60.1784 266.816 60.9749 264.041 61.6801 261.247C62.4705 258.477 63.1394 255.678 63.7048 252.853C64.2763 250.029 64.7566 247.186 65.1458 244.325C65.9362 238.608 66.3678 232.843 66.459 227.065C66.4773 232.843 66.149 238.621 65.4619 244.361C65.1214 247.235 64.6898 250.09 64.173 252.939C63.6562 255.782 63.036 258.618 62.2942 261.412C61.4856 264.188 60.5857 266.932 59.7893 269.702C59.3941 271.086 59.011 272.477 58.6827 273.88C58.3422 275.283 58.0565 276.699 57.8193 278.126Z" fill="#E9E4E3"/>
<path d="M190.832 271.16C189.628 269.738 188.473 268.268 187.36 266.767C186.266 265.253 185.196 263.722 184.174 262.153C183.159 260.585 182.168 258.998 181.219 257.387C180.739 256.584 180.283 255.769 179.815 254.954C179.365 254.133 178.903 253.318 178.465 252.491C177.608 250.825 176.793 249.14 176.003 247.443L175.413 246.168L174.842 244.888C174.653 244.459 174.452 244.042 174.264 243.62C174.063 243.203 173.85 242.786 173.644 242.376C171.923 239.08 169.753 236.035 167.819 232.83C166.852 231.231 165.953 229.583 165.205 227.862C164.822 227.004 164.499 226.122 164.183 225.245C163.879 224.357 163.593 223.469 163.326 222.574C162.785 220.785 162.292 218.978 161.739 217.195C161.186 215.412 160.547 213.654 159.733 211.969C160.566 213.641 161.234 215.394 161.812 217.17C162.396 218.947 162.913 220.742 163.478 222.525C163.758 223.42 164.056 224.302 164.372 225.178C164.7 226.048 165.028 226.924 165.424 227.764C166.19 229.461 167.108 231.084 168.093 232.665C170.057 235.826 172.276 238.847 174.063 242.149C174.282 242.566 174.501 242.983 174.708 243.399C174.908 243.822 175.115 244.251 175.31 244.674L175.899 245.942L176.501 247.204C177.316 248.883 178.149 250.549 179.025 252.191C179.438 253.024 179.876 253.851 180.301 254.679C180.745 255.5 181.171 256.327 181.633 257.135C182.527 258.771 183.469 260.376 184.442 261.969C185.415 263.562 186.436 265.119 187.488 266.656C188.552 268.207 189.665 269.708 190.832 271.16Z" fill="#E9E4E3"/>
<path d="M23.8442 216.619C24.9326 215.756 25.875 214.72 26.5985 213.55L26.866 213.109C26.9511 212.962 27.0302 212.809 27.1153 212.655C27.2855 212.355 27.4193 212.037 27.5713 211.73C27.8449 211.099 28.1063 210.462 28.3191 209.806C29.3527 207.252 29.9851 204.525 30.8423 201.866C31.274 200.537 31.7543 199.219 32.3927 197.969C33.0129 196.72 33.8155 195.556 34.7883 194.563C33.8519 195.592 33.1041 196.781 32.5387 198.043C31.955 199.299 31.5294 200.628 31.1524 201.964C30.3985 204.635 29.8695 207.386 28.915 210.039C28.6475 210.689 28.3313 211.326 27.9969 211.945C27.8145 212.251 27.6564 212.563 27.4558 212.851C27.3585 212.998 27.2673 213.152 27.17 213.293L26.8599 213.721C26.027 214.867 24.9934 215.841 23.8442 216.619Z" fill="#E9E4E3"/>
<path d="M207.528 199.789C206.233 199.078 204.998 198.233 203.843 197.295C202.7 196.346 201.588 195.341 200.548 194.281C198.554 192.063 196.73 189.716 194.887 187.394C193.045 185.072 191.185 182.756 189.105 180.643C191.264 182.677 193.209 184.931 195.131 187.186C197.058 189.441 198.961 191.72 201.01 193.84C201.964 194.967 202.986 196.033 204.05 197.05C205.132 198.061 206.287 198.986 207.528 199.789Z" fill="#E9E4E3"/>
<path d="M162.231 162.587C161.654 162.415 161.064 162.305 160.48 162.188C159.891 162.078 159.301 161.974 158.711 161.882C157.532 161.692 156.34 161.521 155.154 161.38C153.981 161.159 152.801 160.951 151.622 160.828C151.33 160.798 151.032 160.773 150.746 160.767C150.606 160.767 150.454 160.767 150.333 160.785C150.278 160.791 150.199 160.81 150.126 160.828L149.913 160.883C149.348 161.037 148.795 161.257 148.235 161.478C146.016 162.391 143.748 163.187 141.499 164.026C143.712 163.089 145.937 162.195 148.114 161.184C148.661 160.939 149.214 160.687 149.798 160.504L150.017 160.436C150.09 160.418 150.156 160.393 150.248 160.375C150.418 160.338 150.576 160.332 150.734 160.326C151.044 160.32 151.348 160.332 151.652 160.344C152.862 160.418 154.054 160.577 155.252 160.742C156.431 160.994 157.598 161.269 158.766 161.563C159.349 161.71 159.927 161.864 160.511 162.029C161.094 162.195 161.672 162.36 162.231 162.587Z" fill="#BE6D4C"/>
<path d="M134.476 152.582C135.303 153.01 135.127 154.236 135.102 154.395C134.884 155.798 133.394 156.742 132.366 157.391C131.266 158.083 130.19 158.77 129.004 158.574C128.202 158.445 127.35 157.912 127.253 157.158C127.119 156.062 128.664 155.038 129.989 154.162C131.035 153.47 133.297 151.975 134.476 152.582Z" fill="#FFB792"/>
<path d="M160.608 152.736C159.052 152.141 157.446 151.67 155.811 151.382C154.996 151.235 154.169 151.149 153.342 151.124C152.516 151.1 151.689 151.143 150.88 151.277C150.071 151.412 149.269 151.621 148.515 151.939C148.138 152.098 147.767 152.27 147.414 152.478C147.062 152.687 146.709 152.907 146.35 153.128L144.229 154.463L142.088 155.774L136.452 159.034L136.191 158.568L148.339 151.7L148.485 151.976C145.554 153.41 142.623 154.862 139.796 156.485C139.091 156.896 138.392 157.312 137.711 157.766C137.37 157.992 137.036 158.225 136.714 158.476C136.391 158.721 136.093 159.009 135.765 159.254C135.102 159.745 134.367 160.131 133.576 160.345C132.786 160.56 131.953 160.609 131.15 160.48C131.959 160.596 132.786 160.535 133.57 160.308C134.355 160.082 135.078 159.689 135.723 159.193C136.045 158.948 136.337 158.66 136.659 158.403C136.975 158.146 137.316 157.907 137.65 157.674C138.325 157.208 139.018 156.779 139.723 156.357C142.538 154.684 145.445 153.183 148.357 151.7L148.503 151.976L136.464 159.034L136.203 158.568L141.778 155.223L143.955 153.985L146.119 152.723C146.478 152.515 146.843 152.301 147.214 152.098C147.585 151.896 147.98 151.725 148.381 151.572C149.178 151.271 150.005 151.075 150.844 150.965C151.683 150.855 152.528 150.836 153.367 150.891C154.206 150.94 155.039 151.057 155.853 151.228C157.477 151.565 159.07 152.092 160.608 152.736Z" fill="#BE6D4C"/>
<path d="M141.505 144.875C142.459 144.035 143.578 143.361 144.831 143C145.451 142.816 146.107 142.73 146.752 142.718C147.396 142.7 148.029 142.718 148.661 142.712C149.92 142.791 151.178 142.816 152.437 142.785C152.595 142.779 152.747 142.773 152.905 142.767C153.069 142.761 153.227 142.761 153.391 142.755C153.713 142.755 154.03 142.761 154.352 142.773C154.99 142.798 155.623 142.834 156.255 142.871C157.52 142.938 158.784 143 160.049 143.055L163.843 143.184L160.043 143.214C158.778 143.214 157.507 143.208 156.243 143.19C154.972 143.177 153.72 143.135 152.461 143.263C151.19 143.343 149.913 143.373 148.643 143.349C147.366 143.251 146.132 143.049 144.91 143.306C143.681 143.551 142.526 144.121 141.505 144.875Z" fill="#BE6D4C"/>
<path d="M137.468 138.037C138.197 138.417 138.045 139.495 138.021 139.636C137.826 140.874 136.513 141.707 135.607 142.277C134.64 142.889 133.686 143.49 132.64 143.318C131.929 143.202 131.181 142.736 131.096 142.068C130.98 141.1 132.342 140.2 133.51 139.428C134.44 138.821 136.434 137.504 137.468 138.037Z" fill="#FFB792"/>
</svg>
