<svg width="38" height="39" viewBox="0 0 38 39" fill="none" xmlns="http://www.w3.org/2000/svg">
<path d="M33.25 16.3333C33.25 27.4166 19 36.9166 19 36.9166C19 36.9166 4.75 27.4166 4.75 16.3333C4.75 12.5539 6.25133 8.92937 8.92373 6.25698C11.5961 3.58459 15.2207 2.08325 19 2.08325C22.7793 2.08325 26.4039 3.58459 29.0763 6.25698C31.7487 8.92937 33.25 12.5539 33.25 16.3333Z" stroke="#AFB1B6" stroke-width="2" stroke-linecap="round" stroke-linejoin="round"/>
<path d="M19 21.0833C21.6234 21.0833 23.75 18.9566 23.75 16.3333C23.75 13.7099 21.6234 11.5833 19 11.5833C16.3766 11.5833 14.25 13.7099 14.25 16.3333C14.25 18.9566 16.3766 21.0833 19 21.0833Z" stroke="#AFB1B6" stroke-width="2" stroke-linecap="round" stroke-linejoin="round"/>
</svg>
