<svg width="21" height="21" viewBox="0 0 21 21" fill="none" xmlns="http://www.w3.org/2000/svg">
<path d="M17.02 8.83325C17.02 11.5489 15.2622 14.1354 13.407 16.0935C12.4897 17.0618 11.5707 17.8534 10.8804 18.403C10.5357 18.6776 10.249 18.8909 10.0495 19.035C10.0395 19.0423 10.0296 19.0494 10.02 19.0563C10.0104 19.0494 10.0006 19.0423 9.9905 19.035C9.791 18.8909 9.50434 18.6776 9.15961 18.403C8.46935 17.8534 7.55033 17.0618 6.633 16.0935C4.77789 14.1354 3.02002 11.5489 3.02002 8.83325C3.02002 6.97674 3.75752 5.19626 5.07027 3.8835C6.38303 2.57075 8.1635 1.83325 10.02 1.83325C11.8765 1.83325 13.657 2.57075 14.9698 3.8835C16.2825 5.19626 17.02 6.97674 17.02 8.83325Z" stroke="#444444" stroke-linecap="round" stroke-linejoin="round"/>
<path d="M12.02 8.83325C12.02 9.93782 11.1246 10.8333 10.02 10.8333C8.91545 10.8333 8.02002 9.93782 8.02002 8.83325C8.02002 7.72868 8.91545 6.83325 10.02 6.83325C11.1246 6.83325 12.02 7.72868 12.02 8.83325Z" stroke="#444444" stroke-linecap="round" stroke-linejoin="round"/>
</svg>
