<svg width="240" height="271" viewBox="0 0 240 271" fill="none" xmlns="http://www.w3.org/2000/svg">
<path d="M225.662 254.973C179.717 305.22 -3.68644 220.563 0.0564727 173.601C1.00272 161.68 15.0281 139.381 32.2848 124.777C42.329 116.275 48.1537 114.881 53.768 105.791C63.5319 89.9983 56.1652 77.6739 59.1371 59.6792C63.9664 30.4714 93.7906 0.400006 123.594 0.00358499C143.409 -0.258336 158.135 13.8783 171.936 27.1301C184.209 38.9095 202.721 56.6848 201.48 78.6649C200.408 97.6011 185.422 106.45 190.735 119.355C193.63 126.377 199.146 126.384 209.534 135.629C209.534 135.629 221.4 146.191 231.017 165.467C238.713 180.85 246.76 231.896 225.662 254.973Z" fill="white"/>
<path d="M108.713 237.014C111.496 238.635 114.468 239.782 117.664 240.568C122.115 241.658 126.664 242.189 131.192 242.847C136.063 243.555 140.802 244.73 145.519 246.132C150.397 247.583 155.233 249.183 160.189 250.358C165.187 251.54 170.205 251.958 175.322 251.526C184.882 250.712 193.966 247.172 202.952 244.022C206.842 242.656 210.774 241.474 214.181 239.06C216.641 237.319 218.576 234.982 220.048 232.349C222.473 228.017 224.036 223.267 225.991 218.694C225.333 218.375 224.758 217.901 224.267 217.129C222.08 213.632 225.494 209.937 226.005 202.214C226.258 198.398 225.305 194.845 223.398 187.738C221.421 180.368 219.242 172.228 213.837 163.605C210.711 158.608 211.006 160.646 203.408 150.884C192.088 136.323 191.618 132.04 185.163 129.386C179.808 127.184 174.817 127.942 173.871 124.997C173.135 122.724 175.42 120.126 176.478 118.852C176.478 118.852 180.81 113.635 187.77 95.159C191.31 85.7723 186.719 76.2936 178.644 59.6226C163.609 28.5743 143.619 17.2409 138.243 14.4306C136.989 13.7722 130.176 11.0327 121.302 11.3583C117.286 11.507 111.79 11.7052 110.01 14.8695C107.368 19.5487 114.3 28.1284 115.225 29.3459C141.257 63.5939 115.05 205.088 108.713 237.014Z" fill="#EDD7C8"/>
<path d="M104.178 29.6858C102.426 31.6537 99.3068 36.793 94.884 40.2759C94.169 40.8422 92.8373 41.7271 91.891 43.4968C90.9308 45.2948 90.9518 47.5035 89.9635 49.2874C89.0173 50.9863 87.293 52.0765 86.0664 53.5843C84.4332 55.5806 83.7744 58.1856 83.1575 60.6987C82.3795 63.8559 81.6015 67.0202 80.9847 70.2128C78.6366 82.3603 78.6296 94.9679 80.9707 107.122C81.7557 111.221 83.1926 115.766 86.9145 117.578C88.5967 118.399 90.5172 118.52 92.3747 118.633C101.914 119.199 124.799 116.814 135.93 121.224C141.201 123.312 147.972 128.324 153.439 141.618C152.899 135.884 153.13 127.949 157.546 120.891C161.85 114.003 165.747 114.959 169.861 108.453C176.023 98.7126 173.759 86.3599 172.083 77.1926C170.871 70.588 168.796 64.9814 167.815 62.3764C165.319 55.7363 162.74 51.0571 162.263 50.1935C158.703 43.7941 153.916 35.2003 145.238 29.6858C130.946 20.6105 110.451 22.6493 104.178 29.6858Z" fill="#D3B6A3"/>
<path d="M81.8261 224.095C86.4101 225.192 91.1133 225.73 95.3819 227.903C99.1879 229.843 102.307 232.462 105.706 235.018C109.323 237.736 113.29 239.492 117.664 240.56C122.115 241.651 126.664 242.182 131.192 242.84C136.063 243.548 140.802 244.723 145.519 246.124C150.397 247.576 155.234 249.176 160.189 250.351C165.187 251.533 170.205 251.95 175.322 251.519C176.17 251.448 177.011 251.349 177.845 251.236C177.845 250.896 177.838 250.542 177.831 250.174C177.6 242.274 175.07 242.097 174.032 231.69C173.633 227.655 173.955 227.11 173.338 223.67C172.665 219.862 171.979 218.892 170.233 212.86C168.236 205.959 168.866 206.327 167.472 202.398C165.341 196.416 164.226 196.572 163.329 192.289C162.761 189.578 162.719 187.171 162.635 182.874C162.544 177.919 162.923 178.145 162.635 175.901C162.341 173.594 161.283 170.96 159.18 165.793C156.902 160.179 156.439 159.705 156.075 157.425C155.64 154.721 156.061 153.978 155.381 151.5C154.547 148.421 153.432 147.84 152.276 145.221C151.084 142.524 151.68 141.816 150.895 134.065C149.998 125.188 149.058 124.466 148.477 124.303C147.425 124.005 146.759 125.365 143.991 127.439C140.227 130.256 136.603 131.375 134.669 131.969C130.456 133.272 127.029 133.357 126.04 133.364C123.272 133.392 119.872 133.428 116.031 131.622C113.627 130.497 109.569 128.706 108.433 124.997C107.473 121.839 109.253 119.376 108.09 118.583C106.975 117.826 105.447 120.19 100.835 121.16C98.9006 121.563 98.0945 121.4 96.6927 122.207C95.2347 123.05 95.3329 123.708 93.5876 124.997C91.4428 126.582 90.8119 125.938 89.7886 127.092C88.9685 128.012 88.7722 129.81 88.4078 133.371C88.1695 135.735 88.2886 135.778 88.0643 137.208C87.9802 137.753 87.6648 139.636 86.6835 142.439C85.7793 145.009 85.541 144.853 83.9219 148.718C82.5971 151.882 82.5341 152.519 81.5037 154.296C80.1509 156.639 79.7794 156.363 79.0855 157.786C77.6416 160.738 79.0925 162.225 78.7421 167.895C78.672 169.042 78.3496 170.981 77.7047 174.868C77.2561 177.586 77.0318 178.945 76.6673 180.446C75.8473 183.865 75.3777 184.254 74.9431 186.725C74.4454 189.542 74.9571 189.634 74.5996 192.303C74.088 196.133 72.9525 196.558 71.838 201.017C71.7048 201.534 71.4034 203.814 70.8006 208.337C70.1418 213.285 69.8123 215.784 69.7633 217.051C69.7352 217.802 69.7002 218.63 69.7002 219.536C73.5553 221.532 77.5996 223.09 81.8261 224.095Z" fill="#FFE3D1"/>
<path d="M16.7808 178.606C18.7784 182.365 21.512 185.663 24.533 188.622C27.6661 191.688 31.1287 194.399 34.7524 196.848C38.264 199.227 41.9929 201.251 45.5256 203.602C53.4109 208.847 60.8617 214.829 69.2377 219.289C69.2447 218.92 69.2588 218.545 69.2938 218.156C69.441 216.252 69.7143 216.308 70.3872 212.648C71.5578 206.256 70.8358 205.513 71.8451 200.997C72.9316 196.133 73.8007 196.834 74.6068 192.282C75.1675 189.111 74.9222 187.759 75.7843 183.568C76.282 181.154 76.4642 181.112 77.1021 178.422C78.2025 173.757 78.553 170.04 78.7492 167.874C79.2258 162.671 77.6067 160.937 79.0927 157.765C79.6534 156.562 80.0179 156.413 81.1884 154.736C83.7538 151.062 84.8823 147.649 85.5762 145.554C86.3332 143.268 88.2747 136.684 88.7163 130.554C88.7934 129.506 88.8495 128.175 89.7887 127.078C91.1415 125.507 92.8658 126.115 94.5129 124.204C95.2909 123.305 95.2489 122.753 96.1531 122.187C96.9381 121.691 97.5129 121.741 99.0269 121.521C100.555 121.302 101.894 121.111 103.345 120.509C104.221 120.148 104.592 119.858 106.814 118.859C108.02 118.314 108.342 118.208 108.538 118.371C109.141 118.852 107.508 120.813 107.887 123.539C108.062 124.784 108.644 126.066 108.987 126.023C109.702 125.931 109.351 119.362 109.288 118.173C109.008 112.927 108.763 108.956 106.919 108.361C106.415 108.198 106.113 108.39 105.027 108.722C102.16 109.586 99.4264 109.692 97.8633 109.543C97.2185 109.48 92.8307 108.991 91.1695 105.969C90.5177 104.779 90.9102 104.34 90.6929 101.176C90.5107 98.5782 90.2373 98.6773 88.9196 91.3364C88.3659 88.2571 88.0925 86.7209 87.9944 85.8219C87.5598 81.8152 87.9663 80.7675 87.0692 78.297C86.6276 77.0865 86.2631 76.598 86.193 75.4654C86.0809 73.6744 86.8378 72.1595 87.4967 71.1614C88.5411 70.3756 89.7327 69.2147 89.7116 67.8131C89.6906 66.5813 88.7514 66.3123 87.9033 64.3444C86.971 62.1853 87.1042 60.1536 87.1673 59.205C87.1883 58.844 87.2864 57.5769 87.9803 55.4886C88.8074 52.9897 89.5294 52.1827 90.5878 49.9883C93.1461 44.672 92.249 42.4138 94.8494 39.7025C95.2419 39.292 95.8096 38.7752 96.6227 37.7912C98.0806 36.0356 98.7605 34.6836 99.2231 33.9261C101.347 30.4503 105.433 28.8859 108.118 27.8594C111.58 26.5357 111.91 27.3285 113.62 26.3304C118.379 23.5554 120.482 14.82 117.903 12.1088C114.812 8.87369 102.349 15.8323 95.6414 20.8088C92.8237 22.9042 87.9944 26.8967 83.4314 33.1403C79.0296 39.1645 76.9268 44.4879 74.8171 49.8184C72.1465 56.5575 70.8498 61.9871 69.7915 66.4964C69.2868 68.6484 69.0345 69.9297 66.9177 82.4523C63.8617 100.546 63.7285 101.728 64.0439 104.213C65.0392 112.071 68.2354 115.242 66.1957 117.996C63.9668 121.004 59.6001 117.967 53.2707 120.898C48.7778 122.979 46.2335 126.703 41.7827 133.23C38.1028 138.617 37.6753 140.974 33.8833 144.11C30.6941 146.75 30.0142 145.894 26.6988 148.464C21.6662 152.364 19.3041 157.383 17.3626 161.517C16.3953 163.577 15.5892 165.871 14.4187 169.538C14.7341 172.681 15.2808 175.788 16.7808 178.606Z" fill="#EDD7C8"/>
<path d="M112.386 118.937C111.896 118.003 104.69 120.693 104.179 120.884C100.737 122.179 98.5221 123.036 95.9708 125.032C95.0525 125.747 93.4404 127.121 91.8634 129.181C89.2139 132.642 88.2256 135.998 87.756 137.47C85.2046 145.575 80.4033 154.339 79.5482 154.049C77.7538 153.447 91.3377 127.637 83.6556 108.446C82.7584 106.202 80.2421 100.957 79.3449 93.3115C78.9944 90.3383 78.4688 85.4963 79.5482 79.4296C80.2701 75.3805 80.901 75.2955 83.6556 66.9919C86.4032 58.6883 86.3261 57.1097 89.0176 50.0378C90.3634 46.4984 91.7582 43.5464 93.9661 40.1981C95.5782 37.7629 97.4847 35.4198 100.043 34.0465C102.265 32.8501 104.802 32.4679 107.291 32.0998C108.132 31.9723 109.029 31.8591 109.814 32.1776C110.536 32.4749 111.062 33.0979 111.545 33.7067C121.477 46.2294 124.926 62.6101 128.08 78.3395C129.895 87.3793 131.711 96.4616 132.131 105.671C132.194 107.009 132.215 108.397 131.669 109.614C131.129 110.818 130.099 111.71 129.096 112.566C123.98 116.927 118.533 121.443 111.952 122.675C111.419 122.774 109.8 123.071 109.555 122.555C109.162 121.712 112.702 119.539 112.386 118.937Z" fill="#D3B6A3"/>
<path d="M145.295 89.4461C148.196 82.4663 150.418 80.8381 149.577 79.4223C148.091 76.9235 138.804 77.9924 131.697 82.8061C124.008 88.0162 126.195 92.6458 118.015 98.1603C112.365 101.969 106.891 102.74 106.464 106.45C106.309 107.766 107.087 108.043 108.118 111.334C109.078 114.392 109.646 117.486 109.506 119.567C109.274 123.05 108.027 123.057 108.286 125.025C108.868 129.393 115.47 132.536 120.601 133.314C120.896 133.357 123.181 133.293 127.744 133.159C133.302 132.996 136.603 132.748 139.862 130.752C140.22 130.532 140.535 130.306 140.816 130.086C141.587 129.478 144.846 126.922 145.68 122.717C146.29 119.652 145.049 118.512 143.535 111.879C142.463 107.2 141.867 104.602 142.035 101.218C142.253 96.7587 143.697 93.2971 145.295 89.4461Z" fill="#D4815B"/>
<path d="M107.129 98.691C105.496 104.46 107.473 112.311 112.127 114.739C120.082 118.887 133.722 106.089 140.086 96.9921C143.36 92.32 145.96 88.6035 144.635 86.2675C141.201 80.2221 111.412 83.5704 107.129 98.691Z" fill="#B76241"/>
<path d="M104.592 31.2215C102.896 31.8869 101.122 33.7345 97.5687 37.4368C97.5687 37.4368 95.1575 39.9499 93.4823 43.1C93.2791 43.4823 93.1249 43.8716 93.1249 43.8716C92.8796 44.5229 92.8796 44.9618 91.8702 47.4394C90.924 49.7542 89.7254 52.3168 89.7254 52.3168C89.7254 52.3168 88.2395 54.6316 87.6086 56.5642C86.5502 59.8276 87.6226 63.0414 87.8399 63.7068C88.7091 66.3119 89.7955 66.5951 89.7184 68.3152C89.6343 70.1982 88.2955 70.6584 87.3002 72.6546C86.8516 73.5607 86.5222 74.6792 87.5666 82.6855C88.0782 86.6285 88.3376 88.5964 88.9053 91.3572C89.8376 95.8665 90.2161 95.8948 90.5175 98.6769C90.91 102.372 90.3562 103.384 91.3235 105.182C92.6342 107.618 95.1716 108.602 96.1528 108.977C98.3958 109.84 100.947 110.017 106.351 108.708C113.55 106.966 112.933 105.706 121.379 103.016C126.012 101.544 129.285 100.942 131.311 97.8628C132.131 96.6169 132.657 95.102 132.923 94.3375C134.479 89.8353 133.638 87.1948 135.068 86.4798C136.168 85.9277 136.883 87.3718 139.365 87.5629C142.526 87.8036 145.049 85.7436 145.806 85.1207C147.187 83.988 146.829 83.5704 149.563 79.4292C151.736 76.1304 152.191 75.9959 152.528 74.6438C153.04 72.5838 152.647 69.9363 151.035 68.117C148.617 65.3845 144.04 64.981 142.582 66.6092C141.636 67.664 142.344 69.193 140.977 70.4885C140.276 71.1539 139.105 71.6707 138.629 71.3026C137.675 70.5663 141.117 66.3614 139.764 64.2661C138.65 62.5388 135.453 64.0608 133.463 62.0928C131.809 60.4434 132.229 57.5977 132.299 56.5712C133.077 46.2997 113.893 27.5688 104.592 31.2215Z" fill="#D4815B"/>
<path d="M96.4189 39.3485C96.8044 39.7308 99.6011 38.1238 101.557 35.8869C102.545 34.7543 103.141 33.6712 103.758 33.8128C104.409 33.9614 104.423 35.2993 104.809 36.3329C105.853 39.1361 109.526 39.2282 113.171 40.9979C116.774 42.7464 118.989 45.2665 123.51 50.1085C124.638 51.319 126.755 53.5914 129.096 56.8123C135.418 65.5052 137.227 72.5559 139.582 72.1736C140.927 71.9542 140.696 69.611 143.254 68.266C144.719 67.4944 146.871 67.1759 148.595 68.1032C151.168 69.4907 151.82 73.1505 151.455 75.6565C151.147 77.8155 150.152 78.3819 148.778 80.5551C148.133 81.5815 148.098 81.8364 147.271 83.4362C146.71 84.5122 146.163 85.4183 145.932 85.7298C144.271 87.9597 141.418 86.6926 139.939 88.349C139.336 89.0215 139.182 89.9276 140.437 96.5535C141.355 101.41 141.593 101.742 142.168 104.999C142.932 109.303 143.065 111.872 143.528 111.879C144.124 111.879 144.355 108.106 146.829 103.215C147.523 101.849 148.105 100.95 149.03 100.773C150.432 100.504 151.168 102.195 153.032 102.755C155.486 103.491 158.268 101.792 159.663 100.412C163.02 97.0986 163.133 90.9895 160.658 88.526C158.556 86.4377 154.869 87.2376 154.525 85.6803C154.343 84.8379 155.296 84.0025 155.85 83.4433C158.016 81.2701 158.507 78.4668 160.028 73.0019C161.619 67.2962 161.058 62.4188 160.686 59.2262C160.091 54.0586 158.794 42.796 149.682 34.3366C141.797 27.0099 132.467 25.8914 128.78 25.4454C122.416 24.6809 117.18 25.6649 113.599 26.3374C109.771 27.0524 107.353 27.5337 104.578 29.2256C98.9563 32.6518 95.7531 38.6972 96.4189 39.3485Z" fill="#561E15"/>
<path d="M98.2063 59.2191C99.1385 59.6792 99.9796 58.0157 103.05 56.7768C104.83 56.0548 106.288 55.9274 109.211 55.6654C112.281 55.3894 113.297 55.6938 113.83 55.8849C114.25 56.0406 115.484 56.5078 116.598 57.6405C117.706 58.7731 118.091 59.9411 118.232 59.8845C118.386 59.8208 118.218 58.3838 117.44 57.0741C115.764 54.2638 112.176 53.563 111.194 53.3719C109.75 53.0887 108.615 53.1453 106.849 53.2374C104.613 53.3506 104.444 53.6338 101.963 53.7824C99.4189 53.9382 98.9282 53.6692 98.2974 54.193C96.8956 55.3752 97.0568 58.6528 98.2063 59.2191Z" fill="#561E15"/>
<path d="M91.4289 55.234C93.048 55.6162 94.1414 58.4195 93.3915 59.3681C92.9709 59.899 92.3261 59.3893 89.6275 59.7008C88.2958 59.8565 87.8892 60.0193 87.5037 59.7008C86.7888 59.1203 86.8378 57.4638 87.6089 56.5577C87.9453 56.1684 88.3378 56.0197 89.1229 55.7153C90.1041 55.3401 90.777 55.0853 91.4289 55.234Z" fill="#561E15"/>
<path d="M105.944 117.302H104.844V145.214H105.944V117.302Z" fill="#C2A278"/>
<path d="M106.242 117.302H105.945V145.214H106.242V117.302Z" fill="#C2A278"/>
<path d="M106.536 117.302H106.239V145.214H106.536V117.302Z" fill="#C3A379"/>
<path d="M106.838 117.302H106.541V145.214H106.838V117.302Z" fill="#C3A47A"/>
<path d="M107.132 117.302H106.835V145.214H107.132V117.302Z" fill="#C4A57B"/>
<path d="M107.433 117.302H107.136V145.214H107.433V117.302Z" fill="#C4A57C"/>
<path d="M107.728 117.302H107.43V145.214H107.728V117.302Z" fill="#C5A67D"/>
<path d="M108.022 117.302H107.725V145.214H108.022V117.302Z" fill="#C5A77E"/>
<path d="M108.324 117.302H108.026V145.214H108.324V117.302Z" fill="#C6A87F"/>
<path d="M108.618 117.302H108.321V145.214H108.618V117.302Z" fill="#C7A980"/>
<path d="M108.913 117.302H108.615V145.214H108.913V117.302Z" fill="#C7AA81"/>
<path d="M109.214 117.302H108.917V145.214H109.214V117.302Z" fill="#C8AB82"/>
<path d="M109.508 117.302H109.211V145.214H109.508V117.302Z" fill="#C8AC83"/>
<path d="M109.809 117.302H109.512V145.214H109.809V117.302Z" fill="#C9AC84"/>
<path d="M110.104 117.302H109.807V145.214H110.104V117.302Z" fill="#CAAD85"/>
<path d="M110.399 117.302H110.101V145.214H110.399V117.302Z" fill="#CAAE86"/>
<path d="M110.7 117.302H110.402V145.214H110.7V117.302Z" fill="#CBAF87"/>
<path d="M110.995 117.302H110.697V145.214H110.995V117.302Z" fill="#CBB088"/>
<path d="M111.296 117.302H110.998V145.214H111.296V117.302Z" fill="#CCB189"/>
<path d="M111.59 117.302H111.292V145.214H111.59V117.302Z" fill="#CCB28A"/>
<path d="M111.884 117.302H111.587V145.214H111.884V117.302Z" fill="#CDB38B"/>
<path d="M112.186 117.302H111.889V145.214H112.186V117.302Z" fill="#CEB38C"/>
<path d="M112.48 117.302H112.183V145.214H112.48V117.302Z" fill="#CEB48D"/>
<path d="M112.781 117.302H112.484V145.214H112.781V117.302Z" fill="#CFB58E"/>
<path d="M113.076 117.302H112.779V145.214H113.076V117.302Z" fill="#CFB68F"/>
<path d="M113.37 117.302H113.073V145.214H113.37V117.302Z" fill="#D0B790"/>
<path d="M113.672 117.302H113.374V145.214H113.672V117.302Z" fill="#D1B891"/>
<path d="M113.966 117.302H113.669V145.214H113.966V117.302Z" fill="#D1B992"/>
<path d="M114.26 117.302H113.963V145.214H114.26V117.302Z" fill="#D2BA93"/>
<path d="M114.562 117.302H114.265V145.214H114.562V117.302Z" fill="#D2BA95"/>
<path d="M114.857 117.302H114.559V145.214H114.857V117.302Z" fill="#D3BB96"/>
<path d="M115.157 117.302H114.86V145.214H115.157V117.302Z" fill="#D3BC97"/>
<path d="M115.452 117.302H115.155V145.214H115.452V117.302Z" fill="#D4BD98"/>
<path d="M115.747 117.302H115.449V145.214H115.747V117.302Z" fill="#D5BE99"/>
<path d="M116.048 117.302H115.75V145.214H116.048V117.302Z" fill="#D5BF9A"/>
<path d="M116.342 117.302H116.045V145.214H116.342V117.302Z" fill="#D6C09B"/>
<path d="M116.644 117.302H116.346V145.214H116.644V117.302Z" fill="#D6C19C"/>
<path d="M116.938 117.302H116.641V145.214H116.938V117.302Z" fill="#D7C19D"/>
<path d="M117.232 117.302H116.935V145.214H117.232V117.302Z" fill="#D8C29E"/>
<path d="M117.534 117.302H117.236V145.214H117.534V117.302Z" fill="#D8C39F"/>
<path d="M117.828 117.302H117.531V145.214H117.828V117.302Z" fill="#D9C4A0"/>
<path d="M118.13 117.302H117.832V145.214H118.13V117.302Z" fill="#D9C5A1"/>
<path d="M118.424 117.302H118.127V145.214H118.424V117.302Z" fill="#DAC6A2"/>
<path d="M118.719 117.302H118.421V145.214H118.719V117.302Z" fill="#DAC7A3"/>
<path d="M119.02 117.302H118.722V145.214H119.02V117.302Z" fill="#DBC8A4"/>
<path d="M119.314 117.302H119.017V145.214H119.314V117.302Z" fill="#DCC8A5"/>
<path d="M119.608 117.302H119.311V145.214H119.608V117.302Z" fill="#DCC9A6"/>
<path d="M119.91 117.302H119.613V145.214H119.91V117.302Z" fill="#DDCAA7"/>
<path d="M120.205 117.302H119.907V145.214H120.205V117.302Z" fill="#DDCBA8"/>
<path d="M120.506 117.302H120.208V145.214H120.506V117.302Z" fill="#DECCA9"/>
<path d="M120.8 117.302H120.503V145.214H120.8V117.302Z" fill="#DFCDAA"/>
<path d="M121.095 117.302H120.797V145.214H121.095V117.302Z" fill="#DFCEAB"/>
<path d="M121.396 117.302H121.098V145.214H121.396V117.302Z" fill="#E0CFAC"/>
<path d="M121.69 117.302H121.393V145.214H121.69V117.302Z" fill="#E0CFAD"/>
<path d="M121.992 117.302H121.695V145.214H121.992V117.302Z" fill="#E1D0AE"/>
<path d="M122.286 117.302H121.989V145.214H122.286V117.302Z" fill="#E1D1AF"/>
<path d="M122.581 117.302H122.283V145.214H122.581V117.302Z" fill="#E2D2B0"/>
<path d="M123.545 117.302H122.584V145.214H123.545V117.302Z" fill="#E2D2B0"/>
<path d="M124.498 117.302H123.538V145.214H124.498V117.302Z" fill="#E3D3B1"/>
<path d="M125.458 117.302H124.498V145.214H125.458V117.302Z" fill="#E3D4B2"/>
<path d="M126.412 117.302H125.451V145.214H126.412V117.302Z" fill="#E4D4B3"/>
<path d="M127.372 117.302H126.411V145.214H127.372V117.302Z" fill="#E5D5B4"/>
<path d="M128.332 117.302H127.372V145.214H128.332V117.302Z" fill="#E5D6B6"/>
<path d="M129.285 117.302H128.325V145.214H129.285V117.302Z" fill="#E6D7B7"/>
<path d="M130.246 117.302H129.286V145.214H130.246V117.302Z" fill="#E7D7B8"/>
<path d="M131.199 117.302H130.239V145.214H131.199V117.302Z" fill="#E7D8B9"/>
<path d="M132.159 117.302H131.199V145.214H132.159V117.302Z" fill="#E8D9BA"/>
<path d="M132.308 117.302H132.152V145.214H132.308V117.302Z" fill="#E8D9BA"/>
<path d="M132.469 117.302H132.313V145.214H132.469V117.302Z" fill="#E7D8B9"/>
<path d="M132.623 117.302H132.467V145.214H132.623V117.302Z" fill="#E7D7B8"/>
<path d="M132.778 117.302H132.622V145.214H132.778V117.302Z" fill="#E6D6B7"/>
<path d="M132.932 117.302H132.776V145.214H132.932V117.302Z" fill="#E6D6B6"/>
<path d="M133.086 117.302H132.93V145.214H133.086V117.302Z" fill="#E5D5B5"/>
<path d="M133.24 117.302H133.084V145.214H133.24V117.302Z" fill="#E4D4B4"/>
<path d="M133.402 117.302H133.246V145.214H133.402V117.302Z" fill="#E4D3B3"/>
<path d="M133.555 117.302H133.4V145.214H133.555V117.302Z" fill="#E3D2B2"/>
<path d="M133.71 117.302H133.554V145.214H133.71V117.302Z" fill="#E3D1B1"/>
<path d="M133.864 117.302H133.708V145.214H133.864V117.302Z" fill="#E2D1B0"/>
<path d="M134.018 117.302H133.862V145.214H134.018V117.302Z" fill="#E2D0AF"/>
<path d="M134.179 117.302H134.024V145.214H134.179V117.302Z" fill="#E1CFAE"/>
<path d="M134.333 117.302H134.178V145.214H134.333V117.302Z" fill="#E0CEAD"/>
<path d="M134.488 117.302H134.332V145.214H134.488V117.302Z" fill="#E0CDAC"/>
<path d="M134.642 117.302H134.487V145.214H134.642V117.302Z" fill="#DFCCAB"/>
<path d="M134.796 117.302H134.641V145.214H134.796V117.302Z" fill="#DFCBAA"/>
<path d="M134.95 117.302H134.795V145.214H134.95V117.302Z" fill="#DECBA9"/>
<path d="M135.111 117.302H134.956V145.214H135.111V117.302Z" fill="#DDCAA8"/>
<path d="M135.266 117.302H135.11V145.214H135.266V117.302Z" fill="#DDC9A7"/>
<path d="M135.42 117.302H135.264V145.214H135.42V117.302Z" fill="#DCC8A6"/>
<path d="M135.574 117.302H135.418V145.214H135.574V117.302Z" fill="#DCC7A5"/>
<path d="M135.728 117.302H135.573V145.214H135.728V117.302Z" fill="#DBC6A4"/>
<path d="M135.883 117.302H135.727V145.214H135.883V117.302Z" fill="#DBC6A3"/>
<path d="M136.044 117.302H135.888V145.214H136.044V117.302Z" fill="#DAC5A2"/>
<path d="M136.198 117.302H136.042V145.214H136.198V117.302Z" fill="#D9C4A1"/>
<path d="M136.352 117.302H136.196V145.214H136.352V117.302Z" fill="#D9C3A0"/>
<path d="M136.506 117.302H136.35V145.214H136.506V117.302Z" fill="#D8C29F"/>
<path d="M136.66 117.302H136.505V145.214H136.66V117.302Z" fill="#D8C19E"/>
<path d="M136.814 117.302H136.659V145.214H136.814V117.302Z" fill="#D7C09D"/>
<path d="M136.976 117.302H136.821V145.214H136.976V117.302Z" fill="#D6C09C"/>
<path d="M137.13 117.302H136.974V145.214H137.13V117.302Z" fill="#D6BF9B"/>
<path d="M137.284 117.302H137.129V145.214H137.284V117.302Z" fill="#D5BE9A"/>
<path d="M137.439 117.302H137.283V145.214H137.439V117.302Z" fill="#D5BD98"/>
<path d="M137.593 117.302H137.437V145.214H137.593V117.302Z" fill="#D4BC97"/>
<path d="M137.747 117.302H137.591V145.214H137.747V117.302Z" fill="#D4BB96"/>
<path d="M137.908 117.302H137.752V145.214H137.908V117.302Z" fill="#D3BB95"/>
<path d="M138.062 117.302H137.907V145.214H138.062V117.302Z" fill="#D2BA94"/>
<path d="M138.217 117.302H138.061V145.214H138.217V117.302Z" fill="#D2B993"/>
<path d="M138.371 117.302H138.215V145.214H138.371V117.302Z" fill="#D1B892"/>
<path d="M138.525 117.302H138.369V145.214H138.525V117.302Z" fill="#D1B791"/>
<path d="M138.679 117.302H138.523V145.214H138.679V117.302Z" fill="#D0B690"/>
<path d="M138.841 117.302H138.685V145.214H138.841V117.302Z" fill="#CFB58F"/>
<path d="M138.995 117.302H138.839V145.214H138.995V117.302Z" fill="#CFB58E"/>
<path d="M139.149 117.302H138.993V145.214H139.149V117.302Z" fill="#CEB48D"/>
<path d="M139.303 117.302H139.147V145.214H139.303V117.302Z" fill="#CEB38C"/>
<path d="M139.457 117.302H139.301V145.214H139.457V117.302Z" fill="#CDB28B"/>
<path d="M139.612 117.302H139.456V145.214H139.612V117.302Z" fill="#CDB18A"/>
<path d="M139.773 117.302H139.617V145.214H139.773V117.302Z" fill="#CCB089"/>
<path d="M139.927 117.302H139.771V145.214H139.927V117.302Z" fill="#CBB088"/>
<path d="M140.081 117.302H139.926V145.214H140.081V117.302Z" fill="#CBAF87"/>
<path d="M140.235 117.302H140.08V145.214H140.235V117.302Z" fill="#CAAE86"/>
<path d="M140.39 117.302H140.234V145.214H140.39V117.302Z" fill="#CAAD85"/>
<path d="M140.543 117.302H140.388V145.214H140.543V117.302Z" fill="#C9AC84"/>
<path d="M140.705 117.302H140.549V145.214H140.705V117.302Z" fill="#C8AB83"/>
<path d="M140.859 117.302H140.703V145.214H140.859V117.302Z" fill="#C8AA82"/>
<path d="M141.013 117.302H140.858V145.214H141.013V117.302Z" fill="#C7AA81"/>
<path d="M141.168 117.302H141.012V145.214H141.168V117.302Z" fill="#C7A980"/>
<path d="M141.322 117.302H141.166V145.214H141.322V117.302Z" fill="#C6A87F"/>
<path d="M141.483 117.302H141.327V145.214H141.483V117.302Z" fill="#C6A77E"/>
<path d="M141.637 117.302H141.481V145.214H141.637V117.302Z" fill="#C5A67D"/>
<path d="M141.791 117.302H141.635V145.214H141.791V117.302Z" fill="#C4A57C"/>
<path d="M141.945 117.302H141.79V145.214H141.945V117.302Z" fill="#C4A57B"/>
<path d="M142.1 117.302H141.944V145.214H142.1V117.302Z" fill="#C3A47A"/>
<path d="M142.254 117.302H142.098V145.214H142.254V117.302Z" fill="#C3A379"/>
<path d="M142.415 117.302H142.259V145.214H142.415V117.302Z" fill="#C2A278"/>
<path d="M148.007 117.302H142.413V145.214H148.007V117.302Z" fill="#C2A278"/>
<path d="M82.0359 108.212C80.6341 106.386 79.5967 104.241 78.9028 101.983C78.2019 99.7247 77.8654 97.3532 77.7112 94.9959C77.4028 90.2601 77.8094 85.5597 78.0897 80.9584C78.9028 76.3995 79.793 71.8265 80.9425 67.296C82.071 62.7655 83.5149 58.2916 85.3723 53.9946C87.2438 49.7119 89.6199 45.6273 92.4726 41.9746C95.2973 38.3218 98.3954 34.9381 100.835 31.0234C98.6968 35.108 95.83 38.7749 93.3137 42.5834C90.7834 46.3848 88.7998 50.4835 87.2998 54.7592C85.8209 59.049 84.7485 63.4663 83.9775 67.9543C83.1924 72.4353 82.6597 76.9729 82.1901 81.5459C81.2229 86.0694 80.1645 90.5079 79.786 95.003C79.5967 97.2471 79.5827 99.5123 79.9191 101.749C80.2416 103.986 80.9145 106.195 82.0359 108.212Z" fill="#D3B6A3"/>
<path d="M85.3101 69.6535C86.803 68.9739 88.9198 68.2377 91.5272 68.0183C92.6697 67.9192 93.7211 67.9404 94.6323 68.0183" fill="#33231E"/>
<path d="M85.3315 67.7988H85.2537V69.7739H85.3315V67.7988Z" fill="#C2A278"/>
<path d="M85.395 67.7988H85.3313V69.7739H85.395V67.7988Z" fill="#C2A278"/>
<path d="M85.4643 67.7988H85.4006V69.7739H85.4643V67.7988Z" fill="#C3A379"/>
<path d="M85.5278 67.7988H85.4641V69.7739H85.5278V67.7988Z" fill="#C3A47A"/>
<path d="M85.5903 67.7988H85.5266V69.7739H85.5903V67.7988Z" fill="#C4A57B"/>
<path d="M85.6609 67.7988H85.5972V69.7739H85.6609V67.7988Z" fill="#C4A57C"/>
<path d="M85.7236 67.7988H85.6599V69.7739H85.7236V67.7988Z" fill="#C5A67D"/>
<path d="M85.7934 67.7988H85.7297V69.7739H85.7934V67.7988Z" fill="#C5A77E"/>
<path d="M85.8569 67.7988H85.7932V69.7739H85.8569V67.7988Z" fill="#C6A87F"/>
<path d="M85.927 67.7988H85.8633V69.7739H85.927V67.7988Z" fill="#C7A980"/>
<path d="M85.99 67.7988H85.9263V69.7739H85.99V67.7988Z" fill="#C7AA81"/>
<path d="M86.06 67.7988H85.9963V69.7739H86.06V67.7988Z" fill="#C8AB82"/>
<path d="M86.1233 67.7988H86.0596V69.7739H86.1233V67.7988Z" fill="#C8AC83"/>
<path d="M86.1863 67.7988H86.1226V69.7739H86.1863V67.7988Z" fill="#C9AC84"/>
<path d="M86.2566 67.7988H86.1929V69.7739H86.2566V67.7988Z" fill="#CAAD85"/>
<path d="M86.3193 67.7988H86.2556V69.7739H86.3193V67.7988Z" fill="#CAAE86"/>
<path d="M86.3896 67.7988H86.3259V69.7739H86.3896V67.7988Z" fill="#CBAF87"/>
<path d="M86.4529 67.7988H86.3892V69.7739H86.4529V67.7988Z" fill="#CBB088"/>
<path d="M86.5227 67.7988H86.459V69.7739H86.5227V67.7988Z" fill="#CCB189"/>
<path d="M86.5859 67.7988H86.5222V69.7739H86.5859V67.7988Z" fill="#CCB28A"/>
<path d="M86.656 67.7988H86.5923V69.7739H86.656V67.7988Z" fill="#CDB38B"/>
<path d="M86.719 67.7988H86.6553V69.7739H86.719V67.7988Z" fill="#CEB38C"/>
<path d="M86.7825 67.7988H86.7188V69.7739H86.7825V67.7988Z" fill="#CEB48D"/>
<path d="M86.8518 67.7988H86.7881V69.7739H86.8518V67.7988Z" fill="#CFB58E"/>
<path d="M86.9155 67.7988H86.8518V69.7739H86.9155V67.7988Z" fill="#CFB68F"/>
<path d="M86.9856 67.7988H86.9219V69.7739H86.9856V67.7988Z" fill="#D0B790"/>
<path d="M87.0483 67.7988H86.9846V69.7739H87.0483V67.7988Z" fill="#D1B891"/>
<path d="M87.1184 67.7988H87.0547V69.7739H87.1184V67.7988Z" fill="#D1B992"/>
<path d="M87.1816 67.7988H87.1179V69.7739H87.1816V67.7988Z" fill="#D2BA93"/>
<path d="M87.2446 67.7988H87.1809V69.7739H87.2446V67.7988Z" fill="#D2BA95"/>
<path d="M87.3149 67.7988H87.2512V69.7739H87.3149V67.7988Z" fill="#D3BB96"/>
<path d="M87.3779 67.7988H87.3142V69.7739H87.3779V67.7988Z" fill="#D3BC97"/>
<path d="M87.4477 67.7988H87.384V69.7739H87.4477V67.7988Z" fill="#D4BD98"/>
<path d="M87.5112 67.7988H87.4475V69.7739H87.5112V67.7988Z" fill="#D5BE99"/>
<path d="M87.581 67.7988H87.5173V69.7739H87.581V67.7988Z" fill="#D5BF9A"/>
<path d="M87.6443 67.7988H87.5806V69.7739H87.6443V67.7988Z" fill="#D6C09B"/>
<path d="M87.7141 67.7988H87.6504V69.7739H87.7141V67.7988Z" fill="#D6C19C"/>
<path d="M87.7773 67.7988H87.7136V69.7739H87.7773V67.7988Z" fill="#D7C19D"/>
<path d="M87.8406 67.7988H87.7769V69.7739H87.8406V67.7988Z" fill="#D8C29E"/>
<path d="M87.9106 67.7988H87.8469V69.7739H87.9106V67.7988Z" fill="#D8C39F"/>
<path d="M87.9736 67.7988H87.9099V69.7739H87.9736V67.7988Z" fill="#D9C4A0"/>
<path d="M88.0439 67.7988H87.9802V69.7739H88.0439V67.7988Z" fill="#D9C5A1"/>
<path d="M88.1067 67.7988H88.043V69.7739H88.1067V67.7988Z" fill="#DAC6A2"/>
<path d="M88.177 67.7988H88.1133V69.7739H88.177V67.7988Z" fill="#DAC7A3"/>
<path d="M88.2397 67.7988H88.176V69.7739H88.2397V67.7988Z" fill="#DBC8A4"/>
<path d="M88.303 67.7988H88.2393V69.7739H88.303V67.7988Z" fill="#DCC8A5"/>
<path d="M88.373 67.7988H88.3093V69.7739H88.373V67.7988Z" fill="#DCC9A6"/>
<path d="M88.4363 67.7988H88.3726V69.7739H88.4363V67.7988Z" fill="#DDCAA7"/>
<path d="M88.5061 67.7988H88.4424V69.7739H88.5061V67.7988Z" fill="#DDCBA8"/>
<path d="M88.5693 67.7988H88.5056V69.7739H88.5693V67.7988Z" fill="#DECCA9"/>
<path d="M88.6394 67.7988H88.5757V69.7739H88.6394V67.7988Z" fill="#DFCDAA"/>
<path d="M88.7026 67.7988H88.6389V69.7739H88.7026V67.7988Z" fill="#DFCEAB"/>
<path d="M88.7727 67.7988H88.709V69.7739H88.7727V67.7988Z" fill="#E0CFAC"/>
<path d="M88.8359 67.7988H88.7722V69.7739H88.8359V67.7988Z" fill="#E0CFAD"/>
<path d="M88.8989 67.7988H88.8352V69.7739H88.8989V67.7988Z" fill="#E1D0AE"/>
<path d="M88.969 67.7988H88.9053V69.7739H88.969V67.7988Z" fill="#E1D1AF"/>
<path d="M89.032 67.7988H88.9683V69.7739H89.032V67.7988Z" fill="#E2D2B0"/>
<path d="M89.2507 67.7988H89.0383V69.7739H89.2507V67.7988Z" fill="#E2D2B0"/>
<path d="M89.4611 67.7988H89.2488V69.7739H89.4611V67.7988Z" fill="#E3D3B1"/>
<path d="M89.6782 67.7988H89.4658V69.7739H89.6782V67.7988Z" fill="#E3D4B2"/>
<path d="M89.8886 67.7988H89.6763V69.7739H89.8886V67.7988Z" fill="#E4D4B3"/>
<path d="M90.0991 67.7988H89.8867V69.7739H90.0991V67.7988Z" fill="#E5D5B4"/>
<path d="M90.3161 67.7988H90.1038V69.7739H90.3161V67.7988Z" fill="#E5D6B6"/>
<path d="M90.5263 67.7988H90.314V69.7739H90.5263V67.7988Z" fill="#E6D7B7"/>
<path d="M90.7436 67.7988H90.5312V69.7739H90.7436V67.7988Z" fill="#E7D7B8"/>
<path d="M90.9538 67.7988H90.7415V69.7739H90.9538V67.7988Z" fill="#E7D8B9"/>
<path d="M91.164 67.7988H90.9517V69.7739H91.164V67.7988Z" fill="#E8D9BA"/>
<path d="M91.2046 67.7988H91.1692V69.7739H91.2046V67.7988Z" fill="#E8D9BA"/>
<path d="M91.2395 67.7988H91.2041V69.7739H91.2395V67.7988Z" fill="#E7D8B9"/>
<path d="M91.2749 67.7988H91.2395V69.7739H91.2749V67.7988Z" fill="#E7D7B8"/>
<path d="M91.3098 67.7988H91.2744V69.7739H91.3098V67.7988Z" fill="#E6D6B7"/>
<path d="M91.345 67.7988H91.3096V69.7739H91.345V67.7988Z" fill="#E6D6B6"/>
<path d="M91.3796 67.7988H91.3442V69.7739H91.3796V67.7988Z" fill="#E5D5B5"/>
<path d="M91.4145 67.7988H91.3792V69.7739H91.4145V67.7988Z" fill="#E4D4B4"/>
<path d="M91.4431 67.7988H91.4077V69.7739H91.4431V67.7988Z" fill="#E4D3B3"/>
<path d="M91.4783 67.7988H91.4429V69.7739H91.4783V67.7988Z" fill="#E3D2B2"/>
<path d="M91.5129 67.7988H91.4775V69.7739H91.5129V67.7988Z" fill="#E3D1B1"/>
<path d="M91.5478 67.7988H91.5125V69.7739H91.5478V67.7988Z" fill="#E2D1B0"/>
<path d="M91.5832 67.7988H91.5479V69.7739H91.5832V67.7988Z" fill="#E2D0AF"/>
<path d="M91.6179 67.7988H91.5825V69.7739H91.6179V67.7988Z" fill="#E1CFAE"/>
<path d="M91.6533 67.7988H91.6179V69.7739H91.6533V67.7988Z" fill="#E0CEAD"/>
<path d="M91.688 67.7988H91.6526V69.7739H91.688V67.7988Z" fill="#E0CDAC"/>
<path d="M91.7234 67.7988H91.688V69.7739H91.7234V67.7988Z" fill="#DFCCAB"/>
<path d="M91.7581 67.7988H91.7227V69.7739H91.7581V67.7988Z" fill="#DFCBAA"/>
<path d="M91.7935 67.7988H91.7581V69.7739H91.7935V67.7988Z" fill="#DECBA9"/>
<path d="M91.8286 67.7988H91.7932V69.7739H91.8286V67.7988Z" fill="#DDCAA8"/>
<path d="M91.8635 67.7988H91.8281V69.7739H91.8635V67.7988Z" fill="#DDC9A7"/>
<path d="M91.8982 67.7988H91.8628V69.7739H91.8982V67.7988Z" fill="#DCC8A6"/>
<path d="M91.9336 67.7988H91.8982V69.7739H91.9336V67.7988Z" fill="#DCC7A5"/>
<path d="M91.969 67.7988H91.9336V69.7739H91.969V67.7988Z" fill="#DBC6A4"/>
<path d="M91.9966 67.7988H91.9612V69.7739H91.9966V67.7988Z" fill="#DBC6A3"/>
<path d="M92.0315 67.7988H91.9961V69.7739H92.0315V67.7988Z" fill="#DAC5A2"/>
<path d="M92.0669 67.7988H92.0315V69.7739H92.0669V67.7988Z" fill="#D9C4A1"/>
<path d="M92.102 67.7988H92.0667V69.7739H92.102V67.7988Z" fill="#D9C3A0"/>
<path d="M92.1367 67.7988H92.1013V69.7739H92.1367V67.7988Z" fill="#D8C29F"/>
<path d="M92.1721 67.7988H92.1367V69.7739H92.1721V67.7988Z" fill="#D8C19E"/>
<path d="M92.207 67.7988H92.1716V69.7739H92.207V67.7988Z" fill="#D7C09D"/>
<path d="M92.2422 67.7988H92.2068V69.7739H92.2422V67.7988Z" fill="#D6C09C"/>
<path d="M92.2771 67.7988H92.2417V69.7739H92.2771V67.7988Z" fill="#D6BF9B"/>
<path d="M92.3123 67.7988H92.2769V69.7739H92.3123V67.7988Z" fill="#D5BE9A"/>
<path d="M92.3472 67.7988H92.3118V69.7739H92.3472V67.7988Z" fill="#D5BD98"/>
<path d="M92.3823 67.7988H92.3469V69.7739H92.3823V67.7988Z" fill="#D4BC97"/>
<path d="M92.4172 67.7988H92.3818V69.7739H92.4172V67.7988Z" fill="#D4BB96"/>
<path d="M92.4524 67.7988H92.417V69.7739H92.4524V67.7988Z" fill="#D3BB95"/>
<path d="M92.4875 67.7988H92.4521V69.7739H92.4875V67.7988Z" fill="#D2BA94"/>
<path d="M92.5225 67.7988H92.4871V69.7739H92.5225V67.7988Z" fill="#D2B993"/>
<path d="M92.5503 67.7988H92.5149V69.7739H92.5503V67.7988Z" fill="#D1B892"/>
<path d="M92.5857 67.7988H92.5503V69.7739H92.5857V67.7988Z" fill="#D1B791"/>
<path d="M92.6206 67.7988H92.5852V69.7739H92.6206V67.7988Z" fill="#D0B690"/>
<path d="M92.6553 67.7988H92.6199V69.7739H92.6553V67.7988Z" fill="#CFB58F"/>
<path d="M92.6907 67.7988H92.6553V69.7739H92.6907V67.7988Z" fill="#CFB58E"/>
<path d="M92.7258 67.7988H92.6904V69.7739H92.7258V67.7988Z" fill="#CEB48D"/>
<path d="M92.7605 67.7988H92.7251V69.7739H92.7605V67.7988Z" fill="#CEB38C"/>
<path d="M92.7957 67.7988H92.7603V69.7739H92.7957V67.7988Z" fill="#CDB28B"/>
<path d="M92.8308 67.7988H92.7954V69.7739H92.8308V67.7988Z" fill="#CDB18A"/>
<path d="M92.8657 67.7988H92.8303V69.7739H92.8657V67.7988Z" fill="#CCB089"/>
<path d="M92.9009 67.7988H92.8655V69.7739H92.9009V67.7988Z" fill="#CBB088"/>
<path d="M92.9358 67.7988H92.9004V69.7739H92.9358V67.7988Z" fill="#CBAF87"/>
<path d="M92.9709 67.7988H92.9355V69.7739H92.9709V67.7988Z" fill="#CAAE86"/>
<path d="M93.0063 67.7988H92.9709V69.7739H93.0063V67.7988Z" fill="#CAAD85"/>
<path d="M93.041 67.7988H93.0056V69.7739H93.041V67.7988Z" fill="#C9AC84"/>
<path d="M93.0759 67.7988H93.0405V69.7739H93.0759V67.7988Z" fill="#C8AB83"/>
<path d="M93.1042 67.7988H93.0688V69.7739H93.1042V67.7988Z" fill="#C8AA82"/>
<path d="M93.1389 67.7988H93.1035V69.7739H93.1389V67.7988Z" fill="#C7AA81"/>
<path d="M93.1741 67.7988H93.1387V69.7739H93.1741V67.7988Z" fill="#C7A980"/>
<path d="M93.2092 67.7988H93.1738V69.7739H93.2092V67.7988Z" fill="#C6A87F"/>
<path d="M93.2444 67.7988H93.209V69.7739H93.2444V67.7988Z" fill="#C6A77E"/>
<path d="M93.279 67.7988H93.2437V69.7739H93.279V67.7988Z" fill="#C5A67D"/>
<path d="M93.3144 67.7988H93.2791V69.7739H93.3144V67.7988Z" fill="#C4A57C"/>
<path d="M93.3494 67.7988H93.314V69.7739H93.3494V67.7988Z" fill="#C4A57B"/>
<path d="M93.3845 67.7988H93.3491V69.7739H93.3845V67.7988Z" fill="#C3A47A"/>
<path d="M93.4194 67.7988H93.384V69.7739H93.4194V67.7988Z" fill="#C3A379"/>
<path d="M93.4546 67.7988H93.4192V69.7739H93.4546V67.7988Z" fill="#C2A278"/>
<path d="M94.6457 67.7988H93.4541V69.7739H94.6457V67.7988Z" fill="#C2A278"/>
<path d="M78.7207 69.0661C77.5081 69.505 76.5969 69.8802 76.0922 70.673C75.153 72.1667 76.2324 74.3541 77.424 76.7609C78.6226 79.1748 79.2604 80.4632 80.7464 81.0295C82.2253 81.5958 83.6622 81.1428 85.3514 80.534C86.6481 80.0668 87.8747 79.6208 88.071 78.7076C88.2392 77.9148 87.4612 77.5891 87.5663 76.5698C87.6715 75.607 88.4144 75.515 88.877 74.3328C89.3397 73.1506 89.0803 72.0251 88.9752 71.5862C88.856 71.0836 88.4985 69.5404 87.0617 68.6413C85.9893 67.9688 84.5664 68.1175 81.6996 68.4361C80.1786 68.613 79.3655 68.8325 78.7207 69.0661Z" fill="#33231E"/>
<path d="M75.715 68.1172H75.3005V81.4469H75.715V68.1172Z" fill="#C2A278"/>
<path d="M75.8127 68.1172H75.7136V81.4469H75.8127V68.1172Z" fill="#C2A278"/>
<path d="M75.9111 68.1172H75.812V81.4469H75.9111V68.1172Z" fill="#C3A379"/>
<path d="M76.0093 68.1172H75.9102V81.4469H76.0093V68.1172Z" fill="#C3A47A"/>
<path d="M76.1074 68.1172H76.0083V81.4469H76.1074V68.1172Z" fill="#C4A57B"/>
<path d="M76.1985 68.1172H76.0994V81.4469H76.1985V68.1172Z" fill="#C4A57C"/>
<path d="M76.2964 68.1172H76.1973V81.4469H76.2964V68.1172Z" fill="#C5A67D"/>
<path d="M76.395 68.1172H76.2959V81.4469H76.395V68.1172Z" fill="#C5A77E"/>
<path d="M76.4929 68.1172H76.3938V81.4469H76.4929V68.1172Z" fill="#C6A87F"/>
<path d="M76.5842 68.1172H76.4851V81.4469H76.5842V68.1172Z" fill="#C7A980"/>
<path d="M76.6821 68.1172H76.583V81.4469H76.6821V68.1172Z" fill="#C7AA81"/>
<path d="M76.7803 68.1172H76.6812V81.4469H76.7803V68.1172Z" fill="#C8AB82"/>
<path d="M76.8786 68.1172H76.7795V81.4469H76.8786V68.1172Z" fill="#C8AC83"/>
<path d="M76.9692 68.1172H76.8701V81.4469H76.9692V68.1172Z" fill="#C9AC84"/>
<path d="M77.0674 68.1172H76.9683V81.4469H77.0674V68.1172Z" fill="#CAAD85"/>
<path d="M77.1658 68.1172H77.0667V81.4469H77.1658V68.1172Z" fill="#CAAE86"/>
<path d="M77.2639 68.1172H77.1648V81.4469H77.2639V68.1172Z" fill="#CBAF87"/>
<path d="M77.3547 68.1172H77.2556V81.4469H77.3547V68.1172Z" fill="#CBB088"/>
<path d="M77.4531 68.1172H77.354V81.4469H77.4531V68.1172Z" fill="#CCB189"/>
<path d="M77.5513 68.1172H77.4521V81.4469H77.5513V68.1172Z" fill="#CCB28A"/>
<path d="M77.6423 68.1172H77.5432V81.4469H77.6423V68.1172Z" fill="#CDB38B"/>
<path d="M77.7405 68.1172H77.6414V81.4469H77.7405V68.1172Z" fill="#CEB38C"/>
<path d="M77.8384 68.1172H77.7393V81.4469H77.8384V68.1172Z" fill="#CEB48D"/>
<path d="M77.937 68.1172H77.8379V81.4469H77.937V68.1172Z" fill="#CFB58E"/>
<path d="M78.0278 68.1172H77.9287V81.4469H78.0278V68.1172Z" fill="#CFB68F"/>
<path d="M78.126 68.1172H78.0269V81.4469H78.126V68.1172Z" fill="#D0B790"/>
<path d="M78.2239 68.1172H78.1248V81.4469H78.2239V68.1172Z" fill="#D1B891"/>
<path d="M78.3225 68.1172H78.2234V81.4469H78.3225V68.1172Z" fill="#D1B992"/>
<path d="M78.4133 68.1172H78.3142V81.4469H78.4133V68.1172Z" fill="#D2BA93"/>
<path d="M78.5115 68.1172H78.4124V81.4469H78.5115V68.1172Z" fill="#D2BA95"/>
<path d="M78.6094 68.1172H78.5103V81.4469H78.6094V68.1172Z" fill="#D3BB96"/>
<path d="M78.7077 68.1172H78.6086V81.4469H78.7077V68.1172Z" fill="#D3BC97"/>
<path d="M78.7988 68.1172H78.6997V81.4469H78.7988V68.1172Z" fill="#D4BD98"/>
<path d="M78.897 68.1172H78.7979V81.4469H78.897V68.1172Z" fill="#D5BE99"/>
<path d="M78.9951 68.1172H78.896V81.4469H78.9951V68.1172Z" fill="#D5BF9A"/>
<path d="M79.093 68.1172H78.9939V81.4469H79.093V68.1172Z" fill="#D6C09B"/>
<path d="M79.1846 68.1172H79.0854V81.4469H79.1846V68.1172Z" fill="#D6C19C"/>
<path d="M79.2825 68.1172H79.1833V81.4469H79.2825V68.1172Z" fill="#D7C19D"/>
<path d="M79.3808 68.1172H79.2817V81.4469H79.3808V68.1172Z" fill="#D8C29E"/>
<path d="M79.4719 68.1172H79.3728V81.4469H79.4719V68.1172Z" fill="#D8C39F"/>
<path d="M79.5698 68.1172H79.4707V81.4469H79.5698V68.1172Z" fill="#D9C4A0"/>
<path d="M79.668 68.1172H79.5688V81.4469H79.668V68.1172Z" fill="#D9C5A1"/>
<path d="M79.7659 68.1172H79.6667V81.4469H79.7659V68.1172Z" fill="#DAC6A2"/>
<path d="M79.8569 68.1172H79.7578V81.4469H79.8569V68.1172Z" fill="#DAC7A3"/>
<path d="M79.9553 68.1172H79.8562V81.4469H79.9553V68.1172Z" fill="#DBC8A4"/>
<path d="M80.0535 68.1172H79.9543V81.4469H80.0535V68.1172Z" fill="#DCC8A5"/>
<path d="M80.1516 68.1172H80.0525V81.4469H80.1516V68.1172Z" fill="#DCC9A6"/>
<path d="M80.2427 68.1172H80.1436V81.4469H80.2427V68.1172Z" fill="#DDCAA7"/>
<path d="M80.3408 68.1172H80.2417V81.4469H80.3408V68.1172Z" fill="#DDCBA8"/>
<path d="M80.4392 68.1172H80.3401V81.4469H80.4392V68.1172Z" fill="#DECCA9"/>
<path d="M80.5371 68.1172H80.438V81.4469H80.5371V68.1172Z" fill="#DFCDAA"/>
<path d="M80.6279 68.1172H80.5288V81.4469H80.6279V68.1172Z" fill="#DFCEAB"/>
<path d="M80.7263 68.1172H80.6272V81.4469H80.7263V68.1172Z" fill="#E0CFAC"/>
<path d="M80.8244 68.1172H80.7253V81.4469H80.8244V68.1172Z" fill="#E0CFAD"/>
<path d="M80.9158 68.1172H80.8167V81.4469H80.9158V68.1172Z" fill="#E1D0AE"/>
<path d="M81.0137 68.1172H80.9146V81.4469H81.0137V68.1172Z" fill="#E1D1AF"/>
<path d="M81.112 68.1172H81.0129V81.4469H81.112V68.1172Z" fill="#E2D2B0"/>
<path d="M81.4223 68.1172H81.1108V81.4469H81.4223V68.1172Z" fill="#E2D2B0"/>
<path d="M81.7304 68.1172H81.4189V81.4469H81.7304V68.1172Z" fill="#E3D3B1"/>
<path d="M82.0393 68.1172H81.7278V81.4469H82.0393V68.1172Z" fill="#E3D4B2"/>
<path d="M82.3476 68.1172H82.0361V81.4469H82.3476V68.1172Z" fill="#E4D4B3"/>
<path d="M82.663 68.1172H82.3516V81.4469H82.663V68.1172Z" fill="#E5D5B4"/>
<path d="M82.9714 68.1172H82.6599V81.4469H82.9714V68.1172Z" fill="#E5D6B6"/>
<path d="M83.28 68.1172H82.9685V81.4469H83.28V68.1172Z" fill="#E6D7B7"/>
<path d="M83.5954 68.1172H83.2839V81.4469H83.5954V68.1172Z" fill="#E7D7B8"/>
<path d="M83.9038 68.1172H83.5923V81.4469H83.9038V68.1172Z" fill="#E7D8B9"/>
<path d="M84.2121 68.1172H83.9006V81.4469H84.2121V68.1172Z" fill="#E8D9BA"/>
<path d="M84.2583 68.1172H84.2087V81.4469H84.2583V68.1172Z" fill="#E8D9BA"/>
<path d="M84.3074 68.1172H84.2578V81.4469H84.3074V68.1172Z" fill="#E7D8B9"/>
<path d="M84.3638 68.1172H84.3142V81.4469H84.3638V68.1172Z" fill="#E7D7B8"/>
<path d="M84.4128 68.1172H84.3633V81.4469H84.4128V68.1172Z" fill="#E6D6B7"/>
<path d="M84.4617 68.1172H84.4121V81.4469H84.4617V68.1172Z" fill="#E6D6B6"/>
<path d="M84.5107 68.1172H84.4612V81.4469H84.5107V68.1172Z" fill="#E5D5B5"/>
<path d="M84.5601 68.1172H84.5105V81.4469H84.5601V68.1172Z" fill="#E4D4B4"/>
<path d="M84.6162 68.1172H84.5667V81.4469H84.6162V68.1172Z" fill="#E4D3B3"/>
<path d="M84.665 68.1172H84.6155V81.4469H84.665V68.1172Z" fill="#E3D2B2"/>
<path d="M84.7141 68.1172H84.6646V81.4469H84.7141V68.1172Z" fill="#E3D1B1"/>
<path d="M84.7632 68.1172H84.7136V81.4469H84.7632V68.1172Z" fill="#E2D1B0"/>
<path d="M84.812 68.1172H84.7625V81.4469H84.812V68.1172Z" fill="#E2D0AF"/>
<path d="M84.8684 68.1172H84.8188V81.4469H84.8684V68.1172Z" fill="#E1CFAE"/>
<path d="M84.9175 68.1172H84.8679V81.4469H84.9175V68.1172Z" fill="#E0CEAD"/>
<path d="M84.9665 68.1172H84.917V81.4469H84.9665V68.1172Z" fill="#E0CDAC"/>
<path d="M85.0154 68.1172H84.9658V81.4469H85.0154V68.1172Z" fill="#DFCCAB"/>
<path d="M85.0644 68.1172H85.0149V81.4469H85.0644V68.1172Z" fill="#DFCBAA"/>
<path d="M85.1138 68.1172H85.0642V81.4469H85.1138V68.1172Z" fill="#DECBA9"/>
<path d="M85.1699 68.1172H85.1204V81.4469H85.1699V68.1172Z" fill="#DDCAA8"/>
<path d="M85.2187 68.1172H85.1692V81.4469H85.2187V68.1172Z" fill="#DDC9A7"/>
<path d="M85.2681 68.1172H85.2185V81.4469H85.2681V68.1172Z" fill="#DCC8A6"/>
<path d="M85.3169 68.1172H85.2673V81.4469H85.3169V68.1172Z" fill="#DCC7A5"/>
<path d="M85.366 68.1172H85.3164V81.4469H85.366V68.1172Z" fill="#DBC6A4"/>
<path d="M85.4221 68.1172H85.3726V81.4469H85.4221V68.1172Z" fill="#DBC6A3"/>
<path d="M85.4712 68.1172H85.4216V81.4469H85.4712V68.1172Z" fill="#DAC5A2"/>
<path d="M85.5205 68.1172H85.4709V81.4469H85.5205V68.1172Z" fill="#D9C4A1"/>
<path d="M85.5691 68.1172H85.5195V81.4469H85.5691V68.1172Z" fill="#D9C3A0"/>
<path d="M85.6184 68.1172H85.5688V81.4469H85.6184V68.1172Z" fill="#D8C29F"/>
<path d="M85.6672 68.1172H85.6177V81.4469H85.6672V68.1172Z" fill="#D8C19E"/>
<path d="M85.7236 68.1172H85.6741V81.4469H85.7236V68.1172Z" fill="#D7C09D"/>
<path d="M85.7725 68.1172H85.7229V81.4469H85.7725V68.1172Z" fill="#D6C09C"/>
<path d="M85.8218 68.1172H85.7722V81.4469H85.8218V68.1172Z" fill="#D6BF9B"/>
<path d="M85.8708 68.1172H85.8213V81.4469H85.8708V68.1172Z" fill="#D5BE9A"/>
<path d="M85.9197 68.1172H85.8701V81.4469H85.9197V68.1172Z" fill="#D5BD98"/>
<path d="M85.9758 68.1172H85.9263V81.4469H85.9758V68.1172Z" fill="#D4BC97"/>
<path d="M86.0249 68.1172H85.9753V81.4469H86.0249V68.1172Z" fill="#D4BB96"/>
<path d="M86.0737 68.1172H86.0242V81.4469H86.0737V68.1172Z" fill="#D3BB95"/>
<path d="M86.123 68.1172H86.0735V81.4469H86.123V68.1172Z" fill="#D2BA94"/>
<path d="M86.1721 68.1172H86.1226V81.4469H86.1721V68.1172Z" fill="#D2B993"/>
<path d="M86.2283 68.1172H86.1787V81.4469H86.2283V68.1172Z" fill="#D1B892"/>
<path d="M86.2771 68.1172H86.2275V81.4469H86.2771V68.1172Z" fill="#D1B791"/>
<path d="M86.3264 68.1172H86.2769V81.4469H86.3264V68.1172Z" fill="#D0B690"/>
<path d="M86.3752 68.1172H86.3257V81.4469H86.3752V68.1172Z" fill="#CFB58F"/>
<path d="M86.4246 68.1172H86.375V81.4469H86.4246V68.1172Z" fill="#CFB58E"/>
<path d="M86.4734 68.1172H86.4238V81.4469H86.4734V68.1172Z" fill="#CEB48D"/>
<path d="M86.5295 68.1172H86.48V81.4469H86.5295V68.1172Z" fill="#CEB38C"/>
<path d="M86.5786 68.1172H86.5291V81.4469H86.5786V68.1172Z" fill="#CDB28B"/>
<path d="M86.6274 68.1172H86.5779V81.4469H86.6274V68.1172Z" fill="#CDB18A"/>
<path d="M86.6765 68.1172H86.627V81.4469H86.6765V68.1172Z" fill="#CCB089"/>
<path d="M86.7256 68.1172H86.676V81.4469H86.7256V68.1172Z" fill="#CBB088"/>
<path d="M86.782 68.1172H86.7324V81.4469H86.782V68.1172Z" fill="#CBAF87"/>
<path d="M86.8308 68.1172H86.7812V81.4469H86.8308V68.1172Z" fill="#CAAE86"/>
<path d="M86.8799 68.1172H86.8303V81.4469H86.8799V68.1172Z" fill="#CAAD85"/>
<path d="M86.9289 68.1172H86.8794V81.4469H86.9289V68.1172Z" fill="#C9AC84"/>
<path d="M86.9783 68.1172H86.9287V81.4469H86.9783V68.1172Z" fill="#C8AB83"/>
<path d="M87.0271 68.1172H86.9775V81.4469H87.0271V68.1172Z" fill="#C8AA82"/>
<path d="M87.0832 68.1172H87.0337V81.4469H87.0832V68.1172Z" fill="#C7AA81"/>
<path d="M87.1323 68.1172H87.0828V81.4469H87.1323V68.1172Z" fill="#C7A980"/>
<path d="M87.1811 68.1172H87.1316V81.4469H87.1811V68.1172Z" fill="#C6A87F"/>
<path d="M87.2302 68.1172H87.1807V81.4469H87.2302V68.1172Z" fill="#C6A77E"/>
<path d="M87.2795 68.1172H87.23V81.4469H87.2795V68.1172Z" fill="#C5A67D"/>
<path d="M87.3357 68.1172H87.2861V81.4469H87.3357V68.1172Z" fill="#C4A57C"/>
<path d="M87.385 68.1172H87.3354V81.4469H87.385V68.1172Z" fill="#C4A57B"/>
<path d="M87.4336 68.1172H87.384V81.4469H87.4336V68.1172Z" fill="#C3A47A"/>
<path d="M87.4829 68.1172H87.4333V81.4469H87.4829V68.1172Z" fill="#C3A379"/>
<path d="M87.532 68.1172H87.4824V81.4469H87.532V68.1172Z" fill="#C2A278"/>
<path d="M89.1994 68.1172H87.5312V81.4469H89.1994V68.1172Z" fill="#C2A278"/>
<path d="M75.7137 67.8201H74.9988V81.4187H75.7137V67.8201Z" fill="#C2A278"/>
<path d="M75.8127 67.8198H75.7136V81.4185H75.8127V67.8198Z" fill="#C2A278"/>
<path d="M75.9111 67.8198H75.812V81.4185H75.9111V67.8198Z" fill="#C3A379"/>
<path d="M76.0093 67.8198H75.9102V81.4185H76.0093V67.8198Z" fill="#C3A47A"/>
<path d="M76.1074 67.8198H76.0083V81.4185H76.1074V67.8198Z" fill="#C4A57B"/>
<path d="M76.1985 67.8198H76.0994V81.4185H76.1985V67.8198Z" fill="#C4A57C"/>
<path d="M76.2964 67.8198H76.1973V81.4185H76.2964V67.8198Z" fill="#C5A67D"/>
<path d="M76.395 67.8198H76.2959V81.4185H76.395V67.8198Z" fill="#C5A77E"/>
<path d="M76.4929 67.8198H76.3938V81.4185H76.4929V67.8198Z" fill="#C6A87F"/>
<path d="M76.5842 67.8198H76.4851V81.4185H76.5842V67.8198Z" fill="#C7A980"/>
<path d="M76.6821 67.8198H76.583V81.4185H76.6821V67.8198Z" fill="#C7AA81"/>
<path d="M76.7803 67.8198H76.6812V81.4185H76.7803V67.8198Z" fill="#C8AB82"/>
<path d="M76.8786 67.8198H76.7795V81.4185H76.8786V67.8198Z" fill="#C8AC83"/>
<path d="M76.9692 67.8198H76.8701V81.4185H76.9692V67.8198Z" fill="#C9AC84"/>
<path d="M77.0674 67.8198H76.9683V81.4185H77.0674V67.8198Z" fill="#CAAD85"/>
<path d="M77.1658 67.8198H77.0667V81.4185H77.1658V67.8198Z" fill="#CAAE86"/>
<path d="M77.2639 67.8198H77.1648V81.4185H77.2639V67.8198Z" fill="#CBAF87"/>
<path d="M77.3547 67.8198H77.2556V81.4185H77.3547V67.8198Z" fill="#CBB088"/>
<path d="M77.4531 67.8198H77.354V81.4185H77.4531V67.8198Z" fill="#CCB189"/>
<path d="M77.5513 67.8198H77.4521V81.4185H77.5513V67.8198Z" fill="#CCB28A"/>
<path d="M77.6423 67.8198H77.5432V81.4185H77.6423V67.8198Z" fill="#CDB38B"/>
<path d="M77.7405 67.8198H77.6414V81.4185H77.7405V67.8198Z" fill="#CEB38C"/>
<path d="M77.8384 67.8198H77.7393V81.4185H77.8384V67.8198Z" fill="#CEB48D"/>
<path d="M77.937 67.8198H77.8379V81.4185H77.937V67.8198Z" fill="#CFB58E"/>
<path d="M78.0278 67.8198H77.9287V81.4185H78.0278V67.8198Z" fill="#CFB68F"/>
<path d="M78.126 67.8198H78.0269V81.4185H78.126V67.8198Z" fill="#D0B790"/>
<path d="M78.2239 67.8198H78.1248V81.4185H78.2239V67.8198Z" fill="#D1B891"/>
<path d="M78.3225 67.8198H78.2234V81.4185H78.3225V67.8198Z" fill="#D1B992"/>
<path d="M78.4133 67.8198H78.3142V81.4185H78.4133V67.8198Z" fill="#D2BA93"/>
<path d="M78.5115 67.8198H78.4124V81.4185H78.5115V67.8198Z" fill="#D2BA95"/>
<path d="M78.6094 67.8198H78.5103V81.4185H78.6094V67.8198Z" fill="#D3BB96"/>
<path d="M78.7077 67.8198H78.6086V81.4185H78.7077V67.8198Z" fill="#D3BC97"/>
<path d="M78.7988 67.8198H78.6997V81.4185H78.7988V67.8198Z" fill="#D4BD98"/>
<path d="M78.897 67.8198H78.7979V81.4185H78.897V67.8198Z" fill="#D5BE99"/>
<path d="M78.9951 67.8198H78.896V81.4185H78.9951V67.8198Z" fill="#D5BF9A"/>
<path d="M79.093 67.8198H78.9939V81.4185H79.093V67.8198Z" fill="#D6C09B"/>
<path d="M79.1846 67.8198H79.0854V81.4185H79.1846V67.8198Z" fill="#D6C19C"/>
<path d="M79.2825 67.8198H79.1833V81.4185H79.2825V67.8198Z" fill="#D7C19D"/>
<path d="M79.3808 67.8198H79.2817V81.4185H79.3808V67.8198Z" fill="#D8C29E"/>
<path d="M79.4719 67.8198H79.3728V81.4185H79.4719V67.8198Z" fill="#D8C39F"/>
<path d="M79.5698 67.8198H79.4707V81.4185H79.5698V67.8198Z" fill="#D9C4A0"/>
<path d="M79.668 67.8198H79.5688V81.4185H79.668V67.8198Z" fill="#D9C5A1"/>
<path d="M79.7659 67.8198H79.6667V81.4185H79.7659V67.8198Z" fill="#DAC6A2"/>
<path d="M79.8569 67.8198H79.7578V81.4185H79.8569V67.8198Z" fill="#DAC7A3"/>
<path d="M79.9553 67.8198H79.8562V81.4185H79.9553V67.8198Z" fill="#DBC8A4"/>
<path d="M80.0535 67.8198H79.9543V81.4185H80.0535V67.8198Z" fill="#DCC8A5"/>
<path d="M80.1516 67.8198H80.0525V81.4185H80.1516V67.8198Z" fill="#DCC9A6"/>
<path d="M80.2427 67.8198H80.1436V81.4185H80.2427V67.8198Z" fill="#DDCAA7"/>
<path d="M80.3408 67.8198H80.2417V81.4185H80.3408V67.8198Z" fill="#DDCBA8"/>
<path d="M80.4392 67.8198H80.3401V81.4185H80.4392V67.8198Z" fill="#DECCA9"/>
<path d="M80.5371 67.8198H80.438V81.4185H80.5371V67.8198Z" fill="#DFCDAA"/>
<path d="M80.6279 67.8198H80.5288V81.4185H80.6279V67.8198Z" fill="#DFCEAB"/>
<path d="M80.7263 67.8198H80.6272V81.4185H80.7263V67.8198Z" fill="#E0CFAC"/>
<path d="M80.8244 67.8198H80.7253V81.4185H80.8244V67.8198Z" fill="#E0CFAD"/>
<path d="M80.9158 67.8198H80.8167V81.4185H80.9158V67.8198Z" fill="#E1D0AE"/>
<path d="M81.0137 67.8198H80.9146V81.4185H81.0137V67.8198Z" fill="#E1D1AF"/>
<path d="M81.112 67.8198H81.0129V81.4185H81.112V67.8198Z" fill="#E2D2B0"/>
<path d="M81.4223 67.8198H81.1108V81.4185H81.4223V67.8198Z" fill="#E2D2B0"/>
<path d="M81.7304 67.8198H81.4189V81.4185H81.7304V67.8198Z" fill="#E3D3B1"/>
<path d="M82.0393 67.8198H81.7278V81.4185H82.0393V67.8198Z" fill="#E3D4B2"/>
<path d="M82.3476 67.8198H82.0361V81.4185H82.3476V67.8198Z" fill="#E4D4B3"/>
<path d="M82.663 67.8198H82.3516V81.4185H82.663V67.8198Z" fill="#E5D5B4"/>
<path d="M82.9714 67.8198H82.6599V81.4185H82.9714V67.8198Z" fill="#E5D6B6"/>
<path d="M83.28 67.8198H82.9685V81.4185H83.28V67.8198Z" fill="#E6D7B7"/>
<path d="M83.5954 67.8198H83.2839V81.4185H83.5954V67.8198Z" fill="#E7D7B8"/>
<path d="M83.9038 67.8198H83.5923V81.4185H83.9038V67.8198Z" fill="#E7D8B9"/>
<path d="M84.2121 67.8198H83.9006V81.4185H84.2121V67.8198Z" fill="#E8D9BA"/>
<path d="M84.2583 67.8198H84.2087V81.4185H84.2583V67.8198Z" fill="#E8D9BA"/>
<path d="M84.3074 67.8198H84.2578V81.4185H84.3074V67.8198Z" fill="#E7D8B9"/>
<path d="M84.3638 67.8198H84.3142V81.4185H84.3638V67.8198Z" fill="#E7D7B8"/>
<path d="M84.4128 67.8198H84.3633V81.4185H84.4128V67.8198Z" fill="#E6D6B7"/>
<path d="M84.4617 67.8198H84.4121V81.4185H84.4617V67.8198Z" fill="#E6D6B6"/>
<path d="M84.5107 67.8198H84.4612V81.4185H84.5107V67.8198Z" fill="#E5D5B5"/>
<path d="M84.5601 67.8198H84.5105V81.4185H84.5601V67.8198Z" fill="#E4D4B4"/>
<path d="M84.6162 67.8198H84.5667V81.4185H84.6162V67.8198Z" fill="#E4D3B3"/>
<path d="M84.665 67.8198H84.6155V81.4185H84.665V67.8198Z" fill="#E3D2B2"/>
<path d="M84.7141 67.8198H84.6646V81.4185H84.7141V67.8198Z" fill="#E3D1B1"/>
<path d="M84.7632 67.8198H84.7136V81.4185H84.7632V67.8198Z" fill="#E2D1B0"/>
<path d="M84.812 67.8198H84.7625V81.4185H84.812V67.8198Z" fill="#E2D0AF"/>
<path d="M84.8684 67.8198H84.8188V81.4185H84.8684V67.8198Z" fill="#E1CFAE"/>
<path d="M84.9175 67.8198H84.8679V81.4185H84.9175V67.8198Z" fill="#E0CEAD"/>
<path d="M84.9665 67.8198H84.917V81.4185H84.9665V67.8198Z" fill="#E0CDAC"/>
<path d="M85.0154 67.8198H84.9658V81.4185H85.0154V67.8198Z" fill="#DFCCAB"/>
<path d="M85.0644 67.8198H85.0149V81.4185H85.0644V67.8198Z" fill="#DFCBAA"/>
<path d="M85.1138 67.8198H85.0642V81.4185H85.1138V67.8198Z" fill="#DECBA9"/>
<path d="M85.1699 67.8198H85.1204V81.4185H85.1699V67.8198Z" fill="#DDCAA8"/>
<path d="M85.2187 67.8198H85.1692V81.4185H85.2187V67.8198Z" fill="#DDC9A7"/>
<path d="M85.2681 67.8198H85.2185V81.4185H85.2681V67.8198Z" fill="#DCC8A6"/>
<path d="M85.3169 67.8198H85.2673V81.4185H85.3169V67.8198Z" fill="#DCC7A5"/>
<path d="M85.366 67.8198H85.3164V81.4185H85.366V67.8198Z" fill="#DBC6A4"/>
<path d="M85.4221 67.8198H85.3726V81.4185H85.4221V67.8198Z" fill="#DBC6A3"/>
<path d="M85.4712 67.8198H85.4216V81.4185H85.4712V67.8198Z" fill="#DAC5A2"/>
<path d="M85.5205 67.8198H85.4709V81.4185H85.5205V67.8198Z" fill="#D9C4A1"/>
<path d="M85.5691 67.8198H85.5195V81.4185H85.5691V67.8198Z" fill="#D9C3A0"/>
<path d="M85.6184 67.8198H85.5688V81.4185H85.6184V67.8198Z" fill="#D8C29F"/>
<path d="M85.6672 67.8198H85.6177V81.4185H85.6672V67.8198Z" fill="#D8C19E"/>
<path d="M85.7236 67.8198H85.6741V81.4185H85.7236V67.8198Z" fill="#D7C09D"/>
<path d="M85.7725 67.8198H85.7229V81.4185H85.7725V67.8198Z" fill="#D6C09C"/>
<path d="M85.8218 67.8198H85.7722V81.4185H85.8218V67.8198Z" fill="#D6BF9B"/>
<path d="M85.8708 67.8198H85.8213V81.4185H85.8708V67.8198Z" fill="#D5BE9A"/>
<path d="M85.9197 67.8198H85.8701V81.4185H85.9197V67.8198Z" fill="#D5BD98"/>
<path d="M85.9758 67.8198H85.9263V81.4185H85.9758V67.8198Z" fill="#D4BC97"/>
<path d="M86.0249 67.8198H85.9753V81.4185H86.0249V67.8198Z" fill="#D4BB96"/>
<path d="M86.0737 67.8198H86.0242V81.4185H86.0737V67.8198Z" fill="#D3BB95"/>
<path d="M86.123 67.8198H86.0735V81.4185H86.123V67.8198Z" fill="#D2BA94"/>
<path d="M86.1721 67.8198H86.1226V81.4185H86.1721V67.8198Z" fill="#D2B993"/>
<path d="M86.2283 67.8198H86.1787V81.4185H86.2283V67.8198Z" fill="#D1B892"/>
<path d="M86.2771 67.8198H86.2275V81.4185H86.2771V67.8198Z" fill="#D1B791"/>
<path d="M86.3264 67.8198H86.2769V81.4185H86.3264V67.8198Z" fill="#D0B690"/>
<path d="M86.3752 67.8198H86.3257V81.4185H86.3752V67.8198Z" fill="#CFB58F"/>
<path d="M86.4246 67.8198H86.375V81.4185H86.4246V67.8198Z" fill="#CFB58E"/>
<path d="M86.4734 67.8198H86.4238V81.4185H86.4734V67.8198Z" fill="#CEB48D"/>
<path d="M86.5295 67.8198H86.48V81.4185H86.5295V67.8198Z" fill="#CEB38C"/>
<path d="M86.5786 67.8198H86.5291V81.4185H86.5786V67.8198Z" fill="#CDB28B"/>
<path d="M86.6274 67.8198H86.5779V81.4185H86.6274V67.8198Z" fill="#CDB18A"/>
<path d="M86.6765 67.8198H86.627V81.4185H86.6765V67.8198Z" fill="#CCB089"/>
<path d="M86.7256 67.8198H86.676V81.4185H86.7256V67.8198Z" fill="#CBB088"/>
<path d="M86.782 67.8198H86.7324V81.4185H86.782V67.8198Z" fill="#CBAF87"/>
<path d="M86.8308 67.8198H86.7812V81.4185H86.8308V67.8198Z" fill="#CAAE86"/>
<path d="M86.8799 67.8198H86.8303V81.4185H86.8799V67.8198Z" fill="#CAAD85"/>
<path d="M86.9289 67.8198H86.8794V81.4185H86.9289V67.8198Z" fill="#C9AC84"/>
<path d="M86.9783 67.8198H86.9287V81.4185H86.9783V67.8198Z" fill="#C8AB83"/>
<path d="M87.0271 67.8198H86.9775V81.4185H87.0271V67.8198Z" fill="#C8AA82"/>
<path d="M87.0832 67.8198H87.0337V81.4185H87.0832V67.8198Z" fill="#C7AA81"/>
<path d="M87.1323 67.8198H87.0828V81.4185H87.1323V67.8198Z" fill="#C7A980"/>
<path d="M87.1811 67.8198H87.1316V81.4185H87.1811V67.8198Z" fill="#C6A87F"/>
<path d="M87.2302 67.8198H87.1807V81.4185H87.2302V67.8198Z" fill="#C6A77E"/>
<path d="M87.2795 67.8198H87.23V81.4185H87.2795V67.8198Z" fill="#C5A67D"/>
<path d="M87.3357 67.8198H87.2861V81.4185H87.3357V67.8198Z" fill="#C4A57C"/>
<path d="M87.385 67.8198H87.3354V81.4185H87.385V67.8198Z" fill="#C4A57B"/>
<path d="M87.4336 67.8198H87.384V81.4185H87.4336V67.8198Z" fill="#C3A47A"/>
<path d="M87.4829 67.8198H87.4333V81.4185H87.4829V67.8198Z" fill="#C3A379"/>
<path d="M87.532 67.8198H87.4824V81.4185H87.532V67.8198Z" fill="#C2A278"/>
<path d="M89.4728 67.8198H87.5312V81.4185H89.4728V67.8198Z" fill="#C2A278"/>
<path d="M104.171 63.9692H103.625V69.5404H104.171V63.9692Z" fill="#C2A278"/>
<path d="M104.468 63.9692H104.171V69.5404H104.468V63.9692Z" fill="#C2A278"/>
<path d="M104.763 63.9692H104.466V69.5404H104.763V63.9692Z" fill="#C3A379"/>
<path d="M105.057 63.9692H104.76V69.5404H105.057V63.9692Z" fill="#C3A47A"/>
<path d="M105.351 63.9692H105.054V69.5404H105.351V63.9692Z" fill="#C4A57B"/>
<path d="M105.646 63.9692H105.348V69.5404H105.646V63.9692Z" fill="#C4A57C"/>
<path d="M105.94 63.9692H105.643V69.5404H105.94V63.9692Z" fill="#C5A67D"/>
<path d="M106.242 63.9692H105.944V69.5404H106.242V63.9692Z" fill="#C5A77E"/>
<path d="M106.536 63.9692H106.239V69.5404H106.536V63.9692Z" fill="#C6A87F"/>
<path d="M106.831 63.9692H106.533V69.5404H106.831V63.9692Z" fill="#C7A980"/>
<path d="M107.124 63.9692H106.827V69.5404H107.124V63.9692Z" fill="#C7AA81"/>
<path d="M107.419 63.9692H107.122V69.5404H107.419V63.9692Z" fill="#C8AB82"/>
<path d="M107.714 63.9692H107.416V69.5404H107.714V63.9692Z" fill="#C8AC83"/>
<path d="M108.008 63.9692H107.711V69.5404H108.008V63.9692Z" fill="#C9AC84"/>
<path d="M108.31 63.9692H108.012V69.5404H108.31V63.9692Z" fill="#CAAD85"/>
<path d="M108.604 63.9692H108.307V69.5404H108.604V63.9692Z" fill="#CAAE86"/>
<path d="M108.898 63.9692H108.601V69.5404H108.898V63.9692Z" fill="#CBAF87"/>
<path d="M109.192 63.9692H108.895V69.5404H109.192V63.9692Z" fill="#CBB088"/>
<path d="M109.487 63.9692H109.189V69.5404H109.487V63.9692Z" fill="#CCB189"/>
<path d="M109.782 63.9692H109.484V69.5404H109.782V63.9692Z" fill="#CCB28A"/>
<path d="M110.076 63.9692H109.778V69.5404H110.076V63.9692Z" fill="#CDB38B"/>
<path d="M110.377 63.9692H110.08V69.5404H110.377V63.9692Z" fill="#CEB38C"/>
<path d="M110.672 63.9692H110.375V69.5404H110.672V63.9692Z" fill="#CEB48D"/>
<path d="M110.966 63.9692H110.668V69.5404H110.966V63.9692Z" fill="#CFB58E"/>
<path d="M111.26 63.9692H110.963V69.5404H111.26V63.9692Z" fill="#CFB68F"/>
<path d="M111.555 63.9692H111.257V69.5404H111.555V63.9692Z" fill="#D0B790"/>
<path d="M111.849 63.9692H111.552V69.5404H111.849V63.9692Z" fill="#D1B891"/>
<path d="M112.144 63.9692H111.846V69.5404H112.144V63.9692Z" fill="#D1B992"/>
<path d="M112.445 63.9692H112.148V69.5404H112.445V63.9692Z" fill="#D2BA93"/>
<path d="M112.739 63.9692H112.442V69.5404H112.739V63.9692Z" fill="#D2BA95"/>
<path d="M113.033 63.9692H112.736V69.5404H113.033V63.9692Z" fill="#D3BB96"/>
<path d="M113.328 63.9692H113.031V69.5404H113.328V63.9692Z" fill="#D3BC97"/>
<path d="M113.623 63.9692H113.325V69.5404H113.623V63.9692Z" fill="#D4BD98"/>
<path d="M113.917 63.9692H113.619V69.5404H113.917V63.9692Z" fill="#D5BE99"/>
<path d="M114.211 63.9692H113.914V69.5404H114.211V63.9692Z" fill="#D5BF9A"/>
<path d="M114.513 63.9692H114.215V69.5404H114.513V63.9692Z" fill="#D6C09B"/>
<path d="M114.807 63.9692H114.51V69.5404H114.807V63.9692Z" fill="#D6C19C"/>
<path d="M115.101 63.9692H114.804V69.5404H115.101V63.9692Z" fill="#D7C19D"/>
<path d="M115.396 63.9692H115.098V69.5404H115.396V63.9692Z" fill="#D8C29E"/>
<path d="M115.69 63.9692H115.393V69.5404H115.69V63.9692Z" fill="#D8C39F"/>
<path d="M115.985 63.9692H115.687V69.5404H115.985V63.9692Z" fill="#D9C4A0"/>
<path d="M116.279 63.9692H115.981V69.5404H116.279V63.9692Z" fill="#D9C5A1"/>
<path d="M116.58 63.9692H116.283V69.5404H116.58V63.9692Z" fill="#DAC6A2"/>
<path d="M116.875 63.9692H116.577V69.5404H116.875V63.9692Z" fill="#DAC7A3"/>
<path d="M117.169 63.9692H116.872V69.5404H117.169V63.9692Z" fill="#DBC8A4"/>
<path d="M117.464 63.9692H117.166V69.5404H117.464V63.9692Z" fill="#DCC8A5"/>
<path d="M117.758 63.9692H117.46V69.5404H117.758V63.9692Z" fill="#DCC9A6"/>
<path d="M118.052 63.9692H117.755V69.5404H118.052V63.9692Z" fill="#DDCAA7"/>
<path d="M118.347 63.9692H118.049V69.5404H118.347V63.9692Z" fill="#DDCBA8"/>
<path d="M118.641 63.9692H118.344V69.5404H118.641V63.9692Z" fill="#DECCA9"/>
<path d="M118.942 63.9692H118.645V69.5404H118.942V63.9692Z" fill="#DFCDAA"/>
<path d="M119.237 63.9692H118.94V69.5404H119.237V63.9692Z" fill="#DFCEAB"/>
<path d="M119.531 63.9692H119.234V69.5404H119.531V63.9692Z" fill="#E0CFAC"/>
<path d="M119.826 63.9692H119.528V69.5404H119.826V63.9692Z" fill="#E0CFAD"/>
<path d="M120.12 63.9692H119.823V69.5404H120.12V63.9692Z" fill="#E1D0AE"/>
<path d="M120.415 63.9692H120.117V69.5404H120.415V63.9692Z" fill="#E1D1AF"/>
<path d="M120.709 63.9692H120.412V69.5404H120.709V63.9692Z" fill="#E2D2B0"/>
<path d="M121.666 63.9692H120.713V69.5404H121.666V63.9692Z" fill="#E2D2B0"/>
<path d="M122.612 63.9692H121.659V69.5404H122.612V63.9692Z" fill="#E3D3B1"/>
<path d="M123.565 63.9692H122.612V69.5404H123.565V63.9692Z" fill="#E3D4B2"/>
<path d="M124.519 63.9692H123.565V69.5404H124.519V63.9692Z" fill="#E4D4B3"/>
<path d="M125.472 63.9692H124.519V69.5404H125.472V63.9692Z" fill="#E5D5B4"/>
<path d="M126.418 63.9692H125.465V69.5404H126.418V63.9692Z" fill="#E5D6B6"/>
<path d="M127.371 63.9692H126.418V69.5404H127.371V63.9692Z" fill="#E6D7B7"/>
<path d="M128.325 63.9692H127.372V69.5404H128.325V63.9692Z" fill="#E7D7B8"/>
<path d="M129.278 63.9692H128.325V69.5404H129.278V63.9692Z" fill="#E7D8B9"/>
<path d="M130.231 63.9692H129.278V69.5404H130.231V63.9692Z" fill="#E8D9BA"/>
<path d="M130.38 63.9692H130.224V69.5404H130.38V63.9692Z" fill="#E8D9BA"/>
<path d="M130.534 63.9692H130.378V69.5404H130.534V63.9692Z" fill="#E7D8B9"/>
<path d="M130.688 63.9692H130.532V69.5404H130.688V63.9692Z" fill="#E7D7B8"/>
<path d="M130.843 63.9692H130.687V69.5404H130.843V63.9692Z" fill="#E6D6B7"/>
<path d="M130.997 63.9692H130.841V69.5404H130.997V63.9692Z" fill="#E6D6B6"/>
<path d="M131.158 63.9692H131.002V69.5404H131.158V63.9692Z" fill="#E5D5B5"/>
<path d="M131.312 63.9692H131.156V69.5404H131.312V63.9692Z" fill="#E4D4B4"/>
<path d="M131.466 63.9692H131.311V69.5404H131.466V63.9692Z" fill="#E4D3B3"/>
<path d="M131.621 63.9692H131.465V69.5404H131.621V63.9692Z" fill="#E3D2B2"/>
<path d="M131.775 63.9692H131.619V69.5404H131.775V63.9692Z" fill="#E3D1B1"/>
<path d="M131.929 63.9692H131.773V69.5404H131.929V63.9692Z" fill="#E2D1B0"/>
<path d="M132.083 63.9692H131.927V69.5404H132.083V63.9692Z" fill="#E2D0AF"/>
<path d="M132.237 63.9692H132.082V69.5404H132.237V63.9692Z" fill="#E1CFAE"/>
<path d="M132.392 63.9692H132.236V69.5404H132.392V63.9692Z" fill="#E0CEAD"/>
<path d="M132.546 63.9692H132.39V69.5404H132.546V63.9692Z" fill="#E0CDAC"/>
<path d="M132.7 63.9692H132.544V69.5404H132.7V63.9692Z" fill="#DFCCAB"/>
<path d="M132.854 63.9692H132.698V69.5404H132.854V63.9692Z" fill="#DFCBAA"/>
<path d="M133.009 63.9692H132.853V69.5404H133.009V63.9692Z" fill="#DECBA9"/>
<path d="M133.163 63.9692H133.007V69.5404H133.163V63.9692Z" fill="#DDCAA8"/>
<path d="M133.317 63.9692H133.161V69.5404H133.317V63.9692Z" fill="#DDC9A7"/>
<path d="M133.471 63.9692H133.315V69.5404H133.471V63.9692Z" fill="#DCC8A6"/>
<path d="M133.625 63.9692H133.469V69.5404H133.625V63.9692Z" fill="#DCC7A5"/>
<path d="M133.78 63.9692H133.624V69.5404H133.78V63.9692Z" fill="#DBC6A4"/>
<path d="M133.934 63.9692H133.778V69.5404H133.934V63.9692Z" fill="#DBC6A3"/>
<path d="M134.088 63.9692H133.932V69.5404H134.088V63.9692Z" fill="#DAC5A2"/>
<path d="M134.242 63.9692H134.086V69.5404H134.242V63.9692Z" fill="#D9C4A1"/>
<path d="M134.396 63.9692H134.241V69.5404H134.396V63.9692Z" fill="#D9C3A0"/>
<path d="M134.551 63.9692H134.395V69.5404H134.551V63.9692Z" fill="#D8C29F"/>
<path d="M134.705 63.9692H134.549V69.5404H134.705V63.9692Z" fill="#D8C19E"/>
<path d="M134.859 63.9692H134.703V69.5404H134.859V63.9692Z" fill="#D7C09D"/>
<path d="M135.02 63.9692H134.864V69.5404H135.02V63.9692Z" fill="#D6C09C"/>
<path d="M135.175 63.9692H135.019V69.5404H135.175V63.9692Z" fill="#D6BF9B"/>
<path d="M135.328 63.9692H135.173V69.5404H135.328V63.9692Z" fill="#D5BE9A"/>
<path d="M135.483 63.9692H135.327V69.5404H135.483V63.9692Z" fill="#D5BD98"/>
<path d="M135.637 63.9692H135.481V69.5404H135.637V63.9692Z" fill="#D4BC97"/>
<path d="M135.791 63.9692H135.635V69.5404H135.791V63.9692Z" fill="#D4BB96"/>
<path d="M135.945 63.9692H135.79V69.5404H135.945V63.9692Z" fill="#D3BB95"/>
<path d="M136.099 63.9692H135.944V69.5404H136.099V63.9692Z" fill="#D2BA94"/>
<path d="M136.254 63.9692H136.098V69.5404H136.254V63.9692Z" fill="#D2B993"/>
<path d="M136.408 63.9692H136.252V69.5404H136.408V63.9692Z" fill="#D1B892"/>
<path d="M136.562 63.9692H136.406V69.5404H136.562V63.9692Z" fill="#D1B791"/>
<path d="M136.716 63.9692H136.561V69.5404H136.716V63.9692Z" fill="#D0B690"/>
<path d="M136.87 63.9692H136.715V69.5404H136.87V63.9692Z" fill="#CFB58F"/>
<path d="M137.024 63.9692H136.869V69.5404H137.024V63.9692Z" fill="#CFB58E"/>
<path d="M137.179 63.9692H137.023V69.5404H137.179V63.9692Z" fill="#CEB48D"/>
<path d="M137.333 63.9692H137.177V69.5404H137.333V63.9692Z" fill="#CEB38C"/>
<path d="M137.487 63.9692H137.332V69.5404H137.487V63.9692Z" fill="#CDB28B"/>
<path d="M137.641 63.9692H137.486V69.5404H137.641V63.9692Z" fill="#CDB18A"/>
<path d="M137.796 63.9692H137.64V69.5404H137.796V63.9692Z" fill="#CCB089"/>
<path d="M137.95 63.9692H137.794V69.5404H137.95V63.9692Z" fill="#CBB088"/>
<path d="M138.104 63.9692H137.948V69.5404H138.104V63.9692Z" fill="#CBAF87"/>
<path d="M138.258 63.9692H138.103V69.5404H138.258V63.9692Z" fill="#CAAE86"/>
<path d="M138.412 63.9692H138.257V69.5404H138.412V63.9692Z" fill="#CAAD85"/>
<path d="M138.567 63.9692H138.411V69.5404H138.567V63.9692Z" fill="#C9AC84"/>
<path d="M138.721 63.9692H138.565V69.5404H138.721V63.9692Z" fill="#C8AB83"/>
<path d="M138.882 63.9692H138.727V69.5404H138.882V63.9692Z" fill="#C8AA82"/>
<path d="M139.036 63.9692H138.881V69.5404H139.036V63.9692Z" fill="#C7AA81"/>
<path d="M139.19 63.9692H139.035V69.5404H139.19V63.9692Z" fill="#C7A980"/>
<path d="M139.345 63.9692H139.189V69.5404H139.345V63.9692Z" fill="#C6A87F"/>
<path d="M139.499 63.9692H139.343V69.5404H139.499V63.9692Z" fill="#C6A77E"/>
<path d="M139.653 63.9692H139.497V69.5404H139.653V63.9692Z" fill="#C5A67D"/>
<path d="M139.807 63.9692H139.651V69.5404H139.807V63.9692Z" fill="#C4A57C"/>
<path d="M139.961 63.9692H139.806V69.5404H139.961V63.9692Z" fill="#C4A57B"/>
<path d="M140.116 63.9692H139.96V69.5404H140.116V63.9692Z" fill="#C3A47A"/>
<path d="M140.27 63.9692H140.114V69.5404H140.27V63.9692Z" fill="#C3A379"/>
<path d="M140.424 63.9692H140.268V69.5404H140.424V63.9692Z" fill="#C2A278"/>
<path d="M145.883 63.9692H140.422V69.5404H145.883V63.9692Z" fill="#C2A278"/>
<path d="M94.814 66.8079C94.1832 67.1831 93.314 67.714 92.9005 68.7405C92.4869 69.7528 92.7393 70.666 93.2019 72.3437C93.6434 73.9435 94.2673 75.0054 94.4145 75.246C94.9191 76.0884 95.4939 77.0441 96.4261 77.6883C97.87 78.6864 106.617 78.5094 107.501 77.7874C108.58 76.9096 108.762 75.2814 108.811 74.8425C108.895 74.1063 108.391 69.5333 108.103 68.6414C107.823 67.7494 107.431 66.5106 106.393 65.8947C106.246 65.8098 106.106 65.7532 105.98 65.7107C104.122 65.0665 101.115 65.5266 99.2438 65.7956C96.4051 66.2062 95.7953 66.2274 94.814 66.8079Z" fill="#33231E"/>
<path d="M92.6977 65.2222H92.627V78.5377H92.6977V65.2222Z" fill="#C2A278"/>
<path d="M92.8103 65.2222H92.697V78.5377H92.8103V65.2222Z" fill="#C2A278"/>
<path d="M92.9226 65.2222H92.8093V78.5377H92.9226V65.2222Z" fill="#C3A379"/>
<path d="M93.0349 65.2222H92.9216V78.5377H93.0349V65.2222Z" fill="#C3A47A"/>
<path d="M93.1538 65.2222H93.0405V78.5377H93.1538V65.2222Z" fill="#C4A57B"/>
<path d="M93.2661 65.2222H93.1528V78.5377H93.2661V65.2222Z" fill="#C4A57C"/>
<path d="M93.3852 65.2222H93.272V78.5377H93.3852V65.2222Z" fill="#C5A67D"/>
<path d="M93.4973 65.2222H93.384V78.5377H93.4973V65.2222Z" fill="#C5A77E"/>
<path d="M93.6164 65.2222H93.5032V78.5377H93.6164V65.2222Z" fill="#C6A87F"/>
<path d="M93.7287 65.2222H93.6155V78.5377H93.7287V65.2222Z" fill="#C7A980"/>
<path d="M93.8479 65.2222H93.7346V78.5377H93.8479V65.2222Z" fill="#C7AA81"/>
<path d="M93.9602 65.2222H93.8469V78.5377H93.9602V65.2222Z" fill="#C8AB82"/>
<path d="M94.0793 65.2222H93.9661V78.5377H94.0793V65.2222Z" fill="#C8AC83"/>
<path d="M94.1911 65.2222H94.0779V78.5377H94.1911V65.2222Z" fill="#C9AC84"/>
<path d="M94.3105 65.2222H94.1973V78.5377H94.3105V65.2222Z" fill="#CAAD85"/>
<path d="M94.4228 65.2222H94.3096V78.5377H94.4228V65.2222Z" fill="#CAAE86"/>
<path d="M94.5417 65.2222H94.4285V78.5377H94.5417V65.2222Z" fill="#CBAF87"/>
<path d="M94.654 65.2222H94.5408V78.5377H94.654V65.2222Z" fill="#CBB088"/>
<path d="M94.7659 65.2222H94.6526V78.5377H94.7659V65.2222Z" fill="#CCB189"/>
<path d="M94.885 65.2222H94.7717V78.5377H94.885V65.2222Z" fill="#CCB28A"/>
<path d="M94.9973 65.2222H94.884V78.5377H94.9973V65.2222Z" fill="#CDB38B"/>
<path d="M95.1167 65.2222H95.0034V78.5377H95.1167V65.2222Z" fill="#CEB38C"/>
<path d="M95.2285 65.2222H95.1152V78.5377H95.2285V65.2222Z" fill="#CEB48D"/>
<path d="M95.3479 65.2222H95.2346V78.5377H95.3479V65.2222Z" fill="#CFB58E"/>
<path d="M95.4599 65.2222H95.3467V78.5377H95.4599V65.2222Z" fill="#CFB68F"/>
<path d="M95.5791 65.2222H95.4658V78.5377H95.5791V65.2222Z" fill="#D0B790"/>
<path d="M95.6914 65.2222H95.5781V78.5377H95.6914V65.2222Z" fill="#D1B891"/>
<path d="M95.8103 65.2222H95.697V78.5377H95.8103V65.2222Z" fill="#D1B992"/>
<path d="M95.9223 65.2222H95.8091V78.5377H95.9223V65.2222Z" fill="#D2BA93"/>
<path d="M96.0417 65.2222H95.9285V78.5377H96.0417V65.2222Z" fill="#D2BA95"/>
<path d="M96.1535 65.2222H96.0403V78.5377H96.1535V65.2222Z" fill="#D3BB96"/>
<path d="M96.2727 65.2222H96.1594V78.5377H96.2727V65.2222Z" fill="#D3BC97"/>
<path d="M96.3852 65.2222H96.272V78.5377H96.3852V65.2222Z" fill="#D4BD98"/>
<path d="M96.4971 65.2222H96.3838V78.5377H96.4971V65.2222Z" fill="#D5BE99"/>
<path d="M96.6164 65.2222H96.5032V78.5377H96.6164V65.2222Z" fill="#D5BF9A"/>
<path d="M96.7287 65.2222H96.6155V78.5377H96.7287V65.2222Z" fill="#D6C09B"/>
<path d="M96.8476 65.2222H96.7344V78.5377H96.8476V65.2222Z" fill="#D6C19C"/>
<path d="M96.9597 65.2222H96.8464V78.5377H96.9597V65.2222Z" fill="#D7C19D"/>
<path d="M97.0791 65.2222H96.9658V78.5377H97.0791V65.2222Z" fill="#D8C29E"/>
<path d="M97.1909 65.2222H97.0776V78.5377H97.1909V65.2222Z" fill="#D8C39F"/>
<path d="M97.31 65.2222H97.1968V78.5377H97.31V65.2222Z" fill="#D9C4A0"/>
<path d="M97.4221 65.2222H97.3088V78.5377H97.4221V65.2222Z" fill="#D9C5A1"/>
<path d="M97.5412 65.2222H97.428V78.5377H97.5412V65.2222Z" fill="#DAC6A2"/>
<path d="M97.6538 65.2222H97.5405V78.5377H97.6538V65.2222Z" fill="#DAC7A3"/>
<path d="M97.7732 65.2222H97.6599V78.5377H97.7732V65.2222Z" fill="#DBC8A4"/>
<path d="M97.885 65.2222H97.7717V78.5377H97.885V65.2222Z" fill="#DCC8A5"/>
<path d="M98.0041 65.2222H97.8909V78.5377H98.0041V65.2222Z" fill="#DCC9A6"/>
<path d="M98.1164 65.2222H98.0032V78.5377H98.1164V65.2222Z" fill="#DDCAA7"/>
<path d="M98.2353 65.2222H98.1221V78.5377H98.2353V65.2222Z" fill="#DDCBA8"/>
<path d="M98.3476 65.2222H98.2344V78.5377H98.3476V65.2222Z" fill="#DECCA9"/>
<path d="M98.4597 65.2222H98.3464V78.5377H98.4597V65.2222Z" fill="#DFCDAA"/>
<path d="M98.5788 65.2222H98.4656V78.5377H98.5788V65.2222Z" fill="#DFCEAB"/>
<path d="M98.6911 65.2222H98.5779V78.5377H98.6911V65.2222Z" fill="#E0CFAC"/>
<path d="M98.81 65.2222H98.6968V78.5377H98.81V65.2222Z" fill="#E0CFAD"/>
<path d="M98.9226 65.2222H98.8093V78.5377H98.9226V65.2222Z" fill="#E1D0AE"/>
<path d="M99.0417 65.2222H98.9285V78.5377H99.0417V65.2222Z" fill="#E1D1AF"/>
<path d="M99.154 65.2222H99.0408V78.5377H99.154V65.2222Z" fill="#E2D2B0"/>
<path d="M99.5349 65.2222H99.1597V78.5377H99.5349V65.2222Z" fill="#E2D2B0"/>
<path d="M99.9064 65.2222H99.5312V78.5377H99.9064V65.2222Z" fill="#E3D3B1"/>
<path d="M100.278 65.2222H99.9026V78.5377H100.278V65.2222Z" fill="#E3D4B2"/>
<path d="M100.649 65.2222H100.274V78.5377H100.649V65.2222Z" fill="#E4D4B3"/>
<path d="M101.021 65.2222H100.646V78.5377H101.021V65.2222Z" fill="#E5D5B4"/>
<path d="M101.392 65.2222H101.017V78.5377H101.392V65.2222Z" fill="#E5D6B6"/>
<path d="M101.763 65.2222H101.388V78.5377H101.763V65.2222Z" fill="#E6D7B7"/>
<path d="M102.135 65.2222H101.76V78.5377H102.135V65.2222Z" fill="#E7D7B8"/>
<path d="M102.507 65.2222H102.131V78.5377H102.507V65.2222Z" fill="#E7D8B9"/>
<path d="M102.878 65.2222H102.503V78.5377H102.878V65.2222Z" fill="#E8D9BA"/>
<path d="M102.938 65.2222H102.875V78.5377H102.938V65.2222Z" fill="#E8D9BA"/>
<path d="M103.001 65.2222H102.938V78.5377H103.001V65.2222Z" fill="#E7D8B9"/>
<path d="M103.064 65.2222H103.001V78.5377H103.064V65.2222Z" fill="#E7D7B8"/>
<path d="M103.12 65.2222H103.057V78.5377H103.12V65.2222Z" fill="#E6D6B7"/>
<path d="M103.184 65.2222H103.12V78.5377H103.184V65.2222Z" fill="#E6D6B6"/>
<path d="M103.239 65.2222H103.176V78.5377H103.239V65.2222Z" fill="#E5D5B5"/>
<path d="M103.303 65.2222H103.239V78.5377H103.303V65.2222Z" fill="#E4D4B4"/>
<path d="M103.366 65.2222H103.302V78.5377H103.366V65.2222Z" fill="#E4D3B3"/>
<path d="M103.422 65.2222H103.358V78.5377H103.422V65.2222Z" fill="#E3D2B2"/>
<path d="M103.485 65.2222H103.421V78.5377H103.485V65.2222Z" fill="#E3D1B1"/>
<path d="M103.541 65.2222H103.477V78.5377H103.541V65.2222Z" fill="#E2D1B0"/>
<path d="M103.604 65.2222H103.54V78.5377H103.604V65.2222Z" fill="#E2D0AF"/>
<path d="M103.667 65.2222H103.604V78.5377H103.667V65.2222Z" fill="#E1CFAE"/>
<path d="M103.723 65.2222H103.659V78.5377H103.723V65.2222Z" fill="#E0CEAD"/>
<path d="M103.786 65.2222H103.723V78.5377H103.786V65.2222Z" fill="#E0CDAC"/>
<path d="M103.849 65.2222H103.786V78.5377H103.849V65.2222Z" fill="#DFCCAB"/>
<path d="M103.905 65.2222H103.842V78.5377H103.905V65.2222Z" fill="#DFCBAA"/>
<path d="M103.968 65.2222H103.905V78.5377H103.968V65.2222Z" fill="#DECBA9"/>
<path d="M104.025 65.2222H103.961V78.5377H104.025V65.2222Z" fill="#DDCAA8"/>
<path d="M104.088 65.2222H104.024V78.5377H104.088V65.2222Z" fill="#DDC9A7"/>
<path d="M104.151 65.2222H104.087V78.5377H104.151V65.2222Z" fill="#DCC8A6"/>
<path d="M104.207 65.2222H104.143V78.5377H104.207V65.2222Z" fill="#DCC7A5"/>
<path d="M104.27 65.2222H104.206V78.5377H104.27V65.2222Z" fill="#DBC6A4"/>
<path d="M104.326 65.2222H104.262V78.5377H104.326V65.2222Z" fill="#DBC6A3"/>
<path d="M104.389 65.2222H104.326V78.5377H104.389V65.2222Z" fill="#DAC5A2"/>
<path d="M104.452 65.2222H104.388V78.5377H104.452V65.2222Z" fill="#D9C4A1"/>
<path d="M104.508 65.2222H104.445V78.5377H104.508V65.2222Z" fill="#D9C3A0"/>
<path d="M104.571 65.2222H104.508V78.5377H104.571V65.2222Z" fill="#D8C29F"/>
<path d="M104.634 65.2222H104.571V78.5377H104.634V65.2222Z" fill="#D8C19E"/>
<path d="M104.69 65.2222H104.627V78.5377H104.69V65.2222Z" fill="#D7C09D"/>
<path d="M104.754 65.2222H104.69V78.5377H104.754V65.2222Z" fill="#D6C09C"/>
<path d="M104.81 65.2222H104.746V78.5377H104.81V65.2222Z" fill="#D6BF9B"/>
<path d="M104.873 65.2222H104.809V78.5377H104.873V65.2222Z" fill="#D5BE9A"/>
<path d="M104.936 65.2222H104.872V78.5377H104.936V65.2222Z" fill="#D5BD98"/>
<path d="M104.992 65.2222H104.928V78.5377H104.992V65.2222Z" fill="#D4BC97"/>
<path d="M105.055 65.2222H104.991V78.5377H105.055V65.2222Z" fill="#D4BB96"/>
<path d="M105.111 65.2222H105.047V78.5377H105.111V65.2222Z" fill="#D3BB95"/>
<path d="M105.174 65.2222H105.11V78.5377H105.174V65.2222Z" fill="#D2BA94"/>
<path d="M105.238 65.2222H105.174V78.5377H105.238V65.2222Z" fill="#D2B993"/>
<path d="M105.293 65.2222H105.229V78.5377H105.293V65.2222Z" fill="#D1B892"/>
<path d="M105.356 65.2222H105.293V78.5377H105.356V65.2222Z" fill="#D1B791"/>
<path d="M105.412 65.2222H105.349V78.5377H105.412V65.2222Z" fill="#D0B690"/>
<path d="M105.476 65.2222H105.412V78.5377H105.476V65.2222Z" fill="#CFB58F"/>
<path d="M105.539 65.2222H105.475V78.5377H105.539V65.2222Z" fill="#CFB58E"/>
<path d="M105.595 65.2222H105.531V78.5377H105.595V65.2222Z" fill="#CEB48D"/>
<path d="M105.658 65.2222H105.594V78.5377H105.658V65.2222Z" fill="#CEB38C"/>
<path d="M105.721 65.2222H105.657V78.5377H105.721V65.2222Z" fill="#CDB28B"/>
<path d="M105.777 65.2222H105.713V78.5377H105.777V65.2222Z" fill="#CDB18A"/>
<path d="M105.84 65.2222H105.776V78.5377H105.84V65.2222Z" fill="#CCB089"/>
<path d="M105.896 65.2222H105.832V78.5377H105.896V65.2222Z" fill="#CBB088"/>
<path d="M105.959 65.2222H105.896V78.5377H105.959V65.2222Z" fill="#CBAF87"/>
<path d="M106.022 65.2222H105.958V78.5377H106.022V65.2222Z" fill="#CAAE86"/>
<path d="M106.078 65.2222H106.015V78.5377H106.078V65.2222Z" fill="#CAAD85"/>
<path d="M106.141 65.2222H106.077V78.5377H106.141V65.2222Z" fill="#C9AC84"/>
<path d="M106.197 65.2222H106.134V78.5377H106.197V65.2222Z" fill="#C8AB83"/>
<path d="M106.26 65.2222H106.197V78.5377H106.26V65.2222Z" fill="#C8AA82"/>
<path d="M106.324 65.2222H106.26V78.5377H106.324V65.2222Z" fill="#C7AA81"/>
<path d="M106.38 65.2222H106.316V78.5377H106.38V65.2222Z" fill="#C7A980"/>
<path d="M106.443 65.2222H106.379V78.5377H106.443V65.2222Z" fill="#C6A87F"/>
<path d="M106.506 65.2222H106.442V78.5377H106.506V65.2222Z" fill="#C6A77E"/>
<path d="M106.562 65.2222H106.498V78.5377H106.562V65.2222Z" fill="#C5A67D"/>
<path d="M106.625 65.2222H106.562V78.5377H106.625V65.2222Z" fill="#C4A57C"/>
<path d="M106.681 65.2222H106.617V78.5377H106.681V65.2222Z" fill="#C4A57B"/>
<path d="M106.744 65.2222H106.68V78.5377H106.744V65.2222Z" fill="#C3A47A"/>
<path d="M106.807 65.2222H106.744V78.5377H106.807V65.2222Z" fill="#C3A379"/>
<path d="M106.864 65.2222H106.8V78.5377H106.864V65.2222Z" fill="#C2A278"/>
<path d="M108.748 65.2222H106.863V78.5377H108.748V65.2222Z" fill="#C2A278"/>
<path d="M92.7004 64.9531H92.3535V78.5164H92.7004V64.9531Z" fill="#C2A278"/>
<path d="M92.8103 64.9531H92.697V78.5164H92.8103V64.9531Z" fill="#C2A278"/>
<path d="M92.9226 64.9531H92.8093V78.5164H92.9226V64.9531Z" fill="#C3A379"/>
<path d="M93.0349 64.9531H92.9216V78.5164H93.0349V64.9531Z" fill="#C3A47A"/>
<path d="M93.1538 64.9531H93.0405V78.5164H93.1538V64.9531Z" fill="#C4A57B"/>
<path d="M93.2661 64.9531H93.1528V78.5164H93.2661V64.9531Z" fill="#C4A57C"/>
<path d="M93.3852 64.9531H93.272V78.5164H93.3852V64.9531Z" fill="#C5A67D"/>
<path d="M93.4973 64.9531H93.384V78.5164H93.4973V64.9531Z" fill="#C5A77E"/>
<path d="M93.6164 64.9531H93.5032V78.5164H93.6164V64.9531Z" fill="#C6A87F"/>
<path d="M93.7287 64.9531H93.6155V78.5164H93.7287V64.9531Z" fill="#C7A980"/>
<path d="M93.8479 64.9531H93.7346V78.5164H93.8479V64.9531Z" fill="#C7AA81"/>
<path d="M93.9602 64.9531H93.8469V78.5164H93.9602V64.9531Z" fill="#C8AB82"/>
<path d="M94.0793 64.9531H93.9661V78.5164H94.0793V64.9531Z" fill="#C8AC83"/>
<path d="M94.1911 64.9531H94.0779V78.5164H94.1911V64.9531Z" fill="#C9AC84"/>
<path d="M94.3105 64.9531H94.1973V78.5164H94.3105V64.9531Z" fill="#CAAD85"/>
<path d="M94.4228 64.9531H94.3096V78.5164H94.4228V64.9531Z" fill="#CAAE86"/>
<path d="M94.5417 64.9531H94.4285V78.5164H94.5417V64.9531Z" fill="#CBAF87"/>
<path d="M94.654 64.9531H94.5408V78.5164H94.654V64.9531Z" fill="#CBB088"/>
<path d="M94.7659 64.9531H94.6526V78.5164H94.7659V64.9531Z" fill="#CCB189"/>
<path d="M94.885 64.9531H94.7717V78.5164H94.885V64.9531Z" fill="#CCB28A"/>
<path d="M94.9973 64.9531H94.884V78.5164H94.9973V64.9531Z" fill="#CDB38B"/>
<path d="M95.1167 64.9531H95.0034V78.5164H95.1167V64.9531Z" fill="#CEB38C"/>
<path d="M95.2285 64.9531H95.1152V78.5164H95.2285V64.9531Z" fill="#CEB48D"/>
<path d="M95.3479 64.9531H95.2346V78.5164H95.3479V64.9531Z" fill="#CFB58E"/>
<path d="M95.4599 64.9531H95.3467V78.5164H95.4599V64.9531Z" fill="#CFB68F"/>
<path d="M95.5791 64.9531H95.4658V78.5164H95.5791V64.9531Z" fill="#D0B790"/>
<path d="M95.6914 64.9531H95.5781V78.5164H95.6914V64.9531Z" fill="#D1B891"/>
<path d="M95.8103 64.9531H95.697V78.5164H95.8103V64.9531Z" fill="#D1B992"/>
<path d="M95.9223 64.9531H95.8091V78.5164H95.9223V64.9531Z" fill="#D2BA93"/>
<path d="M96.0417 64.9531H95.9285V78.5164H96.0417V64.9531Z" fill="#D2BA95"/>
<path d="M96.1535 64.9531H96.0403V78.5164H96.1535V64.9531Z" fill="#D3BB96"/>
<path d="M96.2727 64.9531H96.1594V78.5164H96.2727V64.9531Z" fill="#D3BC97"/>
<path d="M96.3852 64.9531H96.272V78.5164H96.3852V64.9531Z" fill="#D4BD98"/>
<path d="M96.4971 64.9531H96.3838V78.5164H96.4971V64.9531Z" fill="#D5BE99"/>
<path d="M96.6164 64.9531H96.5032V78.5164H96.6164V64.9531Z" fill="#D5BF9A"/>
<path d="M96.7287 64.9531H96.6155V78.5164H96.7287V64.9531Z" fill="#D6C09B"/>
<path d="M96.8476 64.9531H96.7344V78.5164H96.8476V64.9531Z" fill="#D6C19C"/>
<path d="M96.9597 64.9531H96.8464V78.5164H96.9597V64.9531Z" fill="#D7C19D"/>
<path d="M97.0791 64.9531H96.9658V78.5164H97.0791V64.9531Z" fill="#D8C29E"/>
<path d="M97.1909 64.9531H97.0776V78.5164H97.1909V64.9531Z" fill="#D8C39F"/>
<path d="M97.31 64.9531H97.1968V78.5164H97.31V64.9531Z" fill="#D9C4A0"/>
<path d="M97.4221 64.9531H97.3088V78.5164H97.4221V64.9531Z" fill="#D9C5A1"/>
<path d="M97.5412 64.9531H97.428V78.5164H97.5412V64.9531Z" fill="#DAC6A2"/>
<path d="M97.6538 64.9531H97.5405V78.5164H97.6538V64.9531Z" fill="#DAC7A3"/>
<path d="M97.7732 64.9531H97.6599V78.5164H97.7732V64.9531Z" fill="#DBC8A4"/>
<path d="M97.885 64.9531H97.7717V78.5164H97.885V64.9531Z" fill="#DCC8A5"/>
<path d="M98.0041 64.9531H97.8909V78.5164H98.0041V64.9531Z" fill="#DCC9A6"/>
<path d="M98.1164 64.9531H98.0032V78.5164H98.1164V64.9531Z" fill="#DDCAA7"/>
<path d="M98.2353 64.9531H98.1221V78.5164H98.2353V64.9531Z" fill="#DDCBA8"/>
<path d="M98.3476 64.9531H98.2344V78.5164H98.3476V64.9531Z" fill="#DECCA9"/>
<path d="M98.4597 64.9531H98.3464V78.5164H98.4597V64.9531Z" fill="#DFCDAA"/>
<path d="M98.5788 64.9531H98.4656V78.5164H98.5788V64.9531Z" fill="#DFCEAB"/>
<path d="M98.6911 64.9531H98.5779V78.5164H98.6911V64.9531Z" fill="#E0CFAC"/>
<path d="M98.81 64.9531H98.6968V78.5164H98.81V64.9531Z" fill="#E0CFAD"/>
<path d="M98.9226 64.9531H98.8093V78.5164H98.9226V64.9531Z" fill="#E1D0AE"/>
<path d="M99.0417 64.9531H98.9285V78.5164H99.0417V64.9531Z" fill="#E1D1AF"/>
<path d="M99.154 64.9531H99.0408V78.5164H99.154V64.9531Z" fill="#E2D2B0"/>
<path d="M99.5349 64.9531H99.1597V78.5164H99.5349V64.9531Z" fill="#E2D2B0"/>
<path d="M99.9064 64.9531H99.5312V78.5164H99.9064V64.9531Z" fill="#E3D3B1"/>
<path d="M100.278 64.9531H99.9026V78.5164H100.278V64.9531Z" fill="#E3D4B2"/>
<path d="M100.649 64.9531H100.274V78.5164H100.649V64.9531Z" fill="#E4D4B3"/>
<path d="M101.021 64.9531H100.646V78.5164H101.021V64.9531Z" fill="#E5D5B4"/>
<path d="M101.392 64.9531H101.017V78.5164H101.392V64.9531Z" fill="#E5D6B6"/>
<path d="M101.763 64.9531H101.388V78.5164H101.763V64.9531Z" fill="#E6D7B7"/>
<path d="M102.135 64.9531H101.76V78.5164H102.135V64.9531Z" fill="#E7D7B8"/>
<path d="M102.507 64.9531H102.131V78.5164H102.507V64.9531Z" fill="#E7D8B9"/>
<path d="M102.878 64.9531H102.503V78.5164H102.878V64.9531Z" fill="#E8D9BA"/>
<path d="M102.938 64.9531H102.875V78.5164H102.938V64.9531Z" fill="#E8D9BA"/>
<path d="M103.001 64.9531H102.938V78.5164H103.001V64.9531Z" fill="#E7D8B9"/>
<path d="M103.064 64.9531H103.001V78.5164H103.064V64.9531Z" fill="#E7D7B8"/>
<path d="M103.12 64.9531H103.057V78.5164H103.12V64.9531Z" fill="#E6D6B7"/>
<path d="M103.184 64.9531H103.12V78.5164H103.184V64.9531Z" fill="#E6D6B6"/>
<path d="M103.239 64.9531H103.176V78.5164H103.239V64.9531Z" fill="#E5D5B5"/>
<path d="M103.303 64.9531H103.239V78.5164H103.303V64.9531Z" fill="#E4D4B4"/>
<path d="M103.366 64.9531H103.302V78.5164H103.366V64.9531Z" fill="#E4D3B3"/>
<path d="M103.422 64.9531H103.358V78.5164H103.422V64.9531Z" fill="#E3D2B2"/>
<path d="M103.485 64.9531H103.421V78.5164H103.485V64.9531Z" fill="#E3D1B1"/>
<path d="M103.541 64.9531H103.477V78.5164H103.541V64.9531Z" fill="#E2D1B0"/>
<path d="M103.604 64.9531H103.54V78.5164H103.604V64.9531Z" fill="#E2D0AF"/>
<path d="M103.667 64.9531H103.604V78.5164H103.667V64.9531Z" fill="#E1CFAE"/>
<path d="M103.723 64.9531H103.659V78.5164H103.723V64.9531Z" fill="#E0CEAD"/>
<path d="M103.786 64.9531H103.723V78.5164H103.786V64.9531Z" fill="#E0CDAC"/>
<path d="M103.849 64.9531H103.786V78.5164H103.849V64.9531Z" fill="#DFCCAB"/>
<path d="M103.905 64.9531H103.842V78.5164H103.905V64.9531Z" fill="#DFCBAA"/>
<path d="M103.968 64.9531H103.905V78.5164H103.968V64.9531Z" fill="#DECBA9"/>
<path d="M104.025 64.9531H103.961V78.5164H104.025V64.9531Z" fill="#DDCAA8"/>
<path d="M104.088 64.9531H104.024V78.5164H104.088V64.9531Z" fill="#DDC9A7"/>
<path d="M104.151 64.9531H104.087V78.5164H104.151V64.9531Z" fill="#DCC8A6"/>
<path d="M104.207 64.9531H104.143V78.5164H104.207V64.9531Z" fill="#DCC7A5"/>
<path d="M104.27 64.9531H104.206V78.5164H104.27V64.9531Z" fill="#DBC6A4"/>
<path d="M104.326 64.9531H104.262V78.5164H104.326V64.9531Z" fill="#DBC6A3"/>
<path d="M104.389 64.9531H104.326V78.5164H104.389V64.9531Z" fill="#DAC5A2"/>
<path d="M104.452 64.9531H104.388V78.5164H104.452V64.9531Z" fill="#D9C4A1"/>
<path d="M104.508 64.9531H104.445V78.5164H104.508V64.9531Z" fill="#D9C3A0"/>
<path d="M104.571 64.9531H104.508V78.5164H104.571V64.9531Z" fill="#D8C29F"/>
<path d="M104.634 64.9531H104.571V78.5164H104.634V64.9531Z" fill="#D8C19E"/>
<path d="M104.69 64.9531H104.627V78.5164H104.69V64.9531Z" fill="#D7C09D"/>
<path d="M104.754 64.9531H104.69V78.5164H104.754V64.9531Z" fill="#D6C09C"/>
<path d="M104.81 64.9531H104.746V78.5164H104.81V64.9531Z" fill="#D6BF9B"/>
<path d="M104.873 64.9531H104.809V78.5164H104.873V64.9531Z" fill="#D5BE9A"/>
<path d="M104.936 64.9531H104.872V78.5164H104.936V64.9531Z" fill="#D5BD98"/>
<path d="M104.992 64.9531H104.928V78.5164H104.992V64.9531Z" fill="#D4BC97"/>
<path d="M105.055 64.9531H104.991V78.5164H105.055V64.9531Z" fill="#D4BB96"/>
<path d="M105.111 64.9531H105.047V78.5164H105.111V64.9531Z" fill="#D3BB95"/>
<path d="M105.174 64.9531H105.11V78.5164H105.174V64.9531Z" fill="#D2BA94"/>
<path d="M105.238 64.9531H105.174V78.5164H105.238V64.9531Z" fill="#D2B993"/>
<path d="M105.293 64.9531H105.229V78.5164H105.293V64.9531Z" fill="#D1B892"/>
<path d="M105.356 64.9531H105.293V78.5164H105.356V64.9531Z" fill="#D1B791"/>
<path d="M105.412 64.9531H105.349V78.5164H105.412V64.9531Z" fill="#D0B690"/>
<path d="M105.476 64.9531H105.412V78.5164H105.476V64.9531Z" fill="#CFB58F"/>
<path d="M105.539 64.9531H105.475V78.5164H105.539V64.9531Z" fill="#CFB58E"/>
<path d="M105.595 64.9531H105.531V78.5164H105.595V64.9531Z" fill="#CEB48D"/>
<path d="M105.658 64.9531H105.594V78.5164H105.658V64.9531Z" fill="#CEB38C"/>
<path d="M105.721 64.9531H105.657V78.5164H105.721V64.9531Z" fill="#CDB28B"/>
<path d="M105.777 64.9531H105.713V78.5164H105.777V64.9531Z" fill="#CDB18A"/>
<path d="M105.84 64.9531H105.776V78.5164H105.84V64.9531Z" fill="#CCB089"/>
<path d="M105.896 64.9531H105.832V78.5164H105.896V64.9531Z" fill="#CBB088"/>
<path d="M105.959 64.9531H105.896V78.5164H105.959V64.9531Z" fill="#CBAF87"/>
<path d="M106.022 64.9531H105.958V78.5164H106.022V64.9531Z" fill="#CAAE86"/>
<path d="M106.078 64.9531H106.015V78.5164H106.078V64.9531Z" fill="#CAAD85"/>
<path d="M106.141 64.9531H106.077V78.5164H106.141V64.9531Z" fill="#C9AC84"/>
<path d="M106.197 64.9531H106.134V78.5164H106.197V64.9531Z" fill="#C8AB83"/>
<path d="M106.26 64.9531H106.197V78.5164H106.26V64.9531Z" fill="#C8AA82"/>
<path d="M106.324 64.9531H106.26V78.5164H106.324V64.9531Z" fill="#C7AA81"/>
<path d="M106.38 64.9531H106.316V78.5164H106.38V64.9531Z" fill="#C7A980"/>
<path d="M106.443 64.9531H106.379V78.5164H106.443V64.9531Z" fill="#C6A87F"/>
<path d="M106.506 64.9531H106.442V78.5164H106.506V64.9531Z" fill="#C6A77E"/>
<path d="M106.562 64.9531H106.498V78.5164H106.562V64.9531Z" fill="#C5A67D"/>
<path d="M106.625 64.9531H106.562V78.5164H106.625V64.9531Z" fill="#C4A57C"/>
<path d="M106.681 64.9531H106.617V78.5164H106.681V64.9531Z" fill="#C4A57B"/>
<path d="M106.744 64.9531H106.68V78.5164H106.744V64.9531Z" fill="#C3A47A"/>
<path d="M106.807 64.9531H106.744V78.5164H106.807V64.9531Z" fill="#C3A379"/>
<path d="M106.864 64.9531H106.8V78.5164H106.864V64.9531Z" fill="#C2A278"/>
<path d="M109.022 64.9531H106.863V78.5164H109.022V64.9531Z" fill="#C2A278"/>
<path d="M90.2721 92.0158C90.1459 90.5363 89.4099 90.4513 89.2978 88.8444C89.2277 87.8604 89.4099 86.6004 89.9496 86.4376C90.3702 86.3172 90.6295 86.9756 91.3585 86.9826C92.0103 86.9897 92.2416 86.473 92.8725 86.2181C93.8818 85.8075 95.0103 86.4376 95.7953 86.8765C97.7088 87.9383 97.2883 88.894 99.2579 90.0478C100.022 90.4938 100.66 90.6849 101.206 91.4707C101.41 91.7539 101.865 92.4051 101.746 93.113C101.585 94.0687 100.456 94.5784 99.0406 95.1871C97.9331 95.6685 96.9168 95.8738 94.9262 96.2773C92.5641 96.7587 91.9473 96.7304 91.3515 96.3835C90.5384 95.9092 90.209 95.088 90.1599 94.9606C89.7464 93.8775 90.3982 93.4457 90.2721 92.0158Z" fill="#C4625B"/>
<path d="M49.6184 193.705C50.1932 197.867 49.9759 202.256 50.067 206.716C50.782 207.219 51.4969 207.721 52.2048 208.224C52.4431 205.867 52.8076 203.509 53.13 201.11C53.2912 199.871 53.4455 198.618 53.5576 197.344C53.6697 196.062 53.7258 194.767 53.7468 193.493C53.3123 188.403 52.345 183.625 52.4221 178.86C52.3941 174.075 53.2282 169.261 54.4828 164.561C55.7515 159.853 57.5458 155.266 59.5294 150.764C61.5341 146.269 63.763 141.859 66.02 137.47C63.4686 141.689 60.9313 145.929 58.6042 150.304C56.2982 154.686 54.1534 159.195 52.5132 163.931C50.8871 168.667 49.6605 173.622 49.331 178.733C49.0997 181.288 49.1839 183.858 49.296 186.35C49.4081 188.856 49.5834 191.305 49.6184 193.705Z" fill="#D3B6A3"/>
<path d="M38.0676 198.979C39.4764 199.85 40.9063 200.699 42.3152 201.57C41.5582 198.151 41.0465 194.661 40.682 191.143C40.2545 186.626 40.0512 182.053 39.939 177.466C39.7077 168.299 39.7358 159.025 38.5022 149.901C39.0419 159.096 38.3269 168.242 37.8713 177.438C37.633 182.039 37.4928 186.669 37.5839 191.327C37.661 193.875 37.8082 196.424 38.0676 198.979Z" fill="#D3B6A3"/>
<path d="M18.9881 182.194C20.6142 184.509 22.5067 186.64 24.5324 188.622C27.6655 191.687 31.128 194.399 34.7518 196.848C35.67 197.471 36.6092 198.065 37.5485 198.653C37.226 197.959 36.8546 197.28 36.448 196.621C35.3195 194.753 33.9457 193.039 32.5369 191.411C30.7986 190.187 29.0603 189.082 27.3781 187.943C25.7309 186.817 24.1328 185.607 22.696 184.233C21.2661 182.86 19.9484 181.338 18.9881 179.582C17.9928 177.841 17.425 175.845 17.397 173.763C17.0746 175.809 17.2989 178.004 18.0418 180.014C18.3082 180.757 18.6236 181.487 18.9881 182.194Z" fill="#D3B6A3"/>
<path d="M165.929 141.208C164.542 138.454 162.67 136.04 160.904 133.513C160.021 132.246 159.152 130.957 158.395 129.556C157.638 128.161 156.993 126.653 156.67 124.99C156.334 123.34 156.404 121.535 156.902 119.857C157.399 118.151 158.338 116.665 159.327 115.369C160.329 114.067 161.401 112.92 162.369 111.795C163.329 110.676 164.156 109.536 164.934 108.319C168.418 103.774 170.534 98.1038 171.376 92.2566C171.586 90.7913 171.698 89.3118 171.754 87.8252L171.761 85.5883C171.754 84.8379 171.691 84.0946 171.663 83.3442C171.46 80.3569 170.983 77.3696 170.303 74.4177C168.936 68.5138 166.792 62.7586 164.401 57.1238C163.21 54.2993 161.955 51.496 160.701 48.6928L156.937 40.283L161.163 48.4662C162.572 51.1916 163.981 53.9241 165.341 56.6849C168.06 62.2065 170.562 67.8838 172.308 73.8867C173.177 76.8811 173.85 79.9605 174.242 83.0894C174.319 83.8752 174.425 84.6609 174.481 85.4467L174.607 87.8181C174.635 89.4109 174.607 91.0037 174.467 92.5964C174.326 94.1892 174.116 95.7749 173.787 97.3464C173.478 98.925 173.058 100.475 172.553 102.011C172.062 103.548 171.425 105.041 170.738 106.514C170.016 107.972 169.217 109.395 168.292 110.754C167.268 112.021 166.14 113.246 164.969 114.329C163.813 115.405 162.67 116.375 161.682 117.408C160.694 118.435 159.845 119.511 159.341 120.721C158.822 121.946 158.598 123.298 158.717 124.685C158.822 126.08 159.236 127.489 159.796 128.869C160.35 130.249 161.051 131.601 161.78 132.946C163.238 135.651 164.864 138.312 165.929 141.208Z" fill="#D3B6A3"/>
<path d="M190.314 244.843C190.195 238.89 189.445 233 188.359 227.196C187.279 221.384 185.864 215.643 184.392 209.895L181.476 192.311C180.502 186.449 179.534 180.602 178.364 174.797C177.193 169 175.819 163.237 174.046 157.595C173.156 154.778 172.189 151.982 170.997 149.278C169.805 146.573 168.376 143.975 166.574 141.618C168.502 143.862 170.107 146.404 171.46 149.051C172.819 151.706 173.955 154.466 175.02 157.256C177.137 162.834 178.861 168.561 180.375 174.323C181.896 180.092 183.207 185.904 184.518 191.702L188.45 209.095C189.249 215.006 189.999 220.952 190.406 226.934C190.819 232.908 190.882 238.918 190.314 244.843Z" fill="#D3B6A3"/>
<path d="M200.107 245.013C200.611 244.836 201.109 244.659 201.607 244.482C202.097 237.219 202.441 229.942 202.637 222.651C201.193 199.58 198.312 176.638 193.889 154.049C196.945 176.871 198.445 199.849 198.501 222.792C199.188 230.176 199.721 237.587 200.107 245.013Z" fill="#D3B6A3"/>
<path d="M198.585 209.073C201.088 208.521 203.429 207.679 205.644 206.631C210.382 206.61 215.253 205.775 219.943 204.118C215.877 207.013 211.258 209.293 206.254 210.758C203.604 210.468 201.004 209.909 198.585 209.073Z" fill="#D3B6A3"/>
</svg>
