<svg width="41" height="40" viewBox="0 0 41 40" fill="none" xmlns="http://www.w3.org/2000/svg">
<path d="M6.89492 33.5004C5.21575 31.8606 6.32911 28.4207 5.47128 26.4066C4.61345 24.3925 1.32812 22.6279 1.32812 20.4C1.32812 18.172 4.57694 16.4788 5.47128 14.3934C6.36562 12.308 5.21575 8.93931 6.89492 7.29952C8.57408 5.65974 12.0967 6.74699 14.1591 5.90927C16.2216 5.07156 18.0285 1.86328 20.31 1.86328C22.5914 1.86328 24.3254 5.03591 26.4608 5.90927C28.5963 6.78264 32.0459 5.65974 33.725 7.29952C35.4042 8.93931 34.2908 12.3793 35.1487 14.3934C36.0065 16.4075 39.2918 18.172 39.2918 20.4C39.2918 22.6279 36.043 24.3212 35.1487 26.4066C34.2543 28.492 35.4042 31.8606 33.725 33.5004C32.0459 35.1402 28.5233 34.053 26.4608 34.8907C24.3984 35.7284 22.5914 38.9367 20.31 38.9367C18.0285 38.9367 16.2946 35.764 14.1591 34.8907C12.0237 34.0173 8.57408 35.1402 6.89492 33.5004Z" stroke="#60AFFF" stroke-width="2" stroke-linecap="round" stroke-linejoin="round"/>
<path d="M28.3409 16.1226L17.6271 26.1039L12.2793 21.1132" stroke="#60AFFF" stroke-width="2" stroke-linecap="round" stroke-linejoin="round"/>
</svg>
