<svg width="273" height="230" viewBox="0 0 273 230" fill="none" xmlns="http://www.w3.org/2000/svg">
<path d="M264.349 186.268C262.296 194.646 227.608 191.363 227.286 194.989C226.89 199.437 272.952 204.642 272.901 212.43C272.868 217.383 254.173 221.517 244.385 222.816C235.525 223.991 228.83 223.525 218.725 222.816C203.366 221.741 195.687 221.203 190.219 218.244C176.782 210.97 176.899 198.438 167.409 197.896C160.243 197.486 156.464 203.196 147.455 209.523C137.349 216.626 126.46 219.105 104.69 224.058C83.5557 228.868 67.6603 229.396 50.5239 229.872C22.0456 230.662 13.2884 227.645 9.29942 225.143C8.46896 224.624 7.7598 224.058 7.7598 224.058C1.79728 219.291 0.714878 211.398 0.322975 208.543C-1.72518 193.647 6.5281 161.823 9.33674 148.801C12.276 135.166 12.8172 125.579 13.8436 107.443C15.3039 81.6133 14.1329 55.6317 22.8574 38.5136C24.7329 34.8406 28.7826 27.1522 36.378 24.7306C40.0731 23.5554 41.1322 24.7258 44.8273 23.4603C52.1941 20.934 53.4865 13.6928 59.0804 8.92562C67.3384 1.88426 77.0193 0.766212 81.8901 0.204807C98.1447 -1.67447 105.32 9.63927 130.355 23.4651C165.841 43.0571 187.382 40.1883 195.929 58.353C195.929 58.353 195.98 58.4672 204.481 78.7016C205.932 84.1824 207.304 89.3635 208.339 94.5779C208.517 95.4771 210.07 104.422 210.182 110.683C210.57 131.869 194.641 140.39 198.78 151.385C200.805 156.765 206.235 159.016 215.884 163.012C231.186 169.349 237.471 164.982 250.096 171.733C255.699 174.73 265.515 181.501 264.349 186.268Z" fill="white"/>
<path d="M103.622 102.052C104.41 95.8862 97.6921 93.5264 97.2909 86.9846C96.955 81.5514 101.453 78.8871 106.44 71.9171C108.997 68.3441 121.57 50.774 117.25 42.0199C113.121 33.6464 94.6409 35.5542 74.7938 37.6C60.6013 39.0654 53.3931 39.9123 47.9345 45.5501C40.0171 53.7333 37.5817 68.4059 43.115 77.6549C48.0931 85.976 59.2017 89.3825 67.7395 92.004C74.108 93.9594 81.0083 93.7453 81.8107 97.0281C82.3986 99.4164 79.156 100.777 78.9974 104.921C78.8621 108.542 81.1389 112.676 84.6287 114.251C89.6488 116.511 94.9488 112.457 97.2956 110.664C99.5163 108.96 103.085 106.225 103.622 102.052Z" fill="#561E15"/>
<path d="M39.266 35.8303C39.9285 36.9103 38.6455 38.1758 39.266 39.3652C39.9425 40.6593 41.958 40.1074 44.4634 41.1303C44.776 41.2588 47.7012 42.5005 48.7976 44.6653C50.5099 48.048 46.2503 50.7598 45.9283 56.8449C45.6531 62.0403 48.4197 66.3507 50.1506 69.0436C52.3388 72.45 53.8784 73.1589 55.5533 75.2428C56.6497 76.6082 57.1816 77.203 57.4662 78.2449C58.1053 80.5857 57.0556 82.8313 56.1038 84.8581C55.3713 86.4281 54.8208 87.5937 53.6078 88.6785C51.499 90.5577 50.2579 89.6157 48.611 91.2238C47.9205 91.8994 47.8039 92.3942 46.115 97.5896C45.6997 98.8646 45.2612 100.13 44.8646 101.41C41.2068 113.337 39.8305 115.374 40.3017 119.27C40.507 120.988 41.1229 123.514 43.115 126.445C44.2581 129.095 45.8257 133.01 47.3373 137.925C48.9563 143.197 48.8863 144.319 48.7463 145.1C47.6033 151.456 38.7061 153.012 38.8974 155.862C39.0234 157.755 43.1337 159.844 57.1909 161.604C59.323 160.981 62.5049 160.02 66.3399 158.735C71.7566 156.918 73.007 156.29 76.5341 155.115C82.324 153.183 92.3502 149.838 93.7825 152.279C94.9395 154.249 89.5789 158.435 90.9692 160.89C91.8416 162.437 94.6456 161.961 97.3283 162.184C103.221 162.679 107.256 166.424 112.057 171.019C121.22 179.793 123.791 190.293 125.055 195.759C126.236 200.869 126.824 203.419 125.923 205.479C124.398 208.948 120.385 210.87 91.2631 213.429C72.3351 215.094 63.8019 215.185 60.9373 215.194C60.9326 215.194 60.9373 215.194 47.9392 215.194C36.9659 215.194 31.4746 215.194 31.4746 215.194C29.4917 215.342 26.6644 215.613 22.8107 215.194C17.3428 214.6 15.7192 213.263 15.0147 212.544C14.4921 212.016 14.0582 211.412 12.416 207.244C10.839 203.243 10.0506 201.24 9.81729 200.174C8.56693 194.446 10.1485 189.436 10.6851 187.805C11.7815 184.465 12.8125 183.689 13.545 181.943C13.6523 181.691 13.9136 180.996 14.1469 179.85C14.7767 176.781 14.898 171.814 14.9727 170.211C15.2993 163.231 17.6274 157.279 18.4765 155.11C18.8404 154.182 19.0363 153.854 19.3489 152.864C20.2027 150.181 20.3567 147.184 23.6739 131.255C27.3829 113.447 27.7702 114.432 28.0081 110.05C28.3254 104.207 27.117 95.5485 26.2772 87.0751C25.9366 83.6353 25.6334 79.9576 25.5307 75.4997C25.4794 73.2351 25.4514 72.1027 25.5307 70.4756C25.708 66.7979 26.1652 65.4943 26.7391 59.9612C26.9444 57.9962 27.103 56.8782 27.145 55.2653C27.2663 50.4125 26.5198 49.3658 27.145 46.4304C28.2041 41.4776 31.9271 38.0902 33.2521 36.9055C34.2366 36.0206 35.1417 35.3783 35.8135 34.9453C37.1432 34.8359 38.6968 34.9073 39.266 35.8303Z" fill="#BB644A"/>
<path d="M88.6552 161.3C88.9864 158.531 89.9242 153.792 92.9894 148.93C97.5849 141.636 104.126 138.572 107.145 137.211C108.927 136.407 113.961 135.48 124.034 133.624C125.307 133.391 128.051 133.163 133.523 132.658C139.066 132.149 140.032 132.154 140.918 132.911C142.934 134.623 141.324 137.483 143.027 143.672C143.508 145.414 143.941 145.937 144.539 147.302C145.052 148.482 145.29 149.334 145.369 149.567C146.326 152.341 158.083 151.841 162.729 155.153C165.636 157.227 168.309 162.613 165.543 178.113C164.698 180.373 163.215 183.632 160.569 186.924C156.851 191.558 152.909 194.237 149.307 195.759C143.05 198.405 134.545 202.277 123.315 208.129C124.174 207.216 125.312 205.75 125.914 203.709C127.09 199.742 125.485 196.159 124.183 193.105C117.749 178.056 120.161 179.688 117.25 175.435C115.155 172.366 110.172 165.082 100.785 162.18C95.7794 160.633 91.3658 160.9 88.6552 161.3Z" fill="#6D2A25"/>
<path d="M197.203 206.811C195.416 204.028 192.505 203.186 190.872 202.506C185.632 200.331 179.628 194.108 167.651 181.696C165.333 179.288 167.264 181.191 151.467 163.041C149.204 160.443 147.175 158.117 145.136 154.429C143.302 151.118 142.271 148.159 140.209 142.231C138.1 136.17 138.231 135.537 136.691 132.187C135.427 129.437 135.002 129.133 132.469 124.294C131.186 121.839 129.6 118.809 128.247 115.683C126.264 111.106 127.043 111.544 124.024 102.766C122.653 98.7743 115.053 81.7941 112.911 77.3552C109.869 71.0513 109.627 71.5223 109.249 69.7572C108.735 67.3499 108.95 65.3421 109.249 62.5827C109.72 58.1866 110.513 57.9677 110.312 56.1503C109.785 51.3641 103.561 46.3305 99.0498 47.3153C96.2225 47.9338 95.9099 50.698 91.2537 52.6154C90.9831 52.7295 86.1077 54.7849 85.1886 53.5003C83.5697 51.2309 96.2179 41.2255 94.4776 38.1901C92.5928 34.9026 76.576 44.5797 73.0583 40.2502C69.0459 35.307 85.4219 17.2706 88.6551 17.2754C90.6472 17.2801 90.4979 18.1746 101.653 22.5754C105.288 24.0075 108.586 25.2255 108.586 25.2255C117.129 28.3417 116.928 28.0801 118.118 28.7604C122.909 31.5008 122.209 33.4895 126.782 35.8303C130.085 37.5193 130.481 36.5011 135.445 38.4803C140.638 40.5499 139.887 41.5443 144.109 42.9002C147.702 44.0516 149.433 43.7185 153.641 45.5502C155.111 46.1925 156.165 46.7825 157.107 47.3153C161.82 49.9844 164.992 52.8152 165.771 53.5003C175.83 62.3067 187.247 63.0775 189.164 71.1703C190.624 77.3267 184.48 82.1605 187.433 86.1902C189.094 88.4549 191.464 87.3178 194.394 89.8489C197.445 92.4846 197.954 96.3764 198.696 102.095C199.186 105.868 199.102 110.545 197.828 119.765C197.408 122.8 196.998 124.708 196.097 126.835C195.103 129.176 194.478 129.533 191.763 133.905C189.509 137.54 188.38 139.357 187.429 141.855C186.272 144.9 186.384 146.303 185.698 149.805C184.004 158.435 181.583 158.792 181.363 163.06C181.223 165.81 182.199 166.209 191.763 180.73C194.781 185.316 196.61 188.328 202.162 195.75C204.028 198.243 206.389 199.48 207.761 200.346" fill="#D3805B"/>
<path d="M119.102 163.759C116.686 160.976 115.043 159.939 114.176 159.454C109.921 157.06 104.705 156.799 90.9553 160.89C85.4267 162.532 77.528 164.882 67.735 169.502C62.351 172.042 53.3606 176.695 48.7371 178.113C48.2285 178.27 45.9658 178.936 43.1058 180.264C41.8835 180.834 40.9084 181.353 40.2925 181.7C46.7402 177.851 54.6436 171.605 56.4772 162.327C57.4149 157.579 55.908 156.371 52.9594 142.236C51.5364 135.403 50.6686 129.837 50.1647 125.293C46.4417 125.636 42.7186 126.026 39.0002 126.407C35.2771 126.787 31.54 127.049 27.8309 127.496C27.7656 127.853 27.7003 128.224 27.6303 128.6C27.1078 131.474 26.4966 134.818 25.5215 139.362C25.1809 140.941 24.2898 145.004 21.2992 156.585C19.0738 165.201 17.9587 169.506 17.0769 172.371C15.8499 176.358 14.7348 179.54 12.8546 186.001C10.9231 192.648 10.5172 194.727 10.7458 197.482C11.0864 201.592 12.8267 207.025 15.6726 207.525C17.4315 207.834 17.9914 205.979 20.5994 206.088C23.2634 206.202 25.4888 208.272 26.2307 208.957C28.0316 210.632 27.9382 211.55 29.044 211.826C30.9802 212.306 32.1139 209.699 34.6752 208.957C37.8758 208.029 40.5071 210.827 43.8243 212.544C47.8273 214.619 50.8599 214.114 61.4133 213.263C61.4133 213.263 63.9327 213.058 83.929 211.826C102.591 210.675 108.866 211.531 119.112 207.52C123.133 205.945 125.177 205.122 126.852 203.215C134.732 194.246 128.298 174.359 119.102 163.759Z" fill="#D3805B"/>
<path d="M45.2191 44.2368C45.3171 44.7792 45.2844 45.3691 45.1631 45.9258C44.9392 46.4444 44.6686 46.9154 44.4447 47.4054C44.216 47.8955 44.0434 48.4093 43.9828 48.9564C43.9688 48.4093 44.0667 47.8526 44.2254 47.3198C44.384 46.7869 44.5846 46.2731 44.7199 45.7593C44.9765 45.293 45.1585 44.7887 45.2191 44.2368Z" fill="#BE6D4C"/>
<path d="M45.933 44.413C46.2222 45.2028 47.9718 46.2495 48.0091 44.7223C48.0325 43.7755 46.0543 43.2379 45.9983 44.2084" fill="#ECE8E7"/>
<path d="M134.689 139.529C132.011 139.548 129.333 139.567 126.665 139.705C125.33 139.767 123.996 139.871 122.666 139.995L121.673 140.104C121.341 140.138 121.01 140.176 120.679 140.228L119.69 140.361L118.701 140.523L118.206 140.594L117.712 140.675L116.727 140.842L115.747 141.042L115.258 141.141L114.772 141.256L113.802 141.489L112.841 141.76L112.36 141.893L111.884 142.045L110.933 142.355C108.418 143.235 106.001 144.434 103.79 145.956C101.578 147.469 99.5722 149.31 97.9299 151.461C96.2876 153.602 95.042 156.081 94.3701 158.726C95 156.071 96.213 153.569 97.8366 151.39C99.4555 149.206 101.452 147.322 103.659 145.761C105.866 144.196 108.287 142.949 110.821 142.017L111.777 141.689L112.258 141.527L112.743 141.384L113.713 141.099L114.693 140.847L115.183 140.723L115.678 140.613L116.662 140.399L117.656 140.214L118.15 140.123L118.649 140.047L119.648 139.914L120.651 139.809C120.987 139.771 121.318 139.743 121.654 139.719L122.657 139.638C123.996 139.557 125.335 139.491 126.674 139.467C129.338 139.405 132.016 139.467 134.689 139.529Z" fill="#BE6D4C"/>
<path d="M132.898 187.086C132.287 184.108 131.662 181.134 130.887 178.199C130.103 175.268 129.152 172.385 127.892 169.644C127.285 168.265 126.6 166.923 125.811 165.643C125.027 164.363 124.146 163.141 123.175 161.999C121.22 159.734 118.888 157.783 116.224 156.442C114.894 155.776 113.476 155.286 112.025 154.986C110.574 154.667 109.076 154.591 107.592 154.686C104.63 154.9 101.709 155.909 99.2411 157.622C101.686 155.876 104.597 154.824 107.583 154.567C109.076 154.448 110.588 154.505 112.057 154.81C113.532 155.091 114.969 155.571 116.326 156.228C119.042 157.55 121.43 159.491 123.441 161.761C124.44 162.903 125.349 164.13 126.161 165.42C126.973 166.709 127.687 168.06 128.321 169.449C129.525 172.256 130.407 175.182 131.116 178.142C131.82 181.101 132.362 184.093 132.898 187.086Z" fill="#BE6D4C"/>
<path d="M115.547 154.429C118.276 155.923 120.828 157.75 123.152 159.853C123.301 159.982 123.441 160.115 123.581 160.253L124.006 160.662L124.43 161.071C124.57 161.209 124.715 161.342 124.845 161.485L125.652 162.341L126.054 162.77L126.436 163.217L127.201 164.111C127.453 164.416 127.687 164.73 127.929 165.039L128.293 165.505L128.475 165.738L128.648 165.981L129.329 166.947C129.436 167.113 129.553 167.27 129.656 167.442L129.963 167.946L130.579 168.959L131.148 169.997C131.335 170.344 131.536 170.686 131.699 171.043C132.04 171.757 132.403 172.461 132.697 173.194C132.851 173.56 133.01 173.922 133.159 174.283L133.57 175.396L133.775 175.953C133.845 176.139 133.896 176.329 133.957 176.519L134.316 177.652C134.55 178.408 134.746 179.174 134.918 179.95C135.095 180.72 135.245 181.501 135.366 182.281C135.492 183.061 135.59 183.851 135.66 184.641C135.94 187.795 135.795 190.997 135.123 194.085C134.452 197.172 133.234 200.146 131.447 202.729C133.206 200.127 134.382 197.144 135.012 194.061C135.641 190.973 135.749 187.79 135.431 184.664C135.352 183.884 135.249 183.104 135.114 182.328C134.984 181.553 134.825 180.782 134.643 180.021C134.461 179.255 134.256 178.498 134.018 177.752L133.649 176.633C133.584 176.448 133.533 176.258 133.458 176.077L133.248 175.53L132.823 174.431C132.669 174.069 132.506 173.712 132.352 173.355C132.049 172.632 131.685 171.942 131.335 171.238C131.167 170.886 130.967 170.548 130.775 170.206L130.201 169.188L129.581 168.193L129.268 167.699C129.166 167.532 129.049 167.375 128.937 167.213L128.289 166.238L128.125 165.995L127.953 165.762L127.607 165.291C127.374 164.977 127.15 164.658 126.908 164.354L126.17 163.445L125.802 162.993L125.415 162.556L124.635 161.685C124.509 161.537 124.369 161.399 124.234 161.261L123.824 160.843L123.413 160.424C123.278 160.286 123.142 160.143 122.998 160.015C120.735 157.884 118.234 155.995 115.547 154.429Z" fill="#BE6D4C"/>
<path d="M150.758 89.6348L149.74 84.3823L148.401 73.7632L150.207 84.3109L150.758 89.6348Z" fill="#BE6D4C"/>
<path d="M150.52 75.0286L150.604 78.1972L150.063 84.5011L150.133 78.1734L150.52 75.0286Z" fill="#BE6D4C"/>
<path d="M156.52 117.881L158.246 126.312L159.109 130.527L159.538 132.635L159.753 133.691C159.823 134.043 159.902 134.39 159.958 134.747L160.028 135.237L160 135.156C165.352 145.052 171.664 154.42 178.816 163.079C171.547 154.525 165.1 145.238 159.594 135.389L159.576 135.356L159.566 135.313L159.487 134.828C159.445 134.476 159.37 134.124 159.314 133.767L159.128 132.706L158.755 130.589L158.008 126.35L156.52 117.881Z" fill="#BE6D4C"/>
<path d="M96.633 87.9551C97.678 87.8314 97.9673 88.0503 102.619 89.1065C107.163 90.1389 107.714 90.1151 107.84 90.5718C108.283 92.1704 102.801 96.8044 96.5816 97.028C91.9861 97.1945 90.1339 94.8347 87.4326 96.3096C84.7219 97.7892 85.5151 100.748 82.5058 102.766C79.4359 104.826 74.7097 104.355 74.0612 102.766C73.3567 101.034 77.2478 97.4181 80.6583 95.496C84.8339 93.1457 86.0796 94.573 90.2412 92.0039C93.6004 89.9391 94.0016 88.2644 96.633 87.9551Z" fill="#D3805B"/>
<path d="M94.4309 47.5198C94.193 48.1716 93.8617 48.8139 93.3299 49.2849C93.0639 49.5181 92.756 49.6988 92.4248 49.8273C92.0982 49.9558 91.7529 50.0366 91.4123 50.0985C90.7312 50.2222 90.0454 50.2888 89.4108 50.4791C88.7857 50.6694 88.2071 51.05 87.5446 51.3212C87.2087 51.4449 86.8448 51.5353 86.4622 51.5258C86.075 51.5163 85.7158 51.4068 85.3845 51.2403C84.722 50.9025 84.2088 50.2936 83.9755 49.5847C83.9195 49.4086 83.8729 49.2231 83.8542 49.0375C83.8309 48.852 83.8262 48.6664 83.8449 48.4809C83.8729 48.1098 83.9849 47.7482 84.1528 47.4247C84.3208 47.1012 84.554 46.8109 84.8107 46.5635C85.0673 46.3114 85.3752 46.1068 85.7111 45.9736C86.047 45.8404 86.4063 45.788 86.7562 45.7833C87.1107 45.7738 87.47 45.8309 87.8012 45.9783C88.1278 46.1211 88.4031 46.3542 88.7017 46.4922C88.851 46.5635 89.0096 46.6016 89.1729 46.6064C89.3362 46.6159 89.4995 46.5873 89.6581 46.5398C89.98 46.4494 90.246 46.2305 90.5026 46.0021C90.7592 45.7738 91.0344 45.5502 91.3424 45.3884C91.9582 45.0696 92.6627 44.9412 93.3439 44.9935C92.658 44.9602 91.9675 45.1077 91.3704 45.4407C91.0718 45.612 90.8152 45.8356 90.5586 46.0687C90.3066 46.3019 90.0314 46.5445 89.6908 46.6539C89.5228 46.711 89.3455 46.7443 89.1636 46.7396C89.0749 46.7443 88.9863 46.7253 88.893 46.711C88.8043 46.6872 88.7157 46.6635 88.6364 46.6254C88.4731 46.554 88.3191 46.4636 88.1745 46.3732C88.0299 46.2828 87.8806 46.2067 87.7266 46.1401C87.4187 46.0164 87.0921 45.9688 86.7608 45.9879C86.4249 46.0021 86.0983 46.0592 85.7951 46.1924C85.4965 46.3209 85.2212 46.5112 84.9926 46.7538C84.7593 46.9917 84.5587 47.2582 84.4141 47.5579C84.1202 48.1478 84.0828 48.852 84.3068 49.461C84.5261 50.0747 84.9926 50.5885 85.5665 50.8597C85.8511 50.9929 86.1683 51.0786 86.4669 51.0738C86.7702 51.0738 87.0828 50.9882 87.386 50.8692C88.0112 50.6599 88.6177 50.3031 89.3222 50.127C90.0174 49.9653 90.7079 49.9415 91.3797 49.8606C91.7156 49.8178 92.0469 49.7607 92.3688 49.656C92.686 49.5514 92.9893 49.3991 93.2552 49.1898C93.7871 48.7711 94.1603 48.1574 94.4309 47.5198Z" fill="#BE6D4C"/>
<path d="M68.2762 20.7105C69.5173 20.6391 70.3291 18.0747 70.2824 17.6275C70.1145 16.1003 72.2793 15.1773 73.1097 15.4152C73.5996 15.5579 73.6696 16.1241 74.1921 16.9614C74.9246 18.1318 75.9277 18.8597 76.7815 19.3212C75.9044 15.2106 76.3849 13.888 77.0474 13.4836C77.9339 12.9507 79.0442 14.1211 80.5932 13.4883C81.7876 12.9983 81.7129 12.0753 82.9306 11.2142C84.181 10.3292 86.0938 10.1818 87.6008 10.7003C89.8449 11.4711 90.2601 13.8547 91.7344 16.2668C94.0299 20.0206 96.4653 19.8018 104.275 24.7545C110.014 28.3941 112.883 30.2163 113.466 31.9338C116.662 41.3207 93.3254 61.8976 84.5076 57.5015C83.3085 56.9068 80.9711 55.0751 80.8545 52.6392C80.7145 49.7132 83.873 47.6246 84.1157 47.4676C87.3162 45.4171 90.9693 46.5684 90.9926 46.3591C90.9973 46.3353 90.5027 46.3448 88.8558 46.34C86.0798 46.3305 81.9042 46.4828 75.7271 46.1402" fill="#D3805B"/>
<path d="M86.5603 46.654C83.0098 46.3067 80.6258 47.0917 79.0675 47.9291C76.4921 49.3088 72.5218 52.7867 70.105 53.9C69.7971 54.0427 69.06 54.3662 68.0429 54.509C63.6107 55.1417 63.0321 51.4403 55.2827 50.2271C47.7153 49.0424 44.9113 49.4468 44.1508 47.8102C43.8942 47.2535 44.6687 45.6882 46.2176 42.5529C46.2176 42.5529 48.9516 37.0198 51.583 35.9493C51.625 35.9303 51.6763 35.9112 51.7556 35.8779C53.4398 35.1357 53.3559 33.9796 54.4103 33.618C55.2781 33.3183 55.9359 33.8987 57.037 33.2707C57.037 33.2707 57.0976 33.2374 57.1583 33.1946C59.2857 31.8291 59.8643 28.9888 60.3775 26.1961C60.8253 23.7601 61.0493 22.5469 60.9746 21.8476C60.914 21.2624 60.76 20.3917 61.2452 19.6257C61.5532 19.1404 61.9777 18.9121 62.4723 18.6504C63.76 17.9653 64.9497 18.0652 65.1969 18.0937C65.9061 18.1651 66.424 18.3887 66.6946 18.5077C67.1564 18.7122 67.3524 18.9359 68.3322 19.6162C68.6821 19.8588 68.9667 20.0492 69.1486 20.1729" fill="#D3805B"/>
<path d="M63.998 40.7354C63.984 40.5641 63.7787 40.4309 61.6792 39.7648C60.3309 39.3366 59.8783 39.2224 59.3605 38.7942C58.8612 38.3803 58.572 37.895 58.404 37.543C58.5906 37.072 58.9126 36.4392 59.4911 35.873C60.1163 35.2593 60.7601 35.0024 60.7181 34.8977C60.6668 34.7788 59.8317 35.2117 58.6746 35.3164C57.0324 35.4639 56.5425 34.774 55.8147 35.1784C54.9655 35.6494 54.625 37.1386 55.0029 38.2376C55.0822 38.4612 55.3155 39.0464 56.7758 40.0407C58.2081 41.0161 60.023 42.2531 62.0898 41.8391C63.0369 41.6583 64.0353 41.1302 63.998 40.7354Z" fill="#BB644A"/>
<path d="M64.5437 39.8983C64.2964 40.0077 63.5779 37.7098 61.4318 36.0779C60.9046 35.6783 60.4147 35.4309 60.0881 35.2834C60.3447 35.0169 60.6293 34.6316 60.5827 34.2081C60.5033 33.4612 59.5656 33.0615 59.6262 32.9569C59.6915 32.8474 60.9232 33.1805 61.2638 34.0654C61.3711 34.3509 61.2778 34.3984 61.3991 34.76C61.5717 35.2643 61.8517 35.4451 62.3556 36.0113C62.7568 36.4633 62.5888 36.3586 63.312 37.2626C63.9652 38.0809 64.0865 38.1427 64.2684 38.5138C64.5623 39.1133 64.6743 39.8412 64.5437 39.8983Z" fill="#561E15"/>
<path d="M65.2247 19.4592C65.3367 20.5678 67.6415 22.0331 68.6679 21.5907C68.192 21.1958 67.8141 20.8818 67.3289 20.544C66.9043 20.249 66.3118 19.5306 65.7286 19.7257" fill="#BB644A"/>
<path d="M54.7602 36.3154C55.25 36.5723 54.9095 37.443 55.4787 39.1415C55.8099 40.1263 56.2531 40.7924 57.1442 42.1245C58.0773 43.5233 58.5346 43.8658 58.7912 44.0371C58.9918 44.1703 59.5843 44.5557 60.3868 44.6841C61.1846 44.8126 61.7538 44.6128 61.7771 44.6937C61.8051 44.7793 61.2079 45.1504 60.4568 45.217C58.8378 45.3645 57.3589 44.0371 56.9576 43.6803C56.3651 43.1474 56.0012 42.6431 55.4367 41.8628C54.7228 40.8685 54.7742 40.7115 53.9904 39.5982C53.1879 38.4611 52.922 38.3279 52.908 37.8997C52.8753 36.9339 54.1583 35.9966 54.7602 36.3154Z" fill="#561E15"/>
<path d="M59.9763 32.3618C60.3309 32.5379 60.6622 32.7662 60.9654 33.0374C61.1007 33.1897 61.222 33.3562 61.3247 33.5322C61.4273 33.7082 61.5113 33.9081 61.5439 34.1079C61.6186 34.517 61.5533 34.9167 61.5859 35.3163C61.5206 34.9214 61.5486 34.5075 61.446 34.1317C61.348 33.7558 61.096 33.4466 60.8208 33.1754C60.5828 32.8709 60.2982 32.5949 59.9763 32.3618Z" fill="#561E15"/>
<path d="M60.8021 33.6084C60.9934 33.7987 61.2127 33.9367 61.4273 34.1032C61.5159 34.2031 61.6046 34.3125 61.6792 34.4315C61.7539 34.5504 61.8005 34.6931 61.8192 34.8311C61.8565 35.1071 61.8192 35.3735 61.7865 35.6399C61.7865 35.3735 61.7912 35.1023 61.7212 34.8502C61.6606 34.598 61.4833 34.4172 61.2873 34.2459C61.1287 34.0366 60.9421 33.8368 60.8021 33.6084Z" fill="#561E15"/>
<path d="M58.9972 32.3809C59.2678 32.3381 59.5571 32.3809 59.8183 32.4903C60.0796 32.595 60.3222 32.7472 60.5461 32.9185C60.7561 33.1088 60.9427 33.3181 61.1247 33.537C61.3066 33.7606 61.4419 34.027 61.5166 34.2982C61.6705 34.8501 61.6565 35.4163 61.7638 35.9634C61.6239 35.421 61.6005 34.8501 61.4233 34.3268C61.3346 34.0651 61.1946 33.832 61.0174 33.6321C60.8307 33.4323 60.6348 33.2373 60.4248 33.066C60.2289 32.8757 60.0189 32.7044 59.781 32.5759C59.5384 32.4475 59.2725 32.3714 58.9972 32.3809Z" fill="#561E15"/>
<path d="M58.9126 33.3086C59.2578 33.3229 59.6078 33.3895 59.939 33.537C60.093 33.6321 60.2329 33.7463 60.3636 33.87C60.4895 33.9985 60.6062 34.1364 60.6948 34.2934C60.8861 34.5979 60.9934 34.9405 61.0494 35.2878C60.9608 34.95 60.8208 34.6217 60.6155 34.3505C60.5175 34.2125 60.3916 34.0936 60.2656 33.9842C60.135 33.8795 59.995 33.7891 59.8457 33.713C59.5704 33.5227 59.2485 33.3895 58.9126 33.3086Z" fill="#561E15"/>
<path d="M58.9597 32.89C59.109 32.852 59.2676 32.8234 59.4309 32.8615C59.5942 32.8995 59.7389 33.0042 59.8602 33.0994L60.0141 33.2754C60.0654 33.3277 60.1168 33.3801 60.1728 33.4324C60.2847 33.5323 60.4107 33.6275 60.5273 33.7274C60.6486 33.8273 60.7606 33.9415 60.8493 34.0794C60.9332 34.2127 60.9845 34.3744 60.9845 34.5314C60.9659 34.3744 60.9052 34.2269 60.8119 34.1127C60.7186 33.9938 60.5973 33.8987 60.4713 33.813C60.3454 33.7274 60.2147 33.6465 60.0841 33.5561C60.0188 33.5085 59.9581 33.4609 59.8928 33.4039L59.7249 33.2421C59.6269 33.1232 59.5336 33.0137 59.4029 32.9519C59.2723 32.8948 59.1137 32.8853 58.9597 32.89Z" fill="#561E15"/>
<path d="M59.3046 32.8188C59.4772 32.814 59.6451 32.795 59.8178 32.7902C59.9904 32.7855 60.177 32.8045 60.3496 32.8854C60.429 32.9377 60.5036 32.9948 60.5643 33.0662C60.6296 33.1328 60.6809 33.1994 60.7369 33.266C60.8442 33.404 60.9468 33.5467 61.0308 33.7037C61.1148 33.8559 61.1894 34.0177 61.2268 34.1937C61.2641 34.365 61.2641 34.5506 61.1941 34.7123C61.2454 34.5458 61.2268 34.3698 61.1754 34.208C61.1241 34.0463 61.0401 33.8988 60.9422 33.7608C60.8442 33.6228 60.7369 33.4944 60.6202 33.3707C60.4989 33.247 60.3823 33.1328 60.247 33.0662C60.0044 32.8759 59.6358 32.8806 59.3046 32.8188Z" fill="#561E15"/>
<path d="M61.1754 33.8938C61.3947 34.0032 61.6 34.1602 61.7726 34.3505C61.9079 34.5694 62.0012 34.8215 62.0199 35.0785C62.0432 35.3401 61.9406 35.597 61.7726 35.7731C61.9172 35.5733 61.9732 35.3211 61.9219 35.088C61.8752 34.8548 61.7586 34.6455 61.614 34.46C61.502 34.2601 61.3574 34.0603 61.1754 33.8938Z" fill="#561E15"/>
<path d="M62.1459 34.2888C62.2165 34.4506 62.2776 34.6266 62.3293 34.8026C62.3293 35.1642 62.2823 35.5163 62.2353 35.8684C62.2118 35.5163 62.193 35.1595 62.1318 34.8217C62.1459 34.6456 62.1553 34.4696 62.1459 34.2888Z" fill="#561E15"/>
<path d="M61.6746 34.1604C61.7921 34.2698 61.9096 34.3935 61.9943 34.5458C62.0366 34.717 62.0319 34.8931 62.0037 35.0548C61.9755 35.2166 61.9378 35.3688 61.9002 35.5258C61.9049 35.2071 61.9378 34.8693 61.8062 34.6076C61.7921 34.4601 61.7404 34.3079 61.6746 34.1604Z" fill="#561E15"/>
<path d="M62.1644 35.2878C62.3324 35.4448 62.5097 35.5971 62.673 35.7684C62.7989 35.9682 62.9156 36.1775 62.9856 36.4059C63.0276 36.5201 63.0415 36.639 63.0415 36.7627C63.0369 36.8864 62.9949 37.0006 62.9202 37.091C62.9762 36.9911 62.9996 36.8769 62.9902 36.7627C62.9716 36.6533 62.9436 36.5439 62.8922 36.444C62.7943 36.2394 62.659 36.0586 62.5143 35.8873C62.407 35.6875 62.2857 35.4877 62.1644 35.2878Z" fill="#561E15"/>
<path d="M62.1039 34.0698C62.2158 34.2411 62.3092 34.4314 62.3651 34.6407C62.3745 34.8548 62.3465 35.0737 62.2625 35.2688C62.1879 35.4638 62.0525 35.6303 61.8939 35.7588C62.0292 35.6113 62.1272 35.4305 62.1692 35.2402C62.2112 35.0499 62.2065 34.8548 62.1692 34.6693C62.1832 34.4695 62.1552 34.2696 62.1039 34.0698Z" fill="#561E15"/>
<path d="M62.1786 34.9214C62.2773 35.0261 62.3666 35.145 62.4466 35.2735C62.5077 35.5637 62.5218 35.8586 62.4654 36.1393C62.456 35.8539 62.3713 35.5827 62.2585 35.3353C62.2491 35.1973 62.2256 35.0594 62.1786 34.9214Z" fill="#561E15"/>
<path d="M62.7477 35.9922C62.8417 36.1159 62.9169 36.2586 62.9828 36.4061C63.0016 36.5631 63.011 36.7201 63.0016 36.8819C62.9922 36.9627 62.9875 37.0389 62.9592 37.115C62.9357 37.1911 62.8934 37.2672 62.8229 37.3005C62.884 37.253 62.9028 37.1768 62.9122 37.1055C62.9216 37.0341 62.9122 36.958 62.9028 36.8866C62.8793 36.7391 62.837 36.5964 62.79 36.4537C62.79 36.2967 62.7806 36.1444 62.7477 35.9922Z" fill="#561E15"/>
<path d="M63.5147 36.0156C63.5476 36.2059 63.5994 36.3915 63.6417 36.5865C63.637 36.7816 63.6229 36.9814 63.5712 37.1765C63.5241 37.3716 63.4113 37.5524 63.2609 37.6665C63.3925 37.5238 63.463 37.343 63.4771 37.1575C63.4959 36.9719 63.4771 36.7864 63.4489 36.5961C63.4677 36.4058 63.4818 36.2059 63.5147 36.0156Z" fill="#561E15"/>
<path d="M63.1958 36.6726L63.4027 36.9819C63.4215 37.1056 63.4403 37.2293 63.4356 37.3577C63.4356 37.4196 63.4262 37.4862 63.4074 37.548C63.3886 37.6099 63.3556 37.667 63.3086 37.705C63.3792 37.6051 63.3651 37.4814 63.3368 37.372C63.3086 37.2626 63.2616 37.1531 63.2099 37.0485L63.1958 36.6726Z" fill="#561E15"/>
<path d="M62.7758 35.4353C62.8933 35.5733 62.9826 35.7303 63.0672 35.892C63.1002 36.0728 63.1237 36.2536 63.1049 36.4392C63.0955 36.5296 63.0766 36.6247 63.0343 36.7056C62.992 36.7865 62.9168 36.8531 62.8369 36.8816C62.9168 36.8388 62.9638 36.7674 62.992 36.6866C63.0155 36.6057 63.0155 36.52 63.0061 36.4392C62.992 36.2726 62.9356 36.1061 62.8745 35.9491C62.8604 35.7826 62.8322 35.6066 62.7758 35.4353Z" fill="#561E15"/>
<path d="M78.2791 19.7399C77.3087 19.816 76.6182 19.6305 76.1563 19.4402C75.7411 19.2689 74.0335 18.4744 73.553 18.3078C72.3026 17.8701 71.962 17.8416 71.1876 17.5038C70.707 17.2945 70.3338 17.0946 70.0958 16.9614C70.1005 16.8663 70.1098 16.7188 70.1471 16.5427C70.2498 16.0004 70.5017 15.458 70.5017 15.458C71.2482 15.0203 72.4099 14.654 73.1657 14.8633C74.1968 15.1488 74.0195 16.3953 75.4052 17.7893C76.077 18.4696 76.7955 18.8597 77.3227 19.0881" fill="#D26C5E"/>
<path d="M77.3224 19.0879C76.3473 18.6693 75.4655 18.0032 74.8404 17.1278C74.5184 16.6948 74.2898 16.2048 74.0472 15.7243C73.9259 15.4864 73.7813 15.2533 73.576 15.0867C73.3707 14.9202 73.1095 14.8441 72.8482 14.8251C72.4423 14.7965 72.0317 14.8727 71.6398 14.9868C71.2479 15.1058 70.8653 15.2628 70.5108 15.4721L70.5201 15.4626C70.4128 15.7005 70.3241 15.9431 70.2495 16.1953C70.1749 16.4427 70.1235 16.6996 70.1142 16.9613L70.1095 16.947C70.744 17.3038 71.4065 17.6178 72.1017 17.8272C72.447 17.9366 72.7969 18.0413 73.1421 18.1554C73.3147 18.2125 73.4874 18.2696 73.6553 18.3362C73.8233 18.4028 73.9912 18.4742 74.1592 18.5456L76.156 19.4305C76.8279 19.716 77.5697 19.7921 78.2882 19.7398C77.565 19.7968 76.8232 19.7207 76.1514 19.4353L74.1452 18.5551C73.9772 18.4837 73.8093 18.4124 73.6413 18.3458C73.4734 18.2839 73.3007 18.2268 73.1281 18.1697C72.7829 18.0555 72.4376 17.9509 72.0877 17.8462C71.3926 17.6369 70.7254 17.3229 70.0909 16.9708L70.0815 16.966V16.9565C70.1049 16.4332 70.2822 15.9241 70.4828 15.4531L70.4874 15.4483L70.4921 15.4436C70.8514 15.2342 71.2339 15.0725 71.6305 14.9535C72.0271 14.8394 72.4376 14.7585 72.8529 14.787C73.1188 14.806 73.3847 14.8917 73.5993 15.063C73.8093 15.2342 73.9539 15.4721 74.0752 15.71C74.3178 16.1905 74.5371 16.6806 74.859 17.1135C75.4749 17.9937 76.3473 18.6645 77.3224 19.0879Z" fill="#C55F54"/>
<path d="M76.9356 20.0157C75.8719 18.322 75.5453 16.8471 75.4333 15.9859C75.3073 15.0249 75.3727 14.3493 75.7039 13.7641C75.7786 13.6309 76.2684 12.7507 76.9309 12.7888C77.3042 12.8126 77.5655 13.1171 77.7474 13.3454C78.7692 14.592 78.4986 16.4284 78.4332 16.8185C78.3259 17.4466 78.2233 17.437 78.0273 18.3458C77.8267 19.2735 77.7707 20.049 77.7567 20.5676" fill="#D26C5E"/>
<path d="M77.7518 20.5675C77.7798 19.635 77.9058 18.7025 78.1437 17.8033C78.4797 16.9326 78.5636 15.9763 78.433 15.0581C78.363 14.6013 78.2324 14.1446 77.9944 13.7497L77.9058 13.6022L77.8032 13.4643C77.7378 13.3691 77.6632 13.2787 77.5885 13.1931C77.4346 13.0266 77.2526 12.8696 77.0287 12.822C76.9167 12.7982 76.8047 12.8029 76.6974 12.8315C76.5901 12.8648 76.4828 12.9076 76.3895 12.9742C76.2029 13.1027 76.0443 13.274 75.909 13.4595C75.7737 13.6451 75.657 13.8496 75.573 14.0637C75.4844 14.2778 75.4331 14.5062 75.4051 14.7393C75.3538 15.2008 75.3911 15.6718 75.4611 16.1333C75.531 16.5948 75.6337 17.0515 75.769 17.494C76.0443 18.3837 76.4408 19.2306 76.9354 20.0203C76.4408 19.2353 76.0349 18.3885 75.7597 17.4988C75.6197 17.0515 75.5171 16.5996 75.4471 16.1381C75.3771 15.6766 75.3351 15.2056 75.3864 14.7393C75.4144 14.5062 75.4657 14.2778 75.5544 14.059C75.6384 13.8401 75.7597 13.6403 75.895 13.45C76.0303 13.2597 76.1889 13.0884 76.3802 12.9552C76.4735 12.8886 76.5808 12.841 76.6928 12.8077C76.8047 12.7792 76.926 12.7744 77.038 12.7982C77.2713 12.8458 77.4579 13.0028 77.6165 13.174C77.6958 13.2597 77.7705 13.3501 77.8358 13.4452L77.9384 13.588L78.0271 13.7402C78.265 14.1446 78.405 14.6013 78.475 15.0628C78.601 15.9906 78.5076 16.9516 78.1671 17.8223C77.9198 18.7072 77.7845 19.635 77.7518 20.5675Z" fill="#C55F54"/>
<path d="M109.617 54.2711C110.527 56.8688 109.347 59.2762 109.664 59.3808C110.037 59.5045 110.905 55.9791 113.448 53.0293C115.137 51.0692 117.082 49.9226 118.538 49.2422C116.9 49.6228 114.554 49.8845 112.123 48.971C110.793 48.4715 110.401 47.991 108.796 46.9919C105.078 44.6796 100.804 43.4474 100.366 44.1753C99.9318 44.8937 103.613 46.9538 103.16 49.2137C102.838 50.817 100.613 51.6686 100.72 51.8399C100.842 52.035 103.277 49.8893 105.736 50.3983C107.635 50.798 109.058 52.6725 109.617 54.2711Z" fill="#BB644A"/>
<path d="M108.549 65.756C109.538 62.4351 112.403 54.6468 119.788 50.4743C126.427 46.7205 133.01 47.9956 143.237 49.97C150.972 51.4639 155.153 52.3536 157.966 56.155C161.39 60.7842 160.499 66.736 159.697 72.0599C159.118 75.9041 157.476 82.9977 151.901 90.6148C153.632 99.7447 155.367 108.875 157.098 118.005C163.219 115.202 170.525 111.244 178.2 105.639C185.231 100.506 190.853 95.2487 195.22 90.6148C194.026 89.3207 192.472 87.2606 191.754 84.4298C191.002 81.4753 191.73 79.9291 191.754 76.4797C191.758 75.6043 191.749 69.6763 189.155 64.9947C187.541 62.083 184.9 60.4036 179.623 57.0447C171.51 51.8826 164.759 49.6132 163.159 49.0946C158.432 47.5531 154.756 46.9203 151.896 46.4446C143.857 45.1029 137.638 44.2703 130.234 45.5596C124.393 46.5778 118.169 47.6625 113.536 53.0292C109.589 57.6061 108.763 63.0393 108.549 65.756Z" fill="#6D2A25"/>
<path d="M149.148 50.0652C150.483 50.4268 151.822 50.7931 153.133 51.2451C154.444 51.6923 155.727 52.2347 156.935 52.9245C157.532 53.2766 158.115 53.662 158.661 54.0997C158.801 54.2044 158.927 54.3233 159.062 54.4375C159.193 54.5517 159.328 54.6611 159.45 54.7896L159.823 55.1559C159.94 55.2843 160.056 55.4176 160.168 55.5508C161.092 56.6022 161.815 57.8297 162.333 59.1381C162.851 60.4464 163.177 61.8309 163.35 63.2297C163.523 64.6284 163.551 66.0462 163.467 67.4545C163.383 68.8627 163.187 70.2615 162.893 71.6412C162.832 71.9885 162.743 72.3311 162.664 72.6736C162.585 73.0162 162.51 73.3587 162.412 73.7013C162.319 74.0391 162.23 74.3816 162.132 74.7194L161.82 75.7281C160.084 81.0852 157.159 86.0379 153.3 90.0819C157.154 86.0332 160.07 81.0757 161.801 75.7185L162.114 74.7099C162.212 74.3721 162.3 74.0296 162.394 73.6918C162.492 73.354 162.566 73.0114 162.646 72.6689C162.72 72.3263 162.813 71.9838 162.869 71.6365C163.159 70.2567 163.355 68.858 163.434 67.4545C163.518 66.0462 163.49 64.6332 163.313 63.2344C163.135 61.8404 162.813 60.4559 162.291 59.1523C161.773 57.8487 161.059 56.6213 160.14 55.5698C160.023 55.4366 159.912 55.3034 159.795 55.1749L159.422 54.8086C159.3 54.6849 159.165 54.5707 159.034 54.4565C158.899 54.3423 158.778 54.2234 158.638 54.1187C158.097 53.681 157.513 53.3004 156.916 52.9436C155.713 52.2537 154.43 51.7066 153.119 51.2594C151.822 50.7979 150.487 50.4268 149.148 50.0652Z" fill="#561E15"/>
<path d="M139.976 48.9279C141.599 48.8327 143.223 48.7423 144.856 48.7566C146.484 48.7614 148.117 48.8803 149.727 49.1848C151.332 49.5036 152.913 50.0222 154.36 50.8357C155.801 51.6493 157.103 52.7293 158.176 54.0091C159.235 55.3032 160.08 56.7685 160.723 58.31C161.363 59.8563 161.81 61.4786 162.076 63.1248C162.338 64.7757 162.426 66.4504 162.338 68.1203C162.291 68.9529 162.202 69.7855 162.062 70.6086C161.988 71.0178 161.918 71.4269 161.838 71.8361L161.558 73.054C160.742 76.2845 159.436 79.3532 157.91 82.2839C156.375 85.2146 154.635 88.0217 152.885 90.8144C154.602 87.9979 156.31 85.1718 157.803 82.2268C159.286 79.2818 160.555 76.2084 161.325 72.9969L161.586 71.7885C161.661 71.3841 161.726 70.9749 161.796 70.5705C161.927 69.757 162.002 68.9339 162.039 68.1108C162.109 66.4647 162.002 64.8138 161.726 63.1914C161.442 61.5738 160.985 59.9847 160.341 58.4813C159.692 56.9826 158.848 55.5696 157.812 54.3231C156.8 53.0576 155.563 51.9776 154.178 51.1545C152.792 50.3266 151.252 49.7795 149.675 49.4227C148.094 49.0801 146.47 48.9231 144.847 48.8803C143.228 48.8185 141.604 48.8708 139.976 48.9279Z" fill="#BE6D4C"/>
<path d="M189.43 89.9631C188.184 91.8424 186.692 93.5599 185.007 95.0586C184.177 95.8198 183.29 96.5192 182.395 97.1996C181.942 97.5278 181.489 97.8656 181.023 98.1796C180.561 98.5032 180.094 98.8124 179.623 99.1169C175.788 101.458 171.757 103.399 167.904 105.654C166.938 106.215 165.991 106.805 165.053 107.414L164.358 107.885C164.124 108.042 163.896 108.199 163.672 108.366L162.991 108.856L162.324 109.37L161.992 109.627C161.88 109.712 161.778 109.803 161.67 109.893L161.027 110.431L160.401 110.992L160.089 111.273L159.786 111.568L159.184 112.158L158.61 112.776L158.325 113.085L158.055 113.409L157.513 114.056L158.045 113.399L158.311 113.071L158.591 112.757L159.156 112.129L159.748 111.53L160.047 111.23L160.355 110.944L160.971 110.369L161.61 109.817C161.717 109.726 161.82 109.631 161.932 109.541L162.258 109.279L162.916 108.756L163.588 108.252C163.812 108.08 164.04 107.919 164.269 107.757L164.96 107.272C165.888 106.644 166.83 106.035 167.787 105.454C171.613 103.123 175.616 101.11 179.381 98.7173C179.857 98.427 180.332 98.1416 180.799 97.8371C181.27 97.5421 181.732 97.2233 182.194 96.9141C183.104 96.2718 184.009 95.6152 184.858 94.8873C186.575 93.4505 188.119 91.7996 189.43 89.9631Z" fill="#BE6D4C"/>
<path d="M194.376 165.762C197.04 168.693 198.691 170.539 201.663 172.133C205.167 174.012 208.671 174.554 210.252 174.787C212.893 175.177 215.109 175.125 218.063 175.054C219.476 175.02 220.297 175.001 221.445 174.787C222.289 174.63 222.467 174.526 223.008 174.521C224.174 174.511 224.907 174.978 226.134 175.582C226.134 175.582 227.725 176.367 230.039 177.176C231.798 177.789 231.858 177.618 233.683 178.237C235.754 178.941 235.661 179.155 237.588 179.83C239.463 180.487 239.412 180.235 242.533 181.158C245.318 181.981 245.188 182.133 246.177 182.219C247.717 182.357 248.706 182.052 249.303 182.752C249.667 183.18 249.774 183.851 249.564 184.346C249.233 185.126 248.178 185.297 247.483 185.406C246.233 185.606 245.454 185.354 244.101 185.14C242.361 184.869 242.598 185.121 240.457 184.874C237.331 184.512 237.144 184.008 235.25 184.079C233.813 184.131 233.995 184.422 231.868 184.612C230.673 184.717 229.367 184.836 227.701 184.612C225.929 184.374 225.532 183.989 224.058 184.079C222.859 184.155 222.863 184.426 221.977 184.346C220.619 184.222 220.251 183.556 218.851 183.551C218.72 183.551 218.067 183.551 217.288 183.817C216.21 184.184 215.58 184.821 215.207 185.145C213.402 186.701 210.784 186.72 208.96 186.739C207.719 186.748 206.618 186.758 205.316 186.206C204.276 185.763 203.413 185.092 202.452 184.346C201.691 183.756 201.206 183.304 200.889 183.018C199.312 181.605 196.461 179.83 196.461 179.83C188.95 175.254 184.513 173.893 180.986 169.478C180.071 168.331 176.885 164.216 177.239 158.721C177.319 157.517 177.603 153.078 179.735 152.355C181.135 151.879 182.894 153.149 194.376 165.762Z" fill="#D3805B"/>
<path d="M227.435 181.691C227.421 181.748 227.277 182.457 227.697 183.018C227.897 183.29 228.037 183.261 229.521 183.813C230.155 184.051 230.3 184.117 230.561 184.079C231.214 183.979 231.569 183.347 231.602 183.285C231.863 182.804 231.896 182.153 231.602 181.691C231.494 181.525 231.35 181.387 229.777 180.897C228.667 180.549 228.457 180.525 228.215 180.63C227.627 180.882 227.454 181.605 227.435 181.691Z" fill="#E7E7E7"/>
<path d="M244.357 181.957C244.334 182.014 244.488 182.129 244.618 182.224C244.814 182.366 244.992 182.433 245.141 182.49C245.687 182.69 245.649 182.642 245.92 182.757C246.247 182.89 246.466 183.018 246.699 183.023C246.741 183.023 246.82 183.018 246.96 183.023C247.138 183.028 247.166 183.037 247.222 183.023C247.348 182.99 247.488 182.856 247.483 182.757C247.478 182.59 246.96 182.466 245.92 182.224C244.898 181.986 244.39 181.872 244.357 181.957Z" fill="#E7E7E7"/>
<path d="M248.524 183.551C248.747 183.622 249.06 183.713 249.303 183.551C249.466 183.442 249.611 183.213 249.564 183.018C249.475 182.676 248.794 182.585 248.001 182.485C247.203 182.385 246.494 182.3 246.438 182.485C246.349 182.776 247.973 183.37 248.524 183.551Z" fill="#E7E7E7"/>
<path d="M230.958 181.22C230.039 180.768 229.129 180.297 228.196 179.883C227.729 179.678 227.258 179.483 226.782 179.312C226.306 179.141 225.821 178.998 225.331 178.86C224.851 178.694 224.37 178.541 223.875 178.384C223.362 178.213 222.919 177.951 222.457 177.809C222.005 177.666 221.496 177.675 220.988 177.666C220.731 177.661 220.465 177.647 220.213 177.614L219.453 177.533C218.44 177.428 217.418 177.338 216.415 177.114C215.916 177.005 215.426 176.862 214.918 176.843C214.666 176.833 214.409 176.857 214.171 176.933C213.929 177.009 213.709 177.147 213.523 177.328C213.7 177.143 213.919 176.995 214.162 176.905C214.404 176.814 214.661 176.781 214.918 176.781C215.436 176.781 215.939 176.905 216.439 176.995C217.437 177.176 218.454 177.228 219.471 177.295L220.236 177.347C220.488 177.371 220.731 177.371 220.988 177.366C221.491 177.361 222.019 177.323 222.555 177.461C223.078 177.599 223.535 177.847 223.997 177.98C224.482 178.118 224.981 178.251 225.471 178.399C225.956 178.575 226.437 178.76 226.908 178.974C227.379 179.184 227.841 179.417 228.294 179.664C229.203 180.159 230.076 180.697 230.958 181.22Z" fill="#BE6D4C"/>
<path d="M226.614 184.408C226.493 184.507 226.33 184.541 226.176 184.56C226.022 184.579 225.863 184.574 225.704 184.56C225.392 184.531 225.084 184.469 224.781 184.393C224.477 184.322 224.174 184.212 223.894 184.146C223.605 184.084 223.306 184.046 222.998 184.013C222.7 183.946 222.387 183.879 222.079 183.77L221.645 183.608C221.505 183.556 221.361 183.513 221.216 183.475C220.642 183.318 220.036 183.275 219.434 183.318C218.832 183.361 218.235 183.504 217.652 183.689C217.064 183.875 216.49 184.094 215.907 184.298C216.476 184.055 217.036 183.799 217.61 183.575C218.188 183.356 218.785 183.166 219.406 183.08C220.027 182.995 220.666 182.999 221.291 183.128C221.445 183.161 221.599 183.199 221.753 183.242L222.196 183.375C222.481 183.451 222.774 183.499 223.078 183.546C223.376 183.623 223.684 183.699 223.988 183.808C224.295 183.922 224.561 184.06 224.846 184.17C225.131 184.284 225.42 184.384 225.714 184.446C225.863 184.479 226.012 184.503 226.162 184.503C226.325 184.503 226.484 184.488 226.614 184.408Z" fill="#BE6D4C"/>
<path d="M238.32 184.298C237.574 184.379 236.827 184.47 236.048 184.436C235.67 184.36 235.292 184.246 234.938 184.098C234.592 183.956 234.252 183.823 233.897 183.713C233.193 183.489 232.451 183.366 231.704 183.328C232.451 183.285 233.211 183.328 233.953 183.48C234.326 183.551 234.695 183.651 235.054 183.761C235.404 183.861 235.759 183.927 236.118 183.96C236.818 184.151 237.574 184.217 238.32 184.298Z" fill="#BE6D4C"/>
<path d="M219.994 175.549C219.397 175.587 218.799 175.606 218.202 175.606C217.6 175.606 217.008 175.582 216.42 175.601C215.832 175.558 215.244 175.544 214.661 175.573C214.367 175.587 214.078 175.62 213.789 175.663C213.499 175.706 213.21 175.768 212.916 175.825L209.408 176.524L212.865 175.592C213.149 175.516 213.439 175.43 213.737 175.368C214.031 175.306 214.335 175.254 214.633 175.216C215.235 175.144 215.841 175.116 216.443 175.121C217.045 175.182 217.638 175.282 218.226 175.363C218.809 175.449 219.401 175.511 219.994 175.549Z" fill="#BE6D4C"/>
<path d="M242.608 181.381C242.01 181.343 241.432 181.162 240.858 181.015C240.569 180.944 240.284 180.872 239.995 180.839C239.701 180.806 239.398 180.763 239.104 180.687C238.81 180.615 238.521 180.525 238.236 180.42C237.951 180.316 237.676 180.206 237.396 180.111C236.841 179.911 236.272 179.735 235.703 179.564C235.143 179.364 234.578 179.164 234.018 178.955C233.459 178.746 232.903 178.527 232.348 178.327C231.793 178.127 231.228 177.942 230.659 177.804C230.375 177.732 230.09 177.685 229.791 177.632C229.498 177.58 229.204 177.523 228.91 177.456C228.327 177.328 227.743 177.157 227.188 176.914C226.913 176.79 226.642 176.652 226.386 176.49C226.129 176.333 225.886 176.153 225.639 175.986C225.392 175.815 225.145 175.658 224.879 175.534C224.613 175.415 224.328 175.32 224.034 175.292C223.74 175.268 223.442 175.292 223.148 175.306C222.854 175.32 222.546 175.325 222.261 175.23C222.546 175.315 222.849 175.301 223.143 175.277C223.437 175.253 223.736 175.215 224.039 175.23C224.342 175.249 224.631 175.334 224.911 175.449C225.191 175.567 225.453 175.724 225.705 175.886C225.956 176.048 226.204 176.219 226.46 176.362C226.717 176.509 226.983 176.638 227.253 176.747C227.799 176.966 228.373 177.114 228.952 177.223C229.241 177.275 229.535 177.323 229.829 177.366C230.118 177.409 230.421 177.452 230.715 177.513C231.308 177.632 231.886 177.804 232.455 177.989C233.025 178.175 233.589 178.375 234.149 178.565C234.709 178.755 235.278 178.931 235.847 179.112C236.407 179.321 236.967 179.54 237.518 179.778C237.793 179.897 238.068 180.03 238.334 180.144C238.605 180.263 238.875 180.368 239.155 180.458C239.435 180.549 239.715 180.611 240.014 180.663C240.312 180.72 240.597 180.81 240.881 180.901C241.46 181.086 242.015 181.3 242.608 181.381Z" fill="#BE6D4C"/>
<path d="M243.191 185.378C243.727 185.212 244.282 185.097 244.805 184.936C245.346 184.898 245.883 184.821 246.359 184.579C246.592 184.46 246.806 184.289 246.97 184.074C247.133 183.856 247.25 183.599 247.32 183.323C247.287 183.603 247.208 183.884 247.068 184.141C246.923 184.393 246.718 184.617 246.48 184.788C245.995 185.131 245.425 185.292 244.875 185.411C244.301 185.416 243.751 185.369 243.191 185.378Z" fill="#BE6D4C"/>
<path d="M204.094 181.063C204.453 180.806 204.794 180.525 205.088 180.216C205.451 180.007 205.797 179.759 206.091 179.455C206.389 179.155 206.622 178.779 206.748 178.356C206.702 178.798 206.529 179.231 206.277 179.607C206.025 179.988 205.708 180.321 205.358 180.611C204.943 180.811 204.518 180.953 204.094 181.063Z" fill="#BE6D4C"/>
<path d="M205.372 185.174C204.99 185.045 204.612 184.922 204.229 184.741C204.075 184.593 203.921 184.446 203.8 184.26C203.679 184.075 203.581 183.865 203.548 183.642C203.525 183.418 203.553 183.199 203.627 183.004C203.66 182.904 203.711 182.814 203.753 182.723L203.912 182.467C203.749 182.828 203.665 183.247 203.781 183.589C203.903 183.932 204.197 184.165 204.514 184.355C204.761 184.636 205.074 184.907 205.372 185.174Z" fill="#BE6D4C"/>
<path d="M109.617 54.2281C110.527 56.8258 109.347 59.2332 109.664 59.3379C110.037 59.4616 110.905 55.9361 113.448 52.9864C115.137 51.0262 117.082 49.8796 118.538 49.1993C116.9 49.5799 114.554 49.8415 112.123 48.9281C110.793 48.4285 110.401 47.948 108.796 46.9489C105.078 44.6367 100.804 43.4044 100.366 44.1323C99.9318 44.8508 103.613 46.9108 103.16 49.1707C102.838 50.774 100.613 51.6257 100.72 51.797C100.842 51.992 103.277 49.8463 105.736 50.3554C107.635 50.7503 109.058 52.6248 109.617 54.2281Z" fill="#BB644A"/>
<path d="M162.557 139.619C163.107 139.566 162.823 137.364 163.807 133.253C164.582 129.999 165.351 128.89 164.782 127.163C164.428 126.083 163.868 125.741 162.557 124.337C158.96 120.483 158.19 117.738 157.56 117.971C156.692 118.295 157.845 123.661 158.81 128.157C159.328 130.579 159.734 131.93 160.546 134.637C162.002 139.485 162.398 139.633 162.557 139.619Z" fill="#BB644A"/>
<path d="M51.1023 135.798C50.9716 133.814 50.5658 127.696 49.8519 116.696C49.1614 106.02 48.8722 100.615 51.5548 97.2612C55.1939 92.7082 57.0228 91.0002 57.0228 91.0002C60.5266 87.5699 60.8999 85.6858 61.2358 83.954C61.3991 83.1024 61.6603 81.1708 61.0072 79.0013C60.1674 76.2038 58.6511 75.7804 56.2717 72.7592C55.9544 72.3548 52.1707 67.4497 50.9763 60.846C50.5098 58.2579 50.3931 56.1788 50.3931 56.1788C50.2065 52.7532 50.6917 52.0681 50.0292 50.1746C49.67 49.1469 49.2734 48.6331 49.0121 47.7958C48.8862 47.3961 48.8442 47.0964 48.7929 46.7681C48.6389 45.807 48.4289 44.4701 48.9375 43.138C49.2314 42.3673 49.4227 42.51 49.5907 41.8772C49.9172 40.6688 49.39 39.5555 49.1568 39.0607C48.8815 38.485 48.3636 37.386 47.2672 36.9102C46.5487 36.601 45.9329 36.7056 45.597 36.168C45.3404 35.7588 45.5597 35.4734 45.3077 35.207C44.9951 34.8787 44.4913 35.1261 43.0543 35.2831C41.9439 35.4068 41.9765 35.2878 41.2394 35.4306C40.7635 35.521 40.2923 35.6875 39.3499 36.0253C38.7294 36.2441 38.3374 36.4059 37.8942 36.6914C37.7683 36.7722 37.591 36.8959 37.3857 37.0625C37.2877 37.1433 35.7108 39.5079 35.5708 39.9551C35.1276 41.3539 34.3064 42.1294 33.7559 42.843C32.1463 44.9269 30.8913 48.9804 30.1215 51.364C29.8322 52.268 28.6192 56.0979 27.868 62.4066C27.7141 63.6959 27.0749 69.3432 27.5041 78.34C27.8354 85.2339 28.3673 85.1244 28.9598 94.1259C29.2024 97.7893 29.4776 102.138 29.3983 107.909C29.3097 114.094 28.8525 118.847 28.6705 120.583C28.2273 124.851 27.4715 130.137 26.1278 136.146" fill="#D3805B"/>
<path d="M40.9081 40.35L42.1678 38.6848C42.6576 38.1948 43.1289 37.6762 43.6747 37.2337C43.95 37.0149 44.2393 36.815 44.5518 36.6628C44.8691 36.5153 45.2097 36.4202 45.5503 36.4011C45.2097 36.4487 44.8878 36.5724 44.5938 36.7437C44.2999 36.9197 44.034 37.1338 43.7914 37.3717C43.3015 37.8475 42.8769 38.3993 42.429 38.9322L40.9081 40.35Z" fill="#BE6D4C"/>
<path d="M35.874 42.6527C36.1166 42.4243 36.3126 42.1484 36.4852 41.8629C36.6625 41.5775 36.8165 41.2825 36.9984 40.9923C37.1757 40.7021 37.3763 40.4166 37.6329 40.174C37.8895 39.9313 38.1788 39.741 38.4634 39.565C38.7573 39.408 39.0559 39.2605 39.3265 39.0845C39.6064 38.9037 39.891 38.7276 40.1756 38.5516L41.0201 38.0235L41.4353 37.7523C41.5753 37.6619 41.7012 37.5668 41.8319 37.4621C42.0885 37.2528 42.3311 37.0244 42.5924 36.8103C42.8536 36.601 43.1336 36.3964 43.4555 36.2774C43.6141 36.2203 43.7867 36.1918 43.9594 36.1966C44.1273 36.2013 44.2953 36.2299 44.4539 36.2679C44.7805 36.3393 45.0977 36.4392 45.4197 36.5058C45.0931 36.4535 44.7712 36.3678 44.4446 36.3107C44.1226 36.2584 43.7821 36.2251 43.4835 36.3583C43.1849 36.482 42.9236 36.6914 42.6763 36.9102C42.4291 37.1291 42.1958 37.3669 41.9439 37.5953C41.8226 37.7095 41.6826 37.8189 41.5473 37.9141L41.1414 38.209L40.3156 38.78C40.0403 38.9703 39.7651 39.1558 39.4945 39.3509C39.2099 39.5507 38.9159 39.7125 38.6313 39.8838C38.3374 40.0312 38.0528 40.1882 37.8009 40.3833C37.5536 40.5784 37.339 40.8305 37.143 41.097C36.9424 41.3634 36.7605 41.6441 36.5599 41.9153C36.3592 42.1817 36.1353 42.4434 35.874 42.6527Z" fill="#BE6D4C"/>
<path d="M36.0607 40.3642C36.5132 40.1692 36.8818 39.8409 37.1944 39.4745C37.507 39.1034 37.7682 38.6943 38.0295 38.2756C38.3234 37.8855 38.608 37.4811 38.93 37.0957C39.0933 36.9054 39.2612 36.7151 39.4478 36.5486C39.6345 36.382 39.8351 36.2203 40.0683 36.1109C40.3016 35.9967 40.5582 35.9586 40.8102 35.9539C41.0574 35.9539 41.3047 35.9776 41.5426 36.011C41.7853 36.0443 42.0232 36.0776 42.2658 36.0918C42.5037 36.1013 42.7557 36.1109 42.9843 36.0205C42.7603 36.1251 42.5084 36.1299 42.2658 36.1346C42.0232 36.1346 41.7759 36.1156 41.538 36.0966C41.0621 36.0633 40.5582 36.0395 40.1523 36.2679C39.947 36.3773 39.7744 36.5391 39.6065 36.7103C39.4385 36.8816 39.2892 37.0719 39.1446 37.2622C38.8553 37.6523 38.5987 38.071 38.3234 38.4802C38.0155 38.8655 37.6936 39.2557 37.3297 39.5935C36.9564 39.936 36.5319 40.2262 36.0607 40.3642Z" fill="#BE6D4C"/>
<path d="M187.228 199.475C187.41 201.064 189.066 201.007 192.225 204.57C194.025 206.602 194.282 207.515 195.141 208.519C195.574 209.028 195.966 209.338 196.242 209.566C198.313 211.283 200.968 212.211 200.968 212.211C202.988 212.92 205.689 213.443 215.953 213.486C216.998 213.491 217.866 213.491 218.449 213.486C218.449 213.486 218.449 213.486 220.945 213.486C221.776 213.486 222.611 213.486 223.442 213.486C224.272 213.486 225.107 213.486 225.938 213.486C227.188 213.486 228.434 213.486 229.684 213.486C229.992 213.486 230.934 213.486 230.934 213.486C232.488 213.158 232.357 213.657 234.681 213.486C236.234 213.372 237.447 213.063 238.455 213.234C238.576 213.253 238.8 213.296 239.127 213.32C240.069 213.377 240.172 213.206 241.17 213.32C242.248 213.443 242.449 213.681 244.03 214.152C247.016 215.042 248.094 214.728 248.523 214.571C248.892 214.433 249.172 214.266 249.34 214.152C249.704 214.347 250.45 214.671 251.383 214.571C252.573 214.438 253.875 213.629 253.833 212.906C253.8 212.292 252.867 212.225 252.606 211.241C252.447 210.641 252.736 210.46 252.606 209.989C252.503 209.618 252.148 209.114 249.34 208.324C248.052 207.963 246.82 207.696 245.663 207.492C243.979 207.192 244.026 207.287 243.214 207.073C241.866 206.721 241.712 206.445 239.948 205.822C239.23 205.569 238.516 205.374 237.088 204.989C235.143 204.461 235.147 204.528 233.822 204.156C231.34 203.462 231.317 203.229 229.735 202.905C228.098 202.572 228.112 202.82 226.469 202.486C224.496 202.092 224.118 201.663 222.382 201.235C222.191 201.188 222.023 201.15 221.851 201.121C219.947 200.783 218.02 200.817 217.89 200.821C216.173 200.878 214.334 200.388 210.952 199.48C207.047 198.433 204.229 197.172 203.459 198.205C203.273 198.452 203.352 198.638 203.179 198.737C202.237 199.28 199.815 194.032 196.232 192.905C192.598 191.753 186.878 196.401 187.228 199.475Z" fill="#D4815B"/>
<path d="M236.412 210.109C236.407 210.137 236.477 210.156 237.639 210.527C238.88 210.922 239.206 211.036 239.682 210.946C240.013 210.879 240.513 210.699 240.499 210.527C240.466 210.056 236.444 209.88 236.412 210.109Z" fill="#E7E7E7"/>
<path d="M246.484 210.813C246.475 210.879 246.643 210.946 247.301 211.231C248.892 211.912 248.957 211.978 249.344 212.064C249.956 212.197 250.917 212.278 250.977 212.064C251.052 211.802 249.82 211.084 248.528 210.813C247.558 210.608 246.512 210.646 246.484 210.813Z" fill="#E7E7E7"/>
<path d="M249.755 209.98C249.601 210.227 250.198 210.903 250.572 211.231C251.001 211.607 251.402 211.759 252.204 212.064C252.503 212.178 253.077 212.378 253.837 212.482C254.351 212.549 254.607 212.587 254.654 212.482C254.77 212.235 253.655 211.383 252.61 210.817C251.57 210.246 249.97 209.632 249.755 209.98Z" fill="#E7E7E7"/>
<path d="M248.939 208.315C248.883 208.496 249.634 208.919 250.166 209.148C250.819 209.428 251.365 209.504 251.798 209.566C251.98 209.59 253.38 209.78 253.431 209.566C253.483 209.347 252.046 208.824 251.798 208.734C251.351 208.572 250.819 208.41 250.166 208.315C249.732 208.253 248.99 208.144 248.939 208.315Z" fill="#E7E7E7"/>
<path d="M227.099 205.07C226.679 204.97 226.274 204.799 225.872 204.661C225.672 204.589 225.471 204.532 225.27 204.49C225.07 204.451 224.86 204.428 224.65 204.404C224.239 204.304 223.81 204.218 223.39 204.09C222.966 203.961 222.565 203.795 222.168 203.633C221.771 203.471 221.375 203.31 220.96 203.205C220.549 203.096 220.12 203.053 219.691 203.086C220.115 203.015 220.554 203.015 220.983 203.086C221.412 203.153 221.832 203.281 222.243 203.405C222.653 203.528 223.064 203.657 223.474 203.738C223.885 203.819 224.309 203.866 224.739 203.928C224.949 203.99 225.159 204.052 225.373 204.137C225.583 204.223 225.784 204.323 225.97 204.432C226.348 204.656 226.703 204.899 227.099 205.07Z" fill="#BE6D4C"/>
<path d="M236.421 209.999C236.29 209.89 236.132 209.828 235.973 209.785C235.814 209.742 235.651 209.714 235.483 209.699C235.152 209.666 234.821 209.671 234.485 209.666C234.317 209.666 234.149 209.661 233.972 209.652C233.883 209.647 233.799 209.633 233.715 209.623C233.631 209.614 233.542 209.604 233.458 209.585C233.118 209.533 232.782 209.452 232.455 209.357C231.816 209.119 231.205 208.833 230.584 208.591C229.964 208.348 229.334 208.148 228.681 208.063C228.023 207.972 227.347 207.958 226.679 207.839L225.686 207.668C225.354 207.62 225.023 207.563 224.687 207.573C225.023 207.544 225.359 207.577 225.695 207.606L226.693 207.715C227.356 207.792 228.023 207.768 228.7 207.815C229.381 207.863 230.053 208.029 230.696 208.239C231.34 208.448 231.97 208.695 232.6 208.891C232.908 209.014 233.216 209.133 233.528 209.219C233.608 209.243 233.687 209.262 233.766 209.281C233.846 209.3 233.925 209.323 234.004 209.338C234.163 209.366 234.326 209.39 234.494 209.414C234.825 209.457 235.166 209.495 235.497 209.571C235.665 209.609 235.828 209.652 235.987 209.718C236.15 209.794 236.304 209.875 236.421 209.999Z" fill="#BE6D4C"/>
<path d="M226.563 212.715C226.768 212.696 226.969 212.754 227.165 212.806C227.361 212.858 227.557 212.915 227.748 212.958C227.846 212.977 227.944 212.991 228.037 213.001C228.13 213.006 228.233 213.006 228.336 213.006C228.536 213.006 228.737 212.996 228.938 212.987C229.339 212.963 229.74 212.934 230.132 212.872C230.529 212.811 230.925 212.73 231.354 212.701C231.574 212.701 231.798 212.735 232.003 212.787L232.591 212.944C232.978 213.039 233.37 213.125 233.766 213.196C234.158 213.263 234.555 213.32 234.951 213.339C235.147 213.348 235.348 213.348 235.544 213.339L236.15 213.301C236.552 213.272 236.953 213.239 237.35 213.177C237.746 213.115 238.138 213.034 238.511 212.892C238.884 212.754 239.244 212.558 239.538 212.283C239.832 212.007 240.046 211.65 240.167 211.255C240.07 211.655 239.869 212.03 239.58 212.325C239.29 212.625 238.931 212.839 238.558 213.006C238.18 213.167 237.783 213.277 237.382 213.358C236.981 213.439 236.58 213.496 236.174 213.543L235.572 213.61C235.367 213.634 235.157 213.643 234.951 213.643C234.536 213.643 234.13 213.61 233.724 213.558C233.319 213.505 232.917 213.439 232.516 213.363L231.924 213.234C231.737 213.196 231.555 213.182 231.373 213.186C230.995 213.177 230.589 213.215 230.183 213.239C229.773 213.263 229.362 213.253 228.956 213.234C228.751 213.225 228.55 213.21 228.345 213.191C228.242 213.182 228.144 213.172 228.037 213.158C227.935 213.139 227.832 213.115 227.734 213.082C227.538 213.02 227.351 212.944 227.16 212.872C226.959 212.792 226.768 212.715 226.563 212.715Z" fill="#BE6D4C"/>
<path d="M247.245 210.722C246.55 210.532 245.845 210.475 245.136 210.413C244.791 210.322 244.441 210.232 244.096 210.127C243.746 210.023 243.405 209.885 243.079 209.737C242.752 209.595 242.43 209.442 242.094 209.323C241.763 209.204 241.413 209.128 241.059 209.105C241.413 209.09 241.777 209.124 242.127 209.209C242.482 209.29 242.822 209.404 243.158 209.514C243.499 209.623 243.83 209.713 244.175 209.775C244.52 209.842 244.87 209.89 245.225 209.942C245.911 210.156 246.611 210.384 247.245 210.722Z" fill="#BE6D4C"/>
<path d="M224.435 202.648C223.633 202.248 222.779 201.992 221.916 201.863C221.501 201.73 221.067 201.639 220.638 201.549C220.204 201.468 219.765 201.397 219.327 201.349C218.445 201.24 217.554 201.178 216.667 201.107C217.558 201.097 218.45 201.078 219.345 201.107C220.241 201.135 221.142 201.207 222.033 201.392C222.891 201.687 223.717 202.11 224.435 202.648Z" fill="#BE6D4C"/>
<path d="M237.317 207.42C236.664 207.396 236.015 207.216 235.404 206.959C234.793 206.697 234.214 206.364 233.65 206.031C233.118 205.645 232.591 205.265 232.04 204.932C231.49 204.599 230.892 204.361 230.277 204.147C229.969 204.037 229.661 203.937 229.353 203.823C229.04 203.709 228.746 203.585 228.434 203.486C227.818 203.276 227.174 203.114 226.6 202.796C227.193 203.076 227.836 203.2 228.466 203.371C228.784 203.452 229.096 203.562 229.404 203.652C229.717 203.742 230.029 203.828 230.347 203.918C230.976 204.094 231.616 204.299 232.208 204.613C232.801 204.918 233.36 205.279 233.911 205.626C234.433 206.026 234.951 206.416 235.511 206.74C236.066 207.063 236.668 207.315 237.317 207.42Z" fill="#BE6D4C"/>
<path d="M242.426 207.054C242.85 206.983 243.293 207.073 243.704 207.211C244.119 207.349 244.516 207.53 244.903 207.706C245.262 207.934 245.617 208.177 245.976 208.362C246.065 208.405 246.158 208.453 246.261 208.496L246.55 208.629C246.741 208.714 246.937 208.8 247.133 208.881C247.525 209.038 247.922 209.176 248.337 209.247C248.547 209.285 248.757 209.319 248.962 209.371C249.167 209.423 249.373 209.499 249.55 209.628C249.363 209.519 249.158 209.461 248.953 209.433C248.743 209.4 248.533 209.39 248.323 209.371C247.894 209.333 247.474 209.233 247.059 209.114C246.853 209.052 246.648 208.986 246.447 208.919L246.144 208.814C246.046 208.781 245.943 208.743 245.836 208.705C245.426 208.538 245.048 208.329 244.67 208.139C244.325 207.891 243.979 207.649 243.611 207.444C243.247 207.225 242.855 207.064 242.426 207.054Z" fill="#BE6D4C"/>
<path d="M249.55 214.095C249.727 213.914 249.867 213.71 249.96 213.5C250.133 213.372 250.292 213.215 250.394 213.015C250.502 212.82 250.534 212.577 250.488 212.335C250.609 212.544 250.67 212.82 250.618 213.086C250.576 213.358 250.455 213.61 250.296 213.833C250.054 213.976 249.797 214.057 249.55 214.095Z" fill="#BE6D4C"/>
<path d="M96.0639 50.3555C95.8819 51.0263 95.5973 51.6924 95.1028 52.2062C94.8555 52.4584 94.5616 52.6677 94.2443 52.82C93.9271 52.977 93.5911 53.0816 93.2552 53.172C92.5834 53.3481 91.9069 53.4718 91.2864 53.7144C90.6799 53.957 90.134 54.3852 89.4902 54.7088C89.1636 54.8562 88.809 54.9799 88.4264 55.0037C88.0392 55.0275 87.6753 54.9466 87.33 54.8087C86.6442 54.5232 86.0843 53.9618 85.7951 53.2719C85.7251 53.1007 85.6644 52.9199 85.6318 52.7391C85.5945 52.5583 85.5758 52.368 85.5758 52.1824C85.5758 51.8113 85.6598 51.4402 85.7997 51.1024C85.9444 50.7647 86.1497 50.4602 86.3876 50.1937C86.6209 49.9225 86.9148 49.6942 87.2367 49.5324C87.5586 49.3707 87.9132 49.2898 88.2631 49.2565C88.6131 49.2184 88.9816 49.247 89.3175 49.3659C89.6581 49.4848 89.9474 49.6894 90.2553 49.8036C90.4093 49.8607 90.5726 49.8892 90.7312 49.8797C90.8945 49.875 91.0578 49.8321 91.2117 49.7751C91.5243 49.6561 91.7763 49.4182 92.0142 49.1708C92.2522 48.9234 92.5087 48.676 92.8027 48.4905C93.3952 48.1194 94.081 47.9338 94.7669 47.9338C94.081 47.9529 93.4045 48.1622 92.8353 48.5428C92.5507 48.7379 92.3128 48.9805 92.0795 49.2374C91.8463 49.4896 91.5943 49.7513 91.2584 49.894C91.0951 49.9606 90.9225 50.0129 90.7405 50.0225C90.6519 50.032 90.5586 50.0225 90.4699 50.0177C90.3813 50.0034 90.2926 49.9844 90.2087 49.9558C90.0407 49.8988 89.8821 49.8179 89.7281 49.7418C89.5741 49.6656 89.4202 49.599 89.2662 49.5467C88.9536 49.4468 88.6177 49.4277 88.2911 49.4753C87.9599 49.5181 87.638 49.6038 87.3487 49.756C87.0594 49.9083 86.8028 50.1224 86.5929 50.3793C86.3783 50.6362 86.1963 50.9217 86.0797 51.2261C85.8324 51.8399 85.8511 52.544 86.1263 53.134C86.3923 53.7239 86.8961 54.1997 87.4887 54.4233C87.7826 54.5327 88.1045 54.5946 88.4031 54.5613C88.7064 54.5375 89.0096 54.4281 89.3035 54.2806C89.9101 54.0189 90.4886 53.6145 91.1791 53.3861C91.8556 53.1673 92.5461 53.0864 93.2086 52.9532C93.5398 52.8866 93.8664 52.8009 94.179 52.6677C94.4869 52.5393 94.7762 52.3585 95.0281 52.1301C95.5227 51.6543 95.8399 51.012 96.0639 50.3555Z" fill="#BE6D4C"/>
</svg>
