<svg width="288" height="220" viewBox="0 0 288 220" fill="none" xmlns="http://www.w3.org/2000/svg">
<path d="M283.772 145.269C285.545 138.547 296.327 95.0462 272.904 58.7046C254.737 30.513 226.162 23.6688 169.029 9.9805C132.087 1.12077 98.5863 -6.42446 62.6177 8.42063C53.2607 12.2765 37.4484 18.6387 23.5736 34.6055C20.915 37.6639 -8.78946 72.9976 2.58321 116.087C8.23914 137.496 21.4363 150.939 28.6735 157.204C23.0349 173.855 17.3964 190.505 11.7578 207.155C29.5336 201.17 47.3094 195.185 65.0851 189.199C73.6603 191.934 86.2406 195.772 101.592 199.794C172.087 218.285 207.404 227.67 236.066 212.256C268.125 195.001 280.245 158.65 283.772 145.269Z" fill="white"/>
<path d="M269.463 139.047C270.984 133.272 280.245 95.8433 259.29 64.3655C243.034 39.9508 217.717 33.8603 167.074 21.688C134.338 13.8186 104.659 7.0971 72.9306 19.6462C64.6769 22.9149 50.7239 28.2956 38.5606 41.9664C36.2235 44.5866 10.1767 74.8464 20.5155 112.056C25.6588 130.546 37.4138 142.219 43.8516 147.661C38.9689 161.971 34.0863 176.291 29.2123 190.601C44.9029 185.562 60.5849 180.515 76.2755 175.476C83.8775 177.886 95.033 181.277 108.639 184.852C171.123 201.249 202.426 209.574 227.682 196.473C255.945 181.82 266.431 150.562 269.463 139.047Z" fill="#F46B5D"/>
<path d="M36.7793 183.766L50.7063 143.297C43.278 136.935 34.0686 126.533 29.6638 111.697C19.6204 77.8877 43.2693 50.8966 45.9973 47.9346C57.1702 35.7886 69.9938 30.9951 77.6566 28.1382L77.9955 28.0155C108.021 16.7897 137.022 23.7916 165.076 30.5657C211.792 41.8441 235.241 47.5052 250.766 69.8604C269.672 97.0881 263.407 128.584 261.036 137.592C258.073 148.827 248.377 176.344 222.269 189.226C198.733 200.846 170.124 193.327 113.121 178.359L112.174 178.114C102.478 175.572 92.7391 172.759 83.217 169.771L36.7793 183.766ZM192.313 42.2735C183.981 40.0388 174.598 37.7779 163.981 35.2102C135.363 28.296 108.334 21.7761 79.6636 32.4936L79.3247 32.6251C72.0615 35.3417 59.8982 39.8811 49.4986 51.1858C46.9617 53.9462 24.9462 79.0532 34.2337 110.312C38.5517 124.85 47.9174 134.832 55.0069 140.651L56.3014 141.711L44.3292 176.484L83.2691 164.741L83.9642 164.96C93.634 168.01 103.521 170.867 113.391 173.461L114.338 173.706C170.202 188.376 198.238 195.746 220.193 184.905C244.546 172.882 253.668 146.943 256.457 136.348C258.698 127.847 264.615 98.1309 246.891 72.6034C235.762 56.6015 219.724 49.6172 192.313 42.2735Z" fill="#F46B5D"/>
<path d="M38.7343 102.679L38.6908 102.67C38.4997 102.618 38.3346 102.469 38.1956 102.232C38.0566 101.987 37.9784 101.768 37.9697 101.557C38.1609 99.8045 38.4476 98.0606 38.8385 96.343C39.2208 94.6254 39.6378 92.9165 40.0809 91.234C40.5327 89.5164 40.9932 87.8075 41.4536 86.1074C41.9141 84.4074 42.3311 82.6897 42.6873 80.9458C42.5918 79.386 42.4701 77.8261 42.3224 76.275C42.1747 74.7151 42.0531 73.1728 41.9489 71.6217C41.8446 70.0793 41.7925 68.5282 41.7751 66.9771C41.7577 65.426 41.8098 63.8573 41.9228 62.2887L42.0357 61.8593L42.1487 61.4299C42.1574 61.3948 42.2356 61.3335 42.3746 61.2371C42.5223 61.1407 42.6005 61.0618 42.6178 60.9917C42.7482 60.7551 42.835 60.5536 42.8785 60.3958C42.9306 60.203 42.9914 60.0716 43.0609 59.9839C43.1304 59.9051 43.2521 59.8525 43.4258 59.8525C43.5996 59.8437 43.8863 59.8963 44.2946 60.0102C44.6769 60.1154 44.9549 60.2994 45.1374 60.5711C45.3198 60.8428 45.4588 61.1407 45.5544 61.4737C45.65 61.8067 45.7021 62.1573 45.7108 62.5165C45.7195 62.8758 45.7195 63.1913 45.7108 63.463C45.6934 63.6645 45.6847 64.0063 45.6934 64.4795C45.7021 64.9615 45.7108 65.461 45.7282 65.9693C45.7455 66.4863 45.7629 66.9683 45.7803 67.4153C45.7977 67.8622 45.815 68.1777 45.8411 68.3529C45.8498 68.4581 45.8672 68.7385 45.9019 69.1854C45.9367 69.6411 45.9714 70.1231 46.0236 70.6489C46.067 71.1747 46.1104 71.6655 46.1452 72.1124C46.1799 72.5681 46.1973 72.8398 46.206 72.9449C46.2494 73.2954 46.2581 73.6197 46.2321 73.9001C46.206 74.1805 46.2755 74.4785 46.4232 74.794L46.5188 74.8203L46.6143 74.8466L53.6517 65.0754C53.6951 65.0229 53.7907 64.9089 53.921 64.7337C54.0513 64.5672 54.199 64.3919 54.3641 64.2166C54.5292 64.0414 54.6856 63.8573 54.8333 63.6821C54.981 63.498 55.1026 63.3666 55.1895 63.2877C55.2329 63.2614 55.2937 63.2176 55.3719 63.1563C55.4588 63.0949 55.537 63.0511 55.6065 63.0424L56.2668 63.2176C56.901 63.3841 57.3441 63.8223 57.5961 64.5234C57.848 65.2244 57.8915 65.8904 57.7264 66.5302C57.7177 66.5652 57.7003 66.6266 57.6742 66.7229C57.6569 66.7843 57.6308 66.8281 57.5874 66.8544C55.7368 69.3958 53.8949 71.9722 52.0531 74.6012C50.2112 77.2302 48.6387 79.9994 47.3268 82.9176C47.292 83.049 47.2051 83.3295 47.0574 83.7676C46.9097 84.2058 46.7447 84.679 46.5535 85.1961C46.3624 85.7131 46.1886 86.2126 46.0236 86.7121C45.8585 87.2116 45.7455 87.5884 45.676 87.8426L44.3815 92.7588L43.1999 97.2456C43.1391 97.4647 43.0696 97.8503 42.974 98.3849C42.8872 98.9194 42.7829 99.489 42.6787 100.094C42.5744 100.698 42.4788 101.268 42.4006 101.811C42.3224 102.355 42.279 102.723 42.2616 102.924C42.2008 103.284 42.0444 103.582 41.8012 103.818C41.5492 104.055 41.2799 104.239 40.9758 104.361C40.7933 104.283 40.5935 104.186 40.3676 104.072C40.1417 103.958 39.9332 103.836 39.7334 103.695C39.5336 103.555 39.3598 103.397 39.2034 103.222C39.047 103.047 38.9689 102.819 38.9775 102.547C38.9428 102.67 38.8646 102.714 38.7343 102.679Z" fill="white"/>
<path d="M51.2281 96.4133C51.3497 95.1864 51.5756 93.9508 51.897 92.7064C52.0708 92.0404 52.3054 91.3481 52.5921 90.647C52.8788 89.9372 53.0786 89.2449 53.1916 88.5613L55.7198 82.2342L55.7545 82.094L58.5955 74.7766C58.6737 74.2158 58.8649 73.6987 59.1603 73.2168C59.4557 72.7348 59.7076 72.2265 59.9161 71.7095C59.9943 71.5254 60.2463 71.0522 60.672 70.2723C61.0977 69.5011 61.5929 68.6949 62.1663 67.8624C62.7397 67.0299 63.3132 66.285 63.8953 65.6365C64.4687 64.988 64.9378 64.6813 65.3027 64.7076C65.7111 64.3044 66.0586 63.9977 66.3366 63.7787C66.6146 63.5596 66.8839 63.4106 67.1359 63.3317C67.3965 63.2441 67.6833 63.2353 68.0134 63.2879C68.3349 63.3405 68.7693 63.4369 69.3079 63.5859C69.5251 63.6472 69.7336 63.7611 69.9248 63.9276C70.1159 64.1029 70.2897 64.2081 70.4461 64.2431C70.4808 64.2519 70.5416 64.2431 70.6285 64.2168C70.7154 64.1905 70.7849 64.1818 70.811 64.1905L71.3322 64.3307C71.8709 64.471 72.3401 64.7601 72.7484 65.1983C73.1567 65.6365 73.5043 66.1448 73.791 66.7319C74.0777 67.319 74.2775 67.9237 74.4078 68.5371C74.5294 69.1506 74.5816 69.7114 74.5468 70.2109C74.5208 72.244 74.4599 74.3209 74.3817 76.4329C74.3036 78.5449 73.9908 80.5955 73.4695 82.6023C72.9656 84.5127 72.4009 86.4231 71.784 88.3335C71.1585 90.2439 70.4808 92.1105 69.7336 93.9157C69.2384 95.1514 68.6129 96.5272 67.857 98.0608C67.1011 99.5944 66.1976 100.997 65.155 102.267C64.1125 103.538 62.9135 104.519 61.5669 105.22C60.2202 105.913 58.7259 106.044 57.0838 105.606C56.354 105.413 55.7285 105.15 55.1898 104.817C54.6512 104.484 54.1733 104.099 53.7476 103.661C53.3219 103.222 52.9309 102.714 52.5834 102.118C52.2272 101.531 51.897 100.883 51.5756 100.182C51.2194 98.9021 51.1064 97.6489 51.2281 96.4133ZM55.8414 96.9128C55.7458 97.4824 55.7111 98.0433 55.7545 98.6041C55.7893 99.1562 55.9196 99.6645 56.1455 100.111C56.3627 100.558 56.7624 100.865 57.3271 101.014C58.0221 101.198 58.7085 101.128 59.3861 100.795C60.0638 100.462 60.7154 99.98 61.341 99.349C61.9665 98.7181 62.5486 97.9732 63.0873 97.1319C63.6259 96.2906 64.1211 95.4406 64.5642 94.5905C65.0073 93.7405 65.3896 92.9255 65.7111 92.1631C66.0325 91.4007 66.2671 90.7785 66.4235 90.314C66.5277 90.0336 66.7015 89.5341 66.9448 88.8155C67.188 88.0969 67.4313 87.3345 67.7006 86.537C67.9613 85.7396 68.2132 84.9684 68.4565 84.2323C68.6998 83.4961 68.8735 82.9879 68.9865 82.7162C69.221 81.4455 69.4469 80.2712 69.6641 79.1934C69.8813 78.1067 70.0551 76.8886 70.1767 75.5215C70.2115 75.1184 70.2462 74.5838 70.2723 73.9091C70.2984 73.2343 70.3244 72.5683 70.3418 71.911C70.3592 71.2538 70.3766 70.6666 70.3766 70.1584C70.3766 69.6501 70.3679 69.3521 70.3505 69.282L70.2984 68.914C70.1159 68.8351 69.9943 68.7825 69.9335 68.765C68.9865 68.5109 68.135 68.7124 67.3705 69.3609C66.6059 70.0094 65.9283 70.8331 65.3288 71.8322C64.7293 72.8312 64.2167 73.8652 63.8084 74.9256C63.3913 75.986 63.096 76.801 62.9135 77.3706C62.6876 77.9577 62.453 78.5449 62.2011 79.1232C61.9491 79.7016 61.7493 80.3151 61.619 80.9635C60.6112 83.3822 59.612 85.7746 58.639 88.1407C57.6659 90.5068 56.8406 92.943 56.1803 95.4581C56.0412 95.8524 55.937 96.3432 55.8414 96.9128Z" fill="white"/>
<path d="M79.2121 67.2577C79.7334 66.8896 80.2634 66.7757 80.7933 66.9159C81.08 66.9948 81.3146 67.1613 81.4971 67.433C81.6795 67.7046 81.8272 68.0113 81.9401 68.3443C82.0531 68.6774 82.1313 69.0191 82.1834 69.3521C82.2269 69.6851 82.2616 69.9568 82.2703 70.1671C81.8011 72.5946 81.3233 75.0395 80.8455 77.502C80.3676 79.9645 79.8463 82.4007 79.2816 84.8019C79.2382 84.9596 79.1426 85.3452 78.9775 85.9499C78.8298 86.5195 78.6561 87.1592 78.4736 87.8603C78.2998 88.5263 78.1261 89.166 77.9697 89.7707C77.822 90.3403 77.7264 90.7084 77.683 90.8661C77.6048 91.2868 77.4571 92.0316 77.2486 93.1008C77.0314 94.1699 76.8229 95.3004 76.6057 96.5097C76.3885 97.7103 76.1887 98.8407 75.9888 99.9011C75.7977 100.961 75.6761 101.698 75.6326 102.127C75.6066 102.223 75.5805 102.416 75.5631 102.697C75.537 102.977 75.5197 103.275 75.511 103.573C75.5023 103.88 75.4849 104.16 75.4589 104.432C75.4415 104.703 75.4154 104.879 75.3893 104.975C75.372 105.553 75.4067 106.097 75.4936 106.614C75.5805 107.131 75.9367 107.473 76.5622 107.639C76.9706 107.753 77.3876 107.727 77.7959 107.56C78.213 107.403 78.5866 107.157 78.9254 106.842C79.2642 106.526 79.5683 106.167 79.8376 105.781C80.107 105.396 80.3242 105.036 80.4806 104.703C80.5066 104.607 80.5674 104.432 80.6717 104.169C80.7759 103.906 80.8889 103.626 81.0192 103.319C81.1495 103.012 81.2625 102.732 81.3667 102.469C81.471 102.206 81.5318 102.031 81.5579 101.934L83.0262 96.3432C83.8776 93.092 84.5813 89.8496 85.1374 86.6071C85.6847 83.3647 86.3884 80.131 87.2312 76.9149L88.2911 72.9013C88.5605 72.5332 88.8732 72.2353 89.2381 72.0074C89.603 71.7796 90.0027 71.727 90.4458 71.8497C91.1061 72.0249 91.5926 72.4368 91.8967 73.0853C92.2007 73.725 92.3484 74.3911 92.3398 75.0658C91.8358 76.7396 91.4101 78.4309 91.08 80.1486C90.7498 81.8662 90.4284 83.575 90.133 85.2926C89.8376 87.0015 89.5248 88.7103 89.2121 90.4192C88.8993 92.128 88.517 93.8194 88.0739 95.5107C88.0565 95.572 88.0305 95.6684 87.9957 95.7999C87.9697 95.8963 87.9436 95.9401 87.9088 95.9313C87.8828 96.0277 87.8133 96.2468 87.709 96.5973C87.5961 96.9479 87.4831 97.3159 87.3615 97.7103C87.2399 98.1046 87.1269 98.4639 87.0227 98.7969C86.9184 99.1299 86.8576 99.3403 86.8315 99.4366L86.7794 99.6294C86.6404 100.033 86.4666 100.558 86.2668 101.207C86.067 101.855 85.8585 102.486 85.6586 103.117C85.4588 103.748 85.2764 104.3 85.12 104.791C84.9549 105.273 84.8767 105.536 84.868 105.562C84.3381 107.061 83.5735 108.296 82.5657 109.295C81.5579 110.286 80.3589 111.144 78.9515 111.854C78.4562 111.924 77.9697 111.942 77.4745 111.889C76.9793 111.846 76.4927 111.758 76.0236 111.626C75.5544 111.504 75.0679 111.302 74.5814 111.039C74.0948 110.768 73.6257 110.452 73.1913 110.075C72.7482 109.699 72.3485 109.287 72.001 108.831C71.6448 108.375 71.3755 107.92 71.193 107.464C70.9584 106.824 70.8281 106.088 70.8107 105.264C70.7934 104.441 70.8281 103.608 70.915 102.758C71.0019 101.908 71.1235 101.084 71.2886 100.278C71.4537 99.4717 71.6014 98.7443 71.7317 98.0959C72.3485 94.7132 73.061 91.3831 73.8603 88.0794C74.6596 84.7844 75.4675 81.4718 76.2755 78.1418C76.6317 76.5293 76.9445 74.9256 77.2138 73.3307C77.4832 71.7358 77.822 70.1496 78.2303 68.5897C78.3607 68.0639 78.6908 67.6258 79.2121 67.2577Z" fill="white"/>
<path d="M111.766 105.781C111.879 105.369 112.096 104.633 112.418 103.581C112.748 102.53 113.096 101.408 113.478 100.234C113.851 99.0594 114.208 97.9377 114.538 96.8861C114.868 95.8345 115.102 95.1072 115.241 94.6953C115.346 94.4149 115.563 93.9153 115.893 93.1792C116.223 92.4519 116.562 91.6895 116.927 90.9008C117.283 90.1121 117.631 89.3584 117.952 88.6486C118.274 87.9388 118.508 87.4393 118.647 87.1764C119.029 86.3614 119.62 85.3448 120.411 84.1442C121.201 82.9437 122.105 81.8132 123.13 80.7528C124.155 79.7012 125.233 78.8512 126.38 78.2202C127.526 77.5893 128.665 77.4228 129.803 77.7295C131.002 78.0537 131.966 78.7197 132.696 79.7275C133.426 80.7441 133.964 81.8044 134.312 82.9174C134.355 82.9962 134.433 83.1978 134.538 83.5133C134.642 83.8288 134.694 84.0215 134.711 84.1004C134.746 84.1092 134.755 84.1267 134.746 84.1618C134.598 84.7314 134.355 85.2046 134.016 85.5814C133.686 85.9495 133.217 86.0546 132.618 85.8969C132.27 85.8005 131.975 85.634 131.74 85.3799C131.506 85.1257 131.297 84.8365 131.132 84.5035C130.967 84.1705 130.802 83.8288 130.645 83.4782C130.489 83.1277 130.324 82.8122 130.159 82.5318C130.124 82.523 130.046 82.4967 129.924 82.4442C129.803 82.3916 129.724 82.3653 129.69 82.3565C129.09 82.1988 128.534 82.2338 128.039 82.4792C127.535 82.7158 127.066 83.0401 126.623 83.4256C126.18 83.82 125.754 84.2406 125.354 84.6963C124.946 85.152 124.538 85.5113 124.129 85.7742C124.069 85.8969 123.947 86.0897 123.773 86.3701C123.599 86.6505 123.408 86.9397 123.217 87.2465C123.017 87.5532 122.835 87.8336 122.661 88.0965C122.487 88.3594 122.374 88.5522 122.305 88.6661C122.235 88.8151 122.105 89.0692 121.923 89.4373C121.74 89.7966 121.627 90.0244 121.566 90.1121L118.413 98.0604C118.022 99.7955 117.561 101.504 117.04 103.187C116.51 104.87 116.023 106.57 115.572 108.287C115.459 108.699 115.346 109.146 115.215 109.628C115.094 110.075 115.033 110.504 115.024 110.934C115.016 111.354 115.111 111.731 115.311 112.055C115.511 112.38 115.884 112.616 116.414 112.765C116.918 112.897 117.431 112.949 117.943 112.923C118.456 112.888 118.969 112.844 119.481 112.774C119.994 112.704 120.489 112.651 120.993 112.616C121.488 112.581 121.992 112.625 122.496 112.765C123.191 112.949 123.617 113.379 123.782 114.053C123.938 114.728 123.956 115.386 123.817 116.034C123.608 116.183 123.434 116.349 123.278 116.534C123.13 116.718 122.939 116.858 122.705 116.972C122.201 117.208 121.645 117.375 121.028 117.471C120.411 117.559 119.785 117.603 119.151 117.585C118.517 117.568 117.874 117.506 117.248 117.41C116.614 117.305 116.049 117.191 115.546 117.051C114.347 116.726 113.408 116.218 112.731 115.508C112.053 114.798 111.575 113.992 111.288 113.081C111.002 112.169 110.889 111.188 110.95 110.128C111.01 109.067 111.175 108.033 111.445 107.017L111.766 105.781Z" fill="white"/>
<path d="M131.028 121.573C131.167 121.029 131.401 120.556 131.731 120.153C132.061 119.75 132.366 119.312 132.661 118.839C132.843 118.549 133.061 118.155 133.321 117.664C133.582 117.174 133.851 116.692 134.112 116.21C134.372 115.736 134.685 115.132 135.041 114.413L135.076 114.273C135.311 113.896 135.693 113.221 136.214 112.249C136.736 111.285 137.3 110.259 137.882 109.173C138.473 108.086 139.021 107.061 139.533 106.088C140.046 105.115 140.402 104.44 140.602 104.046C140.689 103.836 140.923 103.292 141.306 102.416C141.688 101.549 142.096 100.611 142.531 99.6031C142.965 98.5953 143.382 97.6664 143.773 96.8163C144.164 95.9663 144.425 95.4405 144.546 95.2302C144.633 95.0199 144.789 94.6956 144.998 94.275C145.206 93.8543 145.424 93.4425 145.65 93.0481C145.875 92.645 146.075 92.2945 146.258 91.9877C146.44 91.681 146.553 91.497 146.605 91.4444L146.883 91.164C147.422 90.3841 147.874 89.7268 148.221 89.166C148.569 88.6139 148.925 88.053 149.272 87.4834C149.629 86.9138 149.915 86.4581 150.141 86.1076C150.524 85.5642 150.854 85.2137 151.123 85.0647C151.401 84.9157 151.844 84.8281 152.461 84.7843C152.522 84.8018 152.739 84.7668 153.095 84.6704C153.46 84.5827 153.686 84.5477 153.782 84.574L153.921 84.609C154.52 84.7668 154.972 85.0297 155.267 85.3802C155.563 85.7307 155.754 86.1338 155.841 86.5808C155.928 87.0277 155.928 87.5097 155.841 88.0092C155.762 88.5175 155.658 89.0082 155.528 89.4814C155.337 90.2176 155.128 90.98 154.902 91.7687C154.676 92.5574 154.425 93.311 154.129 94.0208C154.112 94.0822 154.06 94.2136 153.973 94.4152C153.886 94.6167 153.79 94.8358 153.669 95.0724C153.556 95.3178 153.451 95.5369 153.365 95.7297C153.278 95.9312 153.226 96.0627 153.208 96.124L153.199 96.1679C152.617 98.3674 152.14 100.55 151.757 102.705C151.375 104.87 151.062 107.061 150.81 109.278C150.784 109.506 150.758 109.804 150.732 110.154C150.706 110.505 150.689 110.82 150.689 111.092C150.697 111.434 150.767 111.723 150.897 111.942C151.027 112.161 151.036 112.468 150.941 112.844C150.845 113.195 150.663 113.432 150.393 113.572C150.124 113.703 149.941 113.949 149.846 114.299L149.724 114.772C149.646 115.193 149.533 115.824 149.385 116.648C149.238 117.48 149.073 118.322 148.899 119.172C148.725 120.03 148.56 120.802 148.412 121.494C148.265 122.186 148.169 122.616 148.126 122.773C148.108 122.835 148.082 123.01 148.039 123.29C147.995 123.571 147.961 123.869 147.935 124.184C147.9 124.5 147.865 124.789 147.83 125.052C147.796 125.315 147.769 125.481 147.752 125.543C147.778 125.586 147.761 125.7 147.709 125.893L147.622 126.226C147.526 126.577 147.309 126.945 146.953 127.321C146.597 127.707 146.197 127.839 145.763 127.716C145.511 127.646 145.215 127.444 144.885 127.094C144.555 126.752 144.338 126.463 144.225 126.226C144.12 125.989 143.903 125.455 143.582 124.622L145.067 114.948L144.928 114.702L144.833 114.676L144.737 114.65C144.668 114.667 144.538 114.694 144.364 114.729C144.181 114.764 144.06 114.79 143.99 114.807C143.981 114.843 143.921 114.886 143.799 114.956C143.617 115.009 143.382 115.088 143.104 115.184C142.826 115.281 142.548 115.368 142.279 115.447C142.001 115.526 141.67 115.614 141.271 115.71L140.133 115.403C140.098 115.289 140.002 115.184 139.863 115.079C139.724 114.974 139.62 114.913 139.559 114.895C139.403 114.851 139.186 115.07 138.908 115.535C138.63 116.008 138.317 116.613 137.969 117.358C137.622 118.102 137.24 118.891 136.831 119.741C136.423 120.582 135.971 121.362 135.485 122.063C134.998 122.765 134.485 123.325 133.955 123.729C133.425 124.132 132.895 124.263 132.357 124.123C132.14 124.062 131.931 123.93 131.749 123.729C131.566 123.527 131.41 123.299 131.271 123.036C131.132 122.782 131.045 122.519 131.001 122.248C130.975 121.993 130.975 121.766 131.028 121.573ZM142.991 107.911C142.591 108.419 142.244 108.98 141.966 109.602C141.679 110.224 141.462 110.838 141.306 111.442C141.688 111.547 142.122 111.53 142.635 111.416C143.139 111.293 143.573 111.179 143.938 111.074C144.042 111.066 144.181 111.039 144.364 110.987C144.546 110.934 144.737 110.873 144.946 110.811C145.146 110.75 145.337 110.689 145.502 110.627C145.667 110.566 145.789 110.531 145.858 110.522C145.902 110.496 145.945 110.373 146.006 110.154L146.11 109.769C146.405 108.656 146.623 107.543 146.762 106.438C146.901 105.334 147.083 104.23 147.3 103.135C147.378 102.846 147.5 102.32 147.665 101.549C147.839 100.777 148.013 99.9536 148.186 99.0773C148.369 98.2009 148.543 97.386 148.708 96.606C148.873 95.8348 149.003 95.3003 149.073 95.0199C148.847 95.0987 148.699 95.2302 148.612 95.4054C148.551 95.4931 148.473 95.6333 148.378 95.8261C148.273 96.0189 148.16 96.2292 148.039 96.4483C147.908 96.6674 147.796 96.8777 147.7 97.0705C147.596 97.2633 147.535 97.3947 147.517 97.4561C147.509 97.4911 147.474 97.5963 147.405 97.7803C147.335 97.9643 147.257 98.1834 147.161 98.4288C147.066 98.6742 146.953 98.9195 146.84 99.1649C146.727 99.4103 146.631 99.5855 146.571 99.7082L146.518 99.901L142.991 107.911Z" fill="white"/>
<path d="M153.182 125.595C153.443 124.867 153.668 124.114 153.877 123.351C154.424 121.283 154.85 119.215 155.154 117.147C155.458 115.079 155.701 113.002 155.884 110.899L156.023 110.373C156.119 109.102 156.249 107.858 156.423 106.649C156.588 105.43 156.866 104.212 157.257 102.985C157.187 102.863 157.17 102.74 157.205 102.609C157.326 101.005 157.613 99.4626 158.065 97.9816C158.525 96.5006 158.916 94.9933 159.264 93.4422C159.29 93.3458 159.333 93.1004 159.403 92.7148C159.472 92.3205 159.542 91.8998 159.611 91.4441C159.681 90.9884 159.75 90.5415 159.828 90.1209C159.907 89.7002 159.976 89.376 160.028 89.1569C160.011 89.0868 160.019 88.9028 160.046 88.6223C160.072 88.3419 160.089 88.1667 160.106 88.1053L160.185 87.8161C160.219 87.6934 160.28 87.5707 160.384 87.4568C160.48 87.3429 160.61 87.3078 160.767 87.3517C160.888 87.3867 160.993 87.4393 161.079 87.5094C161.158 87.5795 161.279 87.6408 161.436 87.6847C161.444 87.6496 161.462 87.6058 161.496 87.5445C161.531 87.4831 161.549 87.4393 161.557 87.4042C161.531 87.3604 161.514 87.2991 161.479 87.2027C161.453 87.1151 161.444 87.0449 161.453 87.0187C161.575 86.9486 161.653 86.9135 161.679 86.9223L161.74 86.8872C161.861 86.9223 161.931 86.9924 161.94 87.0975C161.948 87.2027 161.957 87.3254 161.966 87.4656C161.983 87.6058 162.018 87.746 162.087 87.8775C162.148 88.0177 162.304 88.1316 162.548 88.228C162.582 88.2368 162.678 88.228 162.834 88.2017C162.991 88.1754 163.086 88.1667 163.121 88.1754L163.547 88.2893C163.608 88.3069 163.712 88.3244 163.86 88.3507C164.007 88.377 164.077 88.4646 164.059 88.6311C164.224 89.7966 164.433 91.0848 164.694 92.4782C164.954 93.8803 165.241 95.1773 165.562 96.3954L168.178 114.176C168.195 114.246 168.238 114.474 168.325 114.86C168.412 115.237 168.499 115.675 168.595 116.157C168.69 116.639 168.777 117.129 168.873 117.611C168.968 118.093 169.046 118.47 169.116 118.724C169.133 118.794 169.159 118.9 169.211 119.031C169.264 119.163 169.307 119.268 169.359 119.355C169.515 119.022 169.663 118.698 169.794 118.374C169.933 118.05 170.072 117.725 170.228 117.392C170.384 116.788 170.68 115.745 171.105 114.255C171.531 112.765 171.992 111.179 172.487 109.488C172.982 107.797 173.443 106.21 173.868 104.721C174.294 103.231 174.589 102.188 174.746 101.583L174.998 100.628C175.345 99.3224 175.649 98.0254 175.919 96.7372C176.188 95.449 176.501 94.152 176.84 92.8463L177.083 91.9349C177.187 91.7947 177.361 91.6194 177.604 91.4091C177.847 91.1988 178.065 91.1199 178.247 91.1725C178.56 91.2601 178.768 91.4178 178.855 91.6457C178.951 91.8735 178.959 92.1189 178.89 92.3731C178.985 92.3993 179.194 92.3906 179.533 92.338C179.863 92.2942 180.054 92.189 180.098 92.0313C180.115 92.2065 180.245 92.3906 180.489 92.5658C180.723 92.7499 180.897 92.9602 181.01 93.188C181.201 93.6174 181.253 94.0206 181.175 94.4061C181.088 94.7917 181.001 95.2124 180.914 95.6681C180.888 95.7645 180.836 95.9835 180.767 96.3166C180.697 96.6583 180.61 97.0264 180.523 97.4295C180.436 97.8326 180.35 98.2094 180.271 98.5687C180.193 98.928 180.141 99.1471 180.115 99.2435C180.141 99.2873 180.132 99.3837 180.089 99.5415C180.045 99.6992 180.019 99.8131 180.002 99.8745C179.802 100.637 179.542 101.426 179.229 102.223C178.916 103.029 178.629 103.783 178.377 104.501C177.309 107.928 176.301 111.354 175.371 114.763C174.442 118.181 173.512 121.616 172.6 125.087C172.296 126.235 172.061 127.391 171.887 128.548C171.714 129.714 171.488 130.853 171.192 131.966C171.071 132.439 170.81 132.816 170.419 133.087C170.028 133.359 169.559 133.42 169.029 133.28C168.933 133.254 168.786 133.193 168.577 133.079C168.369 132.974 168.151 132.842 167.917 132.693C167.682 132.544 167.474 132.378 167.291 132.194C167.1 132.01 166.996 131.826 166.979 131.65L164.459 116.963C164.511 116.498 164.494 115.938 164.398 115.28C164.303 114.623 164.181 113.957 164.033 113.291C163.886 112.625 163.729 111.959 163.547 111.293C163.364 110.627 163.243 110.049 163.165 109.558C163.173 109.523 163.173 109.444 163.156 109.304C163.138 109.164 163.138 109.076 163.147 109.05C163.121 108.909 163.052 108.576 162.956 108.051C162.86 107.534 162.756 106.973 162.661 106.386C162.565 105.798 162.461 105.246 162.365 104.721C162.27 104.204 162.209 103.888 162.209 103.783C162.139 103.283 162.087 102.854 162.07 102.495C162.044 102.127 161.957 101.741 161.792 101.32L161.566 101.417C161.479 102.144 161.34 103.064 161.149 104.168C160.958 105.273 160.723 106.237 160.445 107.043L159.403 115.245C159.368 115.237 159.35 115.263 159.333 115.324C159.324 115.359 159.333 115.377 159.368 115.386C159.35 115.447 159.333 115.596 159.298 115.824C159.272 116.052 159.264 116.209 159.281 116.279C159.211 116.674 159.072 117.34 158.881 118.295C158.681 119.25 158.464 120.258 158.238 121.318C158.013 122.379 157.795 123.378 157.604 124.315C157.404 125.253 157.274 125.91 157.205 126.305L157.178 126.401L157.152 126.497C157.135 126.559 157.074 126.717 156.979 126.962C156.883 127.207 156.779 127.479 156.683 127.777C156.588 128.075 156.492 128.355 156.405 128.627C156.318 128.89 156.266 129.056 156.249 129.126C156.11 129.53 155.91 129.95 155.641 130.371C155.38 130.791 154.963 130.932 154.39 130.774C153.564 130.555 152.991 130.231 152.643 129.792C152.304 129.363 152.252 128.68 152.496 127.759C152.695 127.058 152.921 126.322 153.182 125.595ZM178.056 91.9436C178.038 92.005 178.065 92.0488 178.125 92.0663C178.264 92.04 178.282 91.9699 178.178 91.8735C178.117 91.856 178.073 91.8823 178.056 91.9436Z" fill="white"/>
<path d="M170.55 141.062C172.331 138.521 174.954 133.754 176.397 130.406L181.166 131.169C179.012 134.937 175.528 139.678 173.616 141.571L170.55 141.062Z" fill="white"/>
<path d="M195.328 126.559C195.528 125.876 195.728 125.332 195.945 124.912L201.036 113.651C201.201 113.283 201.41 112.889 201.679 112.468C201.94 112.047 202.192 111.609 202.426 111.162C202.661 110.715 202.878 110.268 203.078 109.83C203.278 109.392 203.399 108.971 203.434 108.568C203.825 107.858 204.312 107.043 204.885 106.141C205.458 105.238 206.084 104.362 206.77 103.503C207.448 102.644 208.186 101.873 208.977 101.181C209.768 100.488 210.584 99.9977 211.444 99.7173C211.557 99.6822 211.653 99.5946 211.74 99.4631C211.827 99.3317 211.914 99.2791 212.009 99.3054C212.044 99.3142 212.07 99.3405 212.096 99.3755C212.148 99.4281 212.218 99.5157 212.296 99.6559C212.374 99.7961 212.426 99.9013 212.444 99.9714C212.513 99.8224 212.678 99.6735 212.939 99.542C213.191 99.4018 213.382 99.358 213.512 99.3843L215.363 99.875C215.615 100.217 215.997 100.48 216.518 100.672C217.04 100.865 217.448 101.172 217.743 101.593C218.438 102.53 218.934 103.626 219.212 104.879C219.49 106.132 219.481 107.324 219.177 108.472C219.099 108.761 218.96 109.059 218.76 109.383C218.56 109.707 218.265 109.813 217.891 109.716C216.944 109.462 216.379 109.024 216.214 108.393C216.04 107.771 215.98 107.105 216.032 106.404C216.084 105.703 216.084 105.054 216.032 104.458C215.988 103.862 215.597 103.477 214.876 103.275C214.338 103.135 213.808 103.17 213.278 103.38C212.748 103.599 212.252 103.897 211.801 104.292C211.34 104.677 210.923 105.115 210.55 105.589C210.167 106.071 209.846 106.509 209.568 106.912C209.464 107.052 209.333 107.254 209.186 107.499C209.038 107.744 208.881 107.999 208.708 108.244C208.543 108.489 208.404 108.708 208.282 108.901C208.16 109.094 208.1 109.199 208.091 109.234L204.485 116.753C204.451 117.253 204.329 117.726 204.112 118.164C203.895 118.602 203.651 119.032 203.391 119.452C203.13 119.873 202.878 120.294 202.652 120.714C202.426 121.135 202.279 121.582 202.218 122.081C202.087 122.318 201.896 122.765 201.644 123.413C201.392 124.062 201.114 124.745 200.828 125.473C200.532 126.2 200.272 126.884 200.028 127.532C199.785 128.181 199.62 128.636 199.524 128.882L199.133 130.363L198.682 132.08C198.63 132.273 198.586 132.615 198.534 133.114C198.491 133.614 198.465 134.131 198.456 134.674C198.447 135.218 198.499 135.708 198.604 136.146C198.708 136.585 198.899 136.839 199.186 136.918C199.976 137.128 200.715 137.119 201.392 136.9C202.079 136.672 202.696 136.322 203.243 135.84C203.79 135.358 204.259 134.771 204.642 134.096C205.024 133.412 205.311 132.72 205.493 132.019L205.736 131.108C205.736 130.731 205.632 130.459 205.424 130.284C205.215 130.109 205.015 129.942 204.815 129.793C204.616 129.635 204.459 129.442 204.338 129.206C204.216 128.969 204.225 128.584 204.364 128.04L204.537 127.374C204.772 127.129 205.198 126.998 205.806 126.971C206.423 126.945 207.083 126.98 207.804 127.076C208.525 127.164 209.229 127.287 209.915 127.436C210.602 127.585 211.132 127.707 211.514 127.813C211.861 127.909 212.079 128.023 212.183 128.172C212.279 128.321 212.357 128.452 212.4 128.592C212.452 128.724 212.504 128.864 212.574 128.996C212.635 129.136 212.8 129.232 213.052 129.302L213.147 129.329C213.182 129.337 213.243 129.32 213.338 129.276C213.434 129.232 213.495 129.215 213.53 129.223L213.625 129.451L214.146 129.591L214.729 130.669C214.763 130.678 214.729 130.783 214.65 130.976C214.563 131.178 214.468 131.327 214.372 131.441C214.086 131.879 213.695 132.107 213.208 132.124C212.713 132.142 212.226 132.107 211.74 132.01C211.253 131.914 210.828 131.835 210.437 131.765C210.046 131.695 209.82 131.8 209.742 132.089C209.646 132.44 209.585 132.799 209.559 133.167C209.533 133.535 209.464 133.912 209.368 134.289C208.864 136.199 207.987 137.75 206.744 138.951C205.502 140.151 203.921 140.922 202.009 141.264C201.896 141.168 201.688 141.168 201.375 141.273C201.062 141.378 200.836 141.431 200.697 141.422C200.254 141.439 199.907 141.413 199.655 141.343C199.403 141.273 199.055 141.185 198.612 141.063C197.222 140.695 196.197 140.029 195.537 139.065C194.876 138.101 194.442 137.014 194.242 135.805C194.034 134.595 194.016 133.325 194.181 132.001C194.346 130.678 194.564 129.478 194.85 128.4C194.963 127.848 195.128 127.234 195.328 126.559Z" fill="white"/>
<path d="M213.773 145.146C213.364 144.778 212.999 144.366 212.678 143.91C212.756 143.726 212.799 143.604 212.799 143.534C212.799 143.463 212.773 143.402 212.721 143.332C212.669 143.271 212.626 143.201 212.591 143.148C212.556 143.087 212.556 142.981 212.6 142.815C212.704 142.429 212.895 142.193 213.199 142.079C213.495 141.974 213.833 141.921 214.198 141.939C214.563 141.956 214.928 142.009 215.267 142.096C215.614 142.193 215.901 142.263 216.118 142.324C216.153 142.333 216.249 142.394 216.405 142.499C216.561 142.613 216.674 142.675 216.735 142.692C216.866 142.727 216.978 142.683 217.074 142.552C217.178 142.429 217.256 142.272 217.326 142.079C217.395 141.895 217.456 141.702 217.526 141.518C217.587 141.334 217.639 141.194 217.665 141.097C217.717 141.01 217.795 140.843 217.899 140.598C217.995 140.352 218.099 140.107 218.195 139.862C218.29 139.616 218.386 139.38 218.481 139.143C218.577 138.915 218.629 138.766 218.647 138.705C218.699 138.652 218.733 138.573 218.76 138.477C218.794 138.354 218.803 138.249 218.786 138.179C218.933 137.881 219.159 137.355 219.481 136.602C219.793 135.848 220.132 135.059 220.48 134.236C220.827 133.412 221.166 132.623 221.479 131.87C221.792 131.116 222.009 130.59 222.13 130.275C222.148 130.213 222.191 130.064 222.278 129.828C222.356 129.591 222.452 129.337 222.556 129.056C222.66 128.776 222.756 128.513 222.843 128.268C222.93 128.014 222.973 127.865 222.991 127.795C223.008 127.733 223.051 127.628 223.13 127.47C223.199 127.321 223.26 127.216 223.312 127.164L226.518 119.022C226.761 117.831 227.109 116.665 227.561 115.543C228.012 114.422 228.395 113.256 228.707 112.038C228.751 111.88 228.82 111.556 228.907 111.074C229.003 110.592 229.064 110.084 229.098 109.567C229.133 109.05 229.116 108.568 229.046 108.121C228.977 107.674 228.803 107.42 228.516 107.341C228.386 107.306 228.264 107.323 228.143 107.394C228.082 107.376 227.899 107.341 227.613 107.28C227.326 107.218 227.135 107.174 227.039 107.148C226.692 107.052 226.336 106.92 225.979 106.736C225.623 106.552 225.31 106.333 225.041 106.079C224.772 105.816 224.563 105.509 224.424 105.15C224.285 104.791 224.268 104.388 224.389 103.941C224.45 103.722 224.546 103.564 224.685 103.485C224.824 103.406 224.98 103.354 225.154 103.327C225.328 103.31 225.501 103.292 225.675 103.284C225.849 103.275 225.979 103.205 226.084 103.064C226.831 103.161 227.595 103.31 228.377 103.503C229.15 103.695 229.898 103.906 230.619 104.125C230.992 103.985 231.435 103.985 231.939 104.116C232.096 104.16 232.183 104.212 232.2 104.291C232.217 104.361 232.287 104.414 232.408 104.449C232.695 104.528 233.051 104.528 233.494 104.458C233.938 104.388 234.329 104.396 234.676 104.493C235.119 104.607 235.397 104.747 235.51 104.896C235.623 105.045 235.666 105.194 235.649 105.343C235.623 105.492 235.588 105.623 235.545 105.746C235.493 105.869 235.536 105.948 235.658 105.983C235.71 105.895 235.771 105.86 235.84 105.877C235.936 105.904 236.014 105.921 236.075 105.939C236.483 106.053 236.735 106.272 236.839 106.605C236.935 106.938 236.944 107.28 236.848 107.63C236.726 108.103 236.492 108.401 236.162 108.515C235.823 108.629 235.441 108.664 234.998 108.612C234.554 108.559 234.094 108.471 233.625 108.349C233.182 108.226 232.773 108.173 232.4 108.173L232.374 108.27C232.261 108.682 232.296 109.146 232.469 109.646C232.643 110.154 232.66 110.645 232.539 111.118L229.142 124.009C229.055 124.193 228.933 124.508 228.768 124.955C228.603 125.402 228.421 125.884 228.238 126.401C228.056 126.909 227.873 127.383 227.708 127.821C227.543 128.25 227.422 128.566 227.335 128.741C226.865 130.012 226.362 131.256 225.823 132.474C225.284 133.692 224.737 134.919 224.198 136.155C223.651 137.39 223.138 138.626 222.669 139.862C222.191 141.097 221.783 142.368 221.435 143.674L221.427 143.718C221.47 143.796 221.548 143.893 221.653 144.007C221.757 144.121 221.826 144.182 221.861 144.191L223.851 144.725C223.885 144.734 223.972 144.866 224.12 145.128C224.268 145.391 224.389 145.619 224.476 145.812C224.572 145.97 224.624 146.171 224.65 146.399C224.676 146.627 224.746 146.829 224.876 146.995L224.572 148.143C224.528 148.169 224.468 148.187 224.381 148.196C224.294 148.204 224.233 148.222 224.19 148.248C224.146 148.274 224.077 148.318 223.972 148.397C223.868 148.476 223.799 148.502 223.773 148.494C223.703 148.511 223.512 148.511 223.216 148.494C222.912 148.485 222.678 148.485 222.504 148.511L222.409 148.485L222.365 148.476C222.304 148.458 222.2 148.406 222.052 148.318C221.905 148.231 221.74 148.143 221.566 148.055C221.383 147.977 221.21 147.889 221.044 147.81C220.879 147.731 220.784 147.687 220.749 147.679L220.089 147.503C219.898 147.451 219.576 147.354 219.124 147.223C218.673 147.083 218.177 146.925 217.647 146.75C217.117 146.574 216.622 146.417 216.153 146.276C215.684 146.136 215.354 146.04 215.163 145.987C214.65 145.794 214.181 145.514 213.773 145.146Z" fill="white"/>
<path d="M229.246 148.345C229.29 148.187 229.35 147.889 229.429 147.451C229.507 147.013 229.611 146.548 229.724 146.049C229.837 145.549 229.932 145.085 230.019 144.647C230.098 144.208 230.158 143.91 230.202 143.753C230.297 143.262 230.384 142.929 230.471 142.727C230.558 142.526 230.593 142.193 230.584 141.711L233.338 127.216L233.425 126.883C233.477 126.691 233.581 126.2 233.738 125.411C233.894 124.622 234.077 123.772 234.277 122.87C234.476 121.967 234.667 121.135 234.833 120.363C235.006 119.592 235.111 119.11 235.163 118.917C235.241 118.497 235.38 117.971 235.58 117.34C235.78 116.709 235.858 116.157 235.814 115.666L236.961 111.32C236.97 111.285 237.091 111.188 237.326 111.004C237.561 110.829 237.734 110.706 237.856 110.636C238.099 110.496 238.377 110.329 238.699 110.145C239.02 109.961 239.35 109.795 239.689 109.646C240.028 109.497 240.384 109.392 240.74 109.313C241.097 109.234 241.435 109.243 241.748 109.33C242.287 109.471 242.678 109.611 242.93 109.751C243.182 109.891 243.382 110.023 243.529 110.163C243.677 110.303 243.816 110.47 243.955 110.662C244.094 110.855 244.311 111.092 244.607 111.372L244.746 111.407C245.189 111.661 245.562 112.038 245.866 112.529C246.179 113.02 246.422 113.484 246.622 113.905C247.117 115.097 247.422 116.35 247.534 117.673C247.639 118.996 247.63 120.337 247.491 121.695C247.352 123.054 247.135 124.403 246.831 125.735C246.527 127.067 246.223 128.338 245.901 129.547C245.797 129.933 245.693 130.31 245.571 130.687C245.458 131.063 245.302 131.431 245.102 131.791C244.824 132.194 244.468 132.615 244.033 133.061C243.599 133.508 243.164 133.824 242.739 134.017C242.669 134.034 242.53 134.078 242.322 134.157C242.113 134.236 241.992 134.288 241.948 134.315C241.905 134.341 241.861 134.358 241.809 134.376C241.748 134.393 241.722 134.42 241.713 134.455L241.687 134.551L241.679 134.595C242.087 135.349 242.513 136.129 242.965 136.935C243.408 137.732 243.807 138.556 244.164 139.406C244.581 140.405 244.859 141.571 245.015 142.903C245.171 144.243 245.241 145.619 245.215 147.048C245.197 148.476 245.093 149.861 244.902 151.21C244.72 152.56 244.485 153.76 244.207 154.803C244.033 155.469 243.686 155.864 243.164 155.978C242.643 156.092 242.113 156.083 241.574 155.934C241.262 155.846 240.949 155.662 240.654 155.382C240.358 155.101 240.124 154.777 239.941 154.426C239.767 154.076 239.646 153.699 239.576 153.305C239.507 152.91 239.559 152.551 239.707 152.218L240.636 143.315C240.68 142.885 240.627 142.324 240.471 141.632C240.315 140.94 240.098 140.256 239.819 139.564C239.541 138.88 239.22 138.249 238.846 137.689C238.473 137.128 238.056 136.751 237.595 136.558C237.474 136.497 237.222 136.435 236.831 136.383C236.44 136.33 236.179 136.286 236.058 136.251L235.858 137.014L234.337 146.829C234.311 147.197 234.389 147.565 234.581 147.942C234.772 148.318 234.815 148.818 234.72 149.44L234.694 149.537L234.685 149.58C234.363 150.176 234.129 150.79 233.998 151.421C233.868 152.052 233.694 152.604 233.486 153.077C233.277 153.55 232.965 153.892 232.556 154.102C232.148 154.313 231.496 154.304 230.61 154.067C230.419 154.015 230.184 153.927 229.898 153.796C229.611 153.664 229.35 153.506 229.116 153.305C228.881 153.103 228.69 152.884 228.534 152.639C228.377 152.393 228.343 152.13 228.412 151.841L229.107 148.809L229.246 148.345ZM237.378 131.353C237.665 131.431 238.012 131.379 238.429 131.204C238.846 131.028 239.272 130.792 239.707 130.494C240.141 130.205 240.532 129.872 240.879 129.504C241.227 129.136 241.444 128.794 241.531 128.478C241.557 128.382 241.601 128.207 241.67 127.952C241.74 127.698 241.8 127.427 241.861 127.137C241.922 126.848 241.974 126.577 242.026 126.314C242.078 126.051 242.113 125.876 242.139 125.779L242.278 125.253C242.304 125.157 242.365 124.859 242.461 124.359C242.556 123.86 242.66 123.299 242.773 122.677C242.886 122.064 242.991 121.45 243.104 120.845C243.208 120.241 243.295 119.776 243.347 119.452C243.39 119.154 243.442 118.751 243.512 118.243C243.581 117.734 243.59 117.217 243.538 116.692C243.486 116.166 243.373 115.693 243.182 115.263C242.991 114.834 242.669 114.562 242.235 114.448C241.922 114.361 241.566 114.501 241.192 114.86C240.81 115.219 240.549 115.535 240.41 115.798L239.906 117.708C239.324 119.908 238.786 122.116 238.29 124.333C237.786 126.55 237.396 128.794 237.1 131.072C237.152 131.221 237.248 131.318 237.378 131.353Z" fill="white"/>
<path d="M246.666 150.351C246.892 150.001 247.109 149.633 247.309 149.247C247.621 148.581 247.917 147.898 248.204 147.214C248.49 146.522 248.725 145.829 248.907 145.128C249.35 143.437 249.767 141.737 250.15 140.019C250.532 138.302 250.906 136.584 251.253 134.866C251.27 134.805 251.288 134.63 251.314 134.349C251.34 134.069 251.357 133.894 251.375 133.832C251.618 132.641 251.87 131.51 252.113 130.45C252.356 129.389 252.617 128.355 252.886 127.33C253.156 126.313 253.425 125.297 253.694 124.272C253.972 123.22 254.268 122.09 254.589 120.88L256.31 114.334C256.362 114.281 256.466 114.185 256.64 114.036C256.813 113.896 256.996 113.756 257.204 113.624C257.404 113.493 257.595 113.379 257.769 113.291C257.943 113.204 258.065 113.168 258.125 113.186C258.568 113.309 258.786 113.51 258.777 113.799C258.768 114.089 258.812 114.378 258.899 114.676C258.89 114.711 258.925 114.755 259.011 114.807C259.098 114.869 259.151 114.912 259.177 114.956C259.22 115.035 259.333 115.21 259.498 115.473C259.663 115.736 259.741 115.973 259.724 116.174C259.715 116.341 259.672 116.665 259.594 117.138C259.515 117.611 259.463 117.918 259.429 118.041C259.298 118.549 259.055 119.443 258.699 120.705C258.351 121.976 257.986 123.325 257.604 124.754C257.23 126.182 256.883 127.532 256.561 128.794C256.249 130.055 256.023 130.941 255.884 131.449C255.293 133.815 254.798 136.181 254.398 138.538C253.998 140.904 253.486 143.262 252.86 145.619C252.617 146.539 252.339 147.477 252.026 148.415C251.714 149.352 251.436 150.281 251.192 151.21C251.175 151.271 251.149 151.368 251.114 151.499C251.088 151.596 251.131 151.675 251.253 151.745C252.131 152.121 253.078 152.437 254.094 152.709C255.137 152.989 256.101 153.226 256.996 153.436C257.361 153.602 257.543 153.751 257.561 153.892C257.578 154.032 257.595 154.242 257.621 154.523C257.647 154.663 257.691 154.97 257.743 155.425L257.934 155.478C257.899 155.609 257.839 155.785 257.743 156.012C257.647 156.24 257.526 156.468 257.369 156.678C257.213 156.889 257.048 157.082 256.866 157.231C256.692 157.388 256.509 157.441 256.318 157.388L249.88 155.662C249.402 155.539 248.925 155.355 248.429 155.119C247.934 154.882 247.482 154.593 247.091 154.251C246.692 153.909 246.396 153.506 246.214 153.042C246.032 152.586 246.014 152.069 246.162 151.499C246.266 151.079 246.44 150.702 246.666 150.351Z" fill="white"/>
</svg>
