<svg width="25" height="24" viewBox="0 0 25 24" fill="none" xmlns="http://www.w3.org/2000/svg">
<g id="Chat">
<path id="Vector" d="M21.9731 11.5C21.9766 12.8199 21.6682 14.1219 21.0731 15.3C20.3676 16.7118 19.2829 17.8992 17.9406 18.7293C16.5983 19.5594 15.0514 19.9994 13.4731 20C12.1533 20.0035 10.8513 19.6951 9.67314 19.1L3.97314 21L5.87314 15.3C5.27808 14.1219 4.9697 12.8199 4.97314 11.5C4.97376 9.92179 5.41376 8.37488 6.24386 7.03258C7.07397 5.69028 8.2614 4.6056 9.67314 3.90003C10.8513 3.30496 12.1533 2.99659 13.4731 3.00003H13.9731C16.0575 3.11502 18.0262 3.99479 19.5023 5.47089C20.9784 6.94699 21.8582 8.91568 21.9731 11V11.5Z" stroke="#AFB1B6" stroke-width="2" stroke-linecap="round" stroke-linejoin="round"/>
</g>
</svg>
