<svg width="32" height="31" viewBox="0 0 32 31" fill="none" xmlns="http://www.w3.org/2000/svg">
    <path d="M30.8834 14.4814C30.889 16.5748 30.3794 18.6398 29.3961 20.5084C28.2301 22.7475 26.4376 24.6308 24.2194 25.9474C22.0012 27.264 19.4449 27.9618 16.8368 27.9628C14.6557 27.9683 12.504 27.4792 10.5572 26.5354L1.1377 29.5488L4.27751 20.5084C3.29414 18.6398 2.78455 16.5748 2.79023 14.4814C2.79124 11.9783 3.51836 9.5248 4.89014 7.39585C6.26192 5.2669 8.22419 3.54655 10.5572 2.42749C12.504 1.48368 14.6557 0.994587 16.8368 1.00005H17.6631C21.1075 1.18243 24.3609 2.57778 26.8002 4.91894C29.2395 7.26009 30.6933 10.3825 30.8834 13.6884V14.4814Z" stroke="#AFB1B6" stroke-width="2" stroke-linecap="round" stroke-linejoin="round"/>
</svg>
