<svg width="15" height="32" viewBox="0 0 15 32" fill="none" xmlns="http://www.w3.org/2000/svg">
<g id="Group 250">
<path id="Vector" d="M4.26938 7.9272V28.3292C4.26938 28.6924 3.97776 28.983 3.62061 28.983H1.34336C0.982926 28.983 0.69458 28.6891 0.69458 28.3292V7.9272C0.69458 7.564 0.986203 7.27344 1.34336 7.27344H3.62061C3.97776 7.27344 4.26938 7.5673 4.26938 7.9272Z" fill="#F46B5D"/>
<path id="Vector_2" d="M11.8382 10.5027L14.9674 31.0665C15.0067 31.3141 14.8364 31.5452 14.5906 31.5848L11.9464 31.9943C11.7006 32.0339 11.4713 31.8622 11.4319 31.6146L8.30276 11.0508C8.26344 10.8031 8.43384 10.572 8.67958 10.5324L11.3238 10.123C11.5696 10.0833 11.8022 10.2517 11.8382 10.5027Z" fill="#F1562A"/>
<path id="Vector_3" d="M0.996068 4.43438C0.458701 4.03486 0.137591 3.49996 0.0327395 2.81979C-0.0721124 2.13961 0.0753412 1.52877 0.468536 0.987271C0.796198 0.538222 1.2156 0.241058 1.73331 0.0924754C2.53936 -0.138653 3.43387 0.0693627 4.0466 0.650485C4.44307 1.02689 4.68554 1.50566 4.77401 2.08678C4.86248 2.6679 4.77401 3.1995 4.50533 3.67826C4.09575 4.41457 3.30608 4.88673 2.46727 4.90654C1.93318 4.92305 1.44169 4.76456 0.996068 4.43438Z" fill="#F46B5D"/>
<path id="Vector_4" d="M7.26097 7.4359C6.78914 6.96044 6.55322 6.37932 6.55322 5.69254C6.55322 5.00576 6.78914 4.42463 7.26097 3.94917C7.65089 3.55625 8.1129 3.32513 8.64371 3.25909C9.47597 3.15343 10.3279 3.49682 10.8456 4.16379C11.1798 4.59633 11.3502 5.10811 11.3502 5.69584C11.3502 6.28356 11.1831 6.79535 10.8456 7.22789C10.3312 7.89155 9.47598 8.23825 8.64699 8.13259C8.1129 8.05995 7.65089 7.83212 7.26097 7.4359Z" fill="#F1562A"/>
</g>
</svg>
