<svg width="29" height="29" viewBox="0 0 29 29" fill="none" xmlns="http://www.w3.org/2000/svg">
    <path fill-rule="evenodd" clip-rule="evenodd" d="M14.5 2.58331C7.9186 2.58331 2.58333 7.91859 2.58333 14.5C2.58333 21.0814 7.9186 26.4167 14.5 26.4167C21.0814 26.4167 26.4167 21.0814 26.4167 14.5C26.4167 7.91859 21.0814 2.58331 14.5 2.58331ZM0.583328 14.5C0.583328 6.81402 6.81403 0.583313 14.5 0.583313C22.186 0.583313 28.4167 6.81402 28.4167 14.5C28.4167 22.1859 22.186 28.4167 14.5 28.4167C6.81403 28.4167 0.583328 22.1859 0.583328 14.5ZM14.5 8.33331C15.0523 8.33331 15.5 8.78103 15.5 9.33331V14.5C15.5 15.0523 15.0523 15.5 14.5 15.5C13.9477 15.5 13.5 15.0523 13.5 14.5V9.33331C13.5 8.78103 13.9477 8.33331 14.5 8.33331ZM13.5 19.6666C13.5 19.1144 13.9477 18.6666 14.5 18.6666H14.51C15.0623 18.6666 15.51 19.1144 15.51 19.6666C15.51 20.2189 15.0623 20.6666 14.51 20.6666H14.5C13.9477 20.6666 13.5 20.2189 13.5 19.6666Z" fill="#F1562A"/>
</svg>
